<svg width="100" height="100" viewBox="-4.098076211353317 -1.0000000000000022 8.098076211353316 10.196152422706632">
<polyline points="0.0,0.0 1.0,0.0 1.0,1.0 1.8660254037844388,1.5 1.8660254037844388,2.5 1.0,3.0 1.5,3.8660254037844384 2.5,3.8660254037844384 3.0,4.732050807568877 2.5,5.598076211353315 2.0,6.4641016151377535 2.5,7.330127018922192 2.0,8.19615242270663 1.0,8.19615242270663 0.9999999999999998,7.19615242270663 0.13397459621556118,6.69615242270663 -0.7320508075688775,7.19615242270663 -1.598076211353316,6.69615242270663 -1.098076211353316,5.830127018922192 -1.5980762113533165,4.9641016151377535 -2.5980762113533165,4.9641016151377535 -3.098076211353317,4.098076211353315 -2.2320508075688785,3.5980762113533147 -2.2320508075688785,2.5980762113533147 -1.3660254037844402,2.0980762113533142 -0.5000000000000011,2.5980762113533133 -9.992007221626409e-16,1.7320508075688748 -0.5000000000000014,0.8660254037844364 -1.3322676295501878e-15,-2.220446049250313e-15"/>
</svg>
