<?xml version="1.0" encoding="UTF-8" standalone="no"?>
<svg
   xmlns:dc="http://purl.org/dc/elements/1.1/"
   xmlns:cc="http://creativecommons.org/ns#"
   xmlns:rdf="http://www.w3.org/1999/02/22-rdf-syntax-ns#"
   xmlns:svg="http://www.w3.org/2000/svg"
   xmlns="http://www.w3.org/2000/svg"
   xmlns:sodipodi="http://sodipodi.sourceforge.net/DTD/sodipodi-0.dtd"
   xmlns:inkscape="http://www.inkscape.org/namespaces/inkscape"
   width="100"
   height="100"
   viewbox="214 246 64 53"
   version="1.1"
   id="svg3701"
   sodipodi:docname="dragonline.svg"
   inkscape:version="0.92.3 (2405546, 2018-03-11)">
  <metadata
     id="metadata3707">
    <rdf:RDF>
      <cc:Work
         rdf:about="">
        <dc:format>image/svg+xml</dc:format>
        <dc:type
           rdf:resource="http://purl.org/dc/dcmitype/StillImage" />
      </cc:Work>
    </rdf:RDF>
  </metadata>
  <defs
     id="defs3705" />
  <sodipodi:namedview
     pagecolor="#ffffff"
     bordercolor="#666666"
     borderopacity="1"
     objecttolerance="10"
     gridtolerance="10"
     guidetolerance="10"
     inkscape:pageopacity="0"
     inkscape:pageshadow="2"
     inkscape:window-width="2560"
     inkscape:window-height="1375"
     id="namedview3703"
     showgrid="false"
     inkscape:zoom="16"
     inkscape:cx="44.689181"
     inkscape:cy="52.464776"
     inkscape:window-x="0"
     inkscape:window-y="0"
     inkscape:window-maximized="1"
     inkscape:current-layer="svg3701" />
  <path
     id="line3699"
     style="stroke:#000000;stroke-width:0.37795275;stroke-linecap:square;stroke-miterlimit:4;stroke-dasharray:none;stroke-opacity:1"
     d="m 78.412064,56.975548 h 1 m 0,-1 v 1 m 0,-2 v 1 m -1,-1 h 1 m -1,-2 h 1 m 0,-1 v 1 m 0,-2 v 1 m -1,-1 h 1 m -1,-10 h 1 m 0,-1 v 1 m 0,-2 v 1 m -1,-1 h 1 m -1,-2 h 1 m 0,-1 v 1 m 0,-2 v 1 m -1,-1 h 1 m -2,22 h 1 m -1,-2 h 1 m -1,-2 h 1 m -1,-2 h 1 m -1,-10 h 1 m -1,-2 h 1 m -1,-2 h 1 m -1,-2 h 1 m -2,22 h 1 m 0,-3 v 1 m 0,-2 v 1 m 0,-4 v 1 m 0,-2 v 1 m -1,-1 h 1 m -1,-8 h 1 m 0,-3 v 1 m 0,-2 v 1 m 0,-4 v 1 m 0,-2 v 1 m -1,-1 h 1 m -2,24 h 1 m -1,-8 h 1 m -1,-8 h 1 m -1,-8 h 1 m -2,28 h 1 m 0,-1 v 1 m 0,-2 v 1 m -1,-1 h 1 m -1,-2 h 1 m -1,-4 h 1 m 0,-1 v 1 m 0,-2 v 1 m -1,-1 h 1 m -1,-2 h 1 m -1,-4 h 1 m 0,-1 v 1 m 0,-2 v 1 m -1,-1 h 1 m -1,-2 h 1 m -1,-4 h 1 m 0,-1 v 1 m 0,-2 v 1 m -1,-1 h 1 m -1,-2 h 1 m -2,28 h 1 m -1,-2 h 1 m -1,-2 h 1 m -1,-4 h 1 m -1,-2 h 1 m -1,-2 h 1 m -1,-4 h 1 m -1,-2 h 1 m -1,-2 h 1 m -1,-4 h 1 m -1,-2 h 1 m -1,-2 h 1 m -2,28 h 1 m 0,-3 v 1 m 0,-2 v 1 m -1,-5 h 1 m 0,-3 v 1 m 0,-2 v 1 m -1,-5 h 1 m 0,-3 v 1 m 0,-2 v 1 m -1,-5 h 1 m 0,-3 v 1 m 0,-2 v 1 m -2,27 h 1 m -1,-8 h 1 m -1,-8 h 1 m -1,-8 h 1 m -1,23 v 1 m 0,-2 v 1 m -1,-1 h 1 m 0,-7 v 1 m 0,-2 v 1 m -1,-1 h 1 m -1,-2 h 1 m 0,-1 v 1 m 0,-2 v 1 m -1,-1 h 1 m -1,-2 h 1 m 0,-9 v 1 m 0,-2 v 1 m -1,-1 h 1 m -1,-2 h 1 m 0,-1 v 1 m 0,-2 v 1 m -1,-1 h 1 m -1,-2 h 1 m 0,-1 v 1 m 0,-2 v 1 m -1,-1 h 1 m -2,32 h 1 m -1,-8 h 1 m -1,-2 h 1 m -1,-2 h 1 m -1,-2 h 1 m -1,-10 h 1 m -1,-2 h 1 m -1,-2 h 1 m -1,-2 h 1 m -1,-2 h 1 m -1,31 v 1 m 0,-2 v 1 m -1,-1 h 1 m 0,-7 v 1 m 0,-2 v 1 m 0,-4 v 1 m 0,-2 v 1 m 0,-12 v 1 m 0,-2 v 1 m 0,-4 v 1 m 0,-2 v 1 m 0,-4 v 1 m 0,-2 v 1 m -1,-1 h 1 m -2,32 h 1 m -1,-11 h 1 m 0,-1 v 1 m 0,-2 v 1 m 0,-2 v 1 m 0,-2 v 1 m -1,-1 h 1 m -1,-4 h 1 m 0,-1 v 1 m 0,-2 v 1 m 0,-2 v 1 m 0,-2 v 1 m -1,-1 h 1 m -1,-9 h 1 m -2,36 h 1 m 0,-1 v 1 m 0,-2 v 1 m -1,-1 h 1 m -1,-2 h 1 m -1,-11 h 1 m -1,-4 h 1 m -1,-4 h 1 m -1,-4 h 1 m -1,-5 h 1 m 0,-1 v 1 m 0,-2 v 1 m -1,-1 h 1 m -1,-2 h 1 m -2,36 h 1 m -1,-2 h 1 m -1,-2 h 1 m -1,-9 h 1 m 0,-1 v 1 m 0,-2 v 1 m -1,-3 h 1 m 0,-1 v 1 m 0,-2 v 1 m -1,-3 h 1 m 0,-1 v 1 m 0,-2 v 1 m -1,-3 h 1 m 0,-1 v 1 m 0,-2 v 1 m -1,-6 h 1 m -1,-2 h 1 m -1,-2 h 1 m -2,36 h 1 m 0,-3 v 1 m 0,-2 v 1 m -1,-10 h 1 m -1,-4 h 1 m -1,-4 h 1 m -1,-4 h 1 m -1,-7 h 1 m 0,-3 v 1 m 0,-2 v 1 m -2.000004,35 h 1.000004 m 0,-14 v 1 m 0,-2 v 1 m -1.000004,-1 h 1.000004 m 0,-3 v 1 m 0,-2 v 1 m 0,-2 v 1 m 0,-2 v 1 m 0,-6 v 1 m 0,-2 v 1 m 0,-2 v 1 m 0,-2 v 1 m 0,-2 v 1 m 0,-2 v 1 m -1.000004,-1 h 1.000004 m -1.000004,-1 h 1.000004 m -2.000004,44 h 1 m 0,-1 v 1 m 0,-2 v 1 m -1,-1 h 1 m -1,-2 h 1 m 0,-1 v 1 m 0,-2 v 1 m -1,-1 h 1 m 0,-7 v 1 m 0,-2 v 1 m -1,-1 h 1 m -1,-13 h 1 m -1,-16 h 1 m 0,-2 v 1 m 0,-2 v 1 m -1,-1 h 1 m -2,46 h 1 m -1,-2 h 1 m -1,-2 h 1 m -1,-2 h 1 m -1,-8 h 1 m -1,-11 h 1 m 0,-1 v 1 m 0,-2 v 1 m -1,-15 h 1 m 0,-1 v 1 m 0,-2 v 1 m -1,-4 h 1 m -2,46 h 1 m 0,-3 v 1 m 0,-2 v 1 m 0,-4 v 1 m 0,-2 v 1 m -1,-1 h 1 m 0,-7 v 1 m 0,-2 v 1 m -1,-1 h 1 m -1,-9 h 1 m -1,-16 h 1 m 0,-6 v 1 m 0,-2 v 1 m -1,-1 h 1 m -2,48 h 1 m -1,-8 h 1 m -1,-8 h 1 m -1,-3 h 1 m 0,-1 v 1 m 0,-2 v 1 m 0,-2 v 1 m 0,-2 v 1 m -1,-1 h 1 m 0,-3 v 1 m 0,-2 v 1 m -1,-1 h 1 m 0,-15 v 1 m 0,-2 v 1 m -1,-1 h 1 m -1,-5 h 1 m -2,52 h 1 m 0,-1 v 1 m 0,-2 v 1 m -1,-1 h 1 m -1,-2 h 1 m -1,-4 h 1 m 0,-1 v 1 m 0,-2 v 1 m -1,-1 h 1 m -1,-2 h 1 m -1,-4 h 1 m 0,-1 v 1 m 0,-2 v 1 m -1,-1 h 1 m -1,-2 h 1 m -1,-3 h 1 m -1,-4 h 1 m -1,-4 h 1 m -1,-9 h 1 m 0,-1 v 1 m 0,-2 v 1 m -1,-1 h 1 m -1,-5 h 1 m -1,-1 h 1 m 0,-1 v 1 m 0,-2 v 1 m -1,-1 h 1 m -1,-2 h 1 m -2,52 h 1 m -1,-2 h 1 m -1,-2 h 1 m -1,-4 h 1 m -1,-2 h 1 m -1,-2 h 1 m -1,-4 h 1 m -1,-2 h 1 m -1,-2 h 1 m -1,-1 h 1 m 0,-1 v 1 m 0,-2 v 1 m -1,-3 h 1 m 0,-1 v 1 m 0,-2 v 1 m -1,-3 h 1 m 0,-1 v 1 m 0,-2 v 1 m -1,-10 h 1 m -1,-1 h 1 m 0,-1 v 1 m -1,-4 h 1 m 0,-1 v 1 m 0,-2 v 1 m -1,-2 h 1 m -1,-2 h 1 m -1,-2 h 1 m -2,52 h 1 m 0,-3 v 1 m 0,-2 v 1 m -1,-5 h 1 m 0,-3 v 1 m 0,-2 v 1 m -1,-5 h 1 m 0,-3 v 1 m 0,-2 v 1 m -1,-2 h 1 m -1,-4 h 1 m -1,-4 h 1 m -1,-11 h 1 m -1,-1 h 1 m -1,-4 h 1 m -1,-3 h 1 m 0,-3 v 1 m 0,-2 v 1 m -2,51 h 1 m -1,-8 h 1 m -1,-8 h 1 m 0,-6 v 1 m 0,-2 v 1 m -1,-1 h 1 m 0,-3 v 1 m 0,-2 v 1 m 0,-2 v 1 m 0,-2 v 1 m -1,-12 h 1 m 0,-2 v 1 m 0,-2 v 1 m 0,-2 v 1 m 0,-2 v 1 m -1,-4 h 1 m -1,47 v 1 m 0,-2 v 1 m -1,-1 h 1 m 0,-7 v 1 m 0,-2 v 1 m -1,-1 h 1 m -1,-2 h 1 m 0,-1 v 1 m 0,-2 v 1 m -1,-1 h 1 m -1,-2 h 1 m -1,-7 h 1 m 0,-18 v 1 m 0,-2 v 1 m -1,-1 h 1 m -1,-2 h 1 m 0,-1 v 1 m 0,-2 v 1 m -1,-1 h 1 m -1,-2 h 1 m -2,46 h 1 m -1,-8 h 1 m -1,-2 h 1 m -1,-2 h 1 m -1,-2 h 1 m -1,-5 h 1 m 0,-1 v 1 m 0,-2 v 1 m -1,-20 h 1 m -1,-2 h 1 m -1,-2 h 1 m -1,-2 h 1 m -1,45 v 1 m 0,-2 v 1 m -1,-1 h 1 m 0,-7 v 1 m 0,-2 v 1 m 0,-4 v 1 m 0,-2 v 1 m -1,-6 h 1 m 0,-22 v 1 m 0,-2 v 1 m 0,-4 v 1 m 0,-2 v 1 m -2,43 h 1 m 0,-18 v 1 m 0,-2 v 1 m 0,-2 v 1 m 0,-2 v 1 m 0,-2 v 1 m 0,-2 v 1 m -1,-1 h 1 m -2,27 h 1 m 0,-1 v 1 m 0,-2 v 1 m -1,-1 h 1 m -1,-2 h 1 m -1,-23 h 1 m -2,27 h 1 m -1,-2 h 1 m -1,-2 h 1 m -1,-21 h 1 m 0,-1 v 1 m 0,-2 v 1 m -2,26 h 1 m 0,-3 v 1 m 0,-2 v 1 m -1,-22 h 1 m -2,25 h 1 m 0,-26 v 1 m 0,-2 v 1 m 0,-2 v 1 m 0,-2 v 1 m 0,-2 v 1 m 0,-2 v 1 m -1,-1 h 1 m -1,30 v 1 m 0,-2 v 1 m -1,-1 h 1 m -1,-2 h 1 m 0,-1 v 1 m 0,-2 v 1 m -1,-1 h 1 m -1,-2 h 1 m 0,-1 v 1 m 0,-2 v 1 m -1,-1 h 1 m -1,-21 h 1 m -2,29 h 1 m -1,-2 h 1 m -1,-2 h 1 m -1,-2 h 1 m -1,-2 h 1 m -1,-19 h 1 m 0,-1 v 1 m 0,-2 v 1 m -1,27 v 1 m 0,-2 v 1 m 0,-4 v 1 m 0,-2 v 1 m 0,-4 v 1 m 0,-2 v 1 m -1,-1 h 1 m -1,-17 h 1 m -2,17 h 1 m -1,-11 h 1 m 0,-1 v 1 m 0,-2 v 1 m 0,-2 v 1 m 0,-2 v 1 m -1,-1 h 1 m 0,-3 v 1 m 0,-2 v 1 m -1,-1 h 1 m -2,23 h 1 m 0,-1 v 1 m 0,-2 v 1 m -1,-1 h 1 m -1,-2 h 1 m -1,-11 h 1 m -1,-4 h 1 m -1,-4 h 1 m -2,23 h 1 m -1,-2 h 1 m -1,-2 h 1 m -1,-9 h 1 m 0,-1 v 1 m 0,-2 v 1 m -1,-3 h 1 m 0,-1 v 1 m 0,-2 v 1 m -1,-3 h 1 m 0,-1 v 1 m 0,-2 v 1 m -2,22 h 1 m 0,-3 v 1 m 0,-2 v 1 m -1,-10 h 1 m -1,-4 h 1 m -1,-4 h 1 m -2,21 h 1 m 0,-14 v 1 m 0,-2 v 1 m -1,-1 h 1 m 0,-3 v 1 m 0,-2 v 1 m 0,-2 v 1 m 0,-2 v 1 m -1,19 v 1 m 0,-2 v 1 m -1,-1 h 1 m -1,-2 h 1 m 0,-1 v 1 m 0,-2 v 1 m -1,-1 h 1 m -1,-2 h 1 m 0,-1 v 1 m 0,-2 v 1 m -1,-1 h 1 m -1,-5 h 1 m -2,13 h 1 m -1,-2 h 1 m -1,-2 h 1 m -1,-2 h 1 m -1,-2 h 1 m -1,-3 h 1 m 0,-1 v 1 m 0,-2 v 1 m -1,11 v 1 m 0,-2 v 1 m 0,-4 v 1 m 0,-2 v 1 m 0,-4 v 1 m 0,-2 v 1 m -1,-1 h 1 m -1,-1 h 1 m -2,1 h 1 m 0,-2 v 1 m 0,-2 v 1 m 0,-2 v 1 m 0,-2 v 1 m 0,-2 v 1 m 0,-2 v 1 m -1,-1 h 1 m -2,11 h 1 m 0,-1 v 1 m 0,-2 v 1 m -1,-1 h 1 m -1,-2 h 1 m -1,-7 h 1 m -2,11 h 1 m -1,-2 h 1 m -1,-2 h 1 m -1,-5 h 1 m 0,-1 v 1 m 0,-2 v 1 m -2,10 h 1 m 0,-3 v 1 m 0,-2 v 1 m -1,-6 h 1 m -1.999998,9 h 0.999998 m 0,-10 v 1 m 0,-2 v 1 m 0,-2 v 1 m 0,-2 v 1 m 0,-2 v 1 m 0,-2 v 1 m -0.999998,-1 h 0.999998 m -0.999998,14 v 1 m 0,-2 v 1 m -1,-1 h 1 m -1,-13 h 1 m -2,13 h 1 m -1,-11 h 1 m 0,-1 v 1 m 0,-2 v 1 m -1,11 v 1 m 0,-2 v 1 m -1,-1 h 1 m -1,-9 h 1 m -2,22 h 1 m 0,-1 v 1 m 0,-2 v 1 m 0,-2 v 1 m 0,-2 v 1 m -1,-1 h 1 m -1,-9 h 1 m -1,-3 h 1 m 0,-1 v 1 m 0,-2 v 1 m 0,-2 v 1 m 0,-2 v 1 m -1,-1 h 1 m 0,-3 v 1 m 0,-2 v 1 m -1,-1 h 1 m -2,24 h 1 m -1,-1 h 1 m 0,-1 v 1 m 0,-2 v 1 m -1,-1 h 1 m -1,-1 h 1 m -1,-5 h 1 m 0,-1 v 1 m 0,-2 v 1 m -1,-1 h 1 m -1,-2 h 1 m -1,-3 h 1 m -1,-4 h 1 m -1,-4 h 1 m -2,26 h 1 m 0,-1 v 1 m 0,-2 v 1 m -1,-2 h 1 m 0,-3 v 1 m -1,-6 h 1 m -1,-2 h 1 m -1,-2 h 1 m -1,-1 h 1 m 0,-1 v 1 m 0,-2 v 1 m -1,-3 h 1 m 0,-1 v 1 m 0,-2 v 1 m -1,-3 h 1 m 0,-1 v 1 m 0,-2 v 1 m -2,25 h 1 m -1,-3 h 1 m -1,-8 h 1 m 0,-3 v 1 m 0,-2 v 1 m -1,-2 h 1 m -1,-4 h 1 m -1,-4 h 1 m -1,23 v 1 m 0,-2 v 1 m -1,-1 h 1 m -1,-1 h 1 m -1,-8 h 1 m 0,-6 v 1 m 0,-2 v 1 m -1,-1 h 1 m 0,-3 v 1 m 0,-2 v 1 m 0,-2 v 1 m 0,-2 v 1 m -2,21 h 1 m 0,-2 v 1 m 0,-2 v 1 m -1,-1 h 1 m -1,-2 h 1 m 0,-1 v 1 m 0,-2 v 1 m -1,-1 h 1 m -1,-2 h 1 m -1,-7 h 1 m -2,18 h 1 m 0,-1 v 1 m 0,-2 v 1 m -1,-4 h 1 m -1,-2 h 1 m -1,-2 h 1 m -1,-2 h 1 m -1,-5 h 1 m 0,-1 v 1 m 0,-2 v 1 m -2,17 h 1 m 0,-6 v 1 m 0,-2 v 1 m 0,-4 v 1 m 0,-2 v 1 m -1,-6 h 1 m -1,15 v 1 m 0,-2 v 1 m 0,-2 v 1 m 0,-2 v 1 m 0,-2 v 1 m 0,-2 v 1 m -1,-1 h 1 m -1,-4 h 1 m 0,-1 v 1 m 0,-2 v 1 m 0,-2 v 1 m 0,-2 v 1 m -1,-1 h 1 m 0,-3 v 1 m 0,-2 v 1 m -1,-1 h 1 m -2,12 h 1 m -1,-4 h 1 m -1,-4 h 1 m -1,-4 h 1 m -2,14 h 1 m 0,-1 v 1 m 0,-2 v 1 m -1,-3 h 1 m 0,-1 v 1 m 0,-2 v 1 m -1,-3 h 1 m 0,-1 v 1 m 0,-2 v 1 m -1,-3 h 1 m 0,-1 v 1 m 0,-2 v 1 m -2,13 h 1 m -1,-4 h 1 m -1,-4 h 1 m -1,-4 h 1 m -1,11 v 1 m 0,-2 v 1 m 0,-2 v 1 m 0,-2 v 1 m 0,-6 v 1 m 0,-2 v 1 m 0,-2 v 1 m 0,-2 v 1" />
</svg>
