<svg width="100" height="100" viewBox="27 22 24 16">
<polyline points="27.5,26.5 27.5,27.5 27.5,28.5 28.5,28.5 29.5,28.5 29.5,29.5 29.5,30.5 28.5,30.5 27.5,30.5 27.5,31.5 27.5,32.5 28.5,32.5 29.5,32.5 29.5,33.5 29.5,34.5 30.5,34.5 31.5,34.5 32.5,34.5 33.5,34.5 33.5,33.5 33.5,32.5 32.5,32.5 32.5,33.5 31.5,33.5 30.5,33.5 30.5,32.5 30.5,31.5 30.5,30.5 30.5,29.5 31.5,29.5 32.5,29.5 32.5,28.5 32.5,27.5 33.5,27.5 34.5,27.5 34.5,28.5 34.5,29.5 35.5,29.5 36.5,29.5 36.5,28.5 36.5,27.5 37.5,27.5 38.5,27.5 38.5,28.5 38.5,29.5 38.5,30.5 38.5,31.5 38.5,32.5 38.5,33.5 39.5,33.5 40.5,33.5 40.5,32.5 40.5,31.5 41.5,31.5 42.5,31.5 42.5,32.5 42.5,33.5 42.5,34.5 42.5,35.5 42.5,36.5 42.5,37.5 43.5,37.5 44.5,37.5 44.5,36.5 44.5,35.5 45.5,35.5 46.5,35.5 46.5,36.5 46.5,37.5 47.5,37.5 48.5,37.5 48.5,36.5 48.5,35.5 49.5,35.5 50.5,35.5 50.5,34.5 50.5,33.5 50.5,32.5 50.5,31.5 49.5,31.5 48.5,31.5 48.5,32.5 49.5,32.5 49.5,33.5 49.5,34.5 48.5,34.5 47.5,34.5 46.5,34.5 45.5,34.5 45.5,33.5 45.5,32.5 44.5,32.5 43.5,32.5 43.5,31.5 43.5,30.5 44.5,30.5 45.5,30.5 45.5,29.5 45.5,28.5 44.5,28.5 43.5,28.5 43.5,27.5 43.5,26.5 44.5,26.5 45.5,26.5 45.5,25.5 45.5,24.5 44.5,24.5 43.5,24.5 43.5,23.5 43.5,22.5 42.5,22.5 41.5,22.5 40.5,22.5 39.5,22.5 39.5,23.5 39.5,24.5 40.5,24.5 41.5,24.5 41.5,25.5 41.5,26.5 40.5,26.5 39.5,26.5 38.5,26.5 37.5,26.5 37.5,25.5 37.5,24.5 36.5,24.5 35.5,24.5 35.5,23.5 35.5,22.5 34.5,22.5 33.5,22.5 32.5,22.5 31.5,22.5 31.5,23.5 31.5,24.5 32.5,24.5 33.5,24.5 33.5,25.5 33.5,26.5 32.5,26.5 31.5,26.5 30.5,26.5 29.5,26.5 28.5,26.5 27.5,26.5"/>
</svg>