<svg width="100" height="100" viewBox="86 118 64 53">
<polyline points="86.5,149.5 86.5,150.5 86.5,151.5 86.5,152.5 86.5,153.5 87.5,153.5 88.5,153.5 88.5,152.5 88.5,151.5 89.5,151.5 90.5,151.5 90.5,152.5 90.5,153.5 90.5,154.5 90.5,155.5 89.5,155.5 88.5,155.5 88.5,156.5 88.5,157.5 87.5,157.5 86.5,157.5 86.5,158.5 86.5,159.5 86.5,160.5 86.5,161.5 87.5,161.5 88.5,161.5 88.5,160.5 88.5,159.5 89.5,159.5 90.5,159.5 90.5,160.5 90.5,161.5 90.5,162.5 90.5,163.5 90.5,164.5 90.5,165.5 91.5,165.5 92.5,165.5 92.5,164.5 92.5,163.5 93.5,163.5 94.5,163.5 94.5,164.5 94.5,165.5 95.5,165.5 96.5,165.5 96.5,164.5 96.5,163.5 97.5,163.5 98.5,163.5 98.5,162.5 98.5,161.5 98.5,160.5 98.5,159.5 97.5,159.5 96.5,159.5 96.5,160.5 97.5,160.5 97.5,161.5 97.5,162.5 96.5,162.5 95.5,162.5 94.5,162.5 93.5,162.5 93.5,161.5 93.5,160.5 92.5,160.5 91.5,160.5 91.5,159.5 91.5,158.5 92.5,158.5 93.5,158.5 93.5,157.5 93.5,156.5 92.5,156.5 91.5,156.5 91.5,155.5 91.5,154.5 92.5,154.5 93.5,154.5 94.5,154.5 95.5,154.5 96.5,154.5 97.5,154.5 97.5,153.5 97.5,152.5 96.5,152.5 95.5,152.5 95.5,151.5 95.5,150.5 96.5,150.5 97.5,150.5 98.5,150.5 99.5,150.5 99.5,151.5 99.5,152.5 100.5,152.5 101.5,152.5 101.5,153.5 101.5,154.5 102.5,154.5 103.5,154.5 104.5,154.5 105.5,154.5 105.5,153.5 105.5,152.5 104.5,152.5 103.5,152.5 103.5,151.5 103.5,150.5 104.5,150.5 105.5,150.5 106.5,150.5 107.5,150.5 107.5,151.5 107.5,152.5 108.5,152.5 109.5,152.5 109.5,153.5 109.5,154.5 108.5,154.5 107.5,154.5 107.5,155.5 107.5,156.5 108.5,156.5 109.5,156.5 109.5,157.5 109.5,158.5 108.5,158.5 107.5,158.5 107.5,159.5 107.5,160.5 108.5,160.5 109.5,160.5 109.5,161.5 109.5,162.5 110.5,162.5 111.5,162.5 112.5,162.5 113.5,162.5 113.5,161.5 113.5,160.5 112.5,160.5 111.5,160.5 111.5,159.5 111.5,158.5 112.5,158.5 113.5,158.5 114.5,158.5 115.5,158.5 115.5,159.5 115.5,160.5 116.5,160.5 117.5,160.5 117.5,161.5 117.5,162.5 116.5,162.5 115.5,162.5 115.5,163.5 115.5,164.5 116.5,164.5 117.5,164.5 117.5,165.5 117.5,166.5 116.5,166.5 115.5,166.5 115.5,167.5 115.5,168.5 116.5,168.5 117.5,168.5 117.5,169.5 117.5,170.5 118.5,170.5 119.5,170.5 120.5,170.5 121.5,170.5 121.5,169.5 121.5,168.5 120.5,168.5 119.5,168.5 119.5,167.5 119.5,166.5 120.5,166.5 121.5,166.5 122.5,166.5 123.5,166.5 123.5,167.5 123.5,168.5 124.5,168.5 125.5,168.5 125.5,169.5 125.5,170.5 126.5,170.5 127.5,170.5 128.5,170.5 129.5,170.5 129.5,169.5 129.5,168.5 128.5,168.5 127.5,168.5 127.5,167.5 127.5,166.5 128.5,166.5 129.5,166.5 130.5,166.5 131.5,166.5 132.5,166.5 133.5,166.5 133.5,165.5 133.5,164.5 132.5,164.5 131.5,164.5 131.5,163.5 131.5,162.5 132.5,162.5 133.5,162.5 133.5,161.5 133.5,160.5 132.5,160.5 131.5,160.5 131.5,159.5 131.5,158.5 130.5,158.5 129.5,158.5 128.5,158.5 127.5,158.5 127.5,159.5 127.5,160.5 128.5,160.5 129.5,160.5 129.5,161.5 129.5,162.5 128.5,162.5 127.5,162.5 126.5,162.5 125.5,162.5 125.5,161.5 125.5,160.5 124.5,160.5 123.5,160.5 123.5,159.5 123.5,158.5 124.5,158.5 125.5,158.5 125.5,157.5 125.5,156.5 124.5,156.5 123.5,156.5 123.5,155.5 123.5,154.5 124.5,154.5 125.5,154.5 126.5,154.5 127.5,154.5 128.5,154.5 129.5,154.5 129.5,153.5 129.5,152.5 128.5,152.5 127.5,152.5 127.5,151.5 127.5,150.5 128.5,150.5 129.5,150.5 130.5,150.5 131.5,150.5 131.5,151.5 131.5,152.5 132.5,152.5 133.5,152.5 133.5,153.5 133.5,154.5 134.5,154.5 135.5,154.5 136.5,154.5 137.5,154.5 137.5,153.5 137.5,152.5 136.5,152.5 135.5,152.5 135.5,151.5 135.5,150.5 136.5,150.5 137.5,150.5 138.5,150.5 139.5,150.5 139.5,151.5 139.5,152.5 140.5,152.5 141.5,152.5 141.5,153.5 141.5,154.5 142.5,154.5 143.5,154.5 144.5,154.5 145.5,154.5 145.5,153.5 145.5,152.5 144.5,152.5 143.5,152.5 143.5,151.5 143.5,150.5 144.5,150.5 145.5,150.5 146.5,150.5 147.5,150.5 148.5,150.5 149.5,150.5 149.5,149.5 149.5,148.5 148.5,148.5 147.5,148.5 147.5,147.5 147.5,146.5 148.5,146.5 149.5,146.5 149.5,145.5 149.5,144.5 148.5,144.5 147.5,144.5 147.5,143.5 147.5,142.5 146.5,142.5 145.5,142.5 144.5,142.5 143.5,142.5 143.5,143.5 143.5,144.5 144.5,144.5 145.5,144.5 145.5,145.5 145.5,146.5 144.5,146.5 143.5,146.5 142.5,146.5 141.5,146.5 141.5,145.5 141.5,144.5 140.5,144.5 139.5,144.5 139.5,143.5 139.5,142.5 140.5,142.5 141.5,142.5 141.5,141.5 141.5,140.5 140.5,140.5 139.5,140.5 139.5,139.5 139.5,138.5 140.5,138.5 141.5,138.5 142.5,138.5 143.5,138.5 144.5,138.5 145.5,138.5 145.5,137.5 145.5,136.5 144.5,136.5 143.5,136.5 143.5,135.5 143.5,134.5 144.5,134.5 145.5,134.5 146.5,134.5 147.5,134.5 148.5,134.5 149.5,134.5 149.5,133.5 149.5,132.5 148.5,132.5 147.5,132.5 147.5,131.5 147.5,130.5 148.5,130.5 149.5,130.5 149.5,129.5 149.5,128.5 148.5,128.5 147.5,128.5 147.5,127.5 147.5,126.5 146.5,126.5 145.5,126.5 144.5,126.5 143.5,126.5 143.5,127.5 143.5,128.5 144.5,128.5 145.5,128.5 145.5,129.5 145.5,130.5 144.5,130.5 143.5,130.5 142.5,130.5 141.5,130.5 141.5,129.5 141.5,128.5 140.5,128.5 139.5,128.5 139.5,127.5 139.5,126.5 140.5,126.5 141.5,126.5 141.5,125.5 141.5,124.5 140.5,124.5 139.5,124.5 139.5,123.5 139.5,122.5 140.5,122.5 141.5,122.5 141.5,121.5 141.5,120.5 140.5,120.5 139.5,120.5 139.5,119.5 139.5,118.5 138.5,118.5 137.5,118.5 136.5,118.5 135.5,118.5 135.5,119.5 135.5,120.5 136.5,120.5 137.5,120.5 137.5,121.5 137.5,122.5 136.5,122.5 135.5,122.5 134.5,122.5 133.5,122.5 133.5,121.5 133.5,120.5 132.5,120.5 131.5,120.5 131.5,119.5 131.5,118.5 130.5,118.5 129.5,118.5 128.5,118.5 127.5,118.5 127.5,119.5 127.5,120.5 128.5,120.5 129.5,120.5 129.5,121.5 129.5,122.5 128.5,122.5 127.5,122.5 126.5,122.5 125.5,122.5 124.5,122.5 123.5,122.5 123.5,123.5 123.5,124.5 124.5,124.5 125.5,124.5 125.5,125.5 125.5,126.5 124.5,126.5 123.5,126.5 123.5,127.5 123.5,128.5 124.5,128.5 125.5,128.5 125.5,129.5 125.5,130.5 126.5,130.5 127.5,130.5 128.5,130.5 129.5,130.5 129.5,129.5 129.5,128.5 128.5,128.5 128.5,129.5 127.5,129.5 126.5,129.5 126.5,128.5 126.5,127.5 126.5,126.5 126.5,125.5 127.5,125.5 128.5,125.5 128.5,124.5 128.5,123.5 129.5,123.5 130.5,123.5 130.5,124.5 130.5,125.5 131.5,125.5 132.5,125.5 132.5,124.5 132.5,123.5 133.5,123.5 134.5,123.5 134.5,124.5 134.5,125.5 134.5,126.5 134.5,127.5 134.5,128.5 134.5,129.5 135.5,129.5 136.5,129.5 136.5,128.5 136.5,127.5 137.5,127.5 138.5,127.5 138.5,128.5 138.5,129.5 138.5,130.5 138.5,131.5 137.5,131.5 136.5,131.5 136.5,132.5 136.5,133.5 135.5,133.5 134.5,133.5 134.5,134.5 134.5,135.5 134.5,136.5 134.5,137.5 135.5,137.5 136.5,137.5 136.5,136.5 136.5,135.5 137.5,135.5 138.5,135.5 138.5,136.5 138.5,137.5 138.5,138.5 138.5,139.5 137.5,139.5 136.5,139.5 136.5,140.5 136.5,141.5 135.5,141.5 134.5,141.5 134.5,140.5 134.5,139.5 133.5,139.5 132.5,139.5 132.5,140.5 132.5,141.5 131.5,141.5 130.5,141.5 130.5,140.5 130.5,139.5 129.5,139.5 128.5,139.5 128.5,140.5 128.5,141.5 127.5,141.5 126.5,141.5 126.5,142.5 126.5,143.5 126.5,144.5 126.5,145.5 127.5,145.5 128.5,145.5 128.5,144.5 128.5,143.5 129.5,143.5 130.5,143.5 130.5,144.5 130.5,145.5 130.5,146.5 130.5,147.5 129.5,147.5 128.5,147.5 128.5,148.5 128.5,149.5 127.5,149.5 126.5,149.5 126.5,148.5 126.5,147.5 125.5,147.5 124.5,147.5 124.5,148.5 124.5,149.5 123.5,149.5 122.5,149.5 122.5,148.5 122.5,147.5 122.5,146.5 122.5,145.5 122.5,144.5 122.5,143.5 121.5,143.5 120.5,143.5 120.5,144.5 120.5,145.5 119.5,145.5 118.5,145.5 118.5,144.5 118.5,143.5 118.5,142.5 118.5,141.5 118.5,140.5 118.5,139.5 117.5,139.5 116.5,139.5 116.5,140.5 116.5,141.5 115.5,141.5 114.5,141.5 114.5,140.5 114.5,139.5 113.5,139.5 112.5,139.5 112.5,140.5 112.5,141.5 111.5,141.5 110.5,141.5 110.5,142.5 110.5,143.5 110.5,144.5 110.5,145.5 111.5,145.5 112.5,145.5 112.5,144.5 112.5,143.5 113.5,143.5 114.5,143.5 114.5,144.5 114.5,145.5 114.5,146.5 114.5,147.5 113.5,147.5 112.5,147.5 112.5,148.5 112.5,149.5 111.5,149.5 110.5,149.5 110.5,148.5 110.5,147.5 109.5,147.5 108.5,147.5 108.5,148.5 108.5,149.5 107.5,149.5 106.5,149.5 106.5,148.5 106.5,147.5 106.5,146.5 106.5,145.5 106.5,144.5 106.5,143.5 105.5,143.5 104.5,143.5 104.5,144.5 104.5,145.5 103.5,145.5 102.5,145.5 102.5,144.5 102.5,143.5 102.5,142.5 102.5,141.5 102.5,140.5 102.5,139.5 101.5,139.5 100.5,139.5 100.5,140.5 100.5,141.5 99.5,141.5 98.5,141.5 98.5,140.5 98.5,139.5 97.5,139.5 96.5,139.5 96.5,140.5 96.5,141.5 95.5,141.5 94.5,141.5 94.5,142.5 94.5,143.5 94.5,144.5 94.5,145.5 95.5,145.5 96.5,145.5 96.5,144.5 96.5,143.5 97.5,143.5 98.5,143.5 98.5,144.5 98.5,145.5 98.5,146.5 98.5,147.5 97.5,147.5 96.5,147.5 96.5,148.5 96.5,149.5 95.5,149.5 94.5,149.5 94.5,148.5 94.5,147.5 93.5,147.5 92.5,147.5 92.5,148.5 92.5,149.5 91.5,149.5 90.5,149.5 90.5,148.5 90.5,147.5 89.5,147.5 88.5,147.5 88.5,148.5 88.5,149.5 87.5,149.5 86.5,149.5"/>
</svg>