    <svg width="200" height="200" viewBox="-1.0000000000000016 -2.732050807568877 26.0 7.1961524227066365">
    <polyline fill='red' points="0.0,0.0 1.0,0.0 2.0,-1.7320508075688772 3.0,0.0 5.0,0.0 6.0,-1.7320508075688772 7.0,0.0 9.0,0.0 10.0,-1.7320508075688772 11.0,0.0 13.0,0.0 14.0,-1.7320508075688772 15.0,0.0 17.0,0.0 18.0,-1.7320508075688772 19.0,0.0 21.0,0.0 22.0,-1.7320508075688772 24.0,1.7320508075688772 23.0,3.4641016151377544 21.0,3.464101615137755 20.0,1.732050807568878 19.0,3.4641016151377553 17.0,3.4641016151377557 16.0,1.732050807568879 15.0,3.464101615137756 13.0,3.4641016151377566 12.0,1.7320508075688799 11.0,3.464101615137757 9.0,3.4641016151377575 7.999999999999999,1.7320508075688807 7.0,3.464101615137758 5.0,3.4641016151377584 3.999999999999999,1.7320508075688816 2.9999999999999996,3.464101615137759 0.9999999999999996,3.4641016151377593 -1.3322676295501878e-15,1.7320508075688825 -1.6504402011676599e-15,5.329070518200751e-15"/>
    </svg>