<?xml version="1.0" encoding="UTF-8" standalone="no"?>
<!-- Created with Inkscape (http://www.inkscape.org/) -->

<svg
   width="210mm"
   height="297mm"
   viewBox="0 0 210 297"
   version="1.1"
   id="svg1"
   inkscape:version="1.3.2 (091e20ef0f, 2023-11-25, custom)"
   sodipodi:docname="heesch-purple.svg"
   xmlns:inkscape="http://www.inkscape.org/namespaces/inkscape"
   xmlns:sodipodi="http://sodipodi.sourceforge.net/DTD/sodipodi-0.dtd"
   xmlns="http://www.w3.org/2000/svg"
   xmlns:svg="http://www.w3.org/2000/svg">
  <sodipodi:namedview
     id="namedview1"
     pagecolor="#ffffff"
     bordercolor="#000000"
     borderopacity="0.25"
     inkscape:showpageshadow="2"
     inkscape:pageopacity="0.0"
     inkscape:pagecheckerboard="0"
     inkscape:deskcolor="#d1d1d1"
     inkscape:document-units="mm"
     inkscape:zoom="1.012009"
     inkscape:cx="397.22968"
     inkscape:cy="561.25984"
     inkscape:window-width="2560"
     inkscape:window-height="1360"
     inkscape:window-x="0"
     inkscape:window-y="0"
     inkscape:window-maximized="1"
     inkscape:current-layer="layer1" />
  <defs
     id="defs1" />
  <g
     inkscape:label="Layer 1"
     inkscape:groupmode="layer"
     id="layer1">
    <path
       id="path412-4-1-2"
       d="m 31.665069,179.23777 2.26577,3.92353 -2.26577,3.92404 2.26577,3.92406 h 4.53099 l 2.26522,-3.92406 -2.26522,-3.92404 2.26522,-3.92353 h 4.530986 l 2.26523,3.92353 h 4.53099 l 2.26523,3.92404 h 4.53099 l 2.26576,-3.92404 -2.26576,-3.92353 h -4.53099 l -2.26523,-3.92404 2.26523,-3.92406 -2.26523,-3.92351 2.26523,-3.92407 -2.26523,-3.92408 h -4.53099 l -2.26523,3.92408 2.26523,3.92407 -2.26523,3.92351 h -4.530986 l -2.26522,3.92406 h -4.53099 z"
       style="fill:#808080;fill-opacity:1;fill-rule:nonzero;stroke:#000000;stroke-width:0.53287;stroke-linecap:butt;stroke-linejoin:miter;stroke-miterlimit:10;stroke-dasharray:none;stroke-opacity:1" />
    <path
       id="path412-4-9-0-9"
       d="m 54.193352,174.24387 2.26577,-3.92353 -2.26577,-3.92405 2.26577,-3.92408 h 4.53099 l 2.26522,3.92408 -2.26522,3.92405 2.26522,3.92353 h 4.530989 l 2.265228,-3.92353 h 4.53099 l 2.26523,-3.92405 h 4.53099 l 2.26576,3.92405 -2.26576,3.92353 h -4.53099 l -2.26523,3.92404 2.26523,3.92406 -2.26523,3.92351 2.26523,3.92405 -2.26523,3.92405 h -4.53099 l -2.265228,-3.92405 2.265228,-3.92405 -2.265228,-3.92351 h -4.530989 l -2.26522,-3.92406 h -4.53099 z"
       style="fill:#808080;fill-opacity:1;fill-rule:nonzero;stroke:#000000;stroke-width:0.53287;stroke-linecap:butt;stroke-linejoin:miter;stroke-miterlimit:10;stroke-dasharray:none;stroke-opacity:1" />
    <path
       id="path412-4-8-85-0"
       d="m 77.140599,179.45641 2.26577,3.92353 -2.26577,3.92404 2.26577,3.92406 h 4.53099 l 2.26522,-3.92406 -2.26522,-3.92404 2.26522,-3.92353 h 4.53099 l 2.26523,3.92353 h 4.53099 l 2.26523,3.92404 h 4.530991 l 2.26576,-3.92404 -2.26576,-3.92353 h -4.530991 l -2.26523,-3.92404 2.26523,-3.92406 -2.26523,-3.92351 2.26523,-3.92407 -2.26523,-3.92408 h -4.53099 l -2.26523,3.92408 2.26523,3.92407 -2.26523,3.92351 h -4.53099 l -2.26522,3.92406 h -4.53099 z"
       style="fill:#808080;fill-opacity:1;fill-rule:nonzero;stroke:#000000;stroke-width:0.53287;stroke-linecap:butt;stroke-linejoin:miter;stroke-miterlimit:10;stroke-dasharray:none;stroke-opacity:1" />
    <path
       id="path412-4-9-8-06-2"
       d="m 99.668889,174.46251 2.265771,-3.92353 -2.265771,-3.92405 2.265771,-3.92408 h 4.53099 l 2.26522,3.92408 -2.26522,3.92405 2.26522,3.92353 h 4.53099 l 2.26522,-3.92353 h 4.53098 l 2.26523,-3.92405 h 4.53099 l 2.26576,3.92405 -2.26576,3.92353 h -4.53099 l -2.26523,3.92404 2.26523,3.92406 -2.26523,3.92351 2.26523,3.92405 -2.26523,3.92405 h -4.53098 l -2.26522,-3.92405 2.26522,-3.92405 -2.26522,-3.92351 h -4.53099 l -2.26522,-3.92406 h -4.53099 z"
       style="fill:#808080;fill-opacity:1;fill-rule:nonzero;stroke:#000000;stroke-width:0.53287;stroke-linecap:butt;stroke-linejoin:miter;stroke-miterlimit:10;stroke-dasharray:none;stroke-opacity:1" />
    <path
       id="path412-4-6-4-8"
       d="m 64.267475,204.00167 -2.26577,3.92353 2.26577,3.92404 -2.26577,3.92406 h -4.53099 l -2.26522,-3.92406 2.26522,-3.92404 -2.26522,-3.92353 h -4.530989 l -2.26523,3.92353 h -4.531 l -2.26523,3.92404 h -4.53099 l -2.26576,-3.92404 2.26576,-3.92353 h 4.53099 l 2.26523,-3.92404 -2.26523,-3.92406 2.26523,-3.92351 -2.26523,-3.92405 2.26523,-3.92405 h 4.531 l 2.26523,3.92405 -2.26523,3.92405 2.26523,3.92351 h 4.530989 l 2.26522,3.92406 h 4.53099 z"
       style="fill:#808080;fill-opacity:1;fill-rule:nonzero;stroke:#000000;stroke-width:0.53287;stroke-linecap:butt;stroke-linejoin:miter;stroke-miterlimit:10;stroke-dasharray:none;stroke-opacity:1" />
    <path
       id="path412-4-8-8-2-8"
       d="m 76.071161,204.22275 2.26577,3.92353 -2.26577,3.92404 2.26577,3.92406 h 4.53099 l 2.26522,-3.92406 -2.26522,-3.92404 2.26522,-3.92353 h 4.53098 l 2.26523,3.92353 h 4.53099 l 2.26523,3.92404 h 4.530989 l 2.26576,-3.92404 -2.26576,-3.92353 h -4.530989 l -2.26523,-3.92404 2.26523,-3.92406 -2.26523,-3.92351 2.26523,-3.92405 -2.26523,-3.92405 h -4.53099 l -2.26523,3.92405 2.26523,3.92405 -2.26523,3.92351 h -4.53098 l -2.26522,3.92406 h -4.53099 z"
       style="fill:#808080;fill-opacity:1;fill-rule:nonzero;stroke:#000000;stroke-width:0.53287;stroke-linecap:butt;stroke-linejoin:miter;stroke-miterlimit:10;stroke-dasharray:none;stroke-opacity:1" />
    <path
       id="path412-4-4-4-2"
       d="m 121.91744,179.83299 2.26577,3.92353 -2.26577,3.92404 2.26577,3.92406 h 4.53099 l 2.26522,-3.92406 -2.26522,-3.92404 2.26522,-3.92353 h 4.53099 l 2.26523,3.92353 h 4.53099 l 2.26523,3.92404 h 4.53099 l 2.26576,-3.92404 -2.26576,-3.92353 h -4.53099 l -2.26523,-3.92404 2.26523,-3.92406 -2.26523,-3.92351 2.26523,-3.92407 -2.26523,-3.92407 h -4.53099 l -2.26523,3.92407 2.26523,3.92407 -2.26523,3.92351 h -4.53099 l -2.26522,3.92406 h -4.53099 z"
       style="fill:#808080;fill-opacity:1;fill-rule:nonzero;stroke:#000000;stroke-width:0.53287;stroke-linecap:butt;stroke-linejoin:miter;stroke-miterlimit:10;stroke-dasharray:none;stroke-opacity:1" />
    <path
       id="path412-4-6-9-2-5"
       d="m 121.23384,205.09008 2.26577,3.92353 -2.26577,3.92404 2.26577,3.92406 h 4.53099 l 2.26522,-3.92406 -2.26522,-3.92404 2.26522,-3.92353 h 4.53099 l 2.26523,3.92353 h 4.531 l 2.26523,3.92404 h 4.53099 l 2.26576,-3.92404 -2.26576,-3.92353 h -4.53099 l -2.26523,-3.92404 2.26523,-3.92406 -2.26523,-3.92351 2.26523,-3.92405 -2.26523,-3.92405 h -4.531 l -2.26523,3.92405 2.26523,3.92405 -2.26523,3.92351 h -4.53099 l -2.26522,3.92406 h -4.53099 z"
       style="fill:#808080;fill-opacity:1;fill-rule:nonzero;stroke:#000000;stroke-width:0.53287;stroke-linecap:butt;stroke-linejoin:miter;stroke-miterlimit:10;stroke-dasharray:none;stroke-opacity:1" />
    <path
       id="path412-4-1-0-4"
       d="m 32.226719,99.27332 2.26577,3.92353 -2.26577,3.92404 2.26577,3.92406 h 4.53099 l 2.26522,-3.92406 -2.26522,-3.92404 2.26522,-3.92353 h 4.530992 l 2.26523,3.92353 h 4.53099 l 2.26523,3.92404 h 4.53099 l 2.26576,-3.92404 -2.26576,-3.92353 h -4.53099 l -2.26523,-3.92404 2.26523,-3.92406 -2.26523,-3.92351 2.26523,-3.92407 -2.26523,-3.92408 h -4.53099 l -2.26523,3.92408 2.26523,3.92407 -2.26523,3.92351 h -4.530992 l -2.26522,3.92406 h -4.53099 z"
       style="fill:#808080;fill-opacity:1;fill-rule:nonzero;stroke:#000000;stroke-width:0.53287;stroke-linecap:butt;stroke-linejoin:miter;stroke-miterlimit:10;stroke-dasharray:none;stroke-opacity:1" />
    <path
       id="path412-4-9-0-8-9"
       d="m 54.755008,94.27942 2.26577,-3.92353 -2.26577,-3.92405 2.26577,-3.92408 h 4.53099 l 2.26522,3.92408 -2.26522,3.92405 2.26522,3.92353 h 4.530991 l 2.26523,-3.92353 h 4.53099 l 2.26523,-3.92405 h 4.53099 l 2.26576,3.92405 -2.26576,3.92353 h -4.53099 l -2.26523,3.92404 2.26523,3.92406 -2.26523,3.92351 2.26523,3.92405 -2.26523,3.92405 h -4.53099 l -2.26523,-3.92405 2.26523,-3.92405 -2.26523,-3.92351 h -4.530991 l -2.26522,-3.92406 h -4.53099 z"
       style="fill:#808080;fill-opacity:1;fill-rule:nonzero;stroke:#000000;stroke-width:0.53287;stroke-linecap:butt;stroke-linejoin:miter;stroke-miterlimit:10;stroke-dasharray:none;stroke-opacity:1" />
    <path
       id="path412-4-8-85-1-9"
       d="m 77.702259,99.49196 2.26577,3.92353 -2.26577,3.92404 2.26577,3.92406 h 4.53099 l 2.26522,-3.92406 -2.26522,-3.92404 2.26522,-3.92353 h 4.53099 l 2.26523,3.92353 h 4.53098 l 2.265231,3.92404 h 4.53099 l 2.26576,-3.92404 -2.26576,-3.92353 h -4.53099 l -2.265231,-3.92404 2.265231,-3.92406 -2.265231,-3.92351 2.265231,-3.92407 -2.265231,-3.92408 h -4.53098 l -2.26523,3.92408 2.26523,3.92407 -2.26523,3.92351 h -4.53099 l -2.26522,3.92406 h -4.53099 z"
       style="fill:#808080;fill-opacity:1;fill-rule:nonzero;stroke:#000000;stroke-width:0.53287;stroke-linecap:butt;stroke-linejoin:miter;stroke-miterlimit:10;stroke-dasharray:none;stroke-opacity:1" />
    <path
       id="path412-4-9-8-06-3-3"
       d="m 100.23054,94.49806 2.26577,-3.92353 -2.26577,-3.92405 2.26577,-3.92408 h 4.53099 l 2.26522,3.92408 -2.26522,3.92405 2.26522,3.92353 h 4.53099 l 2.26522,-3.92353 h 4.53098 l 2.26523,-3.92405 h 4.53099 l 2.26576,3.92405 -2.26576,3.92353 h -4.53099 l -2.26523,3.92404 2.26523,3.92406 -2.26523,3.92351 2.26523,3.92405 -2.26523,3.92405 h -4.53098 l -2.26522,-3.92405 2.26522,-3.92405 -2.26522,-3.92351 h -4.53099 L 107.0273,98.4221 h -4.53099 z"
       style="fill:#808080;fill-opacity:1;fill-rule:nonzero;stroke:#000000;stroke-width:0.53287;stroke-linecap:butt;stroke-linejoin:miter;stroke-miterlimit:10;stroke-dasharray:none;stroke-opacity:1" />
    <path
       id="path412-4-6-4-1-6"
       d="m 32.072299,125.58875 2.26576,3.92353 -2.26577,3.92404 2.26577,3.92406 h 4.53099 l 2.26522,-3.92406 -2.26522,-3.92404 2.26522,-3.92353 h 4.530995 l 2.26523,3.92353 h 4.531 l 2.26523,3.92404 h 4.53099 l 2.26576,-3.92404 -2.26576,-3.92353 h -4.53099 l -2.26523,-3.92404 2.26523,-3.92406 -2.26523,-3.92351 2.26523,-3.92405 -2.26523,-3.92405 h -4.531 l -2.26523,3.92405 2.26523,3.92405 -2.26523,3.92351 h -4.530995 l -2.26522,3.92406 h -4.53099 z"
       style="fill:#808080;fill-opacity:1;fill-rule:nonzero;stroke:#000000;stroke-width:0.53287;stroke-linecap:butt;stroke-linejoin:miter;stroke-miterlimit:10;stroke-dasharray:none;stroke-opacity:1" />
    <path
       id="path412-4-9-3-6-1-0"
       d="m 54.600584,120.59485 2.26577,-3.92353 -2.26577,-3.92404 2.26577,-3.92406 h 4.53099 l 2.26522,3.92406 -2.26522,3.92404 2.26522,3.92353 h 4.53099 l 2.265235,-3.92353 h 4.53098 l 2.26523,-3.92404 h 4.53099 l 2.26576,3.92404 -2.26576,3.92353 h -4.53099 l -2.26523,3.92404 2.26523,3.92406 -2.26523,3.92351 2.26523,3.92405 -2.26523,3.92405 h -4.53098 l -2.265235,-3.92405 2.265235,-3.92405 -2.265235,-3.92351 h -4.53099 l -2.26522,-3.92406 h -4.53099 z"
       style="fill:#808080;fill-opacity:1;fill-rule:nonzero;stroke:#000000;stroke-width:0.53287;stroke-linecap:butt;stroke-linejoin:miter;stroke-miterlimit:10;stroke-dasharray:none;stroke-opacity:1" />
    <path
       id="path412-4-8-8-2-0-5"
       d="m 77.547829,125.80739 2.26577,3.92353 -2.26577,3.92404 2.26577,3.92406 h 4.53099 l 2.26522,-3.92406 -2.26522,-3.92404 2.26522,-3.92353 h 4.53098 l 2.26523,3.92353 h 4.53098 l 2.265231,3.92404 h 4.53099 l 2.26576,-3.92404 -2.26576,-3.92353 h -4.53099 l -2.265231,-3.92404 2.265231,-3.92406 -2.265231,-3.92351 2.265231,-3.92405 -2.265231,-3.92405 h -4.53098 l -2.26523,3.92405 2.26523,3.92405 -2.26523,3.92351 h -4.53098 l -2.26522,3.92406 h -4.53099 z"
       style="fill:#808080;fill-opacity:1;fill-rule:nonzero;stroke:#000000;stroke-width:0.53287;stroke-linecap:butt;stroke-linejoin:miter;stroke-miterlimit:10;stroke-dasharray:none;stroke-opacity:1" />
    <path
       id="path412-4-9-8-5-5-3-0"
       d="m 100.0761,120.81349 2.26577,-3.92353 -2.26577,-3.92404 2.26577,-3.92406 h 4.53099 l 2.26522,3.92406 -2.26522,3.92404 2.26522,3.92353 h 4.53099 l 2.26522,-3.92353 h 4.53098 l 2.26523,-3.92404 h 4.53099 l 2.26576,3.92404 -2.26576,3.92353 h -4.53099 l -2.26523,3.92404 2.26523,3.92406 -2.26523,3.92351 2.26523,3.92405 -2.26523,3.92405 h -4.53098 l -2.26522,-3.92405 2.26522,-3.92405 -2.26522,-3.92351 h -4.53099 l -2.26522,-3.92406 h -4.53099 z"
       style="fill:#808080;fill-opacity:1;fill-rule:nonzero;stroke:#000000;stroke-width:0.53287;stroke-linecap:butt;stroke-linejoin:miter;stroke-miterlimit:10;stroke-dasharray:none;stroke-opacity:1" />
    <path
       id="path412-4-5-8-4-2"
       d="m 32.280389,152.0007 2.26577,3.92353 -2.26577,3.92404 2.26577,3.92406 h 4.53099 l 2.26522,-3.92406 -2.26522,-3.92404 2.26522,-3.92353 h 4.530993 l 2.26523,3.92353 h 4.53099 l 2.26523,3.92404 h 4.53099 l 2.26576,-3.92404 -2.26576,-3.92353 h -4.53099 l -2.26523,-3.92404 2.26523,-3.92406 -2.26523,-3.92351 2.26523,-3.92405 -2.26523,-3.92405 h -4.53099 l -2.26523,3.92405 2.26523,3.92405 -2.26523,3.92351 h -4.530993 l -2.26522,3.92406 h -4.53099 z"
       style="fill:#808080;fill-opacity:1;fill-rule:nonzero;stroke:#000000;stroke-width:0.53287;stroke-linecap:butt;stroke-linejoin:miter;stroke-miterlimit:10;stroke-dasharray:none;stroke-opacity:1" />
    <path
       id="path412-4-2-4"
       d="m 149.03526,91.71718 2.26577,-3.92353 -2.26577,-3.92404 2.26577,-3.92406 h 4.53099 l 2.26522,3.92406 -2.26522,3.92404 2.26522,3.92353 h 4.53099 l 2.26523,-3.92353 h 4.53099 l 2.26523,-3.92404 h 4.53099 l 2.26576,3.92404 -2.26576,3.92353 h -4.53099 l -2.26523,3.92404 2.26523,3.92406 -2.26523,3.92351 2.26523,3.92405 -2.26523,3.92405 h -4.53099 l -2.26523,-3.92405 2.26523,-3.92405 -2.26523,-3.92351 h -4.53099 l -2.26522,-3.92406 h -4.53099 z"
       style="fill:#808080;fill-opacity:1;fill-rule:nonzero;stroke:#000000;stroke-width:0.53287;stroke-linecap:butt;stroke-linejoin:miter;stroke-miterlimit:10;stroke-dasharray:none;stroke-opacity:1" />
    <path
       id="path412-4-1-2-6"
       d="m 149.49298,171.14836 2.26577,-3.92353 -2.26577,-3.92404 2.26577,-3.92406 h 4.53099 l 2.26522,3.92406 -2.26522,3.92404 2.26522,3.92353 h 4.53099 l 2.26523,-3.92353 h 4.53099 l 2.26523,-3.92404 h 4.53099 l 2.26576,3.92404 -2.26576,3.92353 h -4.53099 l -2.26523,3.92404 2.26523,3.92406 -2.26523,3.92351 2.26523,3.92407 -2.26523,3.92408 h -4.53099 l -2.26523,-3.92408 2.26523,-3.92407 -2.26523,-3.92351 h -4.53099 l -2.26522,-3.92406 h -4.53099 z"
       style="fill:#808080;fill-opacity:1;fill-rule:nonzero;stroke:#000000;stroke-width:0.53287;stroke-linecap:butt;stroke-linejoin:miter;stroke-miterlimit:10;stroke-dasharray:none;stroke-opacity:1" />
    <path
       id="path412-4-6-4-8-9"
       d="m 149.33855,144.83293 2.26577,-3.92353 -2.26577,-3.92404 2.26577,-3.92406 h 4.53099 l 2.26522,3.92406 -2.26522,3.92404 2.26522,3.92353 h 4.53099 l 2.26523,-3.92353 h 4.531 l 2.26523,-3.92404 h 4.53099 l 2.26576,3.92404 -2.26576,3.92353 h -4.53099 l -2.26523,3.92404 2.26523,3.92406 -2.26523,3.92351 2.26523,3.92405 -2.26523,3.92405 h -4.531 l -2.26523,-3.92405 2.26523,-3.92405 -2.26523,-3.92351 h -4.53099 l -2.26522,-3.92406 h -4.53099 z"
       style="fill:#808080;fill-opacity:1;fill-rule:nonzero;stroke:#000000;stroke-width:0.53287;stroke-linecap:butt;stroke-linejoin:miter;stroke-miterlimit:10;stroke-dasharray:none;stroke-opacity:1" />
    <path
       id="path412-4-5-8-40-4"
       d="m 149.54665,118.42098 2.26577,-3.92353 -2.26577,-3.92404 2.26577,-3.92406 h 4.53099 l 2.26522,3.92406 -2.26522,3.92404 2.26522,3.92353 h 4.53099 l 2.26523,-3.92353 h 4.53099 l 2.26523,-3.92404 h 4.53099 l 2.26576,3.92404 -2.26576,3.92353 h -4.53099 l -2.26523,3.92404 2.26523,3.92406 -2.26523,3.92351 2.26523,3.92405 -2.26523,3.92405 h -4.53099 l -2.26523,-3.92405 2.26523,-3.92405 -2.26523,-3.92351 h -4.53099 l -2.26522,-3.92406 h -4.53099 z"
       style="fill:#808080;fill-opacity:1;fill-rule:nonzero;stroke:#000000;stroke-width:0.53287;stroke-linecap:butt;stroke-linejoin:miter;stroke-miterlimit:10;stroke-dasharray:none;stroke-opacity:1" />
    <path
       id="path412-4-5-8-4-2-2"
       d="m 149.04997,197.85626 2.26577,-3.92353 -2.26577,-3.92404 2.26577,-3.92406 h 4.53099 l 2.26522,3.92406 -2.26522,3.92404 2.26522,3.92353 h 4.53099 l 2.26523,-3.92353 h 4.53099 l 2.26523,-3.92404 h 4.53099 l 2.26576,3.92404 -2.26576,3.92353 h -4.53099 l -2.26523,3.92404 2.26523,3.92406 -2.26523,3.92351 2.26523,3.92405 -2.26523,3.92405 h -4.53099 l -2.26523,-3.92405 2.26523,-3.92405 -2.26523,-3.92351 h -4.53099 l -2.26522,-3.92406 h -4.53099 z"
       style="fill:#808080;fill-opacity:1;fill-rule:nonzero;stroke:#000000;stroke-width:0.53287;stroke-linecap:butt;stroke-linejoin:miter;stroke-miterlimit:10;stroke-dasharray:none;stroke-opacity:1" />
    <path
       id="path412-4-9-9-6-0-9"
       d="m 54.808682,147.0068 2.26577,-3.92353 -2.26577,-3.92404 2.26577,-3.92406 h 4.53099 l 2.26522,3.92406 -2.26522,3.92404 2.26522,3.92353 h 4.530987 l 2.26524,-3.92353 h 4.53099 l 2.26523,-3.92404 h 4.53099 l 2.26576,3.92404 -2.26576,3.92353 h -4.53099 l -2.26523,3.92404 2.26523,3.92406 -2.26523,3.92351 2.26523,3.92405 -2.26523,3.92405 h -4.53099 l -2.26524,-3.92405 2.26524,-3.92405 -2.26524,-3.92351 h -4.530987 l -2.26522,-3.92406 h -4.53099 z"
       style="fill:#808080;fill-opacity:1;fill-rule:nonzero;stroke:#000000;stroke-width:0.53287;stroke-linecap:butt;stroke-linejoin:miter;stroke-miterlimit:10;stroke-dasharray:none;stroke-opacity:1" />
    <path
       id="path412-4-8-84-2-3-4"
       d="m 77.755939,152.21934 2.26577,3.92353 -2.26577,3.92404 2.26577,3.92406 h 4.53099 l 2.26522,-3.92406 -2.26522,-3.92404 2.26522,-3.92353 h 4.53099 l 2.26523,3.92353 h 4.53098 l 2.265231,3.92404 h 4.53099 l 2.26576,-3.92404 -2.26576,-3.92353 h -4.53099 l -2.265231,-3.92404 2.265231,-3.92406 -2.265231,-3.92351 2.265231,-3.92405 -2.265231,-3.92405 h -4.53098 l -2.26523,3.92405 2.26523,3.92405 -2.26523,3.92351 h -4.53099 l -2.26522,3.92406 h -4.53099 z"
       style="fill:#808080;fill-opacity:1;fill-rule:nonzero;stroke:#000000;stroke-width:0.53287;stroke-linecap:butt;stroke-linejoin:miter;stroke-miterlimit:10;stroke-dasharray:none;stroke-opacity:1" />
    <path
       id="path412-4-9-8-8-8-9-3"
       d="m 100.28422,147.22544 2.26577,-3.92353 -2.26577,-3.92404 2.26577,-3.92406 h 4.53099 l 2.26522,3.92406 -2.26522,3.92404 2.26522,3.92353 h 4.53099 l 2.26522,-3.92353 h 4.53098 l 2.26523,-3.92404 h 4.53099 l 2.26576,3.92404 -2.26576,3.92353 h -4.53099 l -2.26523,3.92404 2.26523,3.92406 -2.26523,3.92351 2.26523,3.92405 -2.26523,3.92405 h -4.53098 l -2.26522,-3.92405 2.26522,-3.92405 -2.26522,-3.92351 h -4.53099 l -2.26522,-3.92406 h -4.53099 z"
       style="fill:#808080;fill-opacity:1;fill-rule:nonzero;stroke:#000000;stroke-width:0.53287;stroke-linecap:butt;stroke-linejoin:miter;stroke-miterlimit:10;stroke-dasharray:none;stroke-opacity:1" />
    <path
       id="path412-4-4-4-1-5"
       d="m 122.47909,99.86854 2.26577,3.92353 -2.26577,3.92404 2.26577,3.92406 h 4.53099 l 2.26522,-3.92406 -2.26522,-3.92404 2.26522,-3.92353 h 4.53099 l 2.26523,3.92353 h 4.53099 l 2.26523,3.92404 h 4.53099 l 2.26576,-3.92404 -2.26576,-3.92353 h -4.53099 l -2.26523,-3.92404 2.26523,-3.92406 -2.26523,-3.92351 2.26523,-3.92407 -2.26523,-3.92407 h -4.53099 l -2.26523,3.92407 2.26523,3.92407 -2.26523,3.92351 h -4.53099 l -2.26522,3.92406 h -4.53099 z"
       style="fill:#808080;fill-opacity:1;fill-rule:nonzero;stroke:#000000;stroke-width:0.53287;stroke-linecap:butt;stroke-linejoin:miter;stroke-miterlimit:10;stroke-dasharray:none;stroke-opacity:1" />
    <path
       id="path412-4-6-9-2-9-1"
       d="m 122.32466,126.18397 2.26577,3.92353 -2.26577,3.92404 2.26577,3.92406 h 4.53099 l 2.26522,-3.92406 -2.26522,-3.92404 2.26522,-3.92353 h 4.53099 l 2.26523,3.92353 h 4.531 l 2.26523,3.92404 h 4.53099 l 2.26576,-3.92404 -2.26576,-3.92353 h -4.53099 l -2.26523,-3.92404 2.26523,-3.92406 -2.26523,-3.92351 2.26523,-3.92405 -2.26523,-3.92405 h -4.531 l -2.26523,3.92405 2.26523,3.92405 -2.26523,3.92351 h -4.53099 l -2.26522,3.92406 h -4.53099 z"
       style="fill:#808080;fill-opacity:1;fill-rule:nonzero;stroke:#000000;stroke-width:0.53287;stroke-linecap:butt;stroke-linejoin:miter;stroke-miterlimit:10;stroke-dasharray:none;stroke-opacity:1" />
    <path
       id="path412-4-5-0-0-6-7"
       d="m 122.53276,152.59592 2.26577,3.92353 -2.26577,3.92404 2.26577,3.92406 h 4.53099 l 2.26522,-3.92406 -2.26522,-3.92404 2.26522,-3.92353 h 4.53099 l 2.26523,3.92353 h 4.53099 l 2.26523,3.92404 h 4.53099 l 2.26576,-3.92404 -2.26576,-3.92353 h -4.53099 l -2.26523,-3.92404 2.26523,-3.92406 -2.26523,-3.92351 2.26523,-3.92405 -2.26523,-3.92405 h -4.53099 l -2.26523,3.92405 2.26523,3.92405 -2.26523,3.92351 h -4.53099 l -2.26522,3.92406 h -4.53099 z"
       style="fill:#808080;fill-opacity:1;fill-rule:nonzero;stroke:#000000;stroke-width:0.53287;stroke-linecap:butt;stroke-linejoin:miter;stroke-miterlimit:10;stroke-dasharray:none;stroke-opacity:1" />
  </g>
</svg>
