<?xml version="1.0" encoding="UTF-8" standalone="no"?>
<!-- Created with Inkscape (http://www.inkscape.org/) -->

<svg
   width="210mm"
   height="297mm"
   viewBox="0 0 210 297"
   version="1.1"
   id="svg1"
   inkscape:version="1.3.2 (091e20ef0f, 2023-11-25, custom)"
   sodipodi:docname="heesch-gray.svg"
   xmlns:inkscape="http://www.inkscape.org/namespaces/inkscape"
   xmlns:sodipodi="http://sodipodi.sourceforge.net/DTD/sodipodi-0.dtd"
   xmlns="http://www.w3.org/2000/svg"
   xmlns:svg="http://www.w3.org/2000/svg">
  <sodipodi:namedview
     id="namedview1"
     pagecolor="#ffffff"
     bordercolor="#000000"
     borderopacity="0.25"
     inkscape:showpageshadow="2"
     inkscape:pageopacity="0.0"
     inkscape:pagecheckerboard="0"
     inkscape:deskcolor="#d1d1d1"
     inkscape:document-units="mm"
     inkscape:zoom="0.86741693"
     inkscape:cx="528.00445"
     inkscape:cy="553.36711"
     inkscape:window-width="2560"
     inkscape:window-height="1360"
     inkscape:window-x="0"
     inkscape:window-y="0"
     inkscape:window-maximized="1"
     inkscape:current-layer="layer1" />
  <defs
     id="defs1" />
  <g
     inkscape:label="Layer 1"
     inkscape:groupmode="layer"
     id="layer1">
    <rect
       style="fill:#f2696a;fill-opacity:1;stroke-width:0.327795"
       id="rect2-1"
       width="279.39999"
       height="137.16"
       x="8.7724314"
       y="103.25419"
       transform="matrix(0,1,1,0,0,0)" />
    <rect
       style="fill:#3ea586;fill-opacity:1;stroke-width:0.264583"
       id="rect2"
       width="228.60001"
       height="109.22"
       x="-240.4305"
       y="178.18431"
       transform="scale(-1,1)" />
    <rect
       style="fill:#5d95ed;stroke-width:0.264583"
       id="rect1"
       width="76.199997"
       height="152.39999"
       x="-103.02851"
       y="25.693237"
       transform="scale(-1,1)" />
    <path
       id="path404"
       d="m 93.126965,30.502412 2.26576,3.92351 h 4.53099 l 2.265215,3.92406 -2.265215,3.92404 h -4.53099 l -2.26576,-3.92404 h -4.53046 l -2.26576,3.92404 2.26576,3.92353 -2.26576,3.92404 2.26576,3.92406 -2.26576,3.92351 h -4.53099 l -2.26523,-3.92351 2.26523,-3.92406 -2.26523,-3.92404 h -4.53099 l -2.26523,-3.92353 h -4.53099 l -2.26523,-3.92404 2.26523,-3.92406 h 4.53099 l 2.26523,3.92406 h 4.53099 l 2.26523,-3.92406 h 4.53099 l 2.26576,-3.92351 z"
       style="fill:#808080;fill-opacity:1;fill-rule:nonzero;stroke:#000000;stroke-width:0.53287;stroke-linecap:butt;stroke-linejoin:miter;stroke-miterlimit:10;stroke-dasharray:none;stroke-opacity:1" />
    <path
       id="path404-3"
       d="m 52.284115,59.145408 -2.26576,-3.92351 -4.53099,10e-7 -2.26522,-3.924061 2.26522,-3.92404 h 4.53099 l 2.26577,3.92404 h 4.53045 l 2.26576,-3.92404 -2.26576,-3.923529 2.26576,-3.924041 -2.26576,-3.92406 2.26576,-3.92351 h 4.53099 l 2.26523,3.923511 -2.26523,3.924059 2.26523,3.92404 4.53099,10e-7 2.26523,3.923529 h 4.53099 l 2.26523,3.92404 -2.26523,3.92406 h -4.53099 l -2.26523,-3.92406 -4.53099,1e-6 -2.26523,3.924059 h -4.53099 l -2.26576,3.923511 z"
       style="fill:#808080;fill-opacity:1;fill-rule:nonzero;stroke:#000000;stroke-width:0.53287;stroke-linecap:butt;stroke-linejoin:miter;stroke-miterlimit:10;stroke-dasharray:none;stroke-opacity:1" />
    <path
       id="path412-4"
       d="m 239.66114,197.81999 -2.26577,3.92353 2.26577,3.92404 -2.26577,3.92406 h -4.53099 l -2.26522,-3.92406 2.26522,-3.92404 -2.26522,-3.92353 h -4.53099 l -2.26523,3.92353 h -4.53099 l -2.26523,3.92404 h -4.53099 l -2.26576,-3.92404 2.26576,-3.92353 h 4.53099 l 2.26523,-3.92404 -2.26523,-3.92406 2.26523,-3.92351 -2.26523,-3.92405 2.26523,-3.92405 h 4.53099 l 2.26523,3.92405 -2.26523,3.92405 2.26523,3.92351 h 4.53099 l 2.26522,3.92406 h 4.53099 z"
       style="fill:#808080;fill-opacity:1;fill-rule:nonzero;stroke:#000000;stroke-width:0.53287;stroke-linecap:butt;stroke-linejoin:miter;stroke-miterlimit:10;stroke-dasharray:none;stroke-opacity:1" />
    <path
       id="path412-4-9"
       d="m 217.13285,192.82609 -2.26577,-3.92353 2.26577,-3.92404 -2.26577,-3.92406 h -4.53099 l -2.26522,3.92406 2.26522,3.92404 -2.26522,3.92353 h -4.53099 l -2.26522,-3.92353 h -4.53099 l -2.26523,-3.92404 h -4.53099 l -2.26576,3.92404 2.26576,3.92353 h 4.53099 l 2.26523,3.92404 -2.26523,3.92406 2.26523,3.92351 -2.26523,3.92405 2.26523,3.92405 h 4.53099 l 2.26522,-3.92405 -2.26522,-3.92405 2.26522,-3.92351 h 4.53099 l 2.26522,-3.92406 h 4.53099 z"
       style="fill:#808080;fill-opacity:1;fill-rule:nonzero;stroke:#000000;stroke-width:0.53287;stroke-linecap:butt;stroke-linejoin:miter;stroke-miterlimit:10;stroke-dasharray:none;stroke-opacity:1" />
    <path
       id="path412-4-8"
       d="m 194.18561,198.03863 -2.26577,3.92353 2.26577,3.92404 -2.26577,3.92406 h -4.53099 l -2.26522,-3.92406 2.26522,-3.92404 -2.26522,-3.92353 h -4.53099 l -2.26523,3.92353 h -4.53099 l -2.26523,3.92404 h -4.53099 l -2.26576,-3.92404 2.26576,-3.92353 h 4.53099 l 2.26523,-3.92404 -2.26523,-3.92406 2.26523,-3.92351 -2.26523,-3.92405 2.26523,-3.92405 h 4.53099 l 2.26523,3.92405 -2.26523,3.92405 2.26523,3.92351 h 4.53099 l 2.26522,3.92406 h 4.53099 z"
       style="fill:#808080;fill-opacity:1;fill-rule:nonzero;stroke:#000000;stroke-width:0.53287;stroke-linecap:butt;stroke-linejoin:miter;stroke-miterlimit:10;stroke-dasharray:none;stroke-opacity:1" />
    <path
       id="path412-4-9-8"
       d="m 171.65732,193.04473 -2.26577,-3.92353 2.26577,-3.92404 -2.26577,-3.92406 h -4.53099 l -2.26522,3.92406 2.26522,3.92404 -2.26522,3.92353 h -4.53099 l -2.26522,-3.92353 h -4.53098 l -2.26523,-3.92404 h -4.53099 l -2.26576,3.92404 2.26576,3.92353 h 4.53099 l 2.26523,3.92404 -2.26523,3.92406 2.26523,3.92351 -2.26523,3.92405 2.26523,3.92405 h 4.53098 l 2.26522,-3.92405 -2.26522,-3.92405 2.26522,-3.92351 h 4.53099 l 2.26522,-3.92406 h 4.53099 z"
       style="fill:#808080;fill-opacity:1;fill-rule:nonzero;stroke:#000000;stroke-width:0.53287;stroke-linecap:butt;stroke-linejoin:miter;stroke-miterlimit:10;stroke-dasharray:none;stroke-opacity:1" />
    <path
       id="path412-4-6"
       d="m 239.81557,224.13542 -2.26577,3.92353 2.26577,3.92404 -2.26577,3.92406 h -4.53099 l -2.26522,-3.92406 2.26522,-3.92404 -2.26522,-3.92353 h -4.53099 l -2.26523,3.92353 h -4.531 l -2.26523,3.92404 h -4.53099 l -2.26576,-3.92404 2.26576,-3.92353 h 4.53099 l 2.26523,-3.92404 -2.26523,-3.92406 2.26523,-3.92351 -2.26523,-3.92405 2.26523,-3.92405 h 4.531 l 2.26523,3.92405 -2.26523,3.92405 2.26523,3.92351 h 4.53099 l 2.26522,3.92406 h 4.53099 z"
       style="fill:#808080;fill-opacity:1;fill-rule:nonzero;stroke:#000000;stroke-width:0.53287;stroke-linecap:butt;stroke-linejoin:miter;stroke-miterlimit:10;stroke-dasharray:none;stroke-opacity:1" />
    <path
       id="path412-4-9-3"
       d="m 217.28728,219.14152 -2.26577,-3.92353 2.26577,-3.92404 -2.26577,-3.92406 h -4.53099 l -2.26522,3.92406 2.26522,3.92404 -2.26522,3.92353 h -4.53099 l -2.26523,-3.92353 h -4.53098 l -2.26523,-3.92404 h -4.53099 l -2.26576,3.92404 2.26576,3.92353 h 4.53099 l 2.26523,3.92404 -2.26523,3.92406 2.26523,3.92351 -2.26523,3.92405 2.26523,3.92405 h 4.53098 l 2.26523,-3.92405 -2.26523,-3.92405 2.26523,-3.92351 h 4.53099 l 2.26522,-3.92406 h 4.53099 z"
       style="fill:#808080;fill-opacity:1;fill-rule:nonzero;stroke:#000000;stroke-width:0.53287;stroke-linecap:butt;stroke-linejoin:miter;stroke-miterlimit:10;stroke-dasharray:none;stroke-opacity:1" />
    <path
       id="path412-4-8-8"
       d="m 194.34004,224.35406 -2.26577,3.92353 2.26577,3.92404 -2.26577,3.92406 h -4.53099 l -2.26522,-3.92406 2.26522,-3.92404 -2.26522,-3.92353 h -4.53098 l -2.26523,3.92353 h -4.53099 l -2.26523,3.92404 h -4.53099 l -2.26576,-3.92404 2.26576,-3.92353 h 4.53099 l 2.26523,-3.92404 -2.26523,-3.92406 2.26523,-3.92351 -2.26523,-3.92405 2.26523,-3.92405 h 4.53099 l 2.26523,3.92405 -2.26523,3.92405 2.26523,3.92351 h 4.53098 l 2.26522,3.92406 h 4.53099 z"
       style="fill:#808080;fill-opacity:1;fill-rule:nonzero;stroke:#000000;stroke-width:0.53287;stroke-linecap:butt;stroke-linejoin:miter;stroke-miterlimit:10;stroke-dasharray:none;stroke-opacity:1" />
    <path
       id="path412-4-9-8-5"
       d="m 171.81176,219.36016 -2.26577,-3.92353 2.26577,-3.92404 -2.26577,-3.92406 H 165.015 l -2.26522,3.92406 2.26522,3.92404 -2.26522,3.92353 h -4.53099 l -2.26522,-3.92353 h -4.53098 l -2.26523,-3.92404 h -4.53099 l -2.26576,3.92404 2.26576,3.92353 h 4.53099 l 2.26523,3.92404 -2.26523,3.92406 2.26523,3.92351 -2.26523,3.92405 2.26523,3.92405 h 4.53098 l 2.26522,-3.92405 -2.26522,-3.92405 2.26522,-3.92351 h 4.53099 l 2.26522,-3.92406 h 4.53099 z"
       style="fill:#808080;fill-opacity:1;fill-rule:nonzero;stroke:#000000;stroke-width:0.53287;stroke-linecap:butt;stroke-linejoin:miter;stroke-miterlimit:10;stroke-dasharray:none;stroke-opacity:1" />
    <path
       id="path412-4-5"
       d="m 239.60747,250.54737 -2.26577,3.92353 2.26577,3.92404 -2.26577,3.92406 h -4.53099 l -2.26522,-3.92406 2.26522,-3.92404 -2.26522,-3.92353 h -4.53099 l -2.26523,3.92353 h -4.53099 l -2.26523,3.92404 h -4.53099 l -2.26576,-3.92404 2.26576,-3.92353 h 4.53099 l 2.26523,-3.92404 -2.26523,-3.92406 2.26523,-3.92351 -2.26523,-3.92405 2.26523,-3.92405 h 4.53099 l 2.26523,3.92405 -2.26523,3.92405 2.26523,3.92351 h 4.53099 l 2.26522,3.92406 h 4.53099 z"
       style="fill:#808080;fill-opacity:1;fill-rule:nonzero;stroke:#000000;stroke-width:0.53287;stroke-linecap:butt;stroke-linejoin:miter;stroke-miterlimit:10;stroke-dasharray:none;stroke-opacity:1" />
    <path
       id="path412-4-5-4"
       d="m 221.80216,285.56256 3.92353,-2.26577 3.92404,2.26577 3.92406,-2.26577 v -4.53099 l -3.92406,-2.26522 -3.92404,2.26522 -3.92353,-2.26522 v -4.53099 l 3.92353,-2.26523 v -4.53099 l 3.92404,-2.26523 v -4.53099 l -3.92404,-2.26576 -3.92353,2.26576 v 4.53099 l -3.92404,2.26523 -3.92406,-2.26523 -3.92351,2.26523 -3.92405,-2.26523 -3.92405,2.26523 v 4.53099 l 3.92405,2.26523 3.92405,-2.26523 3.92351,2.26523 v 4.53099 l 3.92406,2.26522 v 4.53099 z"
       style="fill:#808080;fill-opacity:1;fill-rule:nonzero;stroke:#000000;stroke-width:0.53287;stroke-linecap:butt;stroke-linejoin:miter;stroke-miterlimit:10;stroke-dasharray:none;stroke-opacity:1" />
    <path
       id="path412-4-5-4-9"
       d="m 176.419,285.4407 3.92353,-2.26577 3.92404,2.26577 3.92406,-2.26577 v -4.53099 l -3.92406,-2.26522 -3.92404,2.26522 -3.92353,-2.26522 v -4.53099 l 3.92353,-2.26523 v -4.53099 l 3.92404,-2.26523 v -4.53099 l -3.92404,-2.26576 -3.92353,2.26576 v 4.53099 l -3.92404,2.26523 -3.92406,-2.26523 -3.92351,2.26523 -3.92405,-2.26523 -3.92405,2.26523 v 4.53099 l 3.92405,2.26523 3.92405,-2.26523 3.92351,2.26523 v 4.53099 l 3.92406,2.26522 v 4.53099 z"
       style="fill:#808080;fill-opacity:1;fill-rule:nonzero;stroke:#000000;stroke-width:0.53287;stroke-linecap:butt;stroke-linejoin:miter;stroke-miterlimit:10;stroke-dasharray:none;stroke-opacity:1" />
    <path
       id="path412-4-9-9"
       d="m 217.07918,245.55347 -2.26577,-3.92353 2.26577,-3.92404 -2.26577,-3.92406 h -4.53099 l -2.26522,3.92406 2.26522,3.92404 -2.26522,3.92353 h -4.53099 l -2.26523,-3.92353 h -4.53099 l -2.26523,-3.92404 h -4.53099 l -2.26576,3.92404 2.26576,3.92353 h 4.53099 l 2.26523,3.92404 -2.26523,3.92406 2.26523,3.92351 -2.26523,3.92405 2.26523,3.92405 h 4.53099 l 2.26523,-3.92405 -2.26523,-3.92405 2.26523,-3.92351 h 4.53099 l 2.26522,-3.92406 h 4.53099 z"
       style="fill:#808080;fill-opacity:1;fill-rule:nonzero;stroke:#000000;stroke-width:0.53287;stroke-linecap:butt;stroke-linejoin:miter;stroke-miterlimit:10;stroke-dasharray:none;stroke-opacity:1" />
    <path
       id="path412-4-8-84"
       d="m 194.13193,250.76601 -2.26577,3.92353 2.26577,3.92404 -2.26577,3.92406 h -4.53099 l -2.26522,-3.92406 2.26522,-3.92404 -2.26522,-3.92353 h -4.53099 l -2.26523,3.92353 h -4.53099 l -2.26523,3.92404 h -4.53099 l -2.26576,-3.92404 2.26576,-3.92353 h 4.53099 l 2.26523,-3.92404 -2.26523,-3.92406 2.26523,-3.92351 -2.26523,-3.92405 2.26523,-3.92405 h 4.53099 l 2.26523,3.92405 -2.26523,3.92405 2.26523,3.92351 h 4.53099 l 2.26522,3.92406 h 4.53099 z"
       style="fill:#808080;fill-opacity:1;fill-rule:nonzero;stroke:#000000;stroke-width:0.53287;stroke-linecap:butt;stroke-linejoin:miter;stroke-miterlimit:10;stroke-dasharray:none;stroke-opacity:1" />
    <path
       id="path412-4-9-8-8"
       d="m 171.60364,245.77211 -2.26577,-3.92353 2.26577,-3.92404 -2.26577,-3.92406 h -4.53099 l -2.26522,3.92406 2.26522,3.92404 -2.26522,3.92353 h -4.53099 l -2.26522,-3.92353 h -4.53098 l -2.26523,-3.92404 h -4.53099 l -2.26576,3.92404 2.26576,3.92353 h 4.53099 l 2.26523,3.92404 -2.26523,3.92406 2.26523,3.92351 -2.26523,3.92405 2.26523,3.92405 h 4.53098 l 2.26522,-3.92405 -2.26522,-3.92405 2.26522,-3.92351 h 4.53099 l 2.26522,-3.92406 h 4.53099 z"
       style="fill:#808080;fill-opacity:1;fill-rule:nonzero;stroke:#000000;stroke-width:0.53287;stroke-linecap:butt;stroke-linejoin:miter;stroke-miterlimit:10;stroke-dasharray:none;stroke-opacity:1" />
    <path
       id="path412-4-4"
       d="m 149.40877,198.41521 -2.26577,3.92353 2.26577,3.92404 -2.26577,3.92406 h -4.53099 l -2.26522,-3.92406 2.26522,-3.92404 -2.26522,-3.92353 h -4.53099 l -2.26523,3.92353 h -4.53099 l -2.26523,3.92404 h -4.53099 l -2.26576,-3.92404 2.26576,-3.92353 h 4.53099 l 2.26523,-3.92404 -2.26523,-3.92406 2.26523,-3.92351 -2.26523,-3.92405 2.26523,-3.92405 h 4.53099 l 2.26523,3.92405 -2.26523,3.92405 2.26523,3.92351 h 4.53099 l 2.26522,3.92406 h 4.53099 z"
       style="fill:#808080;fill-opacity:1;fill-rule:nonzero;stroke:#000000;stroke-width:0.53287;stroke-linecap:butt;stroke-linejoin:miter;stroke-miterlimit:10;stroke-dasharray:none;stroke-opacity:1" />
    <path
       id="path412-4-9-30"
       d="m 126.88048,193.42131 -2.26577,-3.92353 2.26577,-3.92404 -2.26577,-3.92406 h -4.53099 l -2.26522,3.92406 2.26522,3.92404 -2.26522,3.92353 h -4.53099 l -2.26522,-3.92353 h -4.53098 l -2.26523,-3.92404 h -4.530985 l -2.26576,3.92404 2.26576,3.92353 h 4.530985 l 2.26523,3.92404 -2.26523,3.92406 2.26523,3.92351 -2.26523,3.92405 2.26523,3.92405 h 4.53099 l 2.26521,-3.92405 -2.26521,-3.92405 2.26521,-3.92351 h 4.53099 l 2.26522,-3.92406 h 4.53099 z"
       style="fill:#808080;fill-opacity:1;fill-rule:nonzero;stroke:#000000;stroke-width:0.53287;stroke-linecap:butt;stroke-linejoin:miter;stroke-miterlimit:10;stroke-dasharray:none;stroke-opacity:1" />
    <path
       id="path412-4-8-3"
       d="m 103.93325,198.63385 -2.26577,3.92353 2.26577,3.92404 -2.26577,3.92406 h -4.530985 l -2.26522,-3.92406 2.26522,-3.92404 -2.26522,-3.92353 h -4.53099 l -2.26523,3.92353 h -4.53099 l -2.26523,3.92404 h -4.53099 l -2.26576,-3.92404 2.26576,-3.92353 h 4.53099 l 2.26523,-3.92404 -2.26523,-3.92406 2.26523,-3.92351 -2.26523,-3.92405 2.26523,-3.92405 h 4.53099 l 2.26523,3.92405 -2.26523,3.92405 2.26523,3.92351 h 4.53099 l 2.26522,3.92406 h 4.530985 z"
       style="fill:#808080;fill-opacity:1;fill-rule:nonzero;stroke:#000000;stroke-width:0.53287;stroke-linecap:butt;stroke-linejoin:miter;stroke-miterlimit:10;stroke-dasharray:none;stroke-opacity:1" />
    <path
       id="path412-4-9-8-0"
       d="m 81.404965,193.63995 -2.26577,-3.92353 2.26577,-3.92404 -2.26577,-3.92406 h -4.53099 l -2.26522,3.92406 2.26522,3.92404 -2.26522,3.92353 h -4.53099 l -2.26522,-3.92353 h -4.53098 l -2.26523,-3.92404 h -4.53099 l -2.26576,3.92404 2.26576,3.92353 h 4.53099 l 2.26523,3.92404 -2.26523,3.92406 2.26523,3.92351 -2.26523,3.92405 2.26523,3.92405 h 4.53098 l 2.26522,-3.92405 -2.26522,-3.92405 2.26522,-3.92351 h 4.53099 l 2.26522,-3.92406 h 4.53099 z"
       style="fill:#808080;fill-opacity:1;fill-rule:nonzero;stroke:#000000;stroke-width:0.53287;stroke-linecap:butt;stroke-linejoin:miter;stroke-miterlimit:10;stroke-dasharray:none;stroke-opacity:1" />
    <path
       id="path412-4-6-9"
       d="m 149.5632,224.73064 -2.26577,3.92353 2.26577,3.92404 -2.26577,3.92406 h -4.53099 l -2.26522,-3.92406 2.26522,-3.92404 -2.26522,-3.92353 h -4.53099 l -2.26523,3.92353 h -4.531 l -2.26523,3.92404 h -4.53099 l -2.26576,-3.92404 2.26576,-3.92353 h 4.53099 l 2.26523,-3.92404 -2.26523,-3.92406 2.26523,-3.92351 -2.26523,-3.92405 2.26523,-3.92405 h 4.531 l 2.26523,3.92405 -2.26523,3.92405 2.26523,3.92351 h 4.53099 l 2.26522,3.92406 h 4.53099 z"
       style="fill:#808080;fill-opacity:1;fill-rule:nonzero;stroke:#000000;stroke-width:0.53287;stroke-linecap:butt;stroke-linejoin:miter;stroke-miterlimit:10;stroke-dasharray:none;stroke-opacity:1" />
    <path
       id="path412-4-9-3-2"
       d="m 127.03491,219.73674 -2.26577,-3.92353 2.26577,-3.92404 -2.26577,-3.92406 h -4.53099 l -2.26522,3.92406 2.26522,3.92404 -2.26522,3.92353 h -4.53099 l -2.26522,-3.92353 h -4.53098 l -2.26523,-3.92404 h -4.530985 l -2.26576,3.92404 2.26576,3.92353 h 4.530985 l 2.26523,3.92404 -2.26523,3.92406 2.26523,3.92351 -2.26523,3.92405 2.26523,3.92405 h 4.53098 l 2.26522,-3.92405 -2.26522,-3.92405 2.26522,-3.92351 h 4.53099 l 2.26522,-3.92406 h 4.53099 z"
       style="fill:#808080;fill-opacity:1;fill-rule:nonzero;stroke:#000000;stroke-width:0.53287;stroke-linecap:butt;stroke-linejoin:miter;stroke-miterlimit:10;stroke-dasharray:none;stroke-opacity:1" />
    <path
       id="path412-4-8-8-5"
       d="m 104.08768,224.94928 -2.26577,3.92353 2.26577,3.92404 -2.26577,3.92406 h -4.530985 l -2.26522,-3.92406 2.26522,-3.92404 -2.26522,-3.92353 h -4.53098 l -2.26523,3.92353 h -4.53099 l -2.26523,3.92404 h -4.53099 l -2.26576,-3.92404 2.26576,-3.92353 h 4.53099 l 2.26523,-3.92404 -2.26523,-3.92406 2.26523,-3.92351 -2.26523,-3.92405 2.26523,-3.92405 h 4.53099 l 2.26523,3.92405 -2.26523,3.92405 2.26523,3.92351 h 4.53098 l 2.26522,3.92406 h 4.530985 z"
       style="fill:#808080;fill-opacity:1;fill-rule:nonzero;stroke:#000000;stroke-width:0.53287;stroke-linecap:butt;stroke-linejoin:miter;stroke-miterlimit:10;stroke-dasharray:none;stroke-opacity:1" />
    <path
       id="path412-4-9-8-5-4"
       d="m 81.559405,219.95538 -2.26577,-3.92353 2.26577,-3.92404 -2.26577,-3.92406 h -4.53099 l -2.26522,3.92406 2.26522,3.92404 -2.26522,3.92353 h -4.53099 l -2.26522,-3.92353 h -4.53098 l -2.26523,-3.92404 h -4.53099 l -2.26576,3.92404 2.26576,3.92353 h 4.53099 l 2.26523,3.92404 -2.26523,3.92406 2.26523,3.92351 -2.26523,3.92405 2.26523,3.92405 h 4.53098 l 2.26522,-3.92405 -2.26522,-3.92405 2.26522,-3.92351 h 4.53099 l 2.26522,-3.92406 h 4.53099 z"
       style="fill:#808080;fill-opacity:1;fill-rule:nonzero;stroke:#000000;stroke-width:0.53287;stroke-linecap:butt;stroke-linejoin:miter;stroke-miterlimit:10;stroke-dasharray:none;stroke-opacity:1" />
    <path
       id="path412-4-5-0"
       d="m 149.3551,251.14259 -2.26577,3.92353 2.26577,3.92404 -2.26577,3.92406 h -4.53099 l -2.26522,-3.92406 2.26522,-3.92404 -2.26522,-3.92353 h -4.53099 l -2.26523,3.92353 h -4.53099 l -2.26523,3.92404 h -4.53099 l -2.26576,-3.92404 2.26576,-3.92353 h 4.53099 l 2.26523,-3.92404 -2.26523,-3.92406 2.26523,-3.92351 -2.26523,-3.92405 2.26523,-3.92405 h 4.53099 l 2.26523,3.92405 -2.26523,3.92405 2.26523,3.92351 h 4.53099 l 2.26522,3.92406 h 4.53099 z"
       style="fill:#808080;fill-opacity:1;fill-rule:nonzero;stroke:#000000;stroke-width:0.53287;stroke-linecap:butt;stroke-linejoin:miter;stroke-miterlimit:10;stroke-dasharray:none;stroke-opacity:1" />
    <path
       id="path412-4-5-4-5"
       d="m 131.54979,286.15778 3.92353,-2.26577 3.92404,2.26577 3.92406,-2.26577 v -4.53099 l -3.92406,-2.26522 -3.92404,2.26522 -3.92353,-2.26522 v -4.53099 l 3.92353,-2.26523 v -4.53099 l 3.92404,-2.26523 v -4.53099 l -3.92404,-2.26576 -3.92353,2.26576 v 4.53099 l -3.92404,2.26523 -3.92406,-2.26523 -3.92351,2.26523 -3.92405,-2.26523 -3.92405,2.26523 v 4.53099 l 3.92405,2.26523 3.92405,-2.26523 3.92351,2.26523 v 4.53099 l 3.92406,2.26522 v 4.53099 z"
       style="fill:#808080;fill-opacity:1;fill-rule:nonzero;stroke:#000000;stroke-width:0.53287;stroke-linecap:butt;stroke-linejoin:miter;stroke-miterlimit:10;stroke-dasharray:none;stroke-opacity:1" />
    <path
       id="path412-4-5-4-9-9"
       d="m 86.166645,286.03592 3.92353,-2.26577 3.92404,2.26577 3.92406,-2.26577 v -4.53099 l -3.92406,-2.26522 -3.92404,2.26522 -3.92353,-2.26522 v -4.53099 l 3.92353,-2.26523 v -4.53099 l 3.92404,-2.26523 v -4.53099 l -3.92404,-2.26576 -3.92353,2.26576 v 4.53099 l -3.92404,2.26523 -3.92406,-2.26523 -3.92351,2.26523 -3.92405,-2.26523 -3.92405,2.26523 v 4.53099 l 3.92405,2.26523 3.92405,-2.26523 3.92351,2.26523 v 4.53099 l 3.92406,2.26522 v 4.53099 z"
       style="fill:#808080;fill-opacity:1;fill-rule:nonzero;stroke:#000000;stroke-width:0.53287;stroke-linecap:butt;stroke-linejoin:miter;stroke-miterlimit:10;stroke-dasharray:none;stroke-opacity:1" />
    <path
       id="path412-4-9-9-4"
       d="m 126.82681,246.14869 -2.26577,-3.92353 2.26577,-3.92404 -2.26577,-3.92406 h -4.53099 l -2.26522,3.92406 2.26522,3.92404 -2.26522,3.92353 h -4.53099 l -2.26522,-3.92353 h -4.53099 l -2.26523,-3.92404 h -4.530985 l -2.26576,3.92404 2.26576,3.92353 h 4.530985 l 2.26523,3.92404 -2.26523,3.92406 2.26523,3.92351 -2.26523,3.92405 2.26523,3.92405 h 4.53099 l 2.26522,-3.92405 -2.26522,-3.92405 2.26522,-3.92351 h 4.53099 l 2.26522,-3.92406 h 4.53099 z"
       style="fill:#808080;fill-opacity:1;fill-rule:nonzero;stroke:#000000;stroke-width:0.53287;stroke-linecap:butt;stroke-linejoin:miter;stroke-miterlimit:10;stroke-dasharray:none;stroke-opacity:1" />
    <path
       id="path412-4-1"
       d="m 233.91176,113.62628 -2.26577,3.92353 2.26577,3.92404 -2.26577,3.92406 H 227.115 l -2.26522,-3.92406 2.26522,-3.92404 -2.26522,-3.92353 h -4.53099 l -2.26523,3.92353 h -4.531 l -2.26523,3.92404 h -4.53099 l -2.26576,-3.92404 2.26576,-3.92353 h 4.53099 l 2.26523,-3.92404 -2.26523,-3.92406 2.26523,-3.92351 -2.26523,-3.924058 2.26523,-3.924062 h 4.531 l 2.26523,3.924062 -2.26523,3.924058 2.26523,3.92351 h 4.53099 l 2.26522,3.92406 h 4.53099 z"
       style="fill:#808080;fill-opacity:1;fill-rule:nonzero;stroke:#000000;stroke-width:0.53287;stroke-linecap:butt;stroke-linejoin:miter;stroke-miterlimit:10;stroke-dasharray:none;stroke-opacity:1" />
    <path
       id="path412-4-9-0"
       d="m 211.38347,108.63238 -2.26577,-3.92353 2.26577,-3.92405 -2.26577,-3.924062 h -4.53099 l -2.26522,3.924062 2.26522,3.92405 -2.26522,3.92353 h -4.53099 l -2.26523,-3.92353 h -4.53099 l -2.26523,-3.92405 h -4.53099 l -2.26576,3.92405 2.26576,3.92353 h 4.53099 l 2.26523,3.92404 -2.26523,3.92406 2.26523,3.92351 -2.26523,3.92405 2.26523,3.92405 h 4.53099 l 2.26523,-3.92405 -2.26523,-3.92405 2.26523,-3.92351 h 4.53099 l 2.26522,-3.92406 h 4.53099 z"
       style="fill:#808080;fill-opacity:1;fill-rule:nonzero;stroke:#000000;stroke-width:0.53287;stroke-linecap:butt;stroke-linejoin:miter;stroke-miterlimit:10;stroke-dasharray:none;stroke-opacity:1" />
    <path
       id="path412-4-8-85"
       d="m 188.43622,113.84492 -2.26577,3.92353 2.26577,3.92404 -2.26577,3.92406 h -4.53099 l -2.26522,-3.92406 2.26522,-3.92404 -2.26522,-3.92353 h -4.53099 l -2.26523,3.92353 h -4.53099 l -2.26523,3.92404 h -4.53099 l -2.26576,-3.92404 2.26576,-3.92353 h 4.53099 l 2.26523,-3.92404 -2.26523,-3.92406 2.26523,-3.92351 -2.26523,-3.924058 2.26523,-3.924062 h 4.53099 l 2.26523,3.924062 -2.26523,3.924058 2.26523,3.92351 h 4.53099 l 2.26522,3.92406 h 4.53099 z"
       style="fill:#808080;fill-opacity:1;fill-rule:nonzero;stroke:#000000;stroke-width:0.53287;stroke-linecap:butt;stroke-linejoin:miter;stroke-miterlimit:10;stroke-dasharray:none;stroke-opacity:1" />
    <path
       id="path412-4-9-8-06"
       d="m 165.90793,108.85102 -2.26577,-3.92353 2.26577,-3.92405 -2.26577,-3.924062 h -4.53099 l -2.26522,3.924062 2.26522,3.92405 -2.26522,3.92353 h -4.53099 l -2.26522,-3.92353 h -4.53098 l -2.26523,-3.92405 h -4.53099 l -2.26576,3.92405 2.26576,3.92353 h 4.53099 l 2.26523,3.92404 -2.26523,3.92406 2.26523,3.92351 -2.26523,3.92405 2.26523,3.92405 h 4.53098 l 2.26522,-3.92405 -2.26522,-3.92405 2.26522,-3.92351 h 4.53099 l 2.26522,-3.92406 h 4.53099 z"
       style="fill:#808080;fill-opacity:1;fill-rule:nonzero;stroke:#000000;stroke-width:0.53287;stroke-linecap:butt;stroke-linejoin:miter;stroke-miterlimit:10;stroke-dasharray:none;stroke-opacity:1" />
    <path
       id="path412-4-6-4"
       d="m 234.06618,139.94171 -2.26576,3.92353 2.26576,3.92404 -2.26576,3.92406 h -4.53099 l -2.26523,-3.92406 2.26523,-3.92404 -2.26523,-3.92353 h -4.53099 l -2.26523,3.92353 h -4.531 l -2.26523,3.92404 h -4.53099 l -2.26576,-3.92404 2.26576,-3.92353 h 4.53099 l 2.26523,-3.92404 -2.26523,-3.92406 2.26523,-3.92351 -2.26523,-3.92405 2.26523,-3.92405 h 4.531 l 2.26523,3.92405 -2.26523,3.92405 2.26523,3.92351 h 4.53099 l 2.26523,3.92406 h 4.53099 z"
       style="fill:#808080;fill-opacity:1;fill-rule:nonzero;stroke:#000000;stroke-width:0.53287;stroke-linecap:butt;stroke-linejoin:miter;stroke-miterlimit:10;stroke-dasharray:none;stroke-opacity:1" />
    <path
       id="path412-4-9-3-6"
       d="m 211.53789,134.94781 -2.26577,-3.92353 2.26577,-3.92404 -2.26577,-3.92406 h -4.53099 l -2.26522,3.92406 2.26522,3.92404 -2.26522,3.92353 h -4.53099 l -2.26523,-3.92353 h -4.53098 l -2.26523,-3.92404 h -4.53099 l -2.26576,3.92404 2.26576,3.92353 h 4.53099 l 2.26523,3.92404 -2.26523,3.92406 2.26523,3.92351 -2.26523,3.92405 2.26523,3.92405 h 4.53098 l 2.26523,-3.92405 -2.26523,-3.92405 2.26523,-3.92351 h 4.53099 l 2.26522,-3.92406 h 4.53099 z"
       style="fill:#808080;fill-opacity:1;fill-rule:nonzero;stroke:#000000;stroke-width:0.53287;stroke-linecap:butt;stroke-linejoin:miter;stroke-miterlimit:10;stroke-dasharray:none;stroke-opacity:1" />
    <path
       id="path412-4-8-8-2"
       d="m 188.59065,140.16035 -2.26577,3.92353 2.26577,3.92404 -2.26577,3.92406 h -4.53099 l -2.26522,-3.92406 2.26522,-3.92404 -2.26522,-3.92353 h -4.53098 l -2.26523,3.92353 h -4.53099 l -2.26523,3.92404 h -4.53099 l -2.26576,-3.92404 2.26576,-3.92353 h 4.53099 l 2.26523,-3.92404 -2.26523,-3.92406 2.26523,-3.92351 -2.26523,-3.92405 2.26523,-3.92405 h 4.53099 l 2.26523,3.92405 -2.26523,3.92405 2.26523,3.92351 h 4.53098 l 2.26522,3.92406 h 4.53099 z"
       style="fill:#808080;fill-opacity:1;fill-rule:nonzero;stroke:#000000;stroke-width:0.53287;stroke-linecap:butt;stroke-linejoin:miter;stroke-miterlimit:10;stroke-dasharray:none;stroke-opacity:1" />
    <path
       id="path412-4-9-8-5-5"
       d="m 166.06237,135.16645 -2.26577,-3.92353 2.26577,-3.92404 -2.26577,-3.92406 h -4.53099 l -2.26522,3.92406 2.26522,3.92404 -2.26522,3.92353 h -4.53099 l -2.26522,-3.92353 h -4.53098 l -2.26523,-3.92404 h -4.53099 l -2.26576,3.92404 2.26576,3.92353 h 4.53099 l 2.26523,3.92404 -2.26523,3.92406 2.26523,3.92351 -2.26523,3.92405 2.26523,3.92405 h 4.53098 l 2.26522,-3.92405 -2.26522,-3.92405 2.26522,-3.92351 h 4.53099 l 2.26522,-3.92406 h 4.53099 z"
       style="fill:#808080;fill-opacity:1;fill-rule:nonzero;stroke:#000000;stroke-width:0.53287;stroke-linecap:butt;stroke-linejoin:miter;stroke-miterlimit:10;stroke-dasharray:none;stroke-opacity:1" />
    <path
       id="path412-4-5-8"
       d="m 233.85809,166.35366 -2.26577,3.92353 2.26577,3.92404 -2.26577,3.92406 h -4.53099 l -2.26522,-3.92406 2.26522,-3.92404 -2.26522,-3.92353 h -4.53099 l -2.26523,3.92353 h -4.531 l -2.26523,3.92404 h -4.53099 l -2.26576,-3.92404 2.26576,-3.92353 h 4.53099 l 2.26523,-3.92404 -2.26523,-3.92406 2.26523,-3.92351 -2.26523,-3.92405 2.26523,-3.92405 h 4.531 l 2.26523,3.92405 -2.26523,3.92405 2.26523,3.92351 h 4.53099 l 2.26522,3.92406 h 4.53099 z"
       style="fill:#808080;fill-opacity:1;fill-rule:nonzero;stroke:#000000;stroke-width:0.53287;stroke-linecap:butt;stroke-linejoin:miter;stroke-miterlimit:10;stroke-dasharray:none;stroke-opacity:1" />
    <path
       id="path412-4-9-9-6"
       d="m 211.32979,161.35976 -2.26577,-3.92353 2.26577,-3.92404 -2.26577,-3.92406 h -4.53099 l -2.26522,3.92406 2.26522,3.92404 -2.26522,3.92353 h -4.53099 l -2.26523,-3.92353 h -4.53099 l -2.26523,-3.92404 h -4.53099 l -2.26576,3.92404 2.26576,3.92353 h 4.53099 l 2.26523,3.92404 -2.26523,3.92406 2.26523,3.92351 -2.26523,3.92405 2.26523,3.92405 h 4.53099 l 2.26523,-3.92405 -2.26523,-3.92405 2.26523,-3.92351 h 4.53099 l 2.26522,-3.92406 h 4.53099 z"
       style="fill:#808080;fill-opacity:1;fill-rule:nonzero;stroke:#000000;stroke-width:0.53287;stroke-linecap:butt;stroke-linejoin:miter;stroke-miterlimit:10;stroke-dasharray:none;stroke-opacity:1" />
    <path
       id="path412-4-8-84-2"
       d="m 188.38254,166.5723 -2.26577,3.92353 2.26577,3.92404 -2.26577,3.92406 h -4.53099 l -2.26522,-3.92406 2.26522,-3.92404 -2.26522,-3.92353 h -4.53099 l -2.26523,3.92353 h -4.53099 l -2.26523,3.92404 h -4.53099 l -2.26576,-3.92404 2.26576,-3.92353 h 4.53099 l 2.26523,-3.92404 -2.26523,-3.92406 2.26523,-3.92351 -2.26523,-3.92405 2.26523,-3.92405 h 4.53099 l 2.26523,3.92405 -2.26523,3.92405 2.26523,3.92351 h 4.53099 l 2.26522,3.92406 h 4.53099 z"
       style="fill:#808080;fill-opacity:1;fill-rule:nonzero;stroke:#000000;stroke-width:0.53287;stroke-linecap:butt;stroke-linejoin:miter;stroke-miterlimit:10;stroke-dasharray:none;stroke-opacity:1" />
    <path
       id="path412-4-9-8-8-8"
       d="m 165.85425,161.5784 -2.26577,-3.92353 2.26577,-3.92404 -2.26577,-3.92406 h -4.53099 l -2.26522,3.92406 2.26522,3.92404 -2.26522,3.92353 h -4.53099 l -2.26522,-3.92353 h -4.53098 l -2.26523,-3.92404 h -4.53099 l -2.26576,3.92404 2.26576,3.92353 h 4.53099 l 2.26523,3.92404 -2.26523,3.92406 2.26523,3.92351 -2.26523,3.92405 2.26523,3.92405 h 4.53098 l 2.26522,-3.92405 -2.26522,-3.92405 2.26522,-3.92351 h 4.53099 l 2.26522,-3.92406 h 4.53099 z"
       style="fill:#808080;fill-opacity:1;fill-rule:nonzero;stroke:#000000;stroke-width:0.53287;stroke-linecap:butt;stroke-linejoin:miter;stroke-miterlimit:10;stroke-dasharray:none;stroke-opacity:1" />
    <path
       id="path412-4-4-4"
       d="m 143.65938,114.2215 -2.26577,3.92353 2.26577,3.92404 -2.26577,3.92406 h -4.53099 l -2.26522,-3.92406 2.26522,-3.92404 -2.26522,-3.92353 h -4.531 l -2.26524,3.92353 h -4.531 l -2.26523,3.92404 h -4.53099 l -2.26576,-3.92404 2.26576,-3.92353 h 4.53099 l 2.26523,-3.92404 -2.26523,-3.92406 2.26523,-3.92351 -2.26523,-3.924061 2.26523,-3.924049 h 4.531 l 2.26524,3.924049 -2.26524,3.924061 2.26524,3.92351 h 4.531 l 2.26522,3.92406 h 4.53099 z"
       style="fill:#808080;fill-opacity:1;fill-rule:nonzero;stroke:#000000;stroke-width:0.53287;stroke-linecap:butt;stroke-linejoin:miter;stroke-miterlimit:10;stroke-dasharray:none;stroke-opacity:1" />
    <path
       id="path412-4-6-9-2"
       d="m 143.81381,140.53693 -2.26577,3.92353 2.26577,3.92404 -2.26577,3.92406 h -4.53099 l -2.26522,-3.92406 2.26522,-3.92404 -2.26522,-3.92353 h -4.531 l -2.26524,3.92353 h -4.53101 l -2.26523,3.92404 h -4.53099 l -2.26576,-3.92404 2.26576,-3.92353 h 4.53099 l 2.26523,-3.92404 -2.26523,-3.92406 2.26523,-3.92351 -2.26523,-3.92405 2.26523,-3.92405 h 4.53101 l 2.26524,3.92405 -2.26524,3.92405 2.26524,3.92351 h 4.531 l 2.26522,3.92406 h 4.53099 z"
       style="fill:#808080;fill-opacity:1;fill-rule:nonzero;stroke:#000000;stroke-width:0.53287;stroke-linecap:butt;stroke-linejoin:miter;stroke-miterlimit:10;stroke-dasharray:none;stroke-opacity:1" />
    <path
       id="path412-4-5-0-0"
       d="m 143.60571,166.94888 -2.26577,3.92353 2.26577,3.92404 -2.26577,3.92406 h -4.53099 l -2.26522,-3.92406 2.26522,-3.92404 -2.26522,-3.92353 h -4.531 l -2.26524,3.92353 h -4.531 l -2.26523,3.92404 h -4.53099 l -2.26576,-3.92404 2.26576,-3.92353 h 4.53099 l 2.26523,-3.92404 -2.26523,-3.92406 2.26523,-3.92351 -2.26523,-3.92405 2.26523,-3.92405 h 4.531 l 2.26524,3.92405 -2.26524,3.92405 2.26524,3.92351 h 4.531 l 2.26522,3.92406 h 4.53099 z"
       style="fill:#808080;fill-opacity:1;fill-rule:nonzero;stroke:#000000;stroke-width:0.53287;stroke-linecap:butt;stroke-linejoin:miter;stroke-miterlimit:10;stroke-dasharray:none;stroke-opacity:1" />
    <path
       id="path412-4-1-0"
       d="m 233.3501,33.661858 -2.26577,3.92353 2.26577,3.92404 -2.26577,3.92406 h -4.53099 l -2.26522,-3.92406 2.26522,-3.92404 -2.26522,-3.92353 h -4.53099 l -2.26523,3.92353 h -4.53099 l -2.26523,3.92404 h -4.53099 l -2.26576,-3.92404 2.26576,-3.92353 h 4.53099 l 2.26523,-3.92404 -2.26523,-3.92406 2.26523,-3.92351 -2.26523,-3.92407 2.26523,-3.92408 h 4.53099 l 2.26523,3.92408 -2.26523,3.92407 2.26523,3.92351 h 4.53099 l 2.26522,3.92406 h 4.53099 z"
       style="fill:#808080;fill-opacity:1;fill-rule:nonzero;stroke:#000000;stroke-width:0.53287;stroke-linecap:butt;stroke-linejoin:miter;stroke-miterlimit:10;stroke-dasharray:none;stroke-opacity:1" />
    <path
       id="path412-4-9-0-8"
       d="m 210.82181,28.667958 -2.26577,-3.92353 2.26577,-3.92405 -2.26577,-3.92408 h -4.53099 l -2.26522,3.92408 2.26522,3.92405 -2.26522,3.92353 h -4.53099 l -2.26523,-3.92353 h -4.53099 l -2.26523,-3.92405 h -4.53099 l -2.26576,3.92405 2.26576,3.92353 h 4.53099 l 2.26523,3.92404 -2.26523,3.92406 2.26523,3.92351 -2.26523,3.92405 2.26523,3.92405 h 4.53099 l 2.26523,-3.92405 -2.26523,-3.92405 2.26523,-3.92351 h 4.53099 l 2.26522,-3.92406 h 4.53099 z"
       style="fill:#808080;fill-opacity:1;fill-rule:nonzero;stroke:#000000;stroke-width:0.53287;stroke-linecap:butt;stroke-linejoin:miter;stroke-miterlimit:10;stroke-dasharray:none;stroke-opacity:1" />
    <path
       id="path412-4-8-85-1"
       d="m 187.87456,33.880498 -2.26577,3.92353 2.26577,3.92404 -2.26577,3.92406 h -4.53099 l -2.26522,-3.92406 2.26522,-3.92404 -2.26522,-3.92353 h -4.53099 l -2.26523,3.92353 h -4.53098 l -2.26523,3.92404 h -4.53099 l -2.26576,-3.92404 2.26576,-3.92353 h 4.53099 l 2.26523,-3.92404 -2.26523,-3.92406 2.26523,-3.92351 -2.26523,-3.92407 2.26523,-3.92408 h 4.53098 l 2.26523,3.92408 -2.26523,3.92407 2.26523,3.92351 h 4.53099 l 2.26522,3.92406 h 4.53099 z"
       style="fill:#808080;fill-opacity:1;fill-rule:nonzero;stroke:#000000;stroke-width:0.53287;stroke-linecap:butt;stroke-linejoin:miter;stroke-miterlimit:10;stroke-dasharray:none;stroke-opacity:1" />
    <path
       id="path412-4-9-8-06-3"
       d="m 165.34628,28.886598 -2.26577,-3.92353 2.26577,-3.92405 -2.26577,-3.92408 h -4.53099 l -2.26522,3.92408 2.26522,3.92405 -2.26522,3.92353 h -4.53099 l -2.26522,-3.92353 h -4.53098 l -2.26523,-3.92405 h -4.53099 l -2.26576,3.92405 2.26576,3.92353 h 4.53099 l 2.26523,3.92404 -2.26523,3.92406 2.26523,3.92351 -2.26523,3.92405 2.26523,3.92405 h 4.53098 l 2.26522,-3.92405 -2.26522,-3.92405 2.26522,-3.92351 h 4.53099 l 2.26522,-3.92406 h 4.53099 z"
       style="fill:#808080;fill-opacity:1;fill-rule:nonzero;stroke:#000000;stroke-width:0.53287;stroke-linecap:butt;stroke-linejoin:miter;stroke-miterlimit:10;stroke-dasharray:none;stroke-opacity:1" />
    <path
       id="path412-4-6-4-1"
       d="m 233.50453,59.977288 -2.26577,3.92353 2.26577,3.92404 -2.26577,3.92406 h -4.53099 l -2.26522,-3.92406 2.26522,-3.92404 -2.26522,-3.92353 h -4.53099 l -2.26523,3.92353 h -4.531 l -2.26523,3.92404 h -4.53099 l -2.26576,-3.92404 2.26576,-3.92353 h 4.53099 l 2.26523,-3.92404 -2.26523,-3.92406 2.26523,-3.92351 -2.26523,-3.92405 2.26523,-3.92405 h 4.531 l 2.26523,3.92405 -2.26523,3.92405 2.26523,3.92351 h 4.53099 l 2.26522,3.92406 h 4.53099 z"
       style="fill:#808080;fill-opacity:1;fill-rule:nonzero;stroke:#000000;stroke-width:0.53287;stroke-linecap:butt;stroke-linejoin:miter;stroke-miterlimit:10;stroke-dasharray:none;stroke-opacity:1" />
    <path
       id="path412-4-9-3-6-1"
       d="m 210.97624,54.983388 -2.26577,-3.92353 2.26577,-3.92404 -2.26577,-3.92406 h -4.53099 l -2.26522,3.92406 2.26522,3.92404 -2.26522,3.92353 h -4.53099 l -2.26524,-3.92353 h -4.53098 l -2.26523,-3.92404 h -4.53099 l -2.26576,3.92404 2.26576,3.92353 h 4.53099 l 2.26523,3.92404 -2.26523,3.92406 2.26523,3.92351 -2.26523,3.92405 2.26523,3.92405 h 4.53098 l 2.26524,-3.92405 -2.26524,-3.92405 2.26524,-3.92351 h 4.53099 l 2.26522,-3.92406 h 4.53099 z"
       style="fill:#808080;fill-opacity:1;fill-rule:nonzero;stroke:#000000;stroke-width:0.53287;stroke-linecap:butt;stroke-linejoin:miter;stroke-miterlimit:10;stroke-dasharray:none;stroke-opacity:1" />
    <path
       id="path412-4-8-8-2-0"
       d="m 188.02899,60.195928 -2.26577,3.92353 2.26577,3.92404 -2.26577,3.92406 h -4.53099 l -2.26522,-3.92406 2.26522,-3.92404 -2.26522,-3.92353 h -4.53098 l -2.26523,3.92353 h -4.53098 l -2.26523,3.92404 h -4.53099 l -2.26576,-3.92404 2.26576,-3.92353 h 4.53099 l 2.26523,-3.92404 -2.26523,-3.92406 2.26523,-3.92351 -2.26523,-3.92405 2.26523,-3.92405 h 4.53098 l 2.26523,3.92405 -2.26523,3.92405 2.26523,3.92351 h 4.53098 l 2.26522,3.92406 h 4.53099 z"
       style="fill:#808080;fill-opacity:1;fill-rule:nonzero;stroke:#000000;stroke-width:0.53287;stroke-linecap:butt;stroke-linejoin:miter;stroke-miterlimit:10;stroke-dasharray:none;stroke-opacity:1" />
    <path
       id="path412-4-9-8-5-5-3"
       d="m 165.50072,55.202028 -2.26577,-3.92353 2.26577,-3.92404 -2.26577,-3.92406 h -4.53099 l -2.26522,3.92406 2.26522,3.92404 -2.26522,3.92353 h -4.53099 l -2.26522,-3.92353 h -4.53098 l -2.26523,-3.92404 h -4.53099 l -2.26576,3.92404 2.26576,3.92353 h 4.53099 l 2.26523,3.92404 -2.26523,3.92406 2.26523,3.92351 -2.26523,3.92405 2.26523,3.92405 h 4.53098 l 2.26522,-3.92405 -2.26522,-3.92405 2.26522,-3.92351 h 4.53099 l 2.26522,-3.92406 h 4.53099 z"
       style="fill:#808080;fill-opacity:1;fill-rule:nonzero;stroke:#000000;stroke-width:0.53287;stroke-linecap:butt;stroke-linejoin:miter;stroke-miterlimit:10;stroke-dasharray:none;stroke-opacity:1" />
    <path
       id="path412-4-5-8-4"
       d="m 233.29643,86.389238 -2.26577,3.923532 2.26577,3.92404 -2.26577,3.924042 h -4.53099 l -2.26522,-3.924042 2.26522,-3.92404 -2.26522,-3.923532 h -4.53099 l -2.26523,3.923532 h -4.53099 l -2.26523,3.92404 h -4.53099 l -2.26576,-3.92404 2.26576,-3.923532 h 4.53099 l 2.26523,-3.92404 -2.26523,-3.92406 2.26523,-3.92351 -2.26523,-3.92405 2.26523,-3.92405 h 4.53099 l 2.26523,3.92405 -2.26523,3.92405 2.26523,3.92351 h 4.53099 l 2.26522,3.92406 h 4.53099 z"
       style="fill:#808080;fill-opacity:1;fill-rule:nonzero;stroke:#000000;stroke-width:0.53287;stroke-linecap:butt;stroke-linejoin:miter;stroke-miterlimit:10;stroke-dasharray:none;stroke-opacity:1" />
    <path
       id="path412-4-9-9-6-0"
       d="m 210.76814,81.395338 -2.26577,-3.92353 2.26577,-3.92404 -2.26577,-3.92406 h -4.53099 l -2.26522,3.92406 2.26522,3.92404 -2.26522,3.92353 h -4.53099 l -2.26524,-3.92353 h -4.53099 l -2.26523,-3.92404 h -4.53099 l -2.26576,3.92404 2.26576,3.92353 h 4.53099 l 2.26523,3.92404 -2.26523,3.92406 2.26523,3.923512 -2.26523,3.924038 2.26523,3.924032 h 4.53099 l 2.26524,-3.924032 -2.26524,-3.924038 2.26524,-3.923512 h 4.53099 l 2.26522,-3.92406 h 4.53099 z"
       style="fill:#808080;fill-opacity:1;fill-rule:nonzero;stroke:#000000;stroke-width:0.53287;stroke-linecap:butt;stroke-linejoin:miter;stroke-miterlimit:10;stroke-dasharray:none;stroke-opacity:1" />
    <path
       id="path412-4-8-84-2-3"
       d="m 187.82088,86.607878 -2.26577,3.923532 2.26577,3.92404 -2.26577,3.924042 h -4.53099 l -2.26522,-3.924042 2.26522,-3.92404 -2.26522,-3.923532 h -4.53099 l -2.26523,3.923532 h -4.53098 l -2.26523,3.92404 h -4.53099 l -2.26576,-3.92404 2.26576,-3.923532 h 4.53099 l 2.26523,-3.92404 -2.26523,-3.92406 2.26523,-3.92351 -2.26523,-3.92405 2.26523,-3.92405 h 4.53098 l 2.26523,3.92405 -2.26523,3.92405 2.26523,3.92351 h 4.53099 l 2.26522,3.92406 h 4.53099 z"
       style="fill:#808080;fill-opacity:1;fill-rule:nonzero;stroke:#000000;stroke-width:0.53287;stroke-linecap:butt;stroke-linejoin:miter;stroke-miterlimit:10;stroke-dasharray:none;stroke-opacity:1" />
    <path
       id="path412-4-9-8-8-8-9"
       d="m 165.2926,81.613978 -2.26577,-3.92353 2.26577,-3.92404 -2.26577,-3.92406 h -4.53099 l -2.26522,3.92406 2.26522,3.92404 -2.26522,3.92353 h -4.53099 l -2.26522,-3.92353 h -4.53098 l -2.26523,-3.92404 h -4.53099 l -2.26576,3.92404 2.26576,3.92353 h 4.53099 l 2.26523,3.92404 -2.26523,3.92406 2.26523,3.923512 -2.26523,3.924038 2.26523,3.924032 h 4.53098 l 2.26522,-3.924032 -2.26522,-3.924038 2.26522,-3.923512 h 4.53099 l 2.26522,-3.92406 h 4.53099 z"
       style="fill:#808080;fill-opacity:1;fill-rule:nonzero;stroke:#000000;stroke-width:0.53287;stroke-linecap:butt;stroke-linejoin:miter;stroke-miterlimit:10;stroke-dasharray:none;stroke-opacity:1" />
    <path
       id="path412-4-4-4-1"
       d="m 143.09773,34.257078 -2.26577,3.92353 2.26577,3.92404 -2.26577,3.92406 h -4.53099 l -2.26522,-3.92406 2.26522,-3.92404 -2.26522,-3.92353 h -4.531 l -2.26524,3.92353 h -4.531 l -2.26523,3.92404 h -4.53099 l -2.26576,-3.92404 2.26576,-3.92353 h 4.53099 l 2.26523,-3.92404 -2.26523,-3.92406 2.26523,-3.92351 -2.26523,-3.92407 2.26523,-3.92407 h 4.531 l 2.26524,3.92407 -2.26524,3.92407 2.26524,3.92351 h 4.531 l 2.26522,3.92406 h 4.53099 z"
       style="fill:#808080;fill-opacity:1;fill-rule:nonzero;stroke:#000000;stroke-width:0.53287;stroke-linecap:butt;stroke-linejoin:miter;stroke-miterlimit:10;stroke-dasharray:none;stroke-opacity:1" />
    <path
       id="path412-4-6-9-2-9"
       d="m 143.25216,60.572508 -2.26577,3.92353 2.26577,3.92404 -2.26577,3.92406 h -4.53099 l -2.26522,-3.92406 2.26522,-3.92404 -2.26522,-3.92353 h -4.531 l -2.26524,3.92353 h -4.53101 l -2.26523,3.92404 h -4.53099 l -2.26576,-3.92404 2.26576,-3.92353 h 4.53099 l 2.26523,-3.92404 -2.26523,-3.92406 2.26523,-3.92351 -2.26523,-3.92405 2.26523,-3.92405 h 4.53101 l 2.26524,3.92405 -2.26524,3.92405 2.26524,3.92351 h 4.531 l 2.26522,3.92406 h 4.53099 z"
       style="fill:#808080;fill-opacity:1;fill-rule:nonzero;stroke:#000000;stroke-width:0.53287;stroke-linecap:butt;stroke-linejoin:miter;stroke-miterlimit:10;stroke-dasharray:none;stroke-opacity:1" />
    <path
       id="path412-4-5-0-0-6"
       d="m 143.04406,86.984458 -2.26577,3.923532 2.26577,3.92404 -2.26577,3.924039 h -4.53099 l -2.26522,-3.924039 2.26522,-3.92404 -2.26522,-3.923532 h -4.531 l -2.26524,3.923532 h -4.531 l -2.26523,3.92404 h -4.53099 l -2.26576,-3.92404 2.26576,-3.923532 h 4.53099 l 2.26523,-3.92404 -2.26523,-3.92406 2.26523,-3.92351 -2.26523,-3.92405 2.26523,-3.92405 h 4.531 l 2.26524,3.92405 -2.26524,3.92405 2.26524,3.92351 h 4.531 l 2.26522,3.92406 h 4.53099 z"
       style="fill:#808080;fill-opacity:1;fill-rule:nonzero;stroke:#000000;stroke-width:0.53287;stroke-linecap:butt;stroke-linejoin:miter;stroke-miterlimit:10;stroke-dasharray:none;stroke-opacity:1" />
    <path
       id="path412-4-8-84-6"
       d="m 103.87957,251.36123 -2.26577,3.92353 2.26577,3.92404 -2.26577,3.92406 h -4.530985 l -2.26522,-3.92406 2.26522,-3.92404 -2.26522,-3.92353 h -4.53099 l -2.26523,3.92353 h -4.53099 l -2.26523,3.92404 h -4.53099 l -2.26576,-3.92404 2.26576,-3.92353 h 4.53099 l 2.26523,-3.92404 -2.26523,-3.92406 2.26523,-3.92351 -2.26523,-3.92405 2.26523,-3.92405 h 4.53099 l 2.26523,3.92405 -2.26523,3.92405 2.26523,3.92351 h 4.53099 l 2.26522,3.92406 h 4.530985 z"
       style="fill:#808080;fill-opacity:1;fill-rule:nonzero;stroke:#000000;stroke-width:0.53287;stroke-linecap:butt;stroke-linejoin:miter;stroke-miterlimit:10;stroke-dasharray:none;stroke-opacity:1" />
    <path
       id="path412-4-9-8-8-9"
       d="m 81.351285,246.36733 -2.26577,-3.92353 2.26577,-3.92404 -2.26577,-3.92406 h -4.53099 l -2.26522,3.92406 2.26522,3.92404 -2.26522,3.92353 h -4.53099 l -2.26522,-3.92353 h -4.53098 l -2.26523,-3.92404 h -4.53099 l -2.26576,3.92404 2.26576,3.92353 h 4.53099 l 2.26523,3.92404 -2.26523,3.92406 2.26523,3.92351 -2.26523,3.92405 2.26523,3.92405 h 4.53098 l 2.26522,-3.92405 -2.26522,-3.92405 2.26522,-3.92351 h 4.53099 l 2.26522,-3.92406 h 4.53099 z"
       style="fill:#808080;fill-opacity:1;fill-rule:nonzero;stroke:#000000;stroke-width:0.53287;stroke-linecap:butt;stroke-linejoin:miter;stroke-miterlimit:10;stroke-dasharray:none;stroke-opacity:1" />
    <path
       id="path412-4-8-3-7"
       d="m 58.420135,198.71637 -2.26577,3.92353 2.26577,3.92404 -2.26577,3.92406 h -4.53099 l -2.26522,-3.92406 2.26522,-3.92404 -2.26522,-3.92353 h -4.53099 l -2.26523,3.92353 h -4.53099 l -2.26523,3.92404 h -4.53099 l -2.26576,-3.92404 2.26576,-3.92353 h 4.53099 l 2.26523,-3.92404 -2.26523,-3.92406 2.26523,-3.92351 -2.26523,-3.92405 2.26523,-3.92405 h 4.53099 l 2.26523,3.92405 -2.26523,3.92405 2.26523,3.92351 h 4.53099 l 2.26522,3.92406 h 4.53099 z"
       style="fill:#808080;fill-opacity:1;fill-rule:nonzero;stroke:#000000;stroke-width:0.53287;stroke-linecap:butt;stroke-linejoin:miter;stroke-miterlimit:10;stroke-dasharray:none;stroke-opacity:1" />
    <path
       id="path412-4-8-8-5-5"
       d="m 58.574565,225.0318 -2.26577,3.92353 2.26577,3.92404 -2.26577,3.92406 h -4.53099 l -2.26522,-3.92406 2.26522,-3.92404 -2.26522,-3.92353 h -4.53098 l -2.26523,3.92353 h -4.53099 l -2.26523,3.92404 h -4.53099 l -2.26576,-3.92404 2.26576,-3.92353 h 4.53099 l 2.26523,-3.92404 -2.26523,-3.92406 2.26523,-3.92351 -2.26523,-3.92405 2.26523,-3.92405 h 4.53099 l 2.26523,3.92405 -2.26523,3.92405 2.26523,3.92351 h 4.53098 l 2.26522,3.92406 h 4.53099 z"
       style="fill:#808080;fill-opacity:1;fill-rule:nonzero;stroke:#000000;stroke-width:0.53287;stroke-linecap:butt;stroke-linejoin:miter;stroke-miterlimit:10;stroke-dasharray:none;stroke-opacity:1" />
    <path
       id="path412-4-5-4-9-9-8"
       d="m 40.653525,286.11844 3.92353,-2.26577 3.92404,2.26577 3.92406,-2.26577 v -4.53099 l -3.92406,-2.26522 -3.92404,2.26522 -3.92353,-2.26522 v -4.53099 l 3.92353,-2.26523 v -4.53099 l 3.92404,-2.26523 v -4.53099 l -3.92404,-2.26576 -3.92353,2.26576 v 4.53099 l -3.92404,2.26523 -3.92406,-2.26523 -3.92351,2.26523 -3.92405,-2.26523 -3.92405,2.26523 v 4.53099 l 3.92405,2.26523 3.92405,-2.26523 3.92351,2.26523 v 4.53099 l 3.92406,2.26522 v 4.53099 z"
       style="fill:#808080;fill-opacity:1;fill-rule:nonzero;stroke:#000000;stroke-width:0.53287;stroke-linecap:butt;stroke-linejoin:miter;stroke-miterlimit:10;stroke-dasharray:none;stroke-opacity:1" />
    <path
       id="path412-4-8-84-6-1"
       d="m 58.366455,251.44375 -2.26577,3.92353 2.26577,3.92404 -2.26577,3.92406 h -4.53099 l -2.26522,-3.92406 2.26522,-3.92404 -2.26522,-3.92353 h -4.53099 l -2.26523,3.92353 h -4.53099 l -2.26523,3.92404 h -4.53099 l -2.26576,-3.92404 2.26576,-3.92353 h 4.53099 l 2.26523,-3.92404 -2.26523,-3.92406 2.26523,-3.92351 -2.26523,-3.92405 2.26523,-3.92405 h 4.53099 l 2.26523,3.92405 -2.26523,3.92405 2.26523,3.92351 h 4.53099 l 2.26522,3.92406 h 4.53099 z"
       style="fill:#808080;fill-opacity:1;fill-rule:nonzero;stroke:#000000;stroke-width:0.53287;stroke-linecap:butt;stroke-linejoin:miter;stroke-miterlimit:10;stroke-dasharray:none;stroke-opacity:1" />
    <path
       id="path404-2"
       d="m 57.028555,38.394407 -2.26498,-3.923963 2.2655,-3.923951 -2.26572,-3.923775 -4.53093,-2.75e-4 -2.2655,3.923952 2.26544,3.924227 -2.26523,3.923488 -4.5312,1.87e-4 -2.26499,-3.923971 -4.5312,1.86e-4 -2.26546,-3.924236 -4.53074,4.51e-4 -2.26549,3.92395 2.26524,3.923502 4.53095,2.83e-4 2.26571,3.923767 -2.2655,3.923952 2.26526,3.923512 -2.26549,3.923952 2.2657,3.923767 4.53095,2.83e-4 2.2655,-3.923952 -2.26572,-3.923777 2.26549,-3.923952 4.53095,2.83e-4 2.2655,-3.92395 4.53074,-4.52e-4 z"
       style="fill:#808080;fill-opacity:1;fill-rule:nonzero;stroke:#000000;stroke-width:0.53287;stroke-linecap:butt;stroke-linejoin:miter;stroke-miterlimit:10;stroke-dasharray:none;stroke-opacity:1" />
    <path
       id="path404-6"
       d="m 36.634205,85.525659 -2.26576,-3.92351 h -4.53099 l -2.26522,-3.92406 2.26522,-3.92404 h 4.53099 l 2.26576,3.92404 h 4.53046 l 2.26576,-3.92404 -2.26576,-3.92353 2.26576,-3.92404 -2.26576,-3.92406 2.26576,-3.92351 h 4.53099 l 2.26523,3.92351 -2.26523,3.92406 2.26523,3.92404 h 4.53099 l 2.26523,3.92353 h 4.53099 l 2.26523,3.92404 -2.26523,3.92406 h -4.53099 l -2.26523,-3.92406 h -4.53099 l -2.26523,3.92406 h -4.53099 l -2.26576,3.92351 z"
       style="fill:#808080;fill-opacity:1;fill-rule:nonzero;stroke:#000000;stroke-width:0.53287;stroke-linecap:butt;stroke-linejoin:miter;stroke-miterlimit:10;stroke-dasharray:none;stroke-opacity:1" />
    <path
       id="path404-3-1"
       d="m 77.477055,56.882663 2.26576,3.92351 4.53099,-1e-6 2.26523,3.924061 -2.26523,3.92404 h -4.53099 l -2.26576,-3.92404 h -4.53046 l -2.26576,3.92404 2.26576,3.923529 -2.26576,3.924041 2.26576,3.92406 -2.26576,3.92351 h -4.53099 l -2.26523,-3.923511 2.26523,-3.924059 -2.26523,-3.92404 -4.53099,-10e-7 -2.26523,-3.923529 h -4.53099 l -2.26523,-3.92404 2.26523,-3.92406 h 4.53099 l 2.26523,3.92406 4.53099,-10e-7 2.26523,-3.924059 h 4.53099 l 2.26576,-3.923511 z"
       style="fill:#808080;fill-opacity:1;fill-rule:nonzero;stroke:#000000;stroke-width:0.53287;stroke-linecap:butt;stroke-linejoin:miter;stroke-miterlimit:10;stroke-dasharray:none;stroke-opacity:1" />
    <path
       id="path404-2-5"
       d="m 72.732615,77.633664 2.26498,3.923963 -2.2655,3.923951 2.26572,3.923776 4.53094,2.75e-4 2.26549,-3.923953 -2.26544,-3.924227 2.26523,-3.923488 4.5312,-1.87e-4 2.265,3.923971 4.53119,-1.86e-4 2.26546,3.924236 4.53074,-4.51e-4 2.265485,-3.92395 -2.265235,-3.923502 -4.53095,-2.83e-4 -2.26571,-3.923767 2.2655,-3.923952 -2.26526,-3.923512 2.26549,-3.923952 -2.2657,-3.923767 -4.53095,-2.83e-4 -2.2655,3.923952 2.26572,3.923777 -2.26549,3.923952 -4.53095,-2.83e-4 -2.26549,3.92395 -4.53074,4.52e-4 z"
       style="fill:#808080;fill-opacity:1;fill-rule:nonzero;stroke:#000000;stroke-width:0.53287;stroke-linecap:butt;stroke-linejoin:miter;stroke-miterlimit:10;stroke-dasharray:none;stroke-opacity:1" />
    <path
       id="path404-0"
       d="m 93.156515,84.477631 2.26576,3.92351 h 4.53099 l 2.265225,3.924059 -2.265225,3.924043 h -4.53099 L 93.156515,92.3252 h -4.53046 l -2.26576,3.924043 2.26576,3.923527 -2.26576,3.92404 2.26576,3.92406 -2.26576,3.92351 h -4.53098 l -2.26523,-3.92351 2.26523,-3.92406 -2.26523,-3.92404 h -4.53099 l -2.26523,-3.923527 h -4.53099 l -2.26523,-3.924043 2.26523,-3.924059 h 4.53099 l 2.26523,3.924059 h 4.53099 l 2.26523,-3.924059 h 4.53098 l 2.26576,-3.92351 z"
       style="fill:#808080;fill-opacity:1;fill-rule:nonzero;stroke:#000000;stroke-width:0.53287;stroke-linecap:butt;stroke-linejoin:miter;stroke-miterlimit:10;stroke-dasharray:none;stroke-opacity:1" />
    <path
       id="path404-3-9"
       d="m 52.313675,113.12062 -2.26577,-3.92351 h -4.53099 l -2.26522,-3.92406 2.26522,-3.92404 h 4.53099 l 2.26577,3.92404 h 4.53045 l 2.26576,-3.92404 -2.26576,-3.923527 2.26576,-3.924037 -2.26576,-3.924059 2.26576,-3.92351 h 4.53099 l 2.26523,3.923511 -2.26523,3.924058 2.26523,3.924037 h 4.53099 l 2.26523,3.923527 h 4.53099 l 2.26523,3.92404 -2.26523,3.92406 h -4.53099 l -2.26523,-3.92406 h -4.53099 l -2.26523,3.92406 h -4.53099 l -2.26576,3.92351 z"
       style="fill:#808080;fill-opacity:1;fill-rule:nonzero;stroke:#000000;stroke-width:0.53287;stroke-linecap:butt;stroke-linejoin:miter;stroke-miterlimit:10;stroke-dasharray:none;stroke-opacity:1" />
    <path
       id="path404-2-1"
       d="m 57.058105,92.369625 -2.26497,-3.923962 2.26549,-3.923951 -2.26572,-3.923776 -4.53093,-2.75e-4 -2.2655,3.923953 2.26544,3.924227 -2.26523,3.923487 -4.5312,1.87e-4 -2.26499,-3.92397 -4.5312,1.86e-4 -2.26546,-3.924236 -4.53074,4.51e-4 -2.26549,3.92395 2.26524,3.923501 4.53095,2.83e-4 2.26571,3.923763 -2.2655,3.923957 2.26526,3.92351 -2.26549,3.92395 2.2657,3.92377 4.53095,2.8e-4 2.2655,-3.92395 -2.26572,-3.92378 2.26549,-3.92395 4.53095,2.8e-4 2.2655,-3.923947 4.53074,-4.5e-4 z"
       style="fill:#808080;fill-opacity:1;fill-rule:nonzero;stroke:#000000;stroke-width:0.53287;stroke-linecap:butt;stroke-linejoin:miter;stroke-miterlimit:10;stroke-dasharray:none;stroke-opacity:1" />
    <path
       id="path404-6-7"
       d="m 36.663765,139.50087 -2.26577,-3.92351 h -4.53098 l -2.26523,-3.92406 2.26523,-3.92404 h 4.53098 l 2.26577,3.92404 h 4.53045 l 2.26576,-3.92404 -2.26576,-3.92353 2.26576,-3.92404 -2.26576,-3.92406 2.26576,-3.92351 h 4.53099 l 2.26523,3.92351 -2.26523,3.92406 2.26523,3.92404 h 4.53099 l 2.26523,3.92353 h 4.53099 l 2.26523,3.92404 -2.26523,3.92406 h -4.53099 l -2.26523,-3.92406 h -4.53099 l -2.26523,3.92406 h -4.53099 l -2.26576,3.92351 z"
       style="fill:#808080;fill-opacity:1;fill-rule:nonzero;stroke:#000000;stroke-width:0.53287;stroke-linecap:butt;stroke-linejoin:miter;stroke-miterlimit:10;stroke-dasharray:none;stroke-opacity:1" />
    <path
       id="path404-3-1-7"
       d="m 77.506605,110.85788 2.26576,3.92351 h 4.53099 l 2.26523,3.92406 -2.26523,3.92404 h -4.53099 l -2.26576,-3.92404 h -4.53046 l -2.26576,3.92404 2.26576,3.92353 -2.26576,3.92403 2.26576,3.92406 -2.26576,3.92351 h -4.53098 l -2.26524,-3.92351 2.26524,-3.92406 -2.26523,-3.92403 h -4.531 l -2.26522,-3.92353 h -4.53099 l -2.26524,-3.92404 2.26524,-3.92406 h 4.53098 l 2.26524,3.92406 h 4.53099 l 2.26523,-3.92406 h 4.53098 l 2.26576,-3.92351 z"
       style="fill:#808080;fill-opacity:1;fill-rule:nonzero;stroke:#000000;stroke-width:0.53287;stroke-linecap:butt;stroke-linejoin:miter;stroke-miterlimit:10;stroke-dasharray:none;stroke-opacity:1" />
    <path
       id="path404-2-5-1"
       d="m 72.762165,131.60887 2.26498,3.92396 -2.2655,3.92396 2.26572,3.92377 4.53094,2.8e-4 2.26549,-3.92396 -2.26544,-3.92422 2.26523,-3.92349 4.5312,-1.9e-4 2.265,3.92397 4.53119,-1.8e-4 2.26546,3.92423 4.53074,-4.5e-4 2.265485,-3.92395 -2.265235,-3.9235 -4.53095,-2.8e-4 -2.26571,-3.92376 2.2655,-3.92396 -2.26526,-3.92351 2.26549,-3.92395 -2.2657,-3.92377 -4.53095,-2.8e-4 -2.26549,3.92395 2.26572,3.92378 -2.2655,3.92395 -4.53095,-2.8e-4 -2.26549,3.92395 -4.53074,4.5e-4 z"
       style="fill:#808080;fill-opacity:1;fill-rule:nonzero;stroke:#000000;stroke-width:0.53287;stroke-linecap:butt;stroke-linejoin:miter;stroke-miterlimit:10;stroke-dasharray:none;stroke-opacity:1" />
    <path
       id="path404-6-7-7"
       d="m 93.326435,172.09639 2.26576,-3.92351 h 4.530985 l 2.26523,-3.92405 -2.26523,-3.92404 h -4.530985 l -2.26576,3.92404 h -4.53045 l -2.26577,-3.92404 2.26577,-3.92353 -2.26577,-3.92404 2.26577,-3.92406 -2.26577,-3.92351 h -4.53098 l -2.26523,3.92351 2.26523,3.92406 -2.26523,3.92404 h -4.53099 l -2.26523,3.92353 h -4.53099 l -2.26523,3.92404 2.26523,3.92405 h 4.53099 l 2.26523,-3.92405 h 4.53099 l 2.26523,3.92405 h 4.53098 l 2.26577,3.92351 z"
       style="fill:#808080;fill-opacity:1;fill-rule:nonzero;stroke:#000000;stroke-width:0.53287;stroke-linecap:butt;stroke-linejoin:miter;stroke-miterlimit:10;stroke-dasharray:none;stroke-opacity:1" />
    <path
       id="path404-3-1-7-7"
       d="m 52.483595,143.45341 -2.26576,3.92351 h -4.53099 l -2.26523,3.92406 2.26523,3.92404 h 4.53099 l 2.26576,-3.92404 h 4.53045 l 2.26576,3.92404 -2.26576,3.92353 2.26576,3.92403 -2.26576,3.92406 2.26576,3.9235 h 4.53099 l 2.26523,-3.9235 -2.26523,-3.92406 2.26523,-3.92403 h 4.53099 l 2.26523,-3.92353 h 4.53099 l 2.26523,-3.92404 -2.26523,-3.92406 h -4.53099 l -2.26523,3.92406 h -4.53099 l -2.26523,-3.92406 h -4.53099 l -2.26576,-3.92351 z"
       style="fill:#808080;fill-opacity:1;fill-rule:nonzero;stroke:#000000;stroke-width:0.53287;stroke-linecap:butt;stroke-linejoin:miter;stroke-miterlimit:10;stroke-dasharray:none;stroke-opacity:1" />
    <path
       id="path404-2-5-1-6"
       d="m 57.228035,164.2044 -2.26498,3.92395 2.26549,3.92396 -2.26572,3.92377 -4.53093,2.8e-4 -2.2655,-3.92395 2.26544,-3.92423 -2.26523,-3.92348 -4.53119,-1.9e-4 -2.265,3.92396 -4.5312,-1.8e-4 -2.26545,3.92423 -4.53074,-4.5e-4 -2.2655,-3.92395 2.26525,-3.92349 4.53095,-2.8e-4 2.2657,-3.92376 -2.26549,-3.92396 2.26526,-3.92351 -2.2655,-3.92395 2.26571,-3.92377 4.53095,-2.8e-4 2.26549,3.92395 -2.26572,3.92378 2.2655,3.92395 4.53095,-2.8e-4 2.26549,3.92395 4.53074,4.5e-4 z"
       style="fill:#808080;fill-opacity:1;fill-rule:nonzero;stroke:#000000;stroke-width:0.53287;stroke-linecap:butt;stroke-linejoin:miter;stroke-miterlimit:10;stroke-dasharray:none;stroke-opacity:1" />
    <rect
       style="fill:#8d9c3c;fill-opacity:1;stroke-width:0.264583"
       id="rect3"
       width="12.7"
       height="12.7"
       x="-26.750423"
       y="165.38675"
       transform="scale(-1,1)" />
    <rect
       style="fill:#8d9c3c;fill-opacity:1;stroke-width:0.303983"
       id="rect3-6"
       width="12.7"
       height="16.764"
       x="-102.98011"
       y="8.7312498"
       transform="scale(-1,1)" />
    <rect
       style="fill:#3ea586;stroke-width:0.264583"
       id="rect4"
       width="25.4"
       height="25.4"
       x="-17.410915"
       y="43.101959"
       transform="scale(-1,1)" />
    <rect
       style="fill:#3ea586;stroke-width:0.160701"
       id="rect4-6"
       width="14"
       height="17"
       x="-26.830002"
       y="8.6961174"
       transform="scale(-1,1)" />
  </g>
</svg>
