<?xml version="1.0" encoding="UTF-8" standalone="no"?>
<!-- Created with Inkscape (http://www.inkscape.org/) -->

<svg
   width="210mm"
   height="297mm"
   viewBox="0 0 210 297"
   version="1.1"
   id="svg1"
   inkscape:version="1.3.2 (091e20ef0f, 2023-11-25, custom)"
   sodipodi:docname="heesch-blue.svg"
   xmlns:inkscape="http://www.inkscape.org/namespaces/inkscape"
   xmlns:sodipodi="http://sodipodi.sourceforge.net/DTD/sodipodi-0.dtd"
   xmlns="http://www.w3.org/2000/svg"
   xmlns:svg="http://www.w3.org/2000/svg">
  <sodipodi:namedview
     id="namedview1"
     pagecolor="#ffffff"
     bordercolor="#000000"
     borderopacity="0.25"
     inkscape:showpageshadow="2"
     inkscape:pageopacity="0.0"
     inkscape:pagecheckerboard="0"
     inkscape:deskcolor="#d1d1d1"
     inkscape:document-units="mm"
     inkscape:zoom="1.012009"
     inkscape:cx="397.22968"
     inkscape:cy="561.25984"
     inkscape:window-width="2560"
     inkscape:window-height="1360"
     inkscape:window-x="0"
     inkscape:window-y="0"
     inkscape:window-maximized="1"
     inkscape:current-layer="layer1" />
  <defs
     id="defs1" />
  <g
     inkscape:label="Layer 1"
     inkscape:groupmode="layer"
     id="layer1">
    <rect
       style="fill:#f2696a;fill-opacity:1;stroke-width:0.192381"
       id="rect2-1-0"
       width="240"
       height="55"
       x="-11.970393"
       y="86.262146" />
    <path
       id="path412-4-1-0-6"
       d="m 9.5982441,139.62991 3.9235299,-2.26577 3.92404,2.26577 3.92406,-2.26577 v -4.53099 l -3.92406,-2.26522 -3.92404,2.26522 -3.9235299,-2.26522 v -4.53098 l 3.9235299,-2.26523 v -4.53099 l 3.92404,-2.26523 v -4.53099 l -3.92404,-2.26576 -3.9235299,2.26576 v 4.53099 l -3.92404,2.26523 -3.92406,-2.26523 -3.92351,2.26523 -3.92407,-2.26523 -3.9240801,2.26523 v 4.53099 l 3.9240801,2.26523 3.92407,-2.26523 3.92351,2.26523 v 4.53098 l 3.92406,2.26522 v 4.53099 z"
       style="fill:#808080;fill-opacity:1;fill-rule:nonzero;stroke:#000000;stroke-width:0.53287;stroke-linecap:butt;stroke-linejoin:miter;stroke-miterlimit:10;stroke-dasharray:none;stroke-opacity:1" />
    <path
       id="path412-4-1-0-6-9"
       d="m 4.2525541,116.9906 -3.92353002,-2.26577 -3.92403998,2.26577 -3.92406,-2.26577 v -4.53099 l 3.92406,-2.26522 3.92403998,2.26522 3.92353002,-2.26522 v -4.53099 L 0.32902408,101.1324 v -4.530985 l -3.92403998,-2.26523 v -4.53099 l 3.92403998,-2.26576 3.92353002,2.26576 v 4.53099 l 3.92404,2.26523 3.9240599,-2.26523 3.92351,2.26523 3.92407,-2.26523 3.92408,2.26523 v 4.530985 l -3.92408,2.26523 -3.92407,-2.26523 -3.92351,2.26523 v 4.53099 l -3.9240599,2.26522 v 4.53099 z"
       style="fill:#808080;fill-opacity:1;fill-rule:nonzero;stroke:#000000;stroke-width:0.53287;stroke-linecap:butt;stroke-linejoin:miter;stroke-miterlimit:10;stroke-dasharray:none;stroke-opacity:1" />
    <path
       id="path412-4-1-0-6-8"
       d="m 35.508535,139.58616 3.92353,-2.26577 3.92404,2.26577 3.924059,-2.26577 v -4.53099 l -3.924059,-2.26522 -3.92404,2.26522 -3.92353,-2.26522 v -4.53099 l 3.92353,-2.26523 v -4.53099 l 3.92404,-2.26523 v -4.53099 l -3.92404,-2.26576 -3.92353,2.26576 v 4.53099 l -3.92404,2.26523 -3.92406,-2.26523 -3.923511,2.26523 -3.92407,-2.26523 -3.92408,2.26523 v 4.53099 l 3.92408,2.26523 3.92407,-2.26523 3.923511,2.26523 v 4.53099 l 3.92406,2.26522 v 4.53099 z"
       style="fill:#808080;fill-opacity:1;fill-rule:nonzero;stroke:#000000;stroke-width:0.53287;stroke-linecap:butt;stroke-linejoin:miter;stroke-miterlimit:10;stroke-dasharray:none;stroke-opacity:1" />
    <path
       id="path412-4-1-0-6-9-2"
       d="m 30.162845,116.94684 -3.92353,-2.26577 -3.924041,2.26577 -3.92406,-2.26577 v -4.53099 l 3.92406,-2.26522 3.924041,2.26522 3.92353,-2.26522 v -4.53099 l -3.92353,-2.26523 v -4.530985 l -3.924041,-2.26523 v -4.53099 l 3.924041,-2.26576 3.92353,2.26576 v 4.53099 l 3.92404,2.26523 3.92406,-2.26523 3.92351,2.26523 3.924069,-2.26523 3.92408,2.26523 v 4.530985 l -3.92408,2.26523 -3.924069,-2.26523 -3.92351,2.26523 v 4.53099 l -3.92406,2.26522 v 4.53099 z"
       style="fill:#808080;fill-opacity:1;fill-rule:nonzero;stroke:#000000;stroke-width:0.53287;stroke-linecap:butt;stroke-linejoin:miter;stroke-miterlimit:10;stroke-dasharray:none;stroke-opacity:1" />
    <path
       id="path412-4-1-0-6-0"
       d="m 61.301144,139.31185 3.92353,-2.26577 3.92404,2.26577 3.92406,-2.26577 v -4.53099 l -3.92406,-2.26522 -3.92404,2.26522 -3.92353,-2.26522 v -4.53098 l 3.92353,-2.26523 v -4.53099 l 3.92404,-2.26523 v -4.53099 l -3.92404,-2.26576 -3.92353,2.26576 v 4.53099 l -3.92404,2.26523 -3.92406,-2.26523 -3.92351,2.26523 -3.92407,-2.26523 -3.924079,2.26523 v 4.53099 l 3.924079,2.26523 3.92407,-2.26523 3.92351,2.26523 v 4.53098 l 3.92406,2.26522 v 4.53099 z"
       style="fill:#808080;fill-opacity:1;fill-rule:nonzero;stroke:#000000;stroke-width:0.53287;stroke-linecap:butt;stroke-linejoin:miter;stroke-miterlimit:10;stroke-dasharray:none;stroke-opacity:1" />
    <path
       id="path412-4-1-0-6-9-27"
       d="m 55.955454,116.67254 -3.92353,-2.26577 -3.92404,2.26577 -3.924059,-2.26577 v -4.53099 l 3.924059,-2.26522 3.92404,2.26522 3.92353,-2.26522 v -4.53099 l -3.92353,-2.26523 v -4.530985 l -3.92404,-2.26523 v -4.53099 l 3.92404,-2.26576 3.92353,2.26576 v 4.53099 l 3.92404,2.26523 3.92406,-2.26523 3.92351,2.26523 3.92407,-2.26523 3.92408,2.26523 v 4.530985 l -3.92408,2.26523 -3.92407,-2.26523 -3.92351,2.26523 v 4.53099 l -3.92406,2.26522 v 4.53099 z"
       style="fill:#808080;fill-opacity:1;fill-rule:nonzero;stroke:#000000;stroke-width:0.53287;stroke-linecap:butt;stroke-linejoin:miter;stroke-miterlimit:10;stroke-dasharray:none;stroke-opacity:1" />
    <path
       id="path412-4-1-0-6-8-6"
       d="m 87.211434,139.2681 3.92353,-2.26577 3.92404,2.26577 3.92406,-2.26577 v -4.53099 l -3.92406,-2.26522 -3.92404,2.26522 -3.92353,-2.26522 v -4.53099 l 3.92353,-2.26523 v -4.53099 l 3.92404,-2.26523 v -4.53099 l -3.92404,-2.26576 -3.92353,2.26576 v 4.53099 l -3.92404,2.26523 -3.92406,-2.26523 -3.92351,2.26523 -3.92407,-2.26523 -3.92408,2.26523 v 4.53099 l 3.92408,2.26523 3.92407,-2.26523 3.92351,2.26523 v 4.53099 l 3.92406,2.26522 v 4.53099 z"
       style="fill:#808080;fill-opacity:1;fill-rule:nonzero;stroke:#000000;stroke-width:0.53287;stroke-linecap:butt;stroke-linejoin:miter;stroke-miterlimit:10;stroke-dasharray:none;stroke-opacity:1" />
    <path
       id="path412-4-1-0-6-9-2-1"
       d="m 81.865744,116.62878 -3.92353,-2.26577 -3.92404,2.26577 -3.92406,-2.26577 v -4.53099 l 3.92406,-2.26522 3.92404,2.26522 3.92353,-2.26522 v -4.53099 l -3.92353,-2.26523 v -4.530985 l -3.92404,-2.26523 v -4.53099 l 3.92404,-2.26576 3.92353,2.26576 v 4.53099 l 3.92404,2.26523 3.92406,-2.26523 3.92351,2.26523 3.92407,-2.26523 3.924076,2.26523 v 4.530985 l -3.924076,2.26523 -3.92407,-2.26523 -3.92351,2.26523 v 4.53099 l -3.92406,2.26522 v 4.53099 z"
       style="fill:#808080;fill-opacity:1;fill-rule:nonzero;stroke:#000000;stroke-width:0.53287;stroke-linecap:butt;stroke-linejoin:miter;stroke-miterlimit:10;stroke-dasharray:none;stroke-opacity:1" />
    <path
       id="path412-4-1-0-6-5"
       d="m 113.08044,139.39886 3.92353,-2.26577 3.92404,2.26577 3.92406,-2.26577 v -4.53099 l -3.92406,-2.26522 -3.92404,2.26522 -3.92353,-2.26522 v -4.53099 l 3.92353,-2.26523 v -4.53099 l 3.92404,-2.26523 v -4.53099 l -3.92404,-2.26576 -3.92353,2.26576 v 4.53099 l -3.92404,2.26523 -3.92406,-2.26523 -3.92351,2.26523 -3.924066,-2.26523 -3.92408,2.26523 v 4.53099 l 3.92408,2.26523 3.924066,-2.26523 3.92351,2.26523 v 4.53099 l 3.92406,2.26522 v 4.53099 z"
       style="fill:#808080;fill-opacity:1;fill-rule:nonzero;stroke:#000000;stroke-width:0.53287;stroke-linecap:butt;stroke-linejoin:miter;stroke-miterlimit:10;stroke-dasharray:none;stroke-opacity:1" />
    <path
       id="path412-4-1-0-6-9-9"
       d="m 107.73475,116.75955 -3.92353,-2.26577 -3.924026,2.26577 -3.92406,-2.26577 v -4.53099 l 3.92406,-2.26522 3.924026,2.26522 3.92353,-2.26522 v -4.53099 l -3.92353,-2.26523 v -4.530985 l -3.924026,-2.26523 v -4.53099 l 3.924026,-2.26576 3.92353,2.26576 v 4.53099 l 3.92404,2.26523 3.92406,-2.26523 3.92351,2.26523 3.92407,-2.26523 3.92408,2.26523 v 4.530985 l -3.92408,2.26523 -3.92407,-2.26523 -3.92351,2.26523 v 4.53099 l -3.92406,2.26522 v 4.53099 z"
       style="fill:#808080;fill-opacity:1;fill-rule:nonzero;stroke:#000000;stroke-width:0.53287;stroke-linecap:butt;stroke-linejoin:miter;stroke-miterlimit:10;stroke-dasharray:none;stroke-opacity:1" />
    <path
       id="path412-4-1-0-6-8-9"
       d="m 138.99074,139.3551 3.92353,-2.26577 3.92404,2.26577 3.92406,-2.26577 v -4.53099 l -3.92406,-2.26522 -3.92404,2.26522 -3.92353,-2.26522 v -4.53098 l 3.92353,-2.26523 v -4.53099 l 3.92404,-2.26523 v -4.53099 l -3.92404,-2.26576 -3.92353,2.26576 v 4.53099 l -3.92404,2.26523 -3.92407,-2.26523 -3.92351,2.26523 -3.92407,-2.26523 -3.92408,2.26523 v 4.53099 l 3.92408,2.26523 3.92407,-2.26523 3.92351,2.26523 v 4.53098 l 3.92407,2.26522 v 4.53099 z"
       style="fill:#808080;fill-opacity:1;fill-rule:nonzero;stroke:#000000;stroke-width:0.53287;stroke-linecap:butt;stroke-linejoin:miter;stroke-miterlimit:10;stroke-dasharray:none;stroke-opacity:1" />
    <path
       id="path412-4-1-0-6-9-2-14"
       d="m 133.64504,116.71579 -3.92353,-2.26577 -3.92404,2.26577 -3.92406,-2.26577 v -4.53099 l 3.92406,-2.26522 3.92404,2.26522 3.92353,-2.26522 v -4.53099 l -3.92353,-2.26523 v -4.530985 l -3.92404,-2.26523 v -4.53099 l 3.92404,-2.26576 3.92353,2.26576 v 4.53099 l 3.92405,2.26523 3.92406,-2.26523 3.92351,2.26523 3.92407,-2.26523 3.92408,2.26523 v 4.530985 l -3.92408,2.26523 -3.92407,-2.26523 -3.92351,2.26523 v 4.53099 l -3.92406,2.26522 v 4.53099 z"
       style="fill:#808080;fill-opacity:1;fill-rule:nonzero;stroke:#000000;stroke-width:0.53287;stroke-linecap:butt;stroke-linejoin:miter;stroke-miterlimit:10;stroke-dasharray:none;stroke-opacity:1" />
    <path
       id="path412-4-1-0-6-0-9"
       d="m 164.78335,139.0808 3.92353,-2.26577 3.92403,2.26577 3.92406,-2.26577 v -4.53099 l -3.92406,-2.26522 -3.92403,2.26522 -3.92353,-2.26522 v -4.53099 l 3.92353,-2.26523 v -4.53099 l 3.92403,-2.26523 v -4.53099 l -3.92403,-2.26576 -3.92353,2.26576 v 4.53099 l -3.92404,2.26523 -3.92406,-2.26523 -3.92351,2.26523 -3.92407,-2.26523 -3.92408,2.26523 v 4.53099 l 3.92408,2.26523 3.92407,-2.26523 3.92351,2.26523 v 4.53099 l 3.92406,2.26522 v 4.53099 z"
       style="fill:#808080;fill-opacity:1;fill-rule:nonzero;stroke:#000000;stroke-width:0.53287;stroke-linecap:butt;stroke-linejoin:miter;stroke-miterlimit:10;stroke-dasharray:none;stroke-opacity:1" />
    <path
       id="path412-4-1-0-6-9-27-1"
       d="m 159.43766,116.44149 -3.92353,-2.26577 -3.92404,2.26577 -3.92406,-2.26577 v -4.53099 l 3.92406,-2.26522 3.92404,2.26522 3.92353,-2.26522 v -4.53099 l -3.92353,-2.26523 v -4.530985 l -3.92404,-2.26523 v -4.53099 l 3.92404,-2.26576 3.92353,2.26576 v 4.53099 l 3.92404,2.26523 3.92406,-2.26523 3.9235,2.26523 3.92407,-2.26523 3.92408,2.26523 v 4.530985 l -3.92408,2.26523 -3.92407,-2.26523 -3.9235,2.26523 v 4.53099 l -3.92406,2.26522 v 4.53099 z"
       style="fill:#808080;fill-opacity:1;fill-rule:nonzero;stroke:#000000;stroke-width:0.53287;stroke-linecap:butt;stroke-linejoin:miter;stroke-miterlimit:10;stroke-dasharray:none;stroke-opacity:1" />
    <path
       id="path412-4-1-0-6-8-6-0"
       d="m 190.69363,139.03704 3.92353,-2.26577 3.92404,2.26577 3.92406,-2.26577 v -4.53099 l -3.92406,-2.26522 -3.92404,2.26522 -3.92353,-2.26522 v -4.53098 l 3.92353,-2.26523 v -4.53099 l 3.92404,-2.26523 v -4.53099 l -3.92404,-2.26576 -3.92353,2.26576 v 4.53099 l -3.92404,2.26523 -3.92406,-2.26523 -3.92351,2.26523 -3.92407,-2.26523 -3.92408,2.26523 v 4.53099 l 3.92408,2.26523 3.92407,-2.26523 3.92351,2.26523 v 4.53098 l 3.92406,2.26522 v 4.53099 z"
       style="fill:#808080;fill-opacity:1;fill-rule:nonzero;stroke:#000000;stroke-width:0.53287;stroke-linecap:butt;stroke-linejoin:miter;stroke-miterlimit:10;stroke-dasharray:none;stroke-opacity:1" />
    <path
       id="path412-4-1-0-6-8-6-0-0"
       d="m 226.68815,120.72594 -2.26577,3.92352 2.26577,3.92404 -2.26577,3.92406 h -4.53099 l -2.26522,-3.92406 2.26522,-3.92404 -2.26522,-3.92352 h -4.53099 l -2.26523,3.92352 h -4.53099 l -2.26523,3.92404 h -4.53099 l -2.26576,-3.92404 2.26576,-3.92352 h 4.53099 l 2.26523,-3.92404 -2.26523,-3.92406 2.26523,-3.92352 -2.26523,-3.92407 2.26523,-3.92408 h 4.53099 l 2.26523,3.92408 -2.26523,3.92407 2.26523,3.92352 h 4.53099 l 2.26522,3.92406 h 4.53099 z"
       style="fill:#808080;fill-opacity:1;fill-rule:nonzero;stroke:#000000;stroke-width:0.53287;stroke-linecap:butt;stroke-linejoin:miter;stroke-miterlimit:10;stroke-dasharray:none;stroke-opacity:1" />
    <path
       id="path412-4-1-0-6-9-2-1-7"
       d="m 185.34794,116.39773 -3.92353,-2.26577 -3.92404,2.26577 -3.92406,-2.26577 v -4.53099 l 3.92406,-2.26522 3.92404,2.26522 3.92353,-2.26522 v -4.53099 l -3.92353,-2.26523 v -4.530985 l -3.92404,-2.26523 v -4.53099 l 3.92404,-2.26576 3.92353,2.26576 v 4.53099 l 3.92404,2.26523 3.92406,-2.26523 3.92351,2.26523 3.92407,-2.26523 3.92408,2.26523 v 4.530985 l -3.92408,2.26523 -3.92407,-2.26523 -3.92351,2.26523 v 4.53099 l -3.92406,2.26522 v 4.53099 z"
       style="fill:#808080;fill-opacity:1;fill-rule:nonzero;stroke:#000000;stroke-width:0.53287;stroke-linecap:butt;stroke-linejoin:miter;stroke-miterlimit:10;stroke-dasharray:none;stroke-opacity:1" />
  </g>
</svg>
