    <svg width="200" height="200" viewBox="-1.500000000000001 -4.464101615137755 13.000000000000002 9.794228634059948">
    <polyline fill='red' points="0.0,0.0 1.0,0.0 1.5,0.8660254037844386 1.0000000000000002,1.7320508075688772 1.5000000000000004,2.598076211353316 2.5000000000000004,2.598076211353316 3.0000000000000004,1.7320508075688774 2.500000000000001,0.8660254037844387 3.000000000000001,1.1102230246251565e-16 4.000000000000001,1.1102230246251565e-16 4.500000000000001,0.8660254037844387 4.000000000000001,1.7320508075688774 4.500000000000001,2.598076211353316 5.500000000000001,2.598076211353316 6.000000000000001,1.7320508075688774 7.000000000000001,1.7320508075688774 7.500000000000001,2.598076211353316 7.000000000000001,3.464101615137755 7.500000000000001,4.330127018922194 8.5,4.330127018922194 9.0,3.4641016151377553 10.0,3.4641016151377553 10.5,2.598076211353317 10.0,1.732050807568878 9.0,1.7320508075688779 8.5,0.8660254037844392 9.0,5.551115123125783e-16 10.0,5.551115123125783e-16 10.5,-0.866025403784438 10.0,-1.7320508075688767 9.0,-1.732050807568877 8.5,-0.8660254037844386 7.5,-0.8660254037844387 7.0,-1.7320508075688774 7.5,-2.598076211353316 7.0,-3.464101615137755 6.0,-3.464101615137755 5.5,-2.5980762113533165 4.5,-2.5980762113533165 4.0,-3.4641016151377553 3.0,-3.4641016151377553 2.4999999999999996,-2.598076211353317 2.9999999999999996,-1.7320508075688783 2.499999999999999,-0.8660254037844399 1.4999999999999991,-0.86602540378444 0.9999999999999993,-1.7320508075688787 -6.661338147750939e-16,-1.732050807568879 -0.5000000000000011,-0.8660254037844406 -9.992007221626409e-16,-1.9984014443252818e-15"/>
    </svg>