<svg width="800" height="800" viewBox="-2.2532889043741062 -3.196196399193081 6.0901699437494745 8.028740053470408">
<polyline points="0,0 0.017220926874316478,0.05300056313598282 0.062305898749053595,0.08575671257690493 0.13525491562421132,0.0327561494409221 0.16311896062463194,0.05300056313598284 0.19098300562505255,0.13875727571288776 0.2639320225002103,0.1917578388488706 0.2983738762488433,0.1917578388488706 0.32623792124926393,0.10600112627196567 0.38196601125010515,0.10600112627196567 0.42705098312484224,0.13875727571288776 0.49999999999999994,0.08575671257690493 0.5278640450004205,0.0 0.5172209268743164,-0.032756149440922096 0.4270509831248422,-0.03275614944092208 0.40983005625052565,-0.0857567125769049 0.4270509831248422,-0.13875727571288773 0.4614928368734752,-0.13875727571288776 0.4893568818738958,-0.2245139882897927 0.545084971874737,-0.2245139882897927 0.5901699437494742,-0.19175783884887057 0.6631189606246319,-0.24475840198485344 0.6909830056250525,-0.2245139882897927 0.7188470506254732,-0.13875727571288776 0.7917960675006309,-0.08575671257690495 0.8262379212492639,-0.08575671257690497 0.8541019662496845,-0.17151342515380988 0.9098300562505257,-0.1715134251538099 0.9549150281252629,-0.1387572757128878 0.9442719099991587,-0.10600112627196567 1.0172209268743164,-0.05300056313598284 1,0 1.0172209268743164,0.05300056313598283 1.1073908706237907,0.0530005631359828 1.118033988749895,0.08575671257690491 1.1737620787507361,0.08575671257690491 1.2188470506254732,0.053000563135982795 1.1909830056250525,-0.0327561494409221 1.2188470506254732,-0.05300056313598282 1.3090169943749475,-0.05300056313598282 1.381966011250105,0.0 1.4164078649987382,1.3877787807814457e-17 1.4442719099991588,-0.08575671257690494 1.5,-0.08575671257690493 1.545084971874737,-0.11851286201782706 1.5172209268743164,-0.20426957459473197 1.545084971874737,-0.22451398828979272 1.5278640450004206,-0.2775145514257755 1.4827790731256836,-0.3102707008666976 1.409830056250526,-0.2572701377307148 1.381966011250105,-0.2775145514257755 1.3541019662496845,-0.36327126400268045 1.381966011250105,-0.4490279765795854 1.4376941012509463,-0.4490279765795854 1.4827790731256834,-0.4817841260205075 1.4549150281252627,-0.5675408385974124 1.4827790731256834,-0.5877852522924731 1.5729490168751576,-0.5877852522924731 1.6458980337503153,-0.5347846891564902 1.6803398874989484,-0.5347846891564902 1.708203932499369,-0.6205414017333952 1.7639320225002102,-0.6205414017333952 1.8090169943749475,-0.5877852522924731 1.881966011250105,-0.6407858154284558 1.9098300562505257,-0.7265425280053607 1.8991869381244215,-0.7592986774462828 1.8090169943749475,-0.7592986774462829 1.791796067500631,-0.8122992405822657 1.8090169943749475,-0.8652998037182484 1.8434588481235805,-0.8652998037182484 1.8713228931240011,-0.9510565162951533 1.9270509831248424,-0.9510565162951533 1.9721359549995794,-0.9838126657360754 1.9442719099991588,-1.0695693783129803 1.9721359549995794,-1.089813792008041 1.9549150281252627,-1.1428143551440237 1.9098300562505257,-1.1755705045849458 1.836881039375368,-1.1225699414489632 1.8090169943749475,-1.1428143551440237 1.7811529493745268,-1.2285710677209287 1.8090169943749475,-1.3143277802978337 1.7983738762488435,-1.3470839297387556 1.7082039324993692,-1.3470839297387556 1.6909830056250525,-1.4000844928747385 1.6458980337503155,-1.4328406423156606 1.5729490168751576,-1.3798400791796777 1.545084971874737,-1.4000844928747385 1.4999999999999998,-1.3673283434338166 1.4827790731256831,-1.3143277802978337 1.5557280900008408,-1.2613272171618508 1.5450849718747368,-1.2285710677209287 1.4721359549995792,-1.1755705045849458 1.381966011250105,-1.1755705045849458 1.3647450843757887,-1.2285710677209287 1.3196601125010516,-1.2613272171618508 1.2467110956258938,-1.208326654025868 1.2188470506254732,-1.2285710677209287 1.1909830056250525,-1.3143277802978337 1.2188470506254732,-1.4000844928747387 1.208203932499369,-1.4328406423156608 1.1180339887498947,-1.4328406423156608 1.1008130618755783,-1.4858412054516437 1.118033988749895,-1.5388417685876266 1.152475842498528,-1.5388417685876266 1.1803398874989486,-1.6245984811645315 1.2360679774997898,-1.6245984811645315 1.2811529493745268,-1.6573546306054536 1.2532889043741062,-1.7431113431823586 1.2811529493745268,-1.7633557568774194 1.2639320225002104,-1.8163563200134023 1.2188470506254734,-1.8491124694543244 1.1458980337503157,-1.7961119063183415 1.118033988749895,-1.8163563200134023 1.0901699437494743,-1.9021130325903073 1.118033988749895,-1.987869745167212 1.1737620787507361,-1.987869745167212 1.2188470506254732,-2.020625894608134 1.1909830056250525,-2.106382607185039 1.2188470506254732,-2.1266270208801 1.3090169943749475,-2.1266270208801 1.381966011250105,-2.1796275840160826 1.3926091293762093,-2.212383733457005 1.3196601125010516,-2.2653842965929876 1.336881039375368,-2.3183848597289702 1.381966011250105,-2.3511410091698925 1.3541019662496847,-2.4368977217467975 1.281152949374527,-2.48989828488278 1.246711095625894,-2.48989828488278 1.2188470506254734,-2.404141572305875 1.1631189606246322,-2.404141572305875 1.118033988749895,-2.4368977217467975 1.1286771068759989,-2.46965387118772 1.0557280900008412,-2.5226544343237025 1.0729490168751576,-2.575654997459685 1.1180339887498947,-2.608411146900607 1.090169943749474,-2.694167859477512 1.118033988749895,-2.714412273172573 1.1008130618755785,-2.7674128363085555 1.0557280900008414,-2.800168985749478 0.9827790731256837,-2.747168422613495 0.954915028125263,-2.7674128363085555 0.9270509831248424,-2.8531695488854605 0.8541019662496847,-2.906170112021443 0.8196601125010518,-2.906170112021443 0.7917960675006311,-2.820413399444538 0.7360679774997899,-2.820413399444538 0.6909830056250528,-2.8531695488854605 0.618033988749895,-2.800168985749478 0.5901699437494744,-2.714412273172573 0.6008130618755785,-2.6816561237316505 0.6909830056250527,-2.6816561237316505 0.7082039324993692,-2.628655560595668 0.6909830056250527,-2.575654997459685 0.6565411518764197,-2.575654997459685 0.6286771068759991,-2.48989828488278 0.5729490168751579,-2.48989828488278 0.5278640450004207,-2.5226544343237025 0.45491502812526297,-2.46965387118772 0.4270509831248424,-2.48989828488278 0.3991869381244218,-2.575654997459685 0.3262379212492641,-2.628655560595668 0.2917960675006311,-2.628655560595668 0.2639320225002105,-2.542898848018763 0.20820393249936925,-2.542898848018763 0.16311896062463213,-2.575654997459685 0.1737620787507362,-2.6084111469006075 0.10081306187557852,-2.66141171003659 0.11803398874989501,-2.714412273172573 0.16311896062463213,-2.7471684226134947 0.1352549156242116,-2.8329251351903997 0.16311896062463221,-2.8531695488854605 0.14589803375031574,-2.9061701120214436 0.10081306187557856,-2.938926261462366 0.02786404500042075,-2.885925698326383 1.0755285551056204e-16,-2.9061701120214436 -0.027864045000420445,-2.9919268245983486 2.220446049250313e-16,-3.0776835371752536 -0.010643118126103884,-3.110439686616176 -0.10081306187557816,-3.110439686616176 -0.11803398874989468,-3.1634402497521585 -0.16311896062463183,-3.196196399193081 -0.23606797749978958,-3.143195836057098 -0.2639320225002102,-3.1634402497521585 -0.3090169943749473,-3.1306841003112362 -0.32623792124926376,-3.0776835371752536 -0.2532889043741061,-3.024682974039271 -0.2639320225002102,-2.9919268245983486 -0.33688103937536795,-2.938926261462366 -0.4270509831248422,-2.938926261462366 -0.4442719099991587,-2.9919268245983486 -0.48935688187389587,-3.024682974039271 -0.5623058987490536,-2.971682410903288 -0.5901699437494742,-2.9919268245983486 -0.6180339887498948,-3.0776835371752536 -0.6909830056250525,-3.1306841003112362 -0.7254248593736856,-3.1306841003112362 -0.7532889043741062,-3.0449273877343312 -0.8090169943749475,-3.0449273877343312 -0.8541019662496845,-3.0776835371752536 -0.9270509831248421,-3.024682974039271 -0.9549150281252627,-2.938926261462366 -0.9442719099991587,-2.9061701120214436 -0.8541019662496845,-2.9061701120214436 -0.8368810393753681,-2.853169548885461 -0.8541019662496846,-2.8001689857494783 -0.8885438199983177,-2.8001689857494783 -0.9164078649987383,-2.7144122731725733 -0.9721359549995795,-2.7144122731725733 -1.0172209268743166,-2.7471684226134956 -1.0901699437494743,-2.694167859477513 -1.118033988749895,-2.7144122731725733 -1.163118960624632,-2.681656123731651 -1.1803398874989484,-2.6286555605956683 -1.1073908706237907,-2.5756549974596856 -1.118033988749895,-2.5428988480187633 -1.1909830056250528,-2.4898982848827806 -1.2188470506254734,-2.4041415723058757 -1.2082039324993692,-2.3713854228649534 -1.118033988749895,-2.3713854228649534 -1.1008130618755785,-2.3183848597289707 -1.1180339887498951,-2.265384296592988 -1.0450849718747373,-2.2123837334570053 -0.9549150281252631,-2.2123837334570053 -0.9270509831248426,-2.232628147152066 -0.9549150281252631,-2.318384859728971 -0.9098300562505259,-2.351141009169893 -0.8541019662496847,-2.351141009169893 -0.8434588481235806,-2.3183848597289707 -0.7532889043741063,-2.3183848597289707 -0.7360679774997898,-2.265384296592988 -0.7532889043741064,-2.212383733457005 -0.6803398874989486,-2.159383170321022 -0.6909830056250528,-2.1266270208801 -0.7639320225002105,-2.0736264577441172 -0.7917960675006311,-1.9878697451672123 -0.7811529493745271,-1.9551135957262902 -0.6909830056250529,-1.9551135957262902 -0.6737620787507363,-1.9021130325903073 -0.6909830056250529,-1.8491124694543246 -0.7254248593736858,-1.8491124694543246 -0.7532889043741064,-1.7633557568774196 -0.8090169943749477,-1.7633557568774196 -0.8541019662496848,-1.7961119063183417 -0.9270509831248426,-1.7431113431823588 -0.9549150281252631,-1.7633557568774196 -1.0000000000000002,-1.7305996074364978 -1.0172209268743166,-1.6775990443005149 -0.9442719099991589,-1.624598481164532 -0.9549150281252631,-1.59184233172361 -1.0278640450004208,-1.538841768587627 -1.118033988749895,-1.538841768587627 -1.1352549156242113,-1.59184233172361 -1.1803398874989484,-1.624598481164532 -1.2532889043741062,-1.571597918028549 -1.2811529493745268,-1.59184233172361 -1.3090169943749475,-1.6775990443005149 -1.381966011250105,-1.7305996074364978 -1.4164078649987382,-1.7305996074364978 -1.4442719099991588,-1.6448428948595928 -1.5,-1.6448428948595928 -1.5450849718747373,-1.6775990443005149 -1.618033988749895,-1.624598481164532 -1.6458980337503155,-1.538841768587627 -1.6352549156242113,-1.506085619146705 -1.5450849718747373,-1.506085619146705 -1.5278640450004208,-1.453085056010722 -1.5450849718747373,-1.4000844928747394 -1.5795268256233703,-1.4000844928747394 -1.607390870623791,-1.3143277802978344 -1.6631189606246322,-1.3143277802978344 -1.7082039324993692,-1.3470839297387565 -1.7811529493745268,-1.2940833666027738 -1.8090169943749475,-1.3143277802978344 -1.8368810393753678,-1.4000844928747394 -1.9098300562505255,-1.4530850560107222 -1.9442719099991586,-1.4530850560107222 -1.9721359549995792,-1.3673283434338173 -2.0278640450004204,-1.3673283434338173 -2.0729490168751576,-1.4000844928747394 -2.0623058987490537,-1.4328406423156614 -2.1352549156242113,-1.485841205451644 -2.118033988749895,-1.538841768587627 -2.173762078750736,-1.538841768587627 -2.201626123751157,-1.453085056010722 -2.23606797749979,-1.453085056010722 -2.2532889043741062,-1.4000844928747394 -2.23606797749979,-1.3470839297387565 -2.1458980337503157,-1.3470839297387565 -2.1352549156242113,-1.3143277802978344 -2.163118960624632,-1.2285710677209294 -2.23606797749979,-1.1755705045849465 -2.2467110956258938,-1.1428143551440244 -2.173762078750736,-1.0898137920080415 -2.1909830056250525,-1.0368132288720586 -2.173762078750736,-0.9838126657360758 -2.083592135001262,-0.9838126657360758 -2.0729490168751576,-0.9510565162951538 -2.0172209268743164,-0.9510565162951538 -1.9721359549995794,-0.9838126657360758 -2.0,-1.0695693783129807 -1.9721359549995794,-1.0898137920080415 -1.881966011250105,-1.0898137920080415 -1.8090169943749475,-1.0368132288720586 -1.8262379212492639,-0.9838126657360758 -1.8090169943749475,-0.9308121026000931 -1.7188470506254734,-0.930812102600093 -1.7082039324993692,-0.8980559531591709 -1.7360679774997898,-0.812299240582266 -1.8090169943749475,-0.7592986774462831 -1.8196601125010516,-0.726542528005361 -1.746711095625894,-0.6735419648693782 -1.7639320225002104,-0.6205414017333954 -1.8090169943749475,-0.5877852522924734 -1.7811529493745268,-0.5020285397155684 -1.708203932499369,-0.44902797657958554 -1.673762078750736,-0.4490279765795855 -1.6458980337503153,-0.5347846891564905 -1.590169943749474,-0.5347846891564905 -1.545084971874737,-0.5020285397155684 -1.555728090000841,-0.4692723902746463 -1.4827790731256834,-0.4162718271386634 -1.5,-0.3632712640026806 -1.4827790731256836,-0.3102707008666978 -1.3926091293762093,-0.3102707008666978 -1.381966011250105,-0.2775145514257757 -1.3262379212492639,-0.2775145514257757 -1.2811529493745268,-0.3102707008666978 -1.3090169943749475,-0.39602741344360265 -1.2811529493745268,-0.4162718271386634 -1.1909830056250525,-0.4162718271386634 -1.118033988749895,-0.3632712640026806 -1.0835921350012618,-0.3632712640026806 -1.0557280900008412,-0.44902797657958554 -1.0,-0.44902797657958554 -0.9549150281252629,-0.4817841260205077 -0.9827790731256835,-0.5675408385974127 -0.9549150281252629,-0.5877852522924734 -0.9721359549995794,-0.6407858154284561 -1.0172209268743164,-0.6735419648693782 -1.090169943749474,-0.6205414017333953 -1.118033988749895,-0.6407858154284561 -1.1458980337503155,-0.7265425280053611 -1.118033988749895,-0.812299240582266 -1.0623058987490537,-0.812299240582266 -1.0172209268743166,-0.8450553900231881 -1.0450849718747373,-0.930812102600093 -1.0172209268743166,-0.9510565162951538 -0.9270509831248424,-0.9510565162951538 -0.8541019662496846,-0.8980559531591709 -0.8196601125010515,-0.8980559531591709 -0.7917960675006309,-0.9838126657360758 -0.7360679774997897,-0.9838126657360758 -0.6909830056250525,-0.9510565162951538 -0.7016261237511566,-0.9183003668542317 -0.6286771068759989,-0.8652998037182489 -0.6458980337503154,-0.812299240582266 -0.6286771068759989,-0.7592986774462831 -0.5385071631265246,-0.7592986774462831 -0.5278640450004205,-0.726542528005361 -0.4721359549995793,-0.726542528005361 -0.4270509831248422,-0.7592986774462831 -0.4549150281252628,-0.8450553900231881 -0.4270509831248422,-0.8652998037182488 -0.33688103937536795,-0.8652998037182488 -0.26393202250021025,-0.812299240582266 -0.28115294937452673,-0.7592986774462832 -0.26393202250021025,-0.7062981143103004 -0.17376207875073602,-0.7062981143103004 -0.1631189606246319,-0.6735419648693782 -0.19098300562505255,-0.5877852522924732 -0.2639320225002103,-0.5347846891564905 -0.2745751406263144,-0.5020285397155684 -0.20162612375115666,-0.4490279765795855 -0.2188470506254732,-0.39602741344360265 -0.2639320225002103,-0.3632712640026805 -0.23606797749978964,-0.2775145514257755 -0.1631189606246319,-0.2245139882897927 -0.1286771068759989,-0.2245139882897927 -0.10081306187557829,-0.3102707008666976 -0.04508497187473706,-0.3102707008666976 6.938893903907228e-17,-0.2775145514257755 -0.010643118126104023,-0.24475840198485344 0.062305898749053706,-0.1917578388488706 0.0450849718747372,-0.13875727571288776 6.245004513516506e-17,-0.10600112627196567 0.02786404500042063,-0.020244413695060706"/>
<polyline points="-1,4 -1.0172209268743166,4.053000563135983 -1.0,4.106001126271966 -0.9098300562505257,4.106001126271966 -0.8991869381244216,4.138757275712888 -0.9270509831248424,4.224513988289793 -0.8991869381244219,4.310270700866698 -0.8713228931240011,4.330515114561759 -0.7983738762488434,4.277514551425776 -0.7532889043741062,4.310270700866698 -0.7360679774997898,4.363271264002681 -0.6458980337503155,4.363271264002681 -0.5729490168751578,4.310270700866698 -0.5623058987490537,4.277514551425776 -0.6352549156242115,4.224513988289793 -0.618033988749895,4.17151342515381 -0.5729490168751579,4.138757275712888 -0.5450849718747373,4.159001689407949 -0.47213595499957944,4.106001126271966 -0.4270509831248423,4.138757275712888 -0.40983005625052576,4.191757838848871 -0.3196601125010515,4.191757838848871 -0.30901699437494734,4.224513988289793 -0.33688103937536795,4.310270700866697 -0.30901699437494745,4.396027413443602 -0.28115294937452684,4.416271827138663 -0.20820393249936905,4.36327126400268 -0.1631189606246319,4.396027413443602 -0.14589803375031546,4.449027976579585 -0.1737620787507361,4.4692723902746465 -0.14589803375031535,4.5550291028515515 -0.19098300562505255,4.587785252292473 -0.20820393249936917,4.6407858154284565 -0.13525491562421132,4.69378637856444 -0.1458980337503155,4.7265425280053615 -0.10081306187557834,4.759298677446283 -0.04508497187473708,4.759298677446283 -0.017220926874316454,4.673541964869378 0.01722092687431659,4.673541964869378 0.09016994374947437,4.7265425280053615 0.1180339887498949,4.812299240582266 0.14589803375031551,4.832543654277328 0.21884705062547322,4.779543091141345 0.2639320225002103,4.812299240582266 0.31966011250105153,4.812299240582266 0.3475241575014721,4.7265425280053615 0.3819660112501051,4.7265425280053615 0.3991869381244217,4.673541964869378 0.38196601125010515,4.620541401733395 0.29179606750063086,4.620541401733395 0.28115294937452673,4.587785252292473 0.30901699437494745,4.502028539715568 0.3819660112501052,4.449027976579586 0.4270509831248423,4.481784126020508 0.4827790731256835,4.481784126020508 0.5106431181261041,4.396027413443603 0.5450849718747371,4.396027413443603 0.6180339887498949,4.449027976579586 0.6458980337503156,4.534784689156491 0.6737620787507361,4.555029102851552 0.7467110956258938,4.502028539715569 0.7917960675006308,4.534784689156491 0.8090169943749475,4.587785252292473 0.8991869381244217,4.587785252292473 0.9721359549995795,4.53478468915649 0.9827790731256836,4.502028539715568 0.9098300562505257,4.449027976579585 0.9270509831248422,4.396027413443602 0.9721359549995794,4.36327126400268 1.0,4.3835156776977415 1.0729490168751579,4.330515114561758 1.118033988749895,4.36327126400268 1.1737620787507361,4.36327126400268 1.2016261237511567,4.277514551425775 1.2360679774997898,4.277514551425775 1.2532889043741064,4.224513988289792 1.23606797749979,4.171513425153809 1.1458980337503157,4.171513425153809 1.1352549156242115,4.138757275712887 1.1631189606246322,4.053000563135982 1.2360679774997898,4.0 1.2467110956258938,3.9672438505590777 1.1737620787507361,3.914243287423095 1.1909830056250525,3.8612427242871123 1.1737620787507361,3.8082421611511297 1.0835921350012618,3.8082421611511297 1.0729490168751576,3.7754860117102074 1.0172209268743164,3.7754860117102074 0.9721359549995793,3.8082421611511292 0.9999999999999998,3.893998873728034 0.9721359549995793,3.914243287423095 0.8819660112501051,3.914243287423095 0.8090169943749475,3.8612427242871123 0.8262379212492639,3.8082421611511297 0.8090169943749473,3.755241598015147 0.7188470506254732,3.755241598015147 0.7082039324993691,3.7224854485742247 0.7360679774997897,3.6367287359973197 0.8090169943749475,3.5837281728613366 0.8196601125010516,3.5509720234204147 0.7467110956258937,3.4979714602844316 0.7639320225002102,3.4449708971484485 0.8090169943749473,3.4122147477075266 0.836881039375368,3.4324591614025874 0.9098300562505256,3.3794585982666048 0.9549150281252626,3.4122147477075266 1.0106431181261037,3.4122147477075266 1.0385071631265244,3.3264580351306217 1.0729490168751574,3.3264580351306217 1.090169943749474,3.273457471994639 1.0729490168751576,3.2204569088586563 0.9827790731256834,3.2204569088586563 0.9721359549995793,3.187700759417734 0.9999999999999999,3.101944046840829 1.0729490168751576,3.0489434837048464 1.118033988749895,3.0816996331457687 1.1737620787507361,3.0816996331457687 1.2016261237511567,2.9959429205688637 1.2360679774997898,2.9959429205688637 1.3090169943749475,3.0489434837048464 1.336881039375368,3.1347001962817513 1.3647450843757887,3.1549446099768117 1.4376941012509465,3.101944046840829 1.4827790731256836,3.1347001962817513 1.5,3.187700759417734 1.590169943749474,3.187700759417734 1.6631189606246317,3.1347001962817513 1.673762078750736,3.101944046840829 1.6008130618755783,3.0489434837048464 1.6180339887498947,2.9959429205688637 1.663118960624632,2.9631867711279414 1.6909830056250525,2.9834311848230017 1.7639320225002104,2.930430621687019 1.8090169943749475,2.9631867711279414 1.8262379212492639,3.016187334263924 1.9164078649987382,3.016187334263924 1.9270509831248424,3.0489434837048464 1.899186938124422,3.1347001962817513 1.9270509831248426,3.2204569088586563 1.9549150281252632,3.2407013225537167 2.027864045000421,3.187700759417734 2.072949016875158,3.2204569088586563 2.0901699437494745,3.273457471994639 2.062305898749054,3.2937018856897 2.0901699437494745,3.3794585982666048 2.0450849718747373,3.4122147477075266 2.027864045000421,3.4652153108435093 2.1008130618755785,3.518215873979492 2.0901699437494745,3.5509720234204143 2.1352549156242118,3.5837281728613366 2.190983005625053,3.5837281728613366 2.218847050625474,3.4979714602844316 2.2532889043741067,3.4979714602844316 2.3262379212492643,3.5509720234204143 2.3541019662496847,3.6367287359973193 2.381966011250105,3.65697314969238 2.4549150281252627,3.6039725865563974 2.5,3.6367287359973193 2.5557280900008412,3.6367287359973193 2.583592135001262,3.5509720234204143 2.618033988749895,3.5509720234204143 2.6352549156242113,3.4979714602844316 2.618033988749895,3.444970897148449 2.527864045000421,3.444970897148449 2.5172209268743164,3.4122147477075266 2.5450849718747373,3.3264580351306217 2.618033988749895,3.273457471994639 2.663118960624632,3.3062136214355613 2.7188470506254734,3.3062136214355613 2.746711095625894,3.2204569088586563 2.781152949374527,3.2204569088586563 2.8541019662496847,3.273457471994639 2.8819660112501055,3.359214184571544 2.909830056250526,3.3794585982666048 2.9827790731256836,3.326458035130622 3.027864045000421,3.359214184571544 3.0450849718747373,3.4122147477075266 3.0172209268743164,3.4324591614025874 3.0450849718747373,3.5182158739794924 3.0,3.5509720234204147 2.9827790731256836,3.6039725865563974 3.0557280900008412,3.65697314969238 3.0450849718747373,3.6897292991333024 3.0901699437494745,3.7224854485742247 3.1458980337503157,3.7224854485742247 3.1737620787507366,3.6367287359973197 3.2082039324993694,3.6367287359973197 3.281152949374527,3.6897292991333024 3.3090169943749475,3.7754860117102074 3.26393202250021,3.8082421611511297 3.2467110956258938,3.8612427242871123 3.3196601125010514,3.914243287423095 3.3090169943749475,3.9469994368640173 3.23606797749979,4.0 3.3090169943749475,4.053000563135983 3.3434588481235803,4.053000563135983 3.371322893124001,3.967243850559078 3.4270509831248424,3.967243850559078 3.4721359549995796,4.0 3.5450849718747373,3.9469994368640173 3.572949016875158,3.8612427242871123 3.5623058987490537,3.82848657484619 3.4721359549995796,3.82848657484619 3.454915028125263,3.7754860117102074 3.4721359549995796,3.7224854485742247 3.5065778087482125,3.7224854485742247 3.5344418537486333,3.6367287359973197 3.5901699437494745,3.6367287359973197 3.6352549156242118,3.6694848854382416 3.7082039324993694,3.616484322302259 3.73606797749979,3.6367287359973197 3.781152949374527,3.603972586556398 3.7983738762488435,3.5509720234204147 3.7254248593736854,3.4979714602844316 3.73606797749979,3.4652153108435098 3.8090169943749475,3.4122147477075266 3.8368810393753683,3.3264580351306217 3.826237921249264,3.2937018856896993 3.73606797749979,3.2937018856896993 3.7188470506254734,3.2407013225537167 3.73606797749979,3.187700759417734 3.663118960624632,3.1347001962817513 3.572949016875158,3.1347001962817513 3.5450849718747377,3.154944609976812 3.572949016875158,3.240701322553717 3.527864045000421,3.273457471994639 3.4721359549995796,3.273457471994639 3.461492836873475,3.2407013225537167 3.371322893124001,3.2407013225537167 3.3541019662496847,3.187700759417734 3.371322893124001,3.1347001962817513 3.2983738762488435,3.0816996331457687 3.3090169943749475,3.0489434837048464 3.381966011250105,2.9959429205688637 3.409830056250526,2.9101862079919587 3.3991869381244215,2.8774300585510364 3.3090169943749475,2.8774300585510364 3.291796067500631,2.8244294954150537 3.3090169943749475,2.771428932279071 3.3434588481235803,2.771428932279071 3.371322893124001,2.685672219702166 3.4270509831248424,2.685672219702166 3.4721359549995796,2.7184283691430884 3.5450849718747373,2.6654278060071053 3.572949016875158,2.685672219702166 3.6180339887498953,2.652916070261244 3.6352549156242118,2.599915507125261 3.5623058987490537,2.546914943989278 3.572949016875158,2.514158794548356 3.6458980337503157,2.461158231412373 3.73606797749979,2.461158231412373 3.76393202250021,2.440913817717312 3.73606797749979,2.355157105140407 3.781152949374527,2.3224009556994853 3.7983738762488435,2.2694003925635027 3.725424859373686,2.21639982942752 3.73606797749979,2.1836436799865977 3.6909830056250525,2.1508875305456754 3.6352549156242113,2.1508875305456754 3.6073908706237905,2.2366442431225804 3.5729490168751576,2.2366442431225804 3.5,2.1836436799865977 3.4721359549995796,2.0978869674096927 3.517220926874317,2.0651308179687704 3.5344418537486333,2.0121302548327877 3.4614928368734756,1.959129691696805 3.4721359549995796,1.9263735422558828 3.5450849718747373,1.8733729791198999 3.572949016875158,1.7876162665429949 3.5623058987490537,1.7548601171020728 3.4721359549995796,1.7548601171020728 3.454915028125263,1.70185955396609 3.4721359549995796,1.6488589908301072 3.399186938124422,1.5958584276941246 3.309016994374948,1.5958584276941246 3.2811529493745275,1.6161028413891851 3.309016994374948,1.7018595539660901 3.2639320225002106,1.7346157034070122 3.2082039324993694,1.7346157034070122 3.197560814373265,1.7018595539660901 3.107390870623791,1.7018595539660901 3.0901699437494745,1.6488589908301072 3.107390870623791,1.5958584276941243 3.0344418537486333,1.5428578645581414 3.0450849718747373,1.5101017151172194 3.0,1.4773455656762973 2.9442719099991588,1.4773455656762973 2.916407864998738,1.5631022782532022 2.881966011250105,1.5631022782532022 2.8090169943749475,1.5101017151172194 2.7188470506254734,1.5101017151172194 2.690983005625053,1.53034612881228 2.7188470506254734,1.616102841389185 2.673762078750736,1.648858990830107 2.618033988749895,1.648858990830107 2.5901699437494745,1.734615703407012 2.6180339887498953,1.820372415983917 2.6458980337503157,1.8406168296789776 2.7188470506254734,1.7876162665429949 2.7639320225002106,1.820372415983917 2.781152949374527,1.8733729791198996 2.7532889043741067,1.8936173928149602 2.781152949374527,1.9793741053918652 2.73606797749979,2.0121302548327873 2.6803398874989486,2.0121302548327873 2.6524758424985277,2.0978869674096923 2.618033988749895,2.0978869674096923 2.5450849718747373,2.0448864042737096 2.454915028125263,2.0448864042737096 2.427050983124843,2.0651308179687704 2.454915028125263,2.1508875305456754 2.409830056250526,2.1836436799865973 2.3541019662496847,2.1836436799865973 2.3434588481235803,2.150887530545675 2.2532889043741062,2.150887530545675 2.23606797749979,2.0978869674096923 2.2532889043741062,2.0448864042737096 2.1803398874989486,1.991885841137727 2.1909830056250525,1.9591296916968046 2.1458980337503157,1.9263735422558823 2.0901699437494745,1.9263735422558823 2.062305898749054,2.0121302548327873 2.027864045000421,2.0121302548327873 1.954915028125263,1.9591296916968046 1.9270509831248426,1.8733729791198996 1.9721359549995796,1.8406168296789776 1.9893568818738963,1.7876162665429947 1.9164078649987386,1.7346157034070118 1.9270509831248426,1.7018595539660897 2.0000000000000004,1.6488589908301068 2.0278640450004213,1.5631022782532018 2.017220926874317,1.5303461288122797 1.9270509831248428,1.5303461288122797 1.9098300562505264,1.4773455656762968 1.9270509831248428,1.4243450025403142 1.8541019662496852,1.3713444394043315 1.7639320225002109,1.3713444394043315 1.7360679774997902,1.3915888530993923 1.7639320225002109,1.477345565676297 1.7188470506254738,1.5101017151172191 1.6631189606246326,1.5101017151172191 1.6524758424985284,1.477345565676297 1.5623058987490541,1.477345565676297 1.5450849718747377,1.4243450025403142 1.5623058987490541,1.3713444394043313 1.4893568818738963,1.3183438762683484 1.5000000000000004,1.2855877268274263 1.572949016875158,1.2325871636914436 1.6008130618755787,1.1468304511145386 1.5901699437494745,1.1140743016736165 1.5000000000000004,1.1140743016736165 1.482779073125684,1.0610737385376336 1.5000000000000004,1.008073175401651 1.5344418537486335,1.008073175401651 1.5623058987490541,0.922316462824746 1.6180339887498953,0.922316462824746 1.600813061875579,0.8693158996887631 1.5106431181261046,0.8693158996887631 1.5000000000000004,0.836559750247841 1.4442719099991592,0.836559750247841 1.3991869381244222,0.8693158996887631 1.4270509831248428,0.955072612265668 1.3991869381244222,0.9753170259607287 1.309016994374948,0.9753170259607287 1.2360679774997902,0.9223164628247459 1.2016261237511572,0.9223164628247458 1.1737620787507366,1.0080731754016508 1.1180339887498953,1.0080731754016508 1.0729490168751583,1.0408293248425728 1.100813061875579,1.1265860374194778 1.072949016875158,1.1468304511145384 1.0901699437494745,1.1998310142505213 1.1352549156242115,1.2325871636914434 1.2082039324993694,1.1795866005554605 1.23606797749979,1.1998310142505213 1.2639320225002106,1.2855877268274263 1.23606797749979,1.3713444394043313 1.180339887498949,1.3713444394043313 1.135254915624212,1.4041005888452534 1.1631189606246326,1.4898573014221583 1.1352549156242118,1.510101715117219 1.0450849718747375,1.510101715117219 0.9721359549995797,1.457101151981236 0.9376941012509468,1.457101151981236 0.9098300562505262,1.542857864558141 0.8541019662496849,1.542857864558141 0.8090169943749478,1.510101715117219 0.8196601125010519,1.4773455656762968 0.7467110956258941,1.424345002540314 0.7639320225002106,1.371344439404331 0.7467110956258941,1.3183438762683481 0.6565411518764199,1.3183438762683481 0.6458980337503158,1.285587726827426 0.5901699437494746,1.285587726827426 0.5450849718747375,1.3183438762683481 0.5729490168751581,1.4041005888452531 0.5450849718747375,1.4243450025403137 0.4549150281252633,1.4243450025403137 0.38196601125010554,1.371344439404331 0.3991869381244221,1.3183438762683484 0.3819660112501056,1.2653433131323655 0.29179606750063136,1.2653433131323655 0.2811529493745273,1.2325871636914434 0.3090169943749479,1.1468304511145384 0.2811529493745273,1.0610737385376334 0.25328890437410667,1.0408293248425726 0.18033988749894891,1.0938298879785555 0.13525491562421177,1.0610737385376334 0.11803398874989529,1.0080731754016505 0.027864045000421042,1.0080731754016505 -0.04508497187473669,1.0610737385376334 -0.0557280900008408,1.0938298879785555 0.017220926874316943,1.1468304511145384 3.95516952522712e-16,1.1998310142505213 -0.04508497187473673,1.2325871636914432 -0.07294901687515733,1.2123427499963824 -0.14589803375031507,1.2653433131323653 -0.19098300562505222,1.2325871636914432 -0.20820393249936875,1.1795866005554605 -0.29837387624884293,1.1795866005554605 -0.309016994374947,1.1468304511145384 -0.36474508437578823,1.1468304511145384 -0.4098300562505253,1.1795866005554605 -0.3819660112501047,1.2653433131323653 -0.4098300562505253,1.285587726827426 -0.4999999999999995,1.285587726827426 -0.5729490168751572,1.338588289963409 -0.5835921350012612,1.371344439404331 -0.5106431181261035,1.4243450025403137 -0.5278640450004201,1.4773455656762966 -0.5729490168751572,1.5101017151172187 -0.5450849718747366,1.5958584276941237 -0.4721359549995789,1.6488589908301066 -0.4376941012509459,1.6488589908301066 -0.40983005625052527,1.5631022782532016 -0.35410196624968404,1.5631022782532016 -0.30901699437494695,1.5958584276941237 -0.31966011250105103,1.6286145771350455 -0.24671109562589336,1.6816151402710284 -0.26393202250020986,1.7346157034070113 -0.309016994374947,1.7673718528479334 -0.2811529493745264,1.8531285654248384 -0.309016994374947,1.8733729791198992 -0.3991869381244212,1.8733729791198992 -0.47213595499957894,1.926373542255882 -0.4827790731256831,1.9591296916968044 -0.4098300562505253,2.0121302548327873 -0.42705098312484185,2.06513081796877 -0.47213595499957894,2.097886967409692 -0.49999999999999956,2.0776425537146315 -0.5729490168751573,2.130643116850614 -0.6180339887498945,2.097886967409692 -0.635254915624211,2.044886404273709 -0.7254248593736852,2.044886404273709 -0.7360679774997892,2.012130254832787 -0.7917960675006305,2.012130254832787 -0.8368810393753676,2.0448864042737087 -0.809016994374947,2.1306431168506137 -0.8368810393753676,2.1508875305456745 -0.9270509831248418,2.1508875305456745 -0.9999999999999996,2.097886967409692 -0.982779073125683,2.044886404273709 -0.9999999999999996,1.9918858411377263 -1.0901699437494738,1.9918858411377263 -1.1008130618755778,1.9591296916968042 -1.0729490168751572,1.8733729791198992 -1.1008130618755778,1.7876162665429942 -1.1286771068759984,1.7673718528479334 -1.2016261237511563,1.8203724159839163 -1.2467110956258933,1.7876162665429942 -1.2639320225002098,1.7346157034070113 -1.3541019662496838,1.7346157034070113 -1.4270509831248415,1.7876162665429942 -1.4376941012509454,1.8203724159839163 -1.3647450843757878,1.8733729791198992 -1.3819660112501044,1.926373542255882 -1.4270509831248417,1.959129691696804 -1.4549150281252623,1.9388852780017432 -1.5278640450004202,1.991885841137726 -1.5729490168751572,1.959129691696804 -1.5901699437494738,1.906129128560821 -1.6803398874989481,1.906129128560821 -1.690983005625052,1.8733729791198992 -1.6631189606246315,1.7876162665429942 -1.690983005625052,1.7018595539660892 -1.7188470506254727,1.6816151402710287 -1.7917960675006304,1.7346157034070113 -1.8368810393753674,1.7018595539660892 -1.854101966249684,1.6488589908301066 -1.8262379212492634,1.6286145771350458 -1.854101966249684,1.5428578645581408 -1.809016994374947,1.5101017151172187 -1.854101966249684,1.4773455656762966 -1.927050983124842,1.5303461288122795 -1.9549150281252625,1.5101017151172187 -1.9999999999999998,1.5428578645581406 -2.0172209268743164,1.5958584276941234 -1.9442719099991588,1.6488589908301063 -1.9549150281252627,1.6816151402710284 -2.0278640450004204,1.7346157034070113 -2.1180339887498945,1.7346157034070113 -2.145898033750315,1.7548601171020721 -2.1180339887498945,1.840616829678977 -2.1631189606246317,1.8733729791198992 -2.180339887498948,1.926373542255882 -2.1073908706237905,1.9793741053918648 -2.1180339887498945,2.012130254832787 -2.072949016875157,2.0448864042737087 -2.017220926874316,2.0448864042737087 -1.9893568818738954,1.959129691696804 -1.9549150281252623,1.959129691696804 -1.8819660112501047,2.012130254832787 -1.8541019662496843,2.0978869674096923 -1.8991869381244213,2.1306431168506146 -1.9164078649987377,2.1836436799865973 -1.84345884812358,2.23664424312258 -1.8541019662496843,2.2694003925635022 -1.9270509831248421,2.322400955699485 -2.0172209268743164,2.322400955699485 -2.045084971874737,2.3426453693945457 -2.0172209268743164,2.4284020819714507 -2.0623058987490537,2.4611582314123726 -2.118033988749895,2.4611582314123726 -2.1458980337503153,2.546914943989277 -2.118033988749895,2.632671656566182 -2.090169943749474,2.6529160702612424 -2.0172209268743164,2.5999155071252598 -1.9721359549995794,2.632671656566182 -1.9549150281252627,2.685672219702165 -1.9827790731256834,2.705916633397226 -1.9549150281252627,2.791673345974131 -2.0,2.8244294954150533 -2.0172209268743164,2.8774300585510364 -1.9442719099991586,2.9304306216870195 -1.954915028125263,2.9631867711279414 -1.909830056250526,2.9959429205688637 -1.8541019662496847,2.9959429205688637 -1.826237921249264,2.9101862079919587 -1.791796067500631,2.9101862079919587 -1.7188470506254732,2.9631867711279414 -1.6909830056250525,3.0489434837048464 -1.663118960624632,3.069187897399907 -1.590169943749474,3.0161873342639245 -1.545084971874737,3.048943483704847 -1.4893568818738958,3.048943483704847 -1.4614928368734752,2.963186771127942 -1.4270509831248421,2.963186771127942 -1.4098300562505255,2.9101862079919587 -1.427050983124842,2.857185644855976 -1.5172209268743162,2.857185644855976 -1.5278640450004204,2.8244294954150537 -1.4999999999999998,2.7386727828381487 -1.427050983124842,2.685672219702166 -1.3819660112501047,2.7184283691430884 -1.3262379212492634,2.7184283691430884 -1.2983738762488428,2.6326716565661834 -1.2639320225002098,2.6326716565661834 -1.190983005625052,2.685672219702166 -1.1631189606246315,2.771428932279071 -1.1352549156242109,2.791673345974132 -1.0623058987490532,2.738672782838149 -1.0172209268743162,2.771428932279071 -0.9999999999999997,2.8244294954150537 -1.0278640450004202,2.8446739091101145 -0.9999999999999997,2.9304306216870195 -1.0450849718747368,2.9631867711279414 -1.0623058987490535,3.0161873342639245 -0.9893568818738956,3.0691878973999076 -0.9999999999999998,3.1019440468408295 -0.9549150281252626,3.134700196281752 -0.8991869381244214,3.134700196281752 -0.8713228931240008,3.048943483704847 -0.8368810393753677,3.048943483704847 -0.76393202250021,3.1019440468408295 -0.7360679774997894,3.1877007594177345 -0.7811529493745265,3.2204569088586568 -0.798373876248843,3.2734574719946394 -0.7254248593736854,3.326458035130622 -0.7360679774997895,3.3592141845715444 -0.8090169943749472,3.412214747707527 -0.8991869381244214,3.412214747707527 -0.9270509831248419,3.432459161402588 -0.8991869381244214,3.518215873979493 -0.9442719099991586,3.5509720234204147 -0.9999999999999998,3.5509720234204147 -1.0278640450004204,3.6367287359973197 -0.9999999999999998,3.7224854485742247 -0.9721359549995792,3.7427298622692855 -0.8991869381244215,3.689729299133303 -0.8541019662496845,3.7224854485742247 -0.836881039375368,3.7754860117102074 -0.8647450843757885,3.795730425405268 -0.836881039375368,3.881487137982173 -0.8819660112501051,3.914243287423095 -0.9376941012509463,3.914243287423095 -0.9655581462513669,4.0"/>
</svg>