<?xml version="1.0" encoding="UTF-8" standalone="no"?>
<svg
   version="1.1"
   width="759.68506"
   height="759.68506"
   id="svg369"
   sodipodi:docname="spectres51.svg"
   inkscape:version="1.3.2 (091e20ef0f, 2023-11-25, custom)"
   xmlns:inkscape="http://www.inkscape.org/namespaces/inkscape"
   xmlns:sodipodi="http://sodipodi.sourceforge.net/DTD/sodipodi-0.dtd"
   xmlns="http://www.w3.org/2000/svg"
   xmlns:svg="http://www.w3.org/2000/svg">
  <defs
     id="defs369" />
  <sodipodi:namedview
     id="namedview369"
     pagecolor="#ffffff"
     bordercolor="#000000"
     borderopacity="0.25"
     inkscape:showpageshadow="2"
     inkscape:pageopacity="0.0"
     inkscape:pagecheckerboard="0"
     inkscape:deskcolor="#d1d1d1"
     inkscape:zoom="1.4727481"
     inkscape:cx="267.18757"
     inkscape:cy="295.36619"
     inkscape:window-width="2560"
     inkscape:window-height="1360"
     inkscape:window-x="0"
     inkscape:window-y="0"
     inkscape:window-maximized="1"
     inkscape:current-layer="svg369" />
  <style
     type="text/css"
     id="style1">
path { fill: none; stroke: black; stroke-width: 1.500000; stroke-linejoin: round; stroke-linecap: round; }
text { fill: black; font-family: Sans; text-anchor: middle; text-align: center; }
.G { fill: rgb(255, 128, 128); }
.G1 { fill: rgb(255, 64, 64); }
.F { fill: rgb(255, 192, 128); }
.Y { fill: rgb(255, 255, 128); }
.S { fill: rgb(128, 255, 128); }
.D { fill: rgb(128, 255, 255); }
.P { fill: rgb(128, 128, 255); }
.X { fill: rgb(192, 128, 255); }
.J { fill: rgb(255, 128, 255); }
.L { fill: rgb(128, 128, 128); }
.optional { stroke-dasharray: 5; }
.arrow { fill: rgba(0, 0, 0, 0.2); stroke: none; }
</style>
  <path
     class="G"
     d="m 150.03551,16.306992 a 20.520418,20.520418 0 0 1 -7.511,28.031396 20.520418,20.520418 0 0 0 -28.0314,7.511 20.520418,20.520418 0 0 1 7.51099,28.0314 20.520418,20.520418 0 0 0 -20.52041,20.520502 20.520418,20.520418 0 0 1 -20.52042,-20.520502 20.520418,20.520418 0 0 0 -28.03141,7.511 20.520418,20.520418 0 0 1 -7.511,-28.0314 20.520418,20.520418 0 0 0 -28.03141,-7.511 20.520418,20.520418 0 0 1 7.51099,-28.031396 20.520418,20.520418 0 0 0 28.03142,-7.511 20.520418,20.520418 0 0 1 28.03141,-7.5110001 20.520418,20.520418 0 0 0 20.52042,20.5204001 20.520418,20.520418 0 0 1 20.52041,-20.5204001 20.520418,20.520418 0 0 0 28.03141,7.5110001 z"
     id="path369"
     style="stroke-width:1;stroke-dasharray:none" />
  <path
     class="G"
     d="m 150.03552,98.181488 a 20.520418,20.520418 0 0 1 -7.511,28.031402 20.520418,20.520418 0 0 0 -28.03141,7.511 20.520418,20.520418 0 0 1 7.51099,28.0314 20.520418,20.520418 0 0 0 -20.52041,20.5205 20.520418,20.520418 0 0 1 -20.52042,-20.5205 20.520418,20.520418 0 0 0 -28.03141,7.511 20.520418,20.520418 0 0 1 -7.511,-28.0314 20.520418,20.520418 0 0 0 -28.03141,-7.511 20.520418,20.520418 0 0 1 7.51099,-28.0314 20.520418,20.520418 0 0 0 28.03142,-7.511002 20.520418,20.520418 0 0 1 28.03141,-7.511 20.520418,20.520418 0 0 0 20.52042,20.520402 20.520418,20.520418 0 0 1 20.52041,-20.520402 20.520418,20.520418 0 0 0 28.03142,7.511 z"
     id="path369-5"
     style="fill:#ff8080;stroke:#000000;stroke-width:1;stroke-linecap:round;stroke-linejoin:round;stroke-dasharray:none" />
  <path
     class="G"
     d="m 150.03551,180.05599 a 20.520418,20.520418 0 0 1 -7.511,28.0314 20.520418,20.520418 0 0 0 -28.0314,7.511 20.520418,20.520418 0 0 1 7.51099,28.0314 20.520418,20.520418 0 0 0 -20.52041,20.5205 20.520418,20.520418 0 0 1 -20.52042,-20.5205 20.520418,20.520418 0 0 0 -28.03141,7.511 20.520418,20.520418 0 0 1 -7.511,-28.0314 20.520418,20.520418 0 0 0 -28.03141,-7.511 20.520418,20.520418 0 0 1 7.51099,-28.0314 20.520418,20.520418 0 0 0 28.03142,-7.511 20.520418,20.520418 0 0 1 28.03141,-7.511 20.520418,20.520418 0 0 0 20.52042,20.5204 20.520418,20.520418 0 0 1 20.52041,-20.5204 20.520418,20.520418 0 0 0 28.03141,7.511 z"
     id="path369-56"
     style="fill:#ff8080;stroke:#000000;stroke-width:1;stroke-linecap:round;stroke-linejoin:round;stroke-dasharray:none" />
  <path
     class="G"
     d="m 150.03551,261.93049 a 20.520418,20.520418 0 0 1 -7.511,28.0314 20.520418,20.520418 0 0 0 -28.0314,7.511 20.520418,20.520418 0 0 1 7.51099,28.0314 20.520418,20.520418 0 0 0 -20.52041,20.5205 20.520418,20.520418 0 0 1 -20.52042,-20.5205 20.520418,20.520418 0 0 0 -28.03141,7.511 20.520418,20.520418 0 0 1 -7.511,-28.0314 20.520418,20.520418 0 0 0 -28.03141,-7.511 20.520418,20.520418 0 0 1 7.51099,-28.0314 20.520418,20.520418 0 0 0 28.03142,-7.511 20.520418,20.520418 0 0 1 28.03141,-7.511 20.520418,20.520418 0 0 0 20.52042,20.5204 20.520418,20.520418 0 0 1 20.52041,-20.5204 20.520418,20.520418 0 0 0 28.03141,7.511 z"
     id="path369-5-2"
     style="fill:#ff8080;stroke:#000000;stroke-width:1;stroke-linecap:round;stroke-linejoin:round;stroke-dasharray:none" />
  <path
     class="G"
     d="m 150.03551,343.80499 a 20.520418,20.520418 0 0 1 -7.511,28.0314 20.520418,20.520418 0 0 0 -28.0314,7.511 20.520418,20.520418 0 0 1 7.51099,28.0314 20.520418,20.520418 0 0 0 -20.52041,20.5205 20.520418,20.520418 0 0 1 -20.52042,-20.5205 20.520418,20.520418 0 0 0 -28.03141,7.511 20.520418,20.520418 0 0 1 -7.511,-28.0314 20.520418,20.520418 0 0 0 -28.03141,-7.511 20.520418,20.520418 0 0 1 7.51099,-28.0314 20.520418,20.520418 0 0 0 28.03142,-7.511 20.520418,20.520418 0 0 1 28.03141,-7.511 20.520418,20.520418 0 0 0 20.52042,20.5204 20.520418,20.520418 0 0 1 20.52041,-20.5204 20.520418,20.520418 0 0 0 28.03141,7.511 z"
     id="path369-9"
     style="fill:#ff8080;stroke:#000000;stroke-width:1;stroke-linecap:round;stroke-linejoin:round;stroke-dasharray:none" />
  <path
     class="G"
     d="m 150.03551,425.67949 a 20.520418,20.520418 0 0 1 -7.511,28.0314 20.520418,20.520418 0 0 0 -28.0314,7.511 20.520418,20.520418 0 0 1 7.51099,28.0314 20.520418,20.520418 0 0 0 -20.52041,20.5205 20.520418,20.520418 0 0 1 -20.52042,-20.5205 20.520418,20.520418 0 0 0 -28.03141,7.511 20.520418,20.520418 0 0 1 -7.511,-28.0314 20.520418,20.520418 0 0 0 -28.03141,-7.511 20.520418,20.520418 0 0 1 7.51099,-28.0314 20.520418,20.520418 0 0 0 28.03142,-7.511 20.520418,20.520418 0 0 1 28.03141,-7.511 20.520418,20.520418 0 0 0 20.52042,20.5204 20.520418,20.520418 0 0 1 20.52041,-20.5204 20.520418,20.520418 0 0 0 28.03141,7.511 z"
     id="path369-5-1"
     style="fill:#ff8080;stroke:#000000;stroke-width:1;stroke-linecap:round;stroke-linejoin:round;stroke-dasharray:none" />
  <path
     class="G"
     d="m 150.03551,507.55399 a 20.520418,20.520418 0 0 1 -7.511,28.0314 20.520418,20.520418 0 0 0 -28.0314,7.511 20.520418,20.520418 0 0 1 7.51098,28.0314 20.520418,20.520418 0 0 0 -20.5204,20.5205 20.520418,20.520418 0 0 1 -20.52042,-20.5205 20.520418,20.520418 0 0 0 -28.03141,7.511 20.520418,20.520418 0 0 1 -7.511,-28.0314 20.520418,20.520418 0 0 0 -28.03141,-7.511 20.520418,20.520418 0 0 1 7.51099,-28.0314 20.520418,20.520418 0 0 0 28.03142,-7.511 20.520418,20.520418 0 0 1 28.03141,-7.511 20.520418,20.520418 0 0 0 20.52042,20.5204 20.520418,20.520418 0 0 1 20.5204,-20.5204 20.520418,20.520418 0 0 0 28.03142,7.511 z"
     id="path369-56-2"
     style="fill:#ff8080;stroke:#000000;stroke-width:1;stroke-linecap:round;stroke-linejoin:round;stroke-dasharray:none" />
  <path
     class="G"
     d="m 150.03551,589.42849 a 20.520418,20.520418 0 0 1 -7.511,28.0314 20.520418,20.520418 0 0 0 -28.0314,7.511 20.520418,20.520418 0 0 1 7.51099,28.0314 20.520418,20.520418 0 0 0 -20.52041,20.5205 20.520418,20.520418 0 0 1 -20.52042,-20.5205 20.520418,20.520418 0 0 0 -28.03141,7.511 20.520418,20.520418 0 0 1 -7.511,-28.0314 20.520418,20.520418 0 0 0 -28.03141,-7.511 20.520418,20.520418 0 0 1 7.51099,-28.0314 20.520418,20.520418 0 0 0 28.03142,-7.511 20.520418,20.520418 0 0 1 28.03141,-7.511 20.520418,20.520418 0 0 0 20.52042,20.5204 20.520418,20.520418 0 0 1 20.52041,-20.5204 20.520418,20.520418 0 0 0 28.03141,7.511 z"
     id="path369-5-2-7"
     style="fill:#ff8080;stroke:#000000;stroke-width:1;stroke-linecap:round;stroke-linejoin:round;stroke-dasharray:none" />
  <path
     class="G"
     d="m 150.03551,671.30299 a 20.520418,20.520418 0 0 1 -7.511,28.0314 20.520418,20.520418 0 0 0 -28.0314,7.511 20.520418,20.520418 0 0 1 7.51099,28.0314 20.520418,20.520418 0 0 0 -20.52041,20.5205 20.520418,20.520418 0 0 1 -20.52042,-20.5205 20.520418,20.520418 0 0 0 -28.03141,7.511 20.520418,20.520418 0 0 1 -7.511,-28.0314 20.520418,20.520418 0 0 0 -28.03141,-7.511 20.520418,20.520418 0 0 1 7.51099,-28.0314 20.520418,20.520418 0 0 0 28.03142,-7.511 20.520418,20.520418 0 0 1 28.03141,-7.511 20.520418,20.520418 0 0 0 20.52042,20.5204 20.520418,20.520418 0 0 1 20.52041,-20.5204 20.520418,20.520418 0 0 0 28.03141,7.511 z"
     id="path369-5-2-7-0"
     style="fill:#ff8080;stroke:#000000;stroke-width:1;stroke-linecap:round;stroke-linejoin:round;stroke-dasharray:none" />
  <path
     class="G"
     d="m 267.61011,57.056288 a 20.520418,20.520418 0 0 1 -7.511,28.0314 20.520418,20.520418 0 0 0 -28.0314,7.511 20.520418,20.520418 0 0 1 7.51099,28.031402 20.520418,20.520418 0 0 0 -20.52041,20.5205 20.520418,20.520418 0 0 1 -20.52042,-20.5205 20.520418,20.520418 0 0 0 -28.03141,7.511 20.520418,20.520418 0 0 1 -7.511,-28.0314 20.520418,20.520418 0 0 0 -28.03141,-7.511002 20.520418,20.520418 0 0 1 7.51099,-28.0314 20.520418,20.520418 0 0 0 28.03142,-7.511 20.520418,20.520418 0 0 1 28.03141,-7.511 20.520418,20.520418 0 0 0 20.52042,20.5204 20.520418,20.520418 0 0 1 20.52041,-20.5204 20.520418,20.520418 0 0 0 28.03141,7.511 z"
     id="path369-93"
     style="fill:#ff8080;stroke:#000000;stroke-width:1;stroke-linecap:round;stroke-linejoin:round;stroke-dasharray:none" />
  <path
     class="G"
     d="m 267.61012,138.93079 a 20.520418,20.520418 0 0 1 -7.511,28.0314 20.520418,20.520418 0 0 0 -28.03141,7.511 20.520418,20.520418 0 0 1 7.51099,28.0314 20.520418,20.520418 0 0 0 -20.52041,20.5205 20.520418,20.520418 0 0 1 -20.52042,-20.5205 20.520418,20.520418 0 0 0 -28.03141,7.511 20.520418,20.520418 0 0 1 -7.511,-28.0314 20.520418,20.520418 0 0 0 -28.03141,-7.511 20.520418,20.520418 0 0 1 7.51099,-28.0314 20.520418,20.520418 0 0 0 28.03142,-7.511 20.520418,20.520418 0 0 1 28.03141,-7.511 20.520418,20.520418 0 0 0 20.52042,20.5204 20.520418,20.520418 0 0 1 20.52041,-20.5204 20.520418,20.520418 0 0 0 28.03142,7.511 z"
     id="path369-5-6"
     style="fill:#ff8080;stroke:#000000;stroke-width:1;stroke-linecap:round;stroke-linejoin:round;stroke-dasharray:none" />
  <path
     class="G"
     d="m 267.61011,220.80529 a 20.520418,20.520418 0 0 1 -7.511,28.0314 20.520418,20.520418 0 0 0 -28.0314,7.511 20.520418,20.520418 0 0 1 7.51099,28.0314 20.520418,20.520418 0 0 0 -20.52041,20.5205 20.520418,20.520418 0 0 1 -20.52042,-20.5205 20.520418,20.520418 0 0 0 -28.03141,7.511 20.520418,20.520418 0 0 1 -7.511,-28.0314 20.520418,20.520418 0 0 0 -28.03141,-7.511 20.520418,20.520418 0 0 1 7.51099,-28.0314 20.520418,20.520418 0 0 0 28.03142,-7.511 20.520418,20.520418 0 0 1 28.03141,-7.511 20.520418,20.520418 0 0 0 20.52042,20.5204 20.520418,20.520418 0 0 1 20.52041,-20.5204 20.520418,20.520418 0 0 0 28.03141,7.511 z"
     id="path369-56-0"
     style="fill:#ff8080;stroke:#000000;stroke-width:1;stroke-linecap:round;stroke-linejoin:round;stroke-dasharray:none" />
  <path
     class="G"
     d="m 267.61012,302.67979 a 20.520418,20.520418 0 0 1 -7.511,28.0314 20.520418,20.520418 0 0 0 -28.03141,7.511 20.520418,20.520418 0 0 1 7.51099,28.0314 20.520418,20.520418 0 0 0 -20.52041,20.5205 20.520418,20.520418 0 0 1 -20.52042,-20.5205 20.520418,20.520418 0 0 0 -28.03141,7.511 20.520418,20.520418 0 0 1 -7.511,-28.0314 20.520418,20.520418 0 0 0 -28.03141,-7.511 20.520418,20.520418 0 0 1 7.51099,-28.0314 20.520418,20.520418 0 0 0 28.03142,-7.511 20.520418,20.520418 0 0 1 28.03141,-7.511 20.520418,20.520418 0 0 0 20.52042,20.5204 20.520418,20.520418 0 0 1 20.52041,-20.5204 20.520418,20.520418 0 0 0 28.03142,7.511 z"
     id="path369-5-2-6"
     style="fill:#ff8080;stroke:#000000;stroke-width:1;stroke-linecap:round;stroke-linejoin:round;stroke-dasharray:none" />
  <path
     class="G"
     d="m 267.61011,384.55429 a 20.520418,20.520418 0 0 1 -7.511,28.0314 20.520418,20.520418 0 0 0 -28.0314,7.511 20.520418,20.520418 0 0 1 7.51099,28.0314 20.520418,20.520418 0 0 0 -20.52041,20.5205 20.520418,20.520418 0 0 1 -20.52042,-20.5205 20.520418,20.520418 0 0 0 -28.03141,7.511 20.520418,20.520418 0 0 1 -7.511,-28.0314 20.520418,20.520418 0 0 0 -28.03141,-7.511 20.520418,20.520418 0 0 1 7.51099,-28.0314 20.520418,20.520418 0 0 0 28.03142,-7.511 20.520418,20.520418 0 0 1 28.03141,-7.511 20.520418,20.520418 0 0 0 20.52042,20.5204 20.520418,20.520418 0 0 1 20.52041,-20.5204 20.520418,20.520418 0 0 0 28.03141,7.511 z"
     id="path369-9-2"
     style="fill:#ff8080;stroke:#000000;stroke-width:1;stroke-linecap:round;stroke-linejoin:round;stroke-dasharray:none" />
  <path
     class="G"
     d="m 267.61011,466.42879 a 20.520418,20.520418 0 0 1 -7.511,28.0314 20.520418,20.520418 0 0 0 -28.0314,7.511 20.520418,20.520418 0 0 1 7.51099,28.0314 20.520418,20.520418 0 0 0 -20.52041,20.5205 20.520418,20.520418 0 0 1 -20.52042,-20.5205 20.520418,20.520418 0 0 0 -28.03141,7.511 20.520418,20.520418 0 0 1 -7.511,-28.0314 20.520418,20.520418 0 0 0 -28.03141,-7.511 20.520418,20.520418 0 0 1 7.51099,-28.0314 20.520418,20.520418 0 0 0 28.03142,-7.511 20.520418,20.520418 0 0 1 28.03141,-7.511 20.520418,20.520418 0 0 0 20.52042,20.5204 20.520418,20.520418 0 0 1 20.52041,-20.5204 20.520418,20.520418 0 0 0 28.03141,7.511 z"
     id="path369-5-1-6"
     style="fill:#ff8080;stroke:#000000;stroke-width:1;stroke-linecap:round;stroke-linejoin:round;stroke-dasharray:none" />
  <path
     class="G"
     d="m 267.61011,548.30329 a 20.520418,20.520418 0 0 1 -7.511,28.0314 20.520418,20.520418 0 0 0 -28.0314,7.511 20.520418,20.520418 0 0 1 7.51098,28.0314 20.520418,20.520418 0 0 0 -20.5204,20.5205 20.520418,20.520418 0 0 1 -20.52042,-20.5205 20.520418,20.520418 0 0 0 -28.03141,7.511 20.520418,20.520418 0 0 1 -7.511,-28.0314 20.520418,20.520418 0 0 0 -28.03141,-7.511 20.520418,20.520418 0 0 1 7.51099,-28.0314 20.520418,20.520418 0 0 0 28.03142,-7.511 20.520418,20.520418 0 0 1 28.03141,-7.511 20.520418,20.520418 0 0 0 20.52042,20.5204 20.520418,20.520418 0 0 1 20.5204,-20.5204 20.520418,20.520418 0 0 0 28.03142,7.511 z"
     id="path369-56-2-1"
     style="fill:#ff8080;stroke:#000000;stroke-width:1;stroke-linecap:round;stroke-linejoin:round;stroke-dasharray:none" />
  <path
     class="G"
     d="m 267.61011,630.17779 a 20.520418,20.520418 0 0 1 -7.511,28.0314 20.520418,20.520418 0 0 0 -28.0314,7.511 20.520418,20.520418 0 0 1 7.51099,28.0314 20.520418,20.520418 0 0 0 -20.52041,20.5205 20.520418,20.520418 0 0 1 -20.52042,-20.5205 20.520418,20.520418 0 0 0 -28.03141,7.511 20.520418,20.520418 0 0 1 -7.511,-28.0314 20.520418,20.520418 0 0 0 -28.03141,-7.511 20.520418,20.520418 0 0 1 7.51099,-28.0314 20.520418,20.520418 0 0 0 28.03142,-7.511 20.520418,20.520418 0 0 1 28.03141,-7.511 20.520418,20.520418 0 0 0 20.52042,20.5204 20.520418,20.520418 0 0 1 20.52041,-20.5204 20.520418,20.520418 0 0 0 28.03141,7.511 z"
     id="path369-5-2-7-8"
     style="fill:#ff8080;stroke:#000000;stroke-width:1;stroke-linecap:round;stroke-linejoin:round;stroke-dasharray:none" />
  <path
     class="G"
     d="m 383.76805,16.629092 a 20.520418,20.520418 0 0 1 -7.511,28.031396 20.520418,20.520418 0 0 0 -28.0314,7.511 20.520418,20.520418 0 0 1 7.51099,28.0314 20.520418,20.520418 0 0 0 -20.52041,20.520502 20.520418,20.520418 0 0 1 -20.52042,-20.520502 20.520418,20.520418 0 0 0 -28.03142,7.511 20.520418,20.520418 0 0 1 -7.511,-28.0314 20.520418,20.520418 0 0 0 -28.03141,-7.511 20.520418,20.520418 0 0 1 7.51099,-28.031396 20.520418,20.520418 0 0 0 28.03142,-7.511 20.520418,20.520418 0 0 1 28.03142,-7.5110001 20.520418,20.520418 0 0 0 20.52042,20.5204001 20.520418,20.520418 0 0 1 20.52041,-20.5204001 20.520418,20.520418 0 0 0 28.03141,7.5110001 z"
     id="path369-6"
     style="fill:#ff8080;stroke:#000000;stroke-width:1;stroke-linecap:round;stroke-linejoin:round;stroke-dasharray:none" />
  <path
     class="G"
     d="m 383.76806,98.503588 a 20.520418,20.520418 0 0 1 -7.51101,28.031402 20.520418,20.520418 0 0 0 -28.0314,7.511 20.520418,20.520418 0 0 1 7.51099,28.0314 20.520418,20.520418 0 0 0 -20.52041,20.5205 20.520418,20.520418 0 0 1 -20.52042,-20.5205 20.520418,20.520418 0 0 0 -28.03142,7.511 20.520418,20.520418 0 0 1 -7.511,-28.0314 20.520418,20.520418 0 0 0 -28.03141,-7.511 20.520418,20.520418 0 0 1 7.51099,-28.0314 20.520418,20.520418 0 0 0 28.03142,-7.511002 20.520418,20.520418 0 0 1 28.03142,-7.511 20.520418,20.520418 0 0 0 20.52042,20.520402 20.520418,20.520418 0 0 1 20.52041,-20.520402 20.520418,20.520418 0 0 0 28.03142,7.511 z"
     id="path369-5-64"
     style="fill:#ff8080;stroke:#000000;stroke-width:1;stroke-linecap:round;stroke-linejoin:round;stroke-dasharray:none" />
  <path
     class="G"
     d="m 383.76805,180.37809 a 20.520418,20.520418 0 0 1 -7.511,28.0314 20.520418,20.520418 0 0 0 -28.0314,7.511 20.520418,20.520418 0 0 1 7.51099,28.0314 20.520418,20.520418 0 0 0 -20.52041,20.5205 20.520418,20.520418 0 0 1 -20.52042,-20.5205 20.520418,20.520418 0 0 0 -28.03142,7.511 20.520418,20.520418 0 0 1 -7.511,-28.0314 20.520418,20.520418 0 0 0 -28.03141,-7.511 20.520418,20.520418 0 0 1 7.51099,-28.0314 20.520418,20.520418 0 0 0 28.03142,-7.511 20.520418,20.520418 0 0 1 28.03142,-7.511 20.520418,20.520418 0 0 0 20.52042,20.5204 20.520418,20.520418 0 0 1 20.52041,-20.5204 20.520418,20.520418 0 0 0 28.03141,7.511 z"
     id="path369-56-9"
     style="fill:#ff8080;stroke:#000000;stroke-width:1;stroke-linecap:round;stroke-linejoin:round;stroke-dasharray:none" />
  <path
     class="G"
     d="m 383.76806,262.25259 a 20.520418,20.520418 0 0 1 -7.51101,28.0314 20.520418,20.520418 0 0 0 -28.0314,7.511 20.520418,20.520418 0 0 1 7.51099,28.0314 20.520418,20.520418 0 0 0 -20.52041,20.5205 20.520418,20.520418 0 0 1 -20.52042,-20.5205 20.520418,20.520418 0 0 0 -28.03142,7.511 20.520418,20.520418 0 0 1 -7.511,-28.0314 20.520418,20.520418 0 0 0 -28.03141,-7.511 20.520418,20.520418 0 0 1 7.51099,-28.0314 20.520418,20.520418 0 0 0 28.03142,-7.511 20.520418,20.520418 0 0 1 28.03142,-7.511 20.520418,20.520418 0 0 0 20.52042,20.5204 20.520418,20.520418 0 0 1 20.52041,-20.5204 20.520418,20.520418 0 0 0 28.03142,7.511 z"
     id="path369-5-2-5"
     style="fill:#ff8080;stroke:#000000;stroke-width:1;stroke-linecap:round;stroke-linejoin:round;stroke-dasharray:none" />
  <path
     class="G"
     d="m 383.76805,344.12709 a 20.520418,20.520418 0 0 1 -7.511,28.0314 20.520418,20.520418 0 0 0 -28.0314,7.511 20.520418,20.520418 0 0 1 7.51099,28.0314 20.520418,20.520418 0 0 0 -20.52041,20.5205 20.520418,20.520418 0 0 1 -20.52042,-20.5205 20.520418,20.520418 0 0 0 -28.03142,7.511 20.520418,20.520418 0 0 1 -7.511,-28.0314 20.520418,20.520418 0 0 0 -28.03141,-7.511 20.520418,20.520418 0 0 1 7.51099,-28.0314 20.520418,20.520418 0 0 0 28.03142,-7.511 20.520418,20.520418 0 0 1 28.03142,-7.511 20.520418,20.520418 0 0 0 20.52042,20.5204 20.520418,20.520418 0 0 1 20.52041,-20.5204 20.520418,20.520418 0 0 0 28.03141,7.511 z"
     id="path369-9-0"
     style="fill:#ff8080;stroke:#000000;stroke-width:1;stroke-linecap:round;stroke-linejoin:round;stroke-dasharray:none" />
  <path
     class="G"
     d="m 383.76805,426.00159 a 20.520418,20.520418 0 0 1 -7.511,28.0314 20.520418,20.520418 0 0 0 -28.0314,7.511 20.520418,20.520418 0 0 1 7.51099,28.0314 20.520418,20.520418 0 0 0 -20.52041,20.5205 20.520418,20.520418 0 0 1 -20.52042,-20.5205 20.520418,20.520418 0 0 0 -28.03142,7.511 20.520418,20.520418 0 0 1 -7.511,-28.0314 20.520418,20.520418 0 0 0 -28.03141,-7.511 20.520418,20.520418 0 0 1 7.51099,-28.0314 20.520418,20.520418 0 0 0 28.03142,-7.511 20.520418,20.520418 0 0 1 28.03142,-7.511 20.520418,20.520418 0 0 0 20.52042,20.5204 20.520418,20.520418 0 0 1 20.52041,-20.5204 20.520418,20.520418 0 0 0 28.03141,7.511 z"
     id="path369-5-1-4"
     style="fill:#ff8080;stroke:#000000;stroke-width:1;stroke-linecap:round;stroke-linejoin:round;stroke-dasharray:none" />
  <path
     class="G"
     d="m 383.76805,507.87609 a 20.520418,20.520418 0 0 1 -7.51101,28.0314 20.520418,20.520418 0 0 0 -28.03139,7.511 20.520418,20.520418 0 0 1 7.51098,28.0314 20.520418,20.520418 0 0 0 -20.5204,20.5205 20.520418,20.520418 0 0 1 -20.52042,-20.5205 20.520418,20.520418 0 0 0 -28.03142,7.511 20.520418,20.520418 0 0 1 -7.511,-28.0314 20.520418,20.520418 0 0 0 -28.03141,-7.511 20.520418,20.520418 0 0 1 7.51099,-28.0314 20.520418,20.520418 0 0 0 28.03142,-7.511 20.520418,20.520418 0 0 1 28.03142,-7.511 20.520418,20.520418 0 0 0 20.52042,20.5204 20.520418,20.520418 0 0 1 20.5204,-20.5204 20.520418,20.520418 0 0 0 28.03142,7.511 z"
     id="path369-56-2-8"
     style="fill:#ff8080;stroke:#000000;stroke-width:1;stroke-linecap:round;stroke-linejoin:round;stroke-dasharray:none" />
  <path
     class="G"
     d="m 383.76805,589.75059 a 20.520418,20.520418 0 0 1 -7.511,28.0314 20.520418,20.520418 0 0 0 -28.0314,7.511 20.520418,20.520418 0 0 1 7.51099,28.0314 20.520418,20.520418 0 0 0 -20.52041,20.5205 20.520418,20.520418 0 0 1 -20.52042,-20.5205 20.520418,20.520418 0 0 0 -28.03142,7.511 20.520418,20.520418 0 0 1 -7.511,-28.0314 20.520418,20.520418 0 0 0 -28.03141,-7.511 20.520418,20.520418 0 0 1 7.51099,-28.0314 20.520418,20.520418 0 0 0 28.03142,-7.511 20.520418,20.520418 0 0 1 28.03142,-7.511 20.520418,20.520418 0 0 0 20.52042,20.5204 20.520418,20.520418 0 0 1 20.52041,-20.5204 20.520418,20.520418 0 0 0 28.03141,7.511 z"
     id="path369-5-2-7-7"
     style="fill:#ff8080;stroke:#000000;stroke-width:1;stroke-linecap:round;stroke-linejoin:round;stroke-dasharray:none" />
  <path
     class="G"
     d="m 383.76805,671.62509 a 20.520418,20.520418 0 0 1 -7.511,28.0314 20.520418,20.520418 0 0 0 -28.0314,7.511 20.520418,20.520418 0 0 1 7.51099,28.0314 20.520418,20.520418 0 0 0 -20.52041,20.5205 20.520418,20.520418 0 0 1 -20.52042,-20.5205 20.520418,20.520418 0 0 0 -28.03142,7.511 20.520418,20.520418 0 0 1 -7.511,-28.0314 20.520418,20.520418 0 0 0 -28.03141,-7.511 20.520418,20.520418 0 0 1 7.51099,-28.0314 20.520418,20.520418 0 0 0 28.03142,-7.511 20.520418,20.520418 0 0 1 28.03142,-7.511 20.520418,20.520418 0 0 0 20.52042,20.5204 20.520418,20.520418 0 0 1 20.52041,-20.5204 20.520418,20.520418 0 0 0 28.03141,7.511 z"
     id="path369-5-2-7-0-1"
     style="fill:#ff8080;stroke:#000000;stroke-width:1;stroke-linecap:round;stroke-linejoin:round;stroke-dasharray:none" />
  <path
     class="G"
     d="m 501.34265,57.378388 a 20.520418,20.520418 0 0 1 -7.511,28.0314 20.520418,20.520418 0 0 0 -28.0314,7.511 20.520418,20.520418 0 0 1 7.51099,28.031402 20.520418,20.520418 0 0 0 -20.52041,20.5205 20.520418,20.520418 0 0 1 -20.52042,-20.5205 20.520418,20.520418 0 0 0 -28.03141,7.511 20.520418,20.520418 0 0 1 -7.511,-28.0314 20.520418,20.520418 0 0 0 -28.03141,-7.511002 20.520418,20.520418 0 0 1 7.51099,-28.0314 20.520418,20.520418 0 0 0 28.03142,-7.511 20.520418,20.520418 0 0 1 28.03141,-7.511 20.520418,20.520418 0 0 0 20.52042,20.5204 20.520418,20.520418 0 0 1 20.52041,-20.5204 20.520418,20.520418 0 0 0 28.03141,7.511 z"
     id="path369-93-7"
     style="fill:#ff8080;stroke:#000000;stroke-width:1;stroke-linecap:round;stroke-linejoin:round;stroke-dasharray:none" />
  <path
     class="G"
     d="m 501.34266,139.25289 a 20.520418,20.520418 0 0 1 -7.511,28.0314 20.520418,20.520418 0 0 0 -28.03141,7.511 20.520418,20.520418 0 0 1 7.51099,28.0314 20.520418,20.520418 0 0 0 -20.52041,20.5205 20.520418,20.520418 0 0 1 -20.52042,-20.5205 20.520418,20.520418 0 0 0 -28.03141,7.511 20.520418,20.520418 0 0 1 -7.511,-28.0314 20.520418,20.520418 0 0 0 -28.03141,-7.511 20.520418,20.520418 0 0 1 7.51099,-28.0314 20.520418,20.520418 0 0 0 28.03142,-7.511 20.520418,20.520418 0 0 1 28.03141,-7.511 20.520418,20.520418 0 0 0 20.52042,20.5204 20.520418,20.520418 0 0 1 20.52041,-20.5204 20.520418,20.520418 0 0 0 28.03142,7.511 z"
     id="path369-5-6-2"
     style="fill:#ff8080;stroke:#000000;stroke-width:1;stroke-linecap:round;stroke-linejoin:round;stroke-dasharray:none" />
  <path
     class="G"
     d="m 501.34265,221.12739 a 20.520418,20.520418 0 0 1 -7.511,28.0314 20.520418,20.520418 0 0 0 -28.0314,7.511 20.520418,20.520418 0 0 1 7.51099,28.0314 20.520418,20.520418 0 0 0 -20.52041,20.5205 20.520418,20.520418 0 0 1 -20.52042,-20.5205 20.520418,20.520418 0 0 0 -28.03141,7.511 20.520418,20.520418 0 0 1 -7.511,-28.0314 20.520418,20.520418 0 0 0 -28.03141,-7.511 20.520418,20.520418 0 0 1 7.51099,-28.0314 20.520418,20.520418 0 0 0 28.03142,-7.511 20.520418,20.520418 0 0 1 28.03141,-7.511 20.520418,20.520418 0 0 0 20.52042,20.5204 20.520418,20.520418 0 0 1 20.52041,-20.5204 20.520418,20.520418 0 0 0 28.03141,7.511 z"
     id="path369-56-0-7"
     style="fill:#ff8080;stroke:#000000;stroke-width:1;stroke-linecap:round;stroke-linejoin:round;stroke-dasharray:none" />
  <path
     class="G"
     d="m 501.34266,303.00189 a 20.520418,20.520418 0 0 1 -7.511,28.0314 20.520418,20.520418 0 0 0 -28.03141,7.511 20.520418,20.520418 0 0 1 7.51099,28.0314 20.520418,20.520418 0 0 0 -20.52041,20.5205 20.520418,20.520418 0 0 1 -20.52042,-20.5205 20.520418,20.520418 0 0 0 -28.03141,7.511 20.520418,20.520418 0 0 1 -7.511,-28.0314 20.520418,20.520418 0 0 0 -28.03141,-7.511 20.520418,20.520418 0 0 1 7.51099,-28.0314 20.520418,20.520418 0 0 0 28.03142,-7.511 20.520418,20.520418 0 0 1 28.03141,-7.511 20.520418,20.520418 0 0 0 20.52042,20.5204 20.520418,20.520418 0 0 1 20.52041,-20.5204 20.520418,20.520418 0 0 0 28.03142,7.511 z"
     id="path369-5-2-6-2"
     style="fill:#ff8080;stroke:#000000;stroke-width:1;stroke-linecap:round;stroke-linejoin:round;stroke-dasharray:none" />
  <path
     class="G"
     d="m 501.34265,384.87639 a 20.520418,20.520418 0 0 1 -7.511,28.0314 20.520418,20.520418 0 0 0 -28.0314,7.511 20.520418,20.520418 0 0 1 7.51099,28.0314 20.520418,20.520418 0 0 0 -20.52041,20.5205 20.520418,20.520418 0 0 1 -20.52042,-20.5205 20.520418,20.520418 0 0 0 -28.03141,7.511 20.520418,20.520418 0 0 1 -7.511,-28.0314 20.520418,20.520418 0 0 0 -28.03141,-7.511 20.520418,20.520418 0 0 1 7.51099,-28.0314 20.520418,20.520418 0 0 0 28.03142,-7.511 20.520418,20.520418 0 0 1 28.03141,-7.511 20.520418,20.520418 0 0 0 20.52042,20.5204 20.520418,20.520418 0 0 1 20.52041,-20.5204 20.520418,20.520418 0 0 0 28.03141,7.511 z"
     id="path369-9-2-2"
     style="fill:#ff8080;stroke:#000000;stroke-width:1;stroke-linecap:round;stroke-linejoin:round;stroke-dasharray:none" />
  <path
     class="G"
     d="m 501.34266,466.75089 a 20.520418,20.520418 0 0 1 -7.511,28.0314 20.520418,20.520418 0 0 0 -28.03141,7.511 20.520418,20.520418 0 0 1 7.51099,28.0314 20.520418,20.520418 0 0 0 -20.52041,20.5205 20.520418,20.520418 0 0 1 -20.52042,-20.5205 20.520418,20.520418 0 0 0 -28.03141,7.511 20.520418,20.520418 0 0 1 -7.511,-28.0314 20.520418,20.520418 0 0 0 -28.03141,-7.511 20.520418,20.520418 0 0 1 7.51099,-28.0314 20.520418,20.520418 0 0 0 28.03142,-7.511 20.520418,20.520418 0 0 1 28.03141,-7.511 20.520418,20.520418 0 0 0 20.52042,20.5204 20.520418,20.520418 0 0 1 20.52041,-20.5204 20.520418,20.520418 0 0 0 28.03142,7.511 z"
     id="path369-5-1-6-6"
     style="fill:#ff8080;stroke:#000000;stroke-width:1;stroke-linecap:round;stroke-linejoin:round;stroke-dasharray:none" />
  <path
     class="G"
     d="m 501.34265,548.62539 a 20.520418,20.520418 0 0 1 -7.511,28.0314 20.520418,20.520418 0 0 0 -28.0314,7.511 20.520418,20.520418 0 0 1 7.51098,28.0314 20.520418,20.520418 0 0 0 -20.5204,20.5205 20.520418,20.520418 0 0 1 -20.52042,-20.5205 20.520418,20.520418 0 0 0 -28.03141,7.511 20.520418,20.520418 0 0 1 -7.511,-28.0314 20.520418,20.520418 0 0 0 -28.03141,-7.511 20.520418,20.520418 0 0 1 7.51099,-28.0314 20.520418,20.520418 0 0 0 28.03142,-7.511 20.520418,20.520418 0 0 1 28.03141,-7.511 20.520418,20.520418 0 0 0 20.52042,20.5204 20.520418,20.520418 0 0 1 20.5204,-20.5204 20.520418,20.520418 0 0 0 28.03142,7.511 z"
     id="path369-56-2-1-1"
     style="fill:#ff8080;stroke:#000000;stroke-width:1;stroke-linecap:round;stroke-linejoin:round;stroke-dasharray:none" />
  <path
     class="G"
     d="m 501.34265,630.49989 a 20.520418,20.520418 0 0 1 -7.511,28.0314 20.520418,20.520418 0 0 0 -28.0314,7.511 20.520418,20.520418 0 0 1 7.51099,28.0314 20.520418,20.520418 0 0 0 -20.52041,20.5205 20.520418,20.520418 0 0 1 -20.52042,-20.5205 20.520418,20.520418 0 0 0 -28.03141,7.511 20.520418,20.520418 0 0 1 -7.511,-28.0314 20.520418,20.520418 0 0 0 -28.03141,-7.511 20.520418,20.520418 0 0 1 7.51099,-28.0314 20.520418,20.520418 0 0 0 28.03142,-7.511 20.520418,20.520418 0 0 1 28.03141,-7.511 20.520418,20.520418 0 0 0 20.52042,20.5204 20.520418,20.520418 0 0 1 20.52041,-20.5204 20.520418,20.520418 0 0 0 28.03141,7.511 z"
     id="path369-5-2-7-8-0"
     style="fill:#ff8080;stroke:#000000;stroke-width:1;stroke-linecap:round;stroke-linejoin:round;stroke-dasharray:none" />
  <path
     class="G"
     d="m 620.69267,16.426992 a 20.520418,20.520418 0 0 1 -7.511,28.031396 20.520418,20.520418 0 0 0 -28.0314,7.511 20.520418,20.520418 0 0 1 7.51099,28.0314 20.520418,20.520418 0 0 0 -20.52041,20.520502 20.520418,20.520418 0 0 1 -20.52042,-20.520502 20.520418,20.520418 0 0 0 -28.03141,7.511 20.520418,20.520418 0 0 1 -7.511,-28.0314 20.520418,20.520418 0 0 0 -28.03141,-7.511 20.520418,20.520418 0 0 1 7.51099,-28.031396 20.520418,20.520418 0 0 0 28.03142,-7.511 20.520418,20.520418 0 0 1 28.03141,-7.5110001 20.520418,20.520418 0 0 0 20.52042,20.5204001 20.520418,20.520418 0 0 1 20.52041,-20.5204001 20.520418,20.520418 0 0 0 28.03141,7.5110001 z"
     id="path369-61"
     style="fill:#ff8080;stroke:#000000;stroke-width:1;stroke-linecap:round;stroke-linejoin:round;stroke-dasharray:none" />
  <path
     class="G"
     d="m 620.69268,98.301488 a 20.520418,20.520418 0 0 1 -7.511,28.031402 20.520418,20.520418 0 0 0 -28.03141,7.511 20.520418,20.520418 0 0 1 7.51099,28.0314 20.520418,20.520418 0 0 0 -20.52041,20.5205 20.520418,20.520418 0 0 1 -20.52042,-20.5205 20.520418,20.520418 0 0 0 -28.03141,7.511 20.520418,20.520418 0 0 1 -7.511,-28.0314 20.520418,20.520418 0 0 0 -28.03141,-7.511 20.520418,20.520418 0 0 1 7.51099,-28.0314 20.520418,20.520418 0 0 0 28.03142,-7.511002 20.520418,20.520418 0 0 1 28.03141,-7.511 20.520418,20.520418 0 0 0 20.52042,20.520402 20.520418,20.520418 0 0 1 20.52041,-20.520402 20.520418,20.520418 0 0 0 28.03142,7.511 z"
     id="path369-5-5"
     style="fill:#ff8080;stroke:#000000;stroke-width:1;stroke-linecap:round;stroke-linejoin:round;stroke-dasharray:none" />
  <path
     class="G"
     d="m 620.69267,180.17599 a 20.520418,20.520418 0 0 1 -7.511,28.0314 20.520418,20.520418 0 0 0 -28.0314,7.511 20.520418,20.520418 0 0 1 7.51099,28.0314 20.520418,20.520418 0 0 0 -20.52041,20.5205 20.520418,20.520418 0 0 1 -20.52042,-20.5205 20.520418,20.520418 0 0 0 -28.03141,7.511 20.520418,20.520418 0 0 1 -7.511,-28.0314 20.520418,20.520418 0 0 0 -28.03141,-7.511 20.520418,20.520418 0 0 1 7.51099,-28.0314 20.520418,20.520418 0 0 0 28.03142,-7.511 20.520418,20.520418 0 0 1 28.03141,-7.511 20.520418,20.520418 0 0 0 20.52042,20.5204 20.520418,20.520418 0 0 1 20.52041,-20.5204 20.520418,20.520418 0 0 0 28.03141,7.511 z"
     id="path369-56-94"
     style="fill:#ff8080;stroke:#000000;stroke-width:1;stroke-linecap:round;stroke-linejoin:round;stroke-dasharray:none" />
  <path
     class="G"
     d="m 620.69267,262.05049 a 20.520418,20.520418 0 0 1 -7.51099,28.0314 20.520418,20.520418 0 0 0 -28.03141,7.511 20.520418,20.520418 0 0 1 7.51099,28.0314 20.520418,20.520418 0 0 0 -20.52041,20.5205 20.520418,20.520418 0 0 1 -20.52042,-20.5205 20.520418,20.520418 0 0 0 -28.03141,7.511 20.520418,20.520418 0 0 1 -7.511,-28.0314 20.520418,20.520418 0 0 0 -28.03141,-7.511 20.520418,20.520418 0 0 1 7.51099,-28.0314 20.520418,20.520418 0 0 0 28.03142,-7.511 20.520418,20.520418 0 0 1 28.03141,-7.511 20.520418,20.520418 0 0 0 20.52042,20.5204 20.520418,20.520418 0 0 1 20.52041,-20.5204 20.520418,20.520418 0 0 0 28.03141,7.511 z"
     id="path369-5-2-9"
     style="fill:#ff8080;stroke:#000000;stroke-width:1;stroke-linecap:round;stroke-linejoin:round;stroke-dasharray:none" />
  <path
     class="G"
     d="m 620.69267,343.92499 a 20.520418,20.520418 0 0 1 -7.511,28.0314 20.520418,20.520418 0 0 0 -28.0314,7.511 20.520418,20.520418 0 0 1 7.51099,28.0314 20.520418,20.520418 0 0 0 -20.52041,20.5205 20.520418,20.520418 0 0 1 -20.52042,-20.5205 20.520418,20.520418 0 0 0 -28.03141,7.511 20.520418,20.520418 0 0 1 -7.511,-28.0314 20.520418,20.520418 0 0 0 -28.03141,-7.511 20.520418,20.520418 0 0 1 7.51099,-28.0314 20.520418,20.520418 0 0 0 28.03142,-7.511 20.520418,20.520418 0 0 1 28.03141,-7.511 20.520418,20.520418 0 0 0 20.52042,20.5204 20.520418,20.520418 0 0 1 20.52041,-20.5204 20.520418,20.520418 0 0 0 28.03141,7.511 z"
     id="path369-9-09"
     style="fill:#ff8080;stroke:#000000;stroke-width:1;stroke-linecap:round;stroke-linejoin:round;stroke-dasharray:none" />
  <path
     class="G"
     d="m 620.69267,425.79949 a 20.520418,20.520418 0 0 1 -7.511,28.0314 20.520418,20.520418 0 0 0 -28.0314,7.511 20.520418,20.520418 0 0 1 7.51099,28.0314 20.520418,20.520418 0 0 0 -20.52041,20.5205 20.520418,20.520418 0 0 1 -20.52042,-20.5205 20.520418,20.520418 0 0 0 -28.03141,7.511 20.520418,20.520418 0 0 1 -7.511,-28.0314 20.520418,20.520418 0 0 0 -28.03141,-7.511 20.520418,20.520418 0 0 1 7.51099,-28.0314 20.520418,20.520418 0 0 0 28.03142,-7.511 20.520418,20.520418 0 0 1 28.03141,-7.511 20.520418,20.520418 0 0 0 20.52042,20.5204 20.520418,20.520418 0 0 1 20.52041,-20.5204 20.520418,20.520418 0 0 0 28.03141,7.511 z"
     id="path369-5-1-1"
     style="fill:#ff8080;stroke:#000000;stroke-width:1;stroke-linecap:round;stroke-linejoin:round;stroke-dasharray:none" />
  <path
     class="G"
     d="m 620.69267,507.67399 a 20.520418,20.520418 0 0 1 -7.511,28.0314 20.520418,20.520418 0 0 0 -28.0314,7.511 20.520418,20.520418 0 0 1 7.51098,28.0314 20.520418,20.520418 0 0 0 -20.5204,20.5205 20.520418,20.520418 0 0 1 -20.52042,-20.5205 20.520418,20.520418 0 0 0 -28.03141,7.511 20.520418,20.520418 0 0 1 -7.511,-28.0314 20.520418,20.520418 0 0 0 -28.03141,-7.511 20.520418,20.520418 0 0 1 7.51099,-28.0314 20.520418,20.520418 0 0 0 28.03142,-7.511 20.520418,20.520418 0 0 1 28.03141,-7.511 20.520418,20.520418 0 0 0 20.52042,20.5204 20.520418,20.520418 0 0 1 20.5204,-20.5204 20.520418,20.520418 0 0 0 28.03142,7.511 z"
     id="path369-56-2-7"
     style="fill:#ff8080;stroke:#000000;stroke-width:1;stroke-linecap:round;stroke-linejoin:round;stroke-dasharray:none" />
  <path
     class="G"
     d="m 620.69267,589.54849 a 20.520418,20.520418 0 0 1 -7.511,28.0314 20.520418,20.520418 0 0 0 -28.0314,7.511 20.520418,20.520418 0 0 1 7.51099,28.0314 20.520418,20.520418 0 0 0 -20.52041,20.5205 20.520418,20.520418 0 0 1 -20.52042,-20.5205 20.520418,20.520418 0 0 0 -28.03141,7.511 20.520418,20.520418 0 0 1 -7.511,-28.0314 20.520418,20.520418 0 0 0 -28.03141,-7.511 20.520418,20.520418 0 0 1 7.51099,-28.0314 20.520418,20.520418 0 0 0 28.03142,-7.511 20.520418,20.520418 0 0 1 28.03141,-7.511 20.520418,20.520418 0 0 0 20.52042,20.5204 20.520418,20.520418 0 0 1 20.52041,-20.5204 20.520418,20.520418 0 0 0 28.03141,7.511 z"
     id="path369-5-2-7-71"
     style="fill:#ff8080;stroke:#000000;stroke-width:1;stroke-linecap:round;stroke-linejoin:round;stroke-dasharray:none" />
  <path
     class="G"
     d="m 620.69267,671.42299 a 20.520418,20.520418 0 0 1 -7.511,28.0314 20.520418,20.520418 0 0 0 -28.0314,7.511 20.520418,20.520418 0 0 1 7.51099,28.0314 20.520418,20.520418 0 0 0 -20.52041,20.5205 20.520418,20.520418 0 0 1 -20.52042,-20.5205 20.520418,20.520418 0 0 0 -28.03141,7.511 20.520418,20.520418 0 0 1 -7.511,-28.0314 20.520418,20.520418 0 0 0 -28.03141,-7.511 20.520418,20.520418 0 0 1 7.51099,-28.0314 20.520418,20.520418 0 0 0 28.03142,-7.511 20.520418,20.520418 0 0 1 28.03141,-7.511 20.520418,20.520418 0 0 0 20.52042,20.5204 20.520418,20.520418 0 0 1 20.52041,-20.5204 20.520418,20.520418 0 0 0 28.03141,7.511 z"
     id="path369-5-2-7-0-15"
     style="fill:#ff8080;stroke:#000000;stroke-width:1;stroke-linecap:round;stroke-linejoin:round;stroke-dasharray:none" />
  <path
     class="G"
     d="m 738.26727,57.176288 a 20.520418,20.520418 0 0 1 -7.511,28.0314 20.520418,20.520418 0 0 0 -28.0314,7.511 20.520418,20.520418 0 0 1 7.51099,28.031402 20.520418,20.520418 0 0 0 -20.52041,20.5205 20.520418,20.520418 0 0 1 -20.52042,-20.5205 20.520418,20.520418 0 0 0 -28.03141,7.511 20.520418,20.520418 0 0 1 -7.511,-28.0314 20.520418,20.520418 0 0 0 -28.03141,-7.511002 20.520418,20.520418 0 0 1 7.51099,-28.0314 20.520418,20.520418 0 0 0 28.03142,-7.511 20.520418,20.520418 0 0 1 28.03141,-7.511 20.520418,20.520418 0 0 0 20.52042,20.5204 20.520418,20.520418 0 0 1 20.52041,-20.5204 20.520418,20.520418 0 0 0 28.03141,7.511 z"
     id="path369-93-9"
     style="fill:#ff8080;stroke:#000000;stroke-width:1;stroke-linecap:round;stroke-linejoin:round;stroke-dasharray:none" />
  <path
     class="G"
     d="m 738.26728,139.05079 a 20.520418,20.520418 0 0 1 -7.511,28.0314 20.520418,20.520418 0 0 0 -28.03141,7.511 20.520418,20.520418 0 0 1 7.51099,28.0314 20.520418,20.520418 0 0 0 -20.52041,20.5205 20.520418,20.520418 0 0 1 -20.52042,-20.5205 20.520418,20.520418 0 0 0 -28.03141,7.511 20.520418,20.520418 0 0 1 -7.511,-28.0314 20.520418,20.520418 0 0 0 -28.03141,-7.511 20.520418,20.520418 0 0 1 7.51099,-28.0314 20.520418,20.520418 0 0 0 28.03142,-7.511 20.520418,20.520418 0 0 1 28.03141,-7.511 20.520418,20.520418 0 0 0 20.52042,20.5204 20.520418,20.520418 0 0 1 20.52041,-20.5204 20.520418,20.520418 0 0 0 28.03142,7.511 z"
     id="path369-5-6-7"
     style="fill:#ff8080;stroke:#000000;stroke-width:1;stroke-linecap:round;stroke-linejoin:round;stroke-dasharray:none" />
  <path
     class="G"
     d="m 738.26727,220.92529 a 20.520418,20.520418 0 0 1 -7.511,28.0314 20.520418,20.520418 0 0 0 -28.0314,7.511 20.520418,20.520418 0 0 1 7.51099,28.0314 20.520418,20.520418 0 0 0 -20.52041,20.5205 20.520418,20.520418 0 0 1 -20.52042,-20.5205 20.520418,20.520418 0 0 0 -28.03141,7.511 20.520418,20.520418 0 0 1 -7.511,-28.0314 20.520418,20.520418 0 0 0 -28.03141,-7.511 20.520418,20.520418 0 0 1 7.51099,-28.0314 20.520418,20.520418 0 0 0 28.03142,-7.511 20.520418,20.520418 0 0 1 28.03141,-7.511 20.520418,20.520418 0 0 0 20.52042,20.5204 20.520418,20.520418 0 0 1 20.52041,-20.5204 20.520418,20.520418 0 0 0 28.03141,7.511 z"
     id="path369-56-0-76"
     style="fill:#ff8080;stroke:#000000;stroke-width:1;stroke-linecap:round;stroke-linejoin:round;stroke-dasharray:none" />
  <path
     class="G"
     d="m 738.26728,302.79979 a 20.520418,20.520418 0 0 1 -7.511,28.0314 20.520418,20.520418 0 0 0 -28.03141,7.511 20.520418,20.520418 0 0 1 7.51099,28.0314 20.520418,20.520418 0 0 0 -20.52041,20.5205 20.520418,20.520418 0 0 1 -20.52042,-20.5205 20.520418,20.520418 0 0 0 -28.03141,7.511 20.520418,20.520418 0 0 1 -7.511,-28.0314 20.520418,20.520418 0 0 0 -28.03141,-7.511 20.520418,20.520418 0 0 1 7.51099,-28.0314 20.520418,20.520418 0 0 0 28.03142,-7.511 20.520418,20.520418 0 0 1 28.03141,-7.511 20.520418,20.520418 0 0 0 20.52042,20.5204 20.520418,20.520418 0 0 1 20.52041,-20.5204 20.520418,20.520418 0 0 0 28.03142,7.511 z"
     id="path369-5-2-6-7"
     style="fill:#ff8080;stroke:#000000;stroke-width:1;stroke-linecap:round;stroke-linejoin:round;stroke-dasharray:none" />
  <path
     class="G"
     d="m 738.26727,384.67429 a 20.520418,20.520418 0 0 1 -7.511,28.0314 20.520418,20.520418 0 0 0 -28.0314,7.511 20.520418,20.520418 0 0 1 7.51099,28.0314 20.520418,20.520418 0 0 0 -20.52041,20.5205 20.520418,20.520418 0 0 1 -20.52042,-20.5205 20.520418,20.520418 0 0 0 -28.03141,7.511 20.520418,20.520418 0 0 1 -7.511,-28.0314 20.520418,20.520418 0 0 0 -28.03141,-7.511 20.520418,20.520418 0 0 1 7.51099,-28.0314 20.520418,20.520418 0 0 0 28.03142,-7.511 20.520418,20.520418 0 0 1 28.03141,-7.511 20.520418,20.520418 0 0 0 20.52042,20.5204 20.520418,20.520418 0 0 1 20.52041,-20.5204 20.520418,20.520418 0 0 0 28.03141,7.511 z"
     id="path369-9-2-3"
     style="fill:#ff8080;stroke:#000000;stroke-width:1;stroke-linecap:round;stroke-linejoin:round;stroke-dasharray:none" />
  <path
     class="G"
     d="m 738.26728,466.54879 a 20.520418,20.520418 0 0 1 -7.511,28.0314 20.520418,20.520418 0 0 0 -28.03141,7.511 20.520418,20.520418 0 0 1 7.51099,28.0314 20.520418,20.520418 0 0 0 -20.52041,20.5205 20.520418,20.520418 0 0 1 -20.52042,-20.5205 20.520418,20.520418 0 0 0 -28.03141,7.511 20.520418,20.520418 0 0 1 -7.511,-28.0314 20.520418,20.520418 0 0 0 -28.03141,-7.511 20.520418,20.520418 0 0 1 7.51099,-28.0314 20.520418,20.520418 0 0 0 28.03142,-7.511 20.520418,20.520418 0 0 1 28.03141,-7.511 20.520418,20.520418 0 0 0 20.52042,20.5204 20.520418,20.520418 0 0 1 20.52041,-20.5204 20.520418,20.520418 0 0 0 28.03142,7.511 z"
     id="path369-5-1-6-65"
     style="fill:#ff8080;stroke:#000000;stroke-width:1;stroke-linecap:round;stroke-linejoin:round;stroke-dasharray:none" />
  <path
     class="G"
     d="m 738.26727,548.42329 a 20.520418,20.520418 0 0 1 -7.511,28.0314 20.520418,20.520418 0 0 0 -28.0314,7.511 20.520418,20.520418 0 0 1 7.51098,28.0314 20.520418,20.520418 0 0 0 -20.5204,20.5205 20.520418,20.520418 0 0 1 -20.52042,-20.5205 20.520418,20.520418 0 0 0 -28.03141,7.511 20.520418,20.520418 0 0 1 -7.511,-28.0314 20.520418,20.520418 0 0 0 -28.03141,-7.511 20.520418,20.520418 0 0 1 7.51099,-28.0314 20.520418,20.520418 0 0 0 28.03142,-7.511 20.520418,20.520418 0 0 1 28.03141,-7.511 20.520418,20.520418 0 0 0 20.52042,20.5204 20.520418,20.520418 0 0 1 20.5204,-20.5204 20.520418,20.520418 0 0 0 28.03142,7.511 z"
     id="path369-56-2-1-6"
     style="fill:#ff8080;stroke:#000000;stroke-width:1;stroke-linecap:round;stroke-linejoin:round;stroke-dasharray:none" />
  <path
     class="G"
     d="m 738.26727,630.29779 a 20.520418,20.520418 0 0 1 -7.511,28.0314 20.520418,20.520418 0 0 0 -28.0314,7.511 20.520418,20.520418 0 0 1 7.51099,28.0314 20.520418,20.520418 0 0 0 -20.52041,20.5205 20.520418,20.520418 0 0 1 -20.52042,-20.5205 20.520418,20.520418 0 0 0 -28.03141,7.511 20.520418,20.520418 0 0 1 -7.511,-28.0314 20.520418,20.520418 0 0 0 -28.03141,-7.511 20.520418,20.520418 0 0 1 7.51099,-28.0314 20.520418,20.520418 0 0 0 28.03142,-7.511 20.520418,20.520418 0 0 1 28.03141,-7.511 20.520418,20.520418 0 0 0 20.52042,20.5204 20.520418,20.520418 0 0 1 20.52041,-20.5204 20.520418,20.520418 0 0 0 28.03141,7.511 z"
     id="path369-5-2-7-8-3"
     style="fill:#ff8080;stroke:#000000;stroke-width:1;stroke-linecap:round;stroke-linejoin:round;stroke-dasharray:none" />
</svg>
