<?xml version="1.0" encoding="UTF-8" standalone="no"?>
<!-- Created with Inkscape (http://www.inkscape.org/) -->

<svg
   width="57.312035mm"
   height="67.227692mm"
   viewBox="0 0 57.312035 67.227692"
   version="1.1"
   id="svg5"
   xml:space="preserve"
   inkscape:export-filename="Rastergrafik.svg"
   inkscape:export-xdpi="96"
   inkscape:export-ydpi="96"
   xmlns:inkscape="http://www.inkscape.org/namespaces/inkscape"
   xmlns:sodipodi="http://sodipodi.sourceforge.net/DTD/sodipodi-0.dtd"
   xmlns="http://www.w3.org/2000/svg"
   xmlns:svg="http://www.w3.org/2000/svg"><sodipodi:namedview
     id="namedview7"
     pagecolor="#ffffff"
     bordercolor="#000000"
     borderopacity="0.25"
     inkscape:showpageshadow="2"
     inkscape:pageopacity="0.0"
     inkscape:pagecheckerboard="0"
     inkscape:deskcolor="#d1d1d1"
     inkscape:document-units="mm"
     showgrid="false" /><defs
     id="defs2" /><g
     inkscape:label="Ebene 1"
     inkscape:groupmode="layer"
     id="layer1"
     transform="translate(-5.7898566,-225.11297)"><g
       transform="matrix(0.26458333,0,0,0.26458333,26.382484,252.4667)"
       id="g53"><path
         d="m 0,-20 c -12,6.6 -12,13.4 0,20 -6.6,12 -13.4,12 -20,0 -13.692305,-0.28423234 -17.092305,5.6047404 -10,17.320508 -11.715768,7.092305 -17.60474,3.692305 -17.320508,-9.9999999 12,-6.60000002 12,-13.4 0,-20.0000001 -6.6,12.00000008 -13.4,12.00000008 -20,0 7.092305,-11.715768 3.692305,-17.60474 -10,-17.320508 -0.284232,-13.692305 5.60474,-17.092305 17.320508,-10 -0.284232,13.692305 5.60474,17.092305 17.320508,10 -7.092305,-11.715768 -3.692305,-17.60474 10,-17.320508 6.6,12 13.4,12 20,0 6.6000001,-12 13.40000008,-12 20.0000001,0 C 0.22820323,-35.60474 3.6282032,-29.715768 17.320508,-30 17.60474,-16.307695 11.715768,-12.907695 0,-20"
         stroke="#000000"
         stroke-weight="0.1"
         fill="#d3b190"
         id="path35" /><path
         d="M 47.320508,7.3205081 C 35.60474,0.22820323 29.715768,3.6282032 30,17.320508 16.307695,17.60474 12.907695,11.715768 20,0 13.4,-12 6.6,-12 0,0 c -12,-6.6 -12,-13.4 0,-20 11.715768,7.092305 17.60474,3.692305 17.320508,-10 -13.6923048,0.284232 -17.09230477,-5.60474 -9.9999999,-17.320508 13.6923049,0.284232 17.0923049,-5.60474 9.9999999,-17.320508 11.715768,-7.092305 17.60474,-3.692305 17.320508,10 -12,6.6 -12,13.4 0,20 6.6,-12 13.4,-12 20,0 -7.092305,11.715768 -3.692305,17.60474 10,17.320508 13.692305,-0.284232 17.092305,5.60474 10,17.320508 -13.692305,-0.28423234 -17.092305,5.6047404 -10,17.320508 -11.715768,7.092305 -17.60474,3.692305 -17.320508,-9.9999999"
         stroke="#000000"
         stroke-weight="0.1"
         fill="#a39685"
         id="path37" /><path
         d="m 81.961524,-27.320508 c -11.715767,-7.092305 -17.60474,-3.692305 -17.320508,10 -13.692305,0.284232 -17.092305,-5.60474 -10,-17.320508 -6.6,-12 -13.4,-12 -20,0 -12,-6.6 -12,-13.4 0,-20 11.715768,7.092305 17.604741,3.692305 17.320508,-10 -13.692305,0.284232 -17.092305,-5.604741 -10,-17.320508 13.692305,0.284232 17.092305,-5.604741 10,-17.320508 11.715768,-7.092308 17.604741,-3.692308 17.320508,10 -12,6.6 -12,13.4 0,20 6.6,-12 13.4,-12 20,0 -7.092305,11.715767 -3.692305,17.60474 10,17.320508 13.692308,-0.284233 17.092308,5.60474 9.999998,17.320508 -13.692303,-0.284232 -17.092303,5.60474 -9.999998,17.320508 -11.715767,7.092305 -17.60474,3.692305 -17.320508,-10"
         stroke="#000000"
         stroke-weight="0.1"
         fill="#d3b190"
         id="path39" /><path
         d="m 81.961524,27.320508 c 0.284233,-13.692305 -5.60474,-17.092305 -17.320508,-10 C 57.548711,5.6047404 60.948711,-0.28423234 74.641016,0 c 7.092305,-11.715768 3.692305,-17.60474 -10,-17.320508 -0.284232,-13.692305 5.604741,-17.092305 17.320508,-10 -0.284232,13.692305 5.604741,17.092305 17.320508,10 -7.092305,-11.715768 -3.692305,-17.60474 9.999998,-17.320508 6.6,12 13.4,12 20,0 12,6.6 12,13.4 0,20 -11.71577,-7.092305 -17.60474,-3.692305 -17.32051,9.9999998 13.69231,-0.2842323 17.09231,5.60474046 10,17.3205082 -13.6923,-0.284232 -17.0923,5.60474 -10,17.320508 7.09231,11.715768 3.69231,17.60474 -10,17.320508 -6.599996,-12 -13.399996,-12 -19.999996,0 -12,-6.6 -12,-13.4 0,-20"
         stroke="#000000"
         stroke-weight="0.1"
         fill="#e4d5a7"
         id="path41" /><path
         d="m 34.641016,54.641016 c 12,-6.6 12,-13.4 0,-20 6.6,-12 13.4,-12 20,0 13.692305,0.284232 17.092305,-5.60474 10,-17.320508 11.715768,-7.092305 17.604741,-3.692305 17.320508,10 -12,6.6 -12,13.4 0,20 6.6,-12 13.4,-12 19.999996,0 -7.092301,11.715768 -3.692301,17.60474 10,17.320508 0.28424,13.692305 -5.60474,17.092305 -17.320504,10 0.284232,-13.692305 -5.60474,-17.092305 -17.320508,-10 7.092305,11.715768 3.692305,17.604741 -10,17.320508 -6.6,-12 -13.4,-12 -20,0 -6.6,12 -13.4,12 -20,0 7.092305,-11.715767 3.692305,-17.60474 -10,-17.320508 -0.284232,-13.692305 5.60474,-17.092305 17.320508,-10"
         stroke="#000000"
         stroke-weight="0.1"
         fill="#bf927e"
         id="path43" /><path
         d="m 47.320508,101.96152 c 12,-6.599996 12,-13.399996 0,-19.999996 6.6,-12 13.4,-12 20,0 13.692305,0.284233 17.092305,-5.60474 10,-17.320508 11.715768,-7.092305 17.60474,-3.692305 17.320508,10 -12,6.6 -12,13.4 0,20 6.600004,-12 13.400004,-12 20.000004,0 -7.09231,11.715764 -3.69231,17.604744 10,17.320504 0.28423,13.69231 -5.60474,17.09231 -17.32051,10 0.28423,-13.6923 -5.60474,-17.0923 -17.32051,-10 7.092305,11.71577 3.692305,17.60474 -10,17.32051 -6.6,-12 -13.4,-12 -20,0 -6.6,12 -13.4,12 -20,0 7.092305,-11.71577 3.692305,-17.60474 -10,-17.32051 -0.284232,-13.692301 5.60474,-17.092301 17.320508,-10"
         stroke="#000000"
         stroke-weight="0.1"
         fill="#dac5a1"
         id="path45" /><path
         d="m 0,74.641016 c 11.715768,7.092305 17.60474,3.692305 17.320508,-10 13.692305,-0.284232 17.092305,5.604741 10,17.320508 6.6,12 13.4,12 20,0 12,6.6 12,13.4 0,19.999996 -11.715768,-7.092301 -17.60474,-3.692301 -17.320508,10 13.692305,-0.28423 17.092305,5.60474 10,17.32051 -13.692305,-0.28423 -17.092305,5.60474 -10,17.32051 -11.715768,7.09231 -17.60474,3.69231 -17.320508,-10 12,-6.6 12,-13.4 0,-20 -6.6000001,12 -13.40000008,12 -20.0000001,0 7.09230487,-11.71577 3.6923049,-17.60474 -9.9999999,-17.320508 -13.692305,0.284233 -17.092305,-5.60474 -10,-17.320508 13.692305,0.284233 17.092305,-5.60474 10,-17.320508 11.7157676,-7.092305 17.60474034,-3.692305 17.320508,10"
         stroke="#000000"
         stroke-weight="0.1"
         fill="#e4d5a7"
         id="path47" /><path
         d="m -47.320508,61.961524 c 0.284232,-13.692305 -5.60474,-17.092305 -17.320508,-10 -7.092305,-11.715767 -3.692305,-17.60474 10,-17.320508 7.092305,-11.715768 3.692305,-17.60474 -10,-17.320508 C -64.925248,3.6282032 -59.036276,0.22820323 -47.320508,7.3205081 -47.60474,21.012813 -41.715768,24.412813 -30,17.320508 -37.092305,5.6047404 -33.692305,-0.28423234 -20,0 c 6.6,12 13.4,12 20,0 12,6.6 12,13.4 0,20 -11.715768,-7.092305 -17.60474,-3.692305 -17.320508,10 13.6923048,-0.284232 17.09230477,5.60474 9.9999999,17.320508 -13.6923049,-0.284232 -17.0923049,5.60474 -9.9999999,17.320508 7.092305,11.715768 3.692305,17.604741 -10,17.320508 -6.6,-12 -13.4,-12 -20,0 -12,-6.6 -12,-13.4 0,-20"
         stroke="#000000"
         stroke-weight="0.1"
         fill="#cb9d7e"
         id="path49" /><path
         d="M -7.3205081,47.320508 C -0.22820323,35.60474 -3.6282032,29.715768 -17.320508,30 -17.60474,16.307695 -11.715768,12.907695 0,20 12,13.4 12,6.6 0,0 6.6,-12 13.4,-12 20,0 12.907695,11.715768 16.307695,17.60474 30,17.320508 29.715768,3.6282032 35.60474,0.22820323 47.320508,7.3205081 c -0.284232,13.6923049 5.60474,17.0923049 17.320508,9.9999999 7.092305,11.715768 3.692305,17.60474 -10,17.320508 -6.6,-12 -13.4,-12 -20,0 12,6.6 12,13.4 0,20 -11.715768,-7.092305 -17.60474,-3.692305 -17.320508,10 0.284232,13.692305 -5.60474,17.092305 -17.320508,10 0.28423234,-13.692305 -5.6047404,-17.092305 -17.320508,-10 -7.092305,-11.715768 -3.692305,-17.60474 9.9999999,-17.320508"
         stroke="#000000"
         stroke-weight="0.1"
         fill="#cb9d7e"
         id="path51" /></g></g></svg>
