<svg width="800" height="800" viewBox="-46.5 -9.66025403784439 214.50000000000006 229.7646811953081">
<polyline points="0,0 1,0 1.5,-0.8660254037844386 1.0000000000000002,-1.7320508075688774 1.5000000000000004,-2.598076211353316 1.0000000000000007,-3.464101615137755 6.661338147750939e-16,-3.4641016151377553 -0.49999999999999906,-4.3301270189221945 1.1657341758564144e-15,-5.196152422706633 -0.49999999999999856,-6.062177826491071 -1.4999999999999987,-6.062177826491071 -1.9999999999999991,-5.196152422706633 -2.999999999999999,-5.196152422706633 -3.499999999999999,-6.062177826491071 -4.499999999999999,-6.062177826491071 -4.999999999999999,-6.9282032302755105 -4.499999999999999,-7.794228634059949 -4.999999999999999,-8.660254037844387 -5.999999999999999,-8.660254037844387 -6.5,-7.794228634059949 -7.5,-7.794228634059949 -8.0,-6.9282032302755105 -7.500000000000001,-6.062177826491071 -8.000000000000002,-5.196152422706633 -9.000000000000002,-5.196152422706634 -9.500000000000002,-6.062177826491073 -10.500000000000002,-6.062177826491074 -11.000000000000002,-5.196152422706636 -12.000000000000002,-5.1961524227066365 -12.500000000000002,-6.062177826491075 -13.500000000000002,-6.062177826491076 -14.000000000000002,-6.928203230275514 -13.500000000000002,-7.7942286340599525 -14.000000000000002,-8.66025403784439 -15.000000000000002,-8.66025403784439 -15.500000000000002,-7.7942286340599525 -16.5,-7.7942286340599525 -17.0,-6.928203230275514 -16.5,-6.062177826491075 -17.0,-5.1961524227066365 -18.0,-5.196152422706637 -18.5,-4.330127018922199 -18.0,-3.4641016151377597 -17.0,-3.464101615137759 -16.5,-2.5980762113533196 -17.0,-1.7320508075688812 -16.5,-0.866025403784442 -17.0,-3.6637359812630166e-15 -18.0,-4.3298697960381105e-15 -18.5,-0.8660254037844433 -19.5,-0.8660254037844439 -20.0,-5.662137425588298e-15 -21.0,-6.2727600891321345e-15 -21.5,0.8660254037844319 -21.0,1.732050807568871 -21.5,2.5980762113533094 -22.5,2.598076211353309 -23.0,1.73205080756887 -24.0,1.7320508075688694 -24.5,2.5980762113533076 -25.5,2.598076211353307 -26.0,1.7320508075688683 -27.0,1.7320508075688676 -27.5,0.8660254037844287 -27.0,-9.769962616701378e-15 -27.5,-0.8660254037844488 -28.5,-0.8660254037844496 -29.0,-1.1213252548714081e-14 -30.0,-1.199040866595169e-14 -30.5,0.8660254037844264 -30.0,1.7320508075688656 -30.5,2.598076211353304 -31.5,2.598076211353303 -32.0,3.4641016151377415 -31.5,4.330127018922181 -30.5,4.330127018922182 -30.0,5.196152422706621 -30.5,6.06217782649106 -30.0,6.928203230275499 -30.5,7.794228634059937 -31.5,7.7942286340599365 -32.0,8.660254037844375 -31.5,9.526279441628814 -30.5,9.526279441628816 -30.0,10.392304845413255 -29.0,10.392304845413257 -28.5,9.52627944162882 -27.5,9.526279441628821 -27.0,10.39230484541326 -27.5,11.258330249197698 -27.0,12.124355652982137 -26.0,12.124355652982139 -25.5,12.990381056766578 -26.0,13.856406460551016 -25.5,14.722431864335455 -26.0,15.588457268119893 -27.0,15.58845726811989 -27.5,14.722431864335451 -28.5,14.72243186433545 -29.0,15.588457268119887 -30.0,15.588457268119885 -30.5,16.454482671904323 -30.0,17.320508075688764 -30.5,18.1865334794732 -31.5,18.1865334794732 -32.0,19.05255888325764 -31.5,19.91858428704208 -30.5,19.91858428704208 -30.0,20.78460969082652 -30.5,21.65063509461096 -30.0,22.5166604983954 -30.5,23.382685902179837 -31.5,23.382685902179837 -32.0,22.516660498395396 -33.0,22.516660498395396 -33.5,23.382685902179833 -34.5,23.382685902179833 -35.0,24.24871130596427 -34.5,25.114736709748712 -35.0,25.98076211353315 -36.0,25.98076211353315 -36.5,25.114736709748712 -37.5,25.114736709748712 -38.0,25.98076211353315 -39.0,25.98076211353315 -39.5,25.11473670974871 -40.5,25.11473670974871 -41.0,24.248711305964267 -40.5,23.38268590217983 -41.0,22.51666049839539 -42.0,22.51666049839539 -42.5,23.382685902179826 -43.5,23.382685902179826 -44.0,24.248711305964264 -43.5,25.114736709748705 -44.0,25.980762113533142 -45.0,25.980762113533142 -45.5,26.84678751731758 -45.0,27.71281292110202 -44.0,27.71281292110202 -43.5,28.578838324886462 -44.0,29.4448637286709 -43.5,30.31088913245534 -44.0,31.176914536239778 -45.0,31.176914536239778 -45.5,32.04293994002422 -45.0,32.90896534380866 -44.0,32.90896534380866 -43.5,33.7749907475931 -42.5,33.7749907475931 -42.0,32.90896534380866 -41.0,32.90896534380866 -40.5,33.7749907475931 -41.0,34.64101615137754 -40.5,35.50704155516198 -39.5,35.50704155516198 -39.0,36.373066958946424 -39.5,37.239092362730865 -39.0,38.105117766515306 -39.5,38.97114317029975 -40.5,38.97114317029975 -41.0,39.83716857408419 -40.5,40.70319397786863 -39.5,40.70319397786863 -39.0,41.56921938165307 -38.0,41.56921938165307 -37.5,40.70319397786863 -36.5,40.70319397786863 -36.0,41.56921938165307 -35.0,41.56921938165307 -34.5,40.70319397786863 -35.0,39.83716857408419 -34.5,38.97114317029975 -33.5,38.97114317029975 -33.0,38.105117766515306 -32.0,38.105117766515306 -31.5,38.97114317029975 -32.0,39.83716857408419 -31.5,40.70319397786863 -30.5,40.70319397786863 -30.0,41.56921938165307 -29.0,41.56921938165307 -28.499999999999996,40.70319397786863 -27.499999999999996,40.70319397786863 -26.999999999999996,41.56921938165307 -27.499999999999996,42.43524478543751 -26.999999999999996,43.30127018922195 -25.999999999999996,43.30127018922195 -25.499999999999996,44.16729559300639 -25.999999999999996,45.033320996790835 -25.499999999999996,45.899346400575276 -25.999999999999996,46.76537180435972 -26.999999999999996,46.76537180435972 -27.499999999999996,45.899346400575276 -28.499999999999996,45.899346400575276 -28.999999999999996,46.76537180435972 -29.999999999999996,46.76537180435972 -30.499999999999996,47.63139720814416 -29.999999999999996,48.4974226119286 -30.499999999999996,49.36344801571304 -31.499999999999996,49.36344801571304 -31.999999999999996,50.22947341949748 -31.499999999999996,51.09549882328192 -30.499999999999996,51.09549882328192 -29.999999999999996,51.96152422706636 -30.499999999999996,52.827549630850804 -29.999999999999996,53.693575034635245 -30.499999999999996,54.559600438419686 -31.499999999999996,54.559600438419686 -31.999999999999996,55.42562584220413 -31.499999999999996,56.29165124598857 -30.499999999999996,56.29165124598857 -29.999999999999996,57.15767664977301 -28.999999999999996,57.15767664977301 -28.499999999999993,56.29165124598857 -27.499999999999993,56.29165124598857 -26.999999999999993,57.15767664977301 -27.499999999999993,58.02370205355745 -26.999999999999993,58.88972745734189 -25.999999999999993,58.88972745734189 -25.499999999999993,59.75575286112633 -25.999999999999993,60.62177826491077 -25.499999999999993,61.487803668695214 -25.999999999999993,62.353829072479655 -26.999999999999993,62.353829072479655 -27.499999999999993,61.487803668695214 -28.499999999999993,61.487803668695214 -28.999999999999993,62.353829072479655 -29.999999999999993,62.353829072479655 -30.499999999999993,63.219854476264096 -29.999999999999993,64.08587988004854 -30.499999999999993,64.95190528383297 -31.499999999999993,64.95190528383297 -31.999999999999993,65.8179306876174 -31.499999999999993,66.68395609140184 -30.499999999999993,66.68395609140184 -29.999999999999993,67.54998149518627 -30.499999999999993,68.4160068989707 -29.999999999999993,69.28203230275514 -30.499999999999993,70.14805770653957 -31.499999999999993,70.14805770653957 -31.999999999999993,69.28203230275514 -32.99999999999999,69.28203230275514 -33.49999999999999,70.14805770653957 -34.49999999999999,70.14805770653957 -34.99999999999999,71.01408311032401 -34.49999999999999,71.88010851410844 -34.99999999999999,72.74613391789288 -35.99999999999999,72.74613391789288 -36.49999999999999,71.88010851410844 -37.49999999999999,71.88010851410844 -37.99999999999999,72.74613391789288 -38.99999999999999,72.74613391789288 -39.49999999999999,71.88010851410844 -40.49999999999999,71.88010851410844 -40.99999999999999,71.01408311032401 -40.49999999999999,70.14805770653957 -40.99999999999999,69.28203230275514 -41.99999999999999,69.28203230275514 -42.49999999999999,70.14805770653957 -43.49999999999999,70.14805770653957 -43.99999999999999,71.01408311032401 -43.49999999999999,71.88010851410844 -43.99999999999999,72.74613391789288 -44.99999999999999,72.74613391789288 -45.49999999999999,73.61215932167731 -44.99999999999999,74.47818472546174 -43.99999999999999,74.47818472546174 -43.49999999999999,75.34421012924618 -43.99999999999999,76.21023553303061 -43.49999999999999,77.07626093681505 -43.99999999999999,77.94228634059948 -44.99999999999999,77.94228634059948 -45.49999999999999,78.80831174438391 -44.99999999999999,79.67433714816835 -43.99999999999999,79.67433714816835 -43.49999999999999,80.54036255195278 -42.49999999999999,80.54036255195278 -41.99999999999999,79.67433714816835 -40.99999999999999,79.67433714816835 -40.49999999999999,80.54036255195278 -40.99999999999999,81.40638795573722 -40.49999999999999,82.27241335952165 -39.49999999999999,82.27241335952165 -38.99999999999999,83.13843876330608 -39.49999999999999,84.00446416709052 -38.99999999999999,84.87048957087495 -39.49999999999999,85.73651497465939 -40.49999999999999,85.73651497465939 -40.99999999999999,86.60254037844382 -40.49999999999999,87.46856578222825 -39.49999999999999,87.46856578222825 -38.99999999999999,88.33459118601269 -37.99999999999999,88.33459118601269 -37.49999999999999,87.46856578222825 -36.49999999999999,87.46856578222825 -35.99999999999999,88.33459118601269 -34.99999999999999,88.33459118601269 -34.49999999999999,87.46856578222825 -34.99999999999999,86.60254037844382 -34.49999999999999,85.73651497465939 -33.49999999999999,85.73651497465939 -32.99999999999999,84.87048957087495 -31.999999999999993,84.87048957087495 -31.499999999999993,85.73651497465939 -31.999999999999993,86.60254037844382 -31.499999999999993,87.46856578222825 -30.499999999999993,87.46856578222825 -29.999999999999993,88.33459118601269 -28.999999999999993,88.33459118601269 -28.49999999999999,87.46856578222825 -27.49999999999999,87.46856578222825 -26.99999999999999,88.33459118601269 -27.49999999999999,89.20061658979712 -26.99999999999999,90.06664199358156 -25.99999999999999,90.06664199358156 -25.49999999999999,90.93266739736599 -25.99999999999999,91.79869280115042 -25.49999999999999,92.66471820493486 -25.99999999999999,93.53074360871929 -26.99999999999999,93.53074360871929 -27.49999999999999,94.39676901250373 -26.99999999999999,95.26279441628816 -25.99999999999999,95.26279441628816 -25.49999999999999,96.1288198200726 -24.49999999999999,96.1288198200726 -23.999999999999986,95.26279441628816 -22.999999999999986,95.26279441628816 -22.499999999999986,96.1288198200726 -21.499999999999986,96.1288198200726 -20.999999999999982,95.26279441628816 -21.499999999999982,94.39676901250373 -20.99999999999998,93.53074360871929 -19.99999999999998,93.53074360871929 -19.499999999999975,92.66471820493486 -18.499999999999975,92.66471820493486 -17.999999999999975,93.53074360871929 -16.999999999999975,93.53074360871929 -16.49999999999997,92.66471820493486 -16.99999999999997,91.79869280115042 -16.499999999999968,90.93266739736599 -16.999999999999968,90.06664199358156 -17.999999999999968,90.06664199358156 -18.499999999999968,89.20061658979712 -17.999999999999964,88.33459118601269 -16.999999999999964,88.33459118601269 -16.49999999999996,87.46856578222825 -16.99999999999996,86.60254037844382 -16.499999999999957,85.73651497465939 -15.499999999999957,85.73651497465939 -14.999999999999956,84.87048957087495 -13.999999999999954,84.87048957087495 -13.499999999999954,85.73651497465939 -13.999999999999956,86.60254037844382 -13.499999999999956,87.46856578222825 -12.499999999999954,87.46856578222825 -11.999999999999954,88.33459118601269 -10.999999999999954,88.33459118601269 -10.499999999999952,87.46856578222825 -9.49999999999995,87.46856578222825 -8.99999999999995,88.33459118601269 -7.999999999999949,88.33459118601269 -7.499999999999948,87.46856578222825 -7.999999999999947,86.60254037844382 -7.499999999999945,85.73651497465939 -6.499999999999944,85.73651497465939 -5.999999999999942,84.87048957087495 -4.999999999999941,84.87048957087495 -4.499999999999942,85.73651497465939 -4.999999999999944,86.60254037844382 -4.499999999999945,87.46856578222825 -3.499999999999944,87.46856578222825 -2.999999999999945,88.33459118601269 -1.999999999999944,88.33459118601269 -1.4999999999999423,87.46856578222825 -0.4999999999999414,87.46856578222825 5.789813073420191e-14,88.33459118601269 -0.49999999999994366,89.20061658979712 5.562217353372034e-14,90.06664199358156 1.0000000000000564,90.06664199358156 1.5000000000000557,90.93266739736599 1.0000000000000542,91.79869280115042 1.5000000000000535,92.66471820493486 1.000000000000052,93.53074360871929 5.10702591327572e-14,93.53074360871929 -0.49999999999994854,92.66471820493486 -1.4999999999999494,92.66471820493486 -1.999999999999951,93.53074360871929 -2.999999999999952,93.53074360871929 -3.499999999999954,94.39676901250373 -2.9999999999999547,95.26279441628816 -3.4999999999999565,96.1288198200726 -4.499999999999957,96.1288198200726 -4.999999999999959,96.99484522385703 -4.49999999999996,97.86087062764146 -3.499999999999959,97.86087062764146 -2.99999999999996,98.7268960314259 -3.499999999999962,99.59292143521033 -2.9999999999999627,100.45894683899476 -3.4999999999999645,101.3249722427792 -4.499999999999965,101.3249722427792 -4.999999999999967,102.19099764656363 -4.499999999999968,103.05702305034806 -3.499999999999967,103.05702305034806 -2.999999999999968,103.9230484541325 -1.9999999999999671,103.9230484541325 -1.4999999999999654,103.05702305034806 -0.4999999999999645,103.05702305034806 3.480549182199866e-14,103.9230484541325 -0.49999999999996675,104.78907385791693 3.2529534621517087e-14,105.65509926170137 1.0000000000000333,105.65509926170137 1.5000000000000326,106.5211246654858 1.000000000000031,107.38715006927023 1.5000000000000304,108.25317547305467 1.0000000000000289,109.1192008768391 2.7977620220553945e-14,109.1192008768391 -0.4999999999999736,109.98522628062354 2.5701663020072374e-14,110.85125168440797 1.0000000000000266,110.85125168440797 1.500000000000026,111.7172770881924 2.5000000000000266,111.7172770881924 3.0000000000000284,110.85125168440797 4.000000000000029,110.85125168440797 4.500000000000028,111.7172770881924 5.500000000000029,111.7172770881924 6.000000000000031,110.85125168440797 5.500000000000032,109.98522628062354 6.000000000000034,109.1192008768391 7.000000000000035,109.1192008768391 7.500000000000036,108.25317547305467 8.500000000000037,108.25317547305467 9.000000000000037,109.1192008768391 8.500000000000036,109.98522628062354 9.000000000000036,110.85125168440797 10.000000000000036,110.85125168440797 10.500000000000036,111.7172770881924 11.500000000000036,111.7172770881924 12.000000000000037,110.85125168440797 13.000000000000039,110.85125168440797 13.500000000000039,111.7172770881924 13.000000000000037,112.58330249197684 13.500000000000037,113.44932789576127 14.500000000000039,113.44932789576127 15.000000000000039,114.3153532995457 14.500000000000037,115.18137870333014 15.000000000000037,116.04740410711457 14.500000000000036,116.91342951089901 13.500000000000036,116.91342951089901 13.000000000000036,116.04740410711457 12.000000000000036,116.04740410711457 11.500000000000034,116.91342951089901 10.500000000000032,116.91342951089901 10.00000000000003,117.77945491468344 10.50000000000003,118.64548031846788 10.000000000000028,119.51150572225231 9.000000000000028,119.51150572225231 8.500000000000027,120.37753112603674 9.000000000000027,121.24355652982118 10.000000000000028,121.24355652982118 10.500000000000028,122.10958193360561 10.000000000000027,122.97560733739004 10.500000000000027,123.84163274117448 10.000000000000025,124.70765814495891 9.000000000000025,124.70765814495891 8.500000000000023,125.57368354874335 9.000000000000023,126.43970895252778 10.000000000000025,126.43970895252778 10.500000000000025,127.30573435631221 11.500000000000025,127.30573435631221 12.000000000000027,126.43970895252778 13.000000000000028,126.43970895252778 13.500000000000028,127.30573435631221 13.000000000000027,128.17175976009665 13.500000000000027,129.0377851638811 14.500000000000028,129.0377851638811 15.000000000000028,129.90381056766554 14.500000000000027,130.76983597145 15.000000000000027,131.63586137523444 14.500000000000025,132.5018867790189 13.500000000000025,132.5018867790189 13.000000000000025,131.63586137523444 12.000000000000025,131.63586137523444 11.500000000000023,132.5018867790189 10.500000000000021,132.5018867790189 10.00000000000002,133.36791218280334 10.50000000000002,134.23393758658779 10.000000000000018,135.09996299037223 9.000000000000018,135.09996299037223 8.500000000000016,135.96598839415668 9.000000000000016,136.83201379794113 10.000000000000018,136.83201379794113 10.500000000000018,137.69803920172558 10.000000000000016,138.56406460551003 10.500000000000016,139.43009000929447 10.000000000000014,140.29611541307892 9.000000000000014,140.29611541307892 8.500000000000014,139.43009000929447 7.500000000000013,139.43009000929447 7.0000000000000115,140.29611541307892 6.000000000000011,140.29611541307892 5.500000000000009,141.16214081686337 6.000000000000008,142.02816622064782 5.500000000000006,142.89419162443227 4.500000000000005,142.89419162443227 4.000000000000005,142.02816622064782 3.0000000000000044,142.02816622064782 2.5000000000000027,142.89419162443227 1.5000000000000018,142.89419162443227 1.0000000000000022,142.02816622064782 1.3322676295501878e-15,142.02816622064782 -0.4999999999999983,141.16214081686337 2.942091015256665e-15,140.29611541307892 -0.4999999999999967,139.43009000929447 -1.4999999999999976,139.43009000929447 -1.9999999999999991,140.29611541307892 -3.0,140.29611541307892 -3.5000000000000013,141.16214081686337 -3.0000000000000018,142.02816622064782 -3.5000000000000036,142.89419162443227 -4.500000000000004,142.89419162443227 -5.000000000000006,143.76021702821672 -4.500000000000007,144.62624243200116 -3.500000000000006,144.62624243200116 -3.0000000000000067,145.4922678357856 -3.500000000000008,146.35829323957006 -3.0000000000000084,147.2243186433545 -3.5000000000000098,148.09034404713896 -4.500000000000011,148.09034404713896 -5.000000000000012,148.9563694509234 -4.500000000000013,149.82239485470785 -3.5000000000000124,149.82239485470785 -3.000000000000013,150.6884202584923 -2.0000000000000115,150.6884202584923 -1.5000000000000098,149.82239485470785 -0.5000000000000087,149.82239485470785 -9.2148511043888e-15,150.6884202584923 -0.5000000000000108,151.55444566227675 -1.1268763699945339e-14,152.4204710660612 0.9999999999999898,152.4204710660612 1.4999999999999893,153.28649646984564 0.9999999999999878,154.1525218736301 1.4999999999999873,155.01854727741454 0.9999999999999858,155.884572681199 -1.532107773982716e-14,155.884572681199 -0.5000000000000169,156.75059808498344 -1.73749903353837e-14,157.61662348876789 0.9999999999999838,157.61662348876789 1.4999999999999831,158.48264889255233 2.499999999999984,158.48264889255233 2.999999999999986,157.61662348876789 3.9999999999999867,157.61662348876789 4.499999999999986,158.48264889255233 5.499999999999987,158.48264889255233 5.9999999999999885,157.61662348876789 5.499999999999989,156.75059808498344 5.999999999999991,155.884572681199 6.999999999999992,155.884572681199 7.499999999999994,155.01854727741454 8.499999999999995,155.01854727741454 8.999999999999995,155.884572681199 8.499999999999993,156.75059808498344 8.999999999999993,157.61662348876789 9.999999999999995,157.61662348876789 10.499999999999995,158.48264889255233 11.499999999999996,158.48264889255233 11.999999999999998,157.61662348876789 13.0,157.61662348876789 13.5,158.48264889255233 12.999999999999998,159.34867429633678 13.499999999999998,160.21469970012123 14.5,160.21469970012123 15.0,161.08072510390568 14.499999999999998,161.94675050769013 14.999999999999998,162.81277591147457 14.499999999999996,163.67880131525902 13.499999999999995,163.67880131525902 12.999999999999993,164.54482671904347 13.499999999999993,165.41085212282792 14.499999999999995,165.41085212282792 14.999999999999995,166.27687752661237 15.999999999999996,166.27687752661237 16.5,165.41085212282792 17.5,165.41085212282792 18.0,166.27687752661237 19.0,166.27687752661237 19.500000000000004,165.41085212282792 19.000000000000004,164.54482671904347 19.500000000000007,163.67880131525902 20.500000000000007,163.67880131525902 21.00000000000001,162.81277591147457 22.00000000000001,162.81277591147457 22.50000000000001,163.67880131525902 23.50000000000001,163.67880131525902 24.000000000000014,162.81277591147457 23.500000000000014,161.94675050769013 24.000000000000018,161.08072510390568 23.500000000000018,160.21469970012123 22.500000000000018,160.21469970012123 22.000000000000018,159.34867429633678 22.50000000000002,158.48264889255233 23.50000000000002,158.48264889255233 24.000000000000025,157.61662348876789 23.500000000000025,156.75059808498344 24.00000000000003,155.884572681199 25.00000000000003,155.884572681199 25.500000000000032,155.01854727741454 26.500000000000032,155.01854727741454 27.000000000000032,155.884572681199 26.50000000000003,156.75059808498344 27.00000000000003,157.61662348876789 28.00000000000003,157.61662348876789 28.50000000000003,158.48264889255233 29.50000000000003,158.48264889255233 30.000000000000032,157.61662348876789 31.000000000000036,157.61662348876789 31.500000000000036,158.48264889255233 32.500000000000036,158.48264889255233 33.000000000000036,157.61662348876789 32.500000000000036,156.75059808498344 33.000000000000036,155.884572681199 34.000000000000036,155.884572681199 34.500000000000036,155.01854727741454 35.500000000000036,155.01854727741454 36.000000000000036,155.884572681199 35.500000000000036,156.75059808498344 36.000000000000036,157.61662348876789 37.000000000000036,157.61662348876789 37.500000000000036,158.48264889255233 38.500000000000036,158.48264889255233 39.000000000000036,157.61662348876789 40.000000000000036,157.61662348876789 40.500000000000036,158.48264889255233 40.000000000000036,159.34867429633678 40.500000000000036,160.21469970012123 41.500000000000036,160.21469970012123 42.000000000000036,161.08072510390568 41.500000000000036,161.94675050769013 42.000000000000036,162.81277591147457 41.500000000000036,163.67880131525902 40.500000000000036,163.67880131525902 40.000000000000036,164.54482671904347 40.500000000000036,165.41085212282792 41.500000000000036,165.41085212282792 42.000000000000036,166.27687752661237 43.000000000000036,166.27687752661237 43.500000000000036,165.41085212282792 44.500000000000036,165.41085212282792 45.000000000000036,166.27687752661237 46.000000000000036,166.27687752661237 46.500000000000036,165.41085212282792 46.000000000000036,164.54482671904347 46.500000000000036,163.67880131525902 47.500000000000036,163.67880131525902 48.000000000000036,162.81277591147457 49.000000000000036,162.81277591147457 49.500000000000036,163.67880131525902 50.500000000000036,163.67880131525902 51.000000000000036,162.81277591147457 50.500000000000036,161.94675050769013 51.000000000000036,161.08072510390568 50.500000000000036,160.21469970012123 49.500000000000036,160.21469970012123 49.000000000000036,159.34867429633678 49.500000000000036,158.48264889255233 50.500000000000036,158.48264889255233 51.000000000000036,157.61662348876789 50.500000000000036,156.75059808498344 51.000000000000036,155.884572681199 52.000000000000036,155.884572681199 52.500000000000036,155.01854727741454 53.500000000000036,155.01854727741454 54.000000000000036,155.884572681199 55.000000000000036,155.884572681199 55.500000000000036,155.01854727741454 55.000000000000036,154.1525218736301 55.500000000000036,153.28649646984564 55.000000000000036,152.4204710660612 54.000000000000036,152.4204710660612 53.500000000000036,151.55444566227675 54.000000000000036,150.6884202584923 53.500000000000036,149.82239485470785 52.500000000000036,149.82239485470785 52.000000000000036,150.6884202584923 51.000000000000036,150.6884202584923 50.500000000000036,149.82239485470785 49.500000000000036,149.82239485470785 49.000000000000036,148.9563694509234 49.500000000000036,148.09034404713896 50.500000000000036,148.09034404713896 51.000000000000036,147.2243186433545 50.500000000000036,146.35829323957006 51.000000000000036,145.4922678357856 50.500000000000036,144.62624243200116 49.500000000000036,144.62624243200116 49.000000000000036,143.76021702821672 49.500000000000036,142.89419162443227 50.500000000000036,142.89419162443227 51.000000000000036,142.02816622064782 50.500000000000036,141.16214081686337 51.000000000000036,140.29611541307892 52.000000000000036,140.29611541307892 52.500000000000036,139.43009000929447 53.500000000000036,139.43009000929447 54.000000000000036,140.29611541307892 53.500000000000036,141.16214081686337 54.000000000000036,142.02816622064782 55.000000000000036,142.02816622064782 55.500000000000036,142.89419162443227 56.500000000000036,142.89419162443227 57.000000000000036,142.02816622064782 58.000000000000036,142.02816622064782 58.500000000000036,142.89419162443227 59.500000000000036,142.89419162443227 60.000000000000036,142.02816622064782 59.500000000000036,141.16214081686337 60.000000000000036,140.29611541307892 61.000000000000036,140.29611541307892 61.500000000000036,139.43009000929447 62.500000000000036,139.43009000929447 63.000000000000036,140.29611541307892 64.00000000000004,140.29611541307892 64.50000000000004,139.43009000929447 64.00000000000004,138.56406460551003 64.50000000000004,137.69803920172558 64.00000000000004,136.83201379794113 63.00000000000004,136.83201379794113 62.50000000000004,135.96598839415668 63.00000000000004,135.09996299037223 64.00000000000004,135.09996299037223 64.50000000000004,134.23393758658779 64.00000000000004,133.36791218280334 64.50000000000004,132.5018867790189 65.50000000000004,132.5018867790189 66.00000000000004,131.63586137523444 67.00000000000004,131.63586137523444 67.50000000000004,132.5018867790189 67.00000000000004,133.36791218280334 67.50000000000004,134.23393758658779 68.50000000000004,134.23393758658779 69.00000000000004,135.09996299037223 70.00000000000004,135.09996299037223 70.50000000000004,134.23393758658779 71.50000000000004,134.23393758658779 72.00000000000004,135.09996299037223 73.00000000000004,135.09996299037223 73.50000000000004,134.23393758658779 73.00000000000004,133.36791218280334 73.50000000000004,132.5018867790189 74.50000000000004,132.5018867790189 75.00000000000004,131.63586137523444 76.00000000000004,131.63586137523444 76.50000000000004,132.5018867790189 76.00000000000004,133.36791218280334 76.50000000000004,134.23393758658779 77.50000000000004,134.23393758658779 78.00000000000004,135.09996299037223 79.00000000000004,135.09996299037223 79.50000000000004,134.23393758658779 80.50000000000004,134.23393758658779 81.00000000000004,135.09996299037223 80.50000000000004,135.96598839415668 81.00000000000004,136.83201379794113 82.00000000000004,136.83201379794113 82.50000000000004,137.69803920172558 82.00000000000004,138.56406460551003 82.50000000000004,139.43009000929447 82.00000000000004,140.29611541307892 81.00000000000004,140.29611541307892 80.50000000000004,139.43009000929447 79.50000000000004,139.43009000929447 79.00000000000004,140.29611541307892 78.00000000000004,140.29611541307892 77.50000000000004,141.16214081686337 78.00000000000004,142.02816622064782 77.50000000000004,142.89419162443227 76.50000000000004,142.89419162443227 76.00000000000004,143.76021702821672 76.50000000000004,144.62624243200116 77.50000000000004,144.62624243200116 78.00000000000004,145.4922678357856 77.50000000000004,146.35829323957006 78.00000000000004,147.2243186433545 77.50000000000004,148.09034404713896 76.50000000000004,148.09034404713896 76.00000000000004,148.9563694509234 76.50000000000004,149.82239485470785 77.50000000000004,149.82239485470785 78.00000000000004,150.6884202584923 79.00000000000004,150.6884202584923 79.50000000000004,149.82239485470785 80.50000000000004,149.82239485470785 81.00000000000004,150.6884202584923 80.50000000000004,151.55444566227675 81.00000000000004,152.4204710660612 82.00000000000004,152.4204710660612 82.50000000000004,153.28649646984564 82.00000000000004,154.1525218736301 82.50000000000004,155.01854727741454 82.00000000000004,155.884572681199 81.00000000000004,155.884572681199 80.50000000000004,156.75059808498344 81.00000000000004,157.61662348876789 82.00000000000004,157.61662348876789 82.50000000000004,158.48264889255233 83.50000000000004,158.48264889255233 84.00000000000004,157.61662348876789 85.00000000000004,157.61662348876789 85.50000000000004,158.48264889255233 86.50000000000004,158.48264889255233 87.00000000000004,157.61662348876789 86.50000000000004,156.75059808498344 87.00000000000004,155.884572681199 88.00000000000004,155.884572681199 88.50000000000004,155.01854727741454 89.50000000000004,155.01854727741454 90.00000000000004,155.884572681199 89.50000000000004,156.75059808498344 90.00000000000004,157.61662348876789 91.00000000000004,157.61662348876789 91.50000000000004,158.48264889255233 92.50000000000004,158.48264889255233 93.00000000000004,157.61662348876789 94.00000000000004,157.61662348876789 94.50000000000004,158.48264889255233 94.00000000000004,159.34867429633678 94.50000000000004,160.21469970012123 95.50000000000004,160.21469970012123 96.00000000000004,161.08072510390568 95.50000000000004,161.94675050769013 96.00000000000004,162.81277591147457 95.50000000000004,163.67880131525902 94.50000000000004,163.67880131525902 94.00000000000004,164.54482671904347 94.50000000000004,165.41085212282792 95.50000000000004,165.41085212282792 96.00000000000004,166.27687752661237 97.00000000000004,166.27687752661237 97.50000000000004,165.41085212282792 98.50000000000004,165.41085212282792 99.00000000000004,166.27687752661237 100.00000000000004,166.27687752661237 100.50000000000004,165.41085212282792 100.00000000000004,164.54482671904347 100.50000000000004,163.67880131525902 101.50000000000004,163.67880131525902 102.00000000000004,162.81277591147457 103.00000000000004,162.81277591147457 103.50000000000004,163.67880131525902 104.50000000000004,163.67880131525902 105.00000000000004,162.81277591147457 104.50000000000004,161.94675050769013 105.00000000000004,161.08072510390568 104.50000000000004,160.21469970012123 103.50000000000004,160.21469970012123 103.00000000000004,159.34867429633678 103.50000000000004,158.48264889255233 104.50000000000004,158.48264889255233 105.00000000000004,157.61662348876789 104.50000000000004,156.75059808498344 105.00000000000004,155.884572681199 106.00000000000004,155.884572681199 106.50000000000004,155.01854727741454 107.50000000000004,155.01854727741454 108.00000000000004,155.884572681199 107.50000000000004,156.75059808498344 108.00000000000004,157.61662348876789 109.00000000000004,157.61662348876789 109.50000000000004,158.48264889255233 110.50000000000004,158.48264889255233 111.00000000000004,157.61662348876789 112.00000000000004,157.61662348876789 112.50000000000004,158.48264889255233 113.50000000000004,158.48264889255233 114.00000000000004,157.61662348876789 113.50000000000004,156.75059808498344 114.00000000000004,155.884572681199 115.00000000000004,155.884572681199 115.50000000000004,155.01854727741454 116.50000000000004,155.01854727741454 117.00000000000004,155.884572681199 116.50000000000004,156.75059808498344 117.00000000000004,157.61662348876789 118.00000000000004,157.61662348876789 118.50000000000004,158.48264889255233 119.50000000000004,158.48264889255233 120.00000000000004,157.61662348876789 121.00000000000004,157.61662348876789 121.50000000000004,158.48264889255233 121.00000000000004,159.34867429633678 121.50000000000004,160.21469970012123 122.50000000000004,160.21469970012123 123.00000000000004,161.08072510390568 122.50000000000004,161.94675050769013 123.00000000000004,162.81277591147457 122.50000000000004,163.67880131525902 121.50000000000004,163.67880131525902 121.00000000000004,162.81277591147457 120.00000000000004,162.81277591147457 119.50000000000004,163.67880131525902 118.50000000000004,163.67880131525902 118.00000000000004,164.54482671904347 118.50000000000004,165.41085212282792 118.00000000000004,166.27687752661237 117.00000000000004,166.27687752661237 116.50000000000004,167.14290293039682 117.00000000000004,168.00892833418126 118.00000000000004,168.00892833418126 118.50000000000004,168.8749537379657 118.00000000000004,169.74097914175016 118.50000000000004,170.6070045455346 118.00000000000004,171.47302994931906 117.00000000000004,171.47302994931906 116.50000000000004,172.3390553531035 117.00000000000004,173.20508075688795 118.00000000000004,173.20508075688795 118.50000000000004,174.0711061606724 119.50000000000004,174.0711061606724 120.00000000000004,173.20508075688795 121.00000000000004,173.20508075688795 121.50000000000004,174.0711061606724 121.00000000000004,174.93713156445685 121.50000000000004,175.8031569682413 122.50000000000004,175.8031569682413 123.00000000000004,176.66918237202574 122.50000000000004,177.5352077758102 123.00000000000004,178.40123317959464 122.50000000000004,179.2672585833791 121.50000000000004,179.2672585833791 121.00000000000004,180.13328398716354 121.50000000000004,180.99930939094799 122.50000000000004,180.99930939094799 123.00000000000004,181.86533479473243 124.00000000000004,181.86533479473243 124.50000000000004,180.99930939094799 125.50000000000004,180.99930939094799 126.00000000000004,181.86533479473243 127.00000000000004,181.86533479473243 127.50000000000004,180.99930939094799 127.00000000000004,180.13328398716354 127.50000000000004,179.2672585833791 128.50000000000006,179.2672585833791 129.00000000000006,178.40123317959464 130.00000000000006,178.40123317959464 130.50000000000006,179.2672585833791 130.00000000000006,180.13328398716354 130.50000000000006,180.99930939094799 131.50000000000006,180.99930939094799 132.00000000000006,181.86533479473243 133.00000000000006,181.86533479473243 133.50000000000006,180.99930939094799 134.50000000000006,180.99930939094799 135.00000000000006,181.86533479473243 134.50000000000006,182.73136019851688 135.00000000000006,183.59738560230133 136.00000000000006,183.59738560230133 136.50000000000006,184.46341100608578 136.00000000000006,185.32943640987023 136.50000000000006,186.19546181365467 136.00000000000006,187.06148721743912 135.00000000000006,187.06148721743912 134.50000000000006,186.19546181365467 133.50000000000006,186.19546181365467 133.00000000000006,187.06148721743912 132.00000000000006,187.06148721743912 131.50000000000006,187.92751262122357 132.00000000000006,188.79353802500802 131.50000000000006,189.65956342879247 130.50000000000006,189.65956342879247 130.00000000000006,190.52558883257691 130.50000000000006,191.39161423636136 131.50000000000006,191.39161423636136 132.00000000000006,192.2576396401458 131.50000000000006,193.12366504393026 132.00000000000006,193.9896904477147 131.50000000000006,194.85571585149916 130.50000000000006,194.85571585149916 130.00000000000006,195.7217412552836 130.50000000000006,196.58776665906805 131.50000000000006,196.58776665906805 132.00000000000006,197.4537920628525 133.00000000000006,197.4537920628525 133.50000000000006,196.58776665906805 134.50000000000006,196.58776665906805 135.00000000000006,197.4537920628525 134.50000000000006,198.31981746663695 135.00000000000006,199.1858428704214 136.00000000000006,199.1858428704214 136.50000000000006,200.05186827420584 136.00000000000006,200.9178936779903 136.50000000000006,201.78391908177474 136.00000000000006,202.6499444855592 135.00000000000006,202.6499444855592 134.50000000000006,201.78391908177474 133.50000000000006,201.78391908177474 133.00000000000006,202.6499444855592 132.00000000000006,202.6499444855592 131.50000000000006,203.51596988934364 132.00000000000006,204.38199529312809 131.50000000000006,205.24802069691253 130.50000000000006,205.24802069691253 130.00000000000006,206.11404610069698 130.50000000000006,206.98007150448143 131.50000000000006,206.98007150448143 132.00000000000006,207.84609690826588 131.50000000000006,208.71212231205033 132.00000000000006,209.57814771583477 131.50000000000006,210.44417311961922 130.50000000000006,210.44417311961922 130.00000000000006,209.57814771583477 129.00000000000006,209.57814771583477 128.50000000000006,210.44417311961922 127.50000000000006,210.44417311961922 127.00000000000006,211.31019852340367 127.50000000000006,212.17622392718812 127.00000000000006,213.04224933097257 126.00000000000006,213.04224933097257 125.50000000000006,212.17622392718812 124.50000000000006,212.17622392718812 124.00000000000006,213.04224933097257 123.00000000000006,213.04224933097257 122.50000000000006,212.17622392718812 121.50000000000006,212.17622392718812 121.00000000000006,211.31019852340367 121.50000000000006,210.44417311961922 120.50000000000006,210.44417311961922 120.00000000000006,211.31019852340367 120.50000000000006,212.17622392718812 120.00000000000006,213.04224933097257 120.50000000000006,213.90827473475701 121.50000000000006,213.90827473475701 122.00000000000006,214.77430013854146 121.50000000000006,215.6403255423259 122.00000000000006,216.50635094611036 123.00000000000006,216.50635094611036 123.50000000000006,215.6403255423259 124.50000000000006,215.6403255423259 125.00000000000006,216.50635094611036 126.00000000000006,216.50635094611036 126.50000000000006,217.3723763498948 126.00000000000006,218.23840175367926 126.50000000000006,219.1044271574637 127.50000000000006,219.1044271574637 128.00000000000006,218.23840175367926 129.00000000000006,218.23840175367926 129.50000000000006,217.3723763498948 129.00000000000006,216.50635094611036 129.50000000000006,215.6403255423259 130.50000000000006,215.6403255423259 131.00000000000006,216.50635094611036 132.00000000000006,216.50635094611036 132.50000000000006,215.6403255423259 133.50000000000006,215.6403255423259 134.00000000000006,216.50635094611036 135.00000000000006,216.50635094611036 135.50000000000006,217.3723763498948 135.00000000000006,218.23840175367926 135.50000000000006,219.1044271574637 136.50000000000006,219.1044271574637 137.00000000000006,218.23840175367926 138.00000000000006,218.23840175367926 138.50000000000006,217.3723763498948 138.00000000000006,216.50635094611036 138.50000000000006,215.6403255423259 139.50000000000006,215.6403255423259 140.00000000000006,214.77430013854146 139.50000000000006,213.90827473475701 138.50000000000006,213.90827473475701 138.00000000000006,213.04224933097257 138.50000000000006,212.17622392718812 138.00000000000006,211.31019852340367 138.50000000000006,210.44417311961922 139.50000000000006,210.44417311961922 140.00000000000006,211.31019852340367 141.00000000000006,211.31019852340367 141.50000000000006,210.44417311961922 142.50000000000006,210.44417311961922 143.00000000000006,209.57814771583477 142.50000000000006,208.71212231205033 143.00000000000006,207.84609690826588 144.00000000000006,207.84609690826588 144.50000000000006,208.71212231205033 145.50000000000006,208.71212231205033 146.00000000000006,207.84609690826588 147.00000000000006,207.84609690826588 147.50000000000006,208.71212231205033 148.50000000000006,208.71212231205033 149.00000000000006,209.57814771583477 148.50000000000006,210.44417311961922 149.00000000000006,211.31019852340367 150.00000000000006,211.31019852340367 150.50000000000006,210.44417311961922 151.50000000000006,210.44417311961922 152.00000000000006,209.57814771583477 151.50000000000006,208.71212231205033 152.00000000000006,207.84609690826588 153.00000000000006,207.84609690826588 153.50000000000006,206.98007150448143 153.00000000000006,206.11404610069698 152.00000000000006,206.11404610069698 151.50000000000006,205.24802069691253 152.00000000000006,204.38199529312809 151.50000000000006,203.51596988934364 152.00000000000006,202.6499444855592 153.00000000000006,202.6499444855592 153.50000000000006,201.78391908177474 153.00000000000006,200.9178936779903 152.00000000000006,200.9178936779903 151.50000000000006,200.05186827420584 150.50000000000006,200.05186827420584 150.00000000000006,200.9178936779903 149.00000000000006,200.9178936779903 148.50000000000006,200.05186827420584 149.00000000000006,199.1858428704214 148.50000000000006,198.31981746663695 147.50000000000006,198.31981746663695 147.00000000000006,197.4537920628525 147.50000000000006,196.58776665906805 147.00000000000006,195.7217412552836 147.50000000000006,194.85571585149916 148.50000000000006,194.85571585149916 149.00000000000006,195.7217412552836 150.00000000000006,195.7217412552836 150.50000000000006,194.85571585149916 151.50000000000006,194.85571585149916 152.00000000000006,193.9896904477147 151.50000000000006,193.12366504393026 152.00000000000006,192.2576396401458 153.00000000000006,192.2576396401458 153.50000000000006,191.39161423636136 153.00000000000006,190.52558883257691 152.00000000000006,190.52558883257691 151.50000000000006,189.65956342879247 152.00000000000006,188.79353802500802 151.50000000000006,187.92751262122357 152.00000000000006,187.06148721743912 153.00000000000006,187.06148721743912 153.50000000000006,187.92751262122357 154.50000000000006,187.92751262122357 155.00000000000006,187.06148721743912 156.00000000000006,187.06148721743912 156.50000000000006,186.19546181365467 156.00000000000006,185.32943640987023 156.50000000000006,184.46341100608578 157.50000000000006,184.46341100608578 158.00000000000006,185.32943640987023 159.00000000000006,185.32943640987023 159.50000000000006,184.46341100608578 160.50000000000006,184.46341100608578 161.00000000000006,185.32943640987023 162.00000000000006,185.32943640987023 162.50000000000006,186.19546181365467 162.00000000000006,187.06148721743912 162.50000000000006,187.92751262122357 163.50000000000006,187.92751262122357 164.00000000000006,187.06148721743912 165.00000000000006,187.06148721743912 165.50000000000006,186.19546181365467 165.00000000000006,185.32943640987023 165.50000000000006,184.46341100608578 166.50000000000006,184.46341100608578 167.00000000000006,183.59738560230133 166.50000000000006,182.73136019851688 165.50000000000006,182.73136019851688 165.00000000000006,181.86533479473243 165.50000000000006,180.99930939094799 165.00000000000006,180.13328398716354 165.50000000000006,179.2672585833791 166.50000000000006,179.2672585833791 167.00000000000006,178.40123317959464 166.50000000000006,177.5352077758102 165.50000000000006,177.5352077758102 165.00000000000006,176.66918237202574 164.00000000000006,176.66918237202574 163.50000000000006,177.5352077758102 162.50000000000006,177.5352077758102 162.00000000000006,176.66918237202574 162.50000000000006,175.8031569682413 162.00000000000006,174.93713156445685 161.00000000000006,174.93713156445685 160.50000000000006,174.0711061606724 161.00000000000006,173.20508075688795 160.50000000000006,172.3390553531035 161.00000000000006,171.47302994931906 162.00000000000006,171.47302994931906 162.50000000000006,170.6070045455346 162.00000000000006,169.74097914175016 161.00000000000006,169.74097914175016 160.50000000000006,168.8749537379657 159.50000000000006,168.8749537379657 159.00000000000006,169.74097914175016 158.00000000000006,169.74097914175016 157.50000000000006,168.8749537379657 156.50000000000006,168.8749537379657 156.00000000000006,169.74097914175016 156.50000000000006,170.6070045455346 156.00000000000006,171.47302994931906 155.00000000000006,171.47302994931906 154.50000000000006,172.3390553531035 153.50000000000006,172.3390553531035 153.00000000000006,171.47302994931906 153.50000000000006,170.6070045455346 153.00000000000006,169.74097914175016 152.00000000000006,169.74097914175016 151.50000000000006,168.8749537379657 150.50000000000006,168.8749537379657 150.00000000000006,169.74097914175016 149.00000000000006,169.74097914175016 148.50000000000006,168.8749537379657 149.00000000000006,168.00892833418126 148.50000000000006,167.14290293039682 147.50000000000006,167.14290293039682 147.00000000000006,166.27687752661237 147.50000000000006,165.41085212282792 147.00000000000006,164.54482671904347 147.50000000000006,163.67880131525902 148.50000000000006,163.67880131525902 149.00000000000006,164.54482671904347 150.00000000000006,164.54482671904347 150.50000000000006,163.67880131525902 151.50000000000006,163.67880131525902 152.00000000000006,162.81277591147457 151.50000000000006,161.94675050769013 152.00000000000006,161.08072510390568 153.00000000000006,161.08072510390568 153.50000000000006,160.21469970012123 153.00000000000006,159.34867429633678 152.00000000000006,159.34867429633678 151.50000000000006,158.48264889255233 152.00000000000006,157.61662348876789 151.50000000000006,156.75059808498344 152.00000000000006,155.884572681199 153.00000000000006,155.884572681199 153.50000000000006,155.01854727741454 153.00000000000006,154.1525218736301 152.00000000000006,154.1525218736301 151.50000000000006,153.28649646984564 150.50000000000006,153.28649646984564 150.00000000000006,154.1525218736301 149.00000000000006,154.1525218736301 148.50000000000006,153.28649646984564 149.00000000000006,152.4204710660612 148.50000000000006,151.55444566227675 147.50000000000006,151.55444566227675 147.00000000000006,150.6884202584923 147.50000000000006,149.82239485470785 147.00000000000006,148.9563694509234 147.50000000000006,148.09034404713896 148.50000000000006,148.09034404713896 149.00000000000006,148.9563694509234 150.00000000000006,148.9563694509234 150.50000000000006,148.09034404713896 151.50000000000006,148.09034404713896 152.00000000000006,147.2243186433545 151.50000000000006,146.35829323957006 152.00000000000006,145.4922678357856 153.00000000000006,145.4922678357856 153.50000000000006,144.62624243200116 153.00000000000006,143.76021702821672 152.00000000000006,143.76021702821672 151.50000000000006,142.89419162443227 152.00000000000006,142.02816622064782 151.50000000000006,141.16214081686337 152.00000000000006,140.29611541307892 153.00000000000006,140.29611541307892 153.50000000000006,141.16214081686337 154.50000000000006,141.16214081686337 155.00000000000006,140.29611541307892 156.00000000000006,140.29611541307892 156.50000000000006,139.43009000929447 156.00000000000006,138.56406460551003 156.50000000000006,137.69803920172558 157.50000000000006,137.69803920172558 158.00000000000006,138.56406460551003 159.00000000000006,138.56406460551003 159.50000000000006,137.69803920172558 160.50000000000006,137.69803920172558 161.00000000000006,138.56406460551003 162.00000000000006,138.56406460551003 162.50000000000006,139.43009000929447 162.00000000000006,140.29611541307892 162.50000000000006,141.16214081686337 163.50000000000006,141.16214081686337 164.00000000000006,140.29611541307892 165.00000000000006,140.29611541307892 165.50000000000006,139.43009000929447 165.00000000000006,138.56406460551003 165.50000000000006,137.69803920172558 166.50000000000006,137.69803920172558 167.00000000000006,136.83201379794113 166.50000000000006,135.96598839415668 165.50000000000006,135.96598839415668 165.00000000000006,135.09996299037223 165.50000000000006,134.23393758658779 165.00000000000006,133.36791218280334 165.50000000000006,132.5018867790189 166.50000000000006,132.5018867790189 167.00000000000006,131.63586137523444 166.50000000000006,130.76983597145 165.50000000000006,130.76983597145 165.00000000000006,129.90381056766554 164.00000000000006,129.90381056766554 163.50000000000006,130.76983597145 162.50000000000006,130.76983597145 162.00000000000006,129.90381056766554 162.50000000000006,129.0377851638811 162.00000000000006,128.17175976009665 161.00000000000006,128.17175976009665 160.50000000000006,127.3057343563122 161.00000000000006,126.43970895252775 160.50000000000006,125.5736835487433 161.00000000000006,124.70765814495886 162.00000000000006,124.70765814495886 162.50000000000006,123.84163274117441 162.00000000000006,122.97560733738996 161.00000000000006,122.97560733738996 160.50000000000006,122.10958193360551 159.50000000000006,122.10958193360551 159.00000000000006,122.97560733738996 158.00000000000006,122.97560733738996 157.50000000000006,122.10958193360551 156.50000000000006,122.10958193360551 156.00000000000006,122.97560733738996 156.50000000000006,123.84163274117441 156.00000000000006,124.70765814495886 155.00000000000006,124.70765814495886 154.50000000000006,125.5736835487433 153.50000000000006,125.5736835487433 153.00000000000006,124.70765814495886 153.50000000000006,123.84163274117441 153.00000000000006,122.97560733738996 152.00000000000006,122.97560733738996 151.50000000000006,122.10958193360551 150.50000000000006,122.10958193360551 150.00000000000006,122.97560733738996 149.00000000000006,122.97560733738996 148.50000000000006,122.10958193360551 149.00000000000006,121.24355652982106 148.50000000000006,120.37753112603662 147.50000000000006,120.37753112603662 147.00000000000006,119.51150572225217 147.50000000000006,118.64548031846772 147.00000000000006,117.77945491468327 147.50000000000006,116.91342951089882 148.50000000000006,116.91342951089882 149.00000000000006,116.04740410711437 148.50000000000006,115.18137870332993 147.50000000000006,115.18137870332993 147.00000000000006,114.31535329954548 146.00000000000006,114.31535329954548 145.50000000000006,115.18137870332993 144.50000000000006,115.18137870332993 144.00000000000006,114.31535329954548 143.00000000000006,114.31535329954548 142.50000000000006,115.18137870332993 143.00000000000006,116.04740410711437 142.50000000000006,116.91342951089882 141.50000000000006,116.91342951089882 141.00000000000006,117.77945491468327 140.00000000000006,117.77945491468327 139.50000000000006,116.91342951089882 138.50000000000006,116.91342951089882 138.00000000000006,117.77945491468327 138.50000000000006,118.64548031846772 138.00000000000006,119.51150572225217 138.50000000000006,120.37753112603662 139.50000000000006,120.37753112603662 140.00000000000006,121.24355652982106 139.50000000000006,122.10958193360551 138.50000000000006,122.10958193360551 138.00000000000006,122.97560733738996 138.50000000000006,123.84163274117441 138.00000000000006,124.70765814495886 137.00000000000006,124.70765814495886 136.50000000000006,125.5736835487433 135.50000000000006,125.5736835487433 135.00000000000006,124.70765814495886 135.50000000000006,123.84163274117441 135.00000000000006,122.97560733738996 134.00000000000006,122.97560733738996 133.50000000000006,122.10958193360551 132.50000000000006,122.10958193360551 132.00000000000006,122.97560733738996 131.00000000000006,122.97560733738996 130.50000000000006,122.10958193360551 129.50000000000006,122.10958193360551 129.00000000000006,122.97560733738996 129.50000000000006,123.84163274117441 129.00000000000006,124.70765814495886 128.00000000000006,124.70765814495886 127.50000000000006,125.5736835487433 126.50000000000006,125.5736835487433 126.00000000000006,124.70765814495886 126.50000000000006,123.84163274117441 126.00000000000006,122.97560733738996 125.00000000000006,122.97560733738996 124.50000000000006,122.10958193360551 123.50000000000006,122.10958193360551 123.00000000000006,122.97560733738996 122.00000000000006,122.97560733738996 121.50000000000006,122.10958193360551 122.00000000000006,121.24355652982106 121.50000000000006,120.37753112603662 120.50000000000006,120.37753112603662 120.00000000000006,119.51150572225217 120.50000000000006,118.64548031846772 120.00000000000006,117.77945491468327 120.50000000000006,116.91342951089882 121.50000000000006,116.91342951089882 122.00000000000006,117.77945491468327 123.00000000000006,117.77945491468327 123.50000000000006,116.91342951089882 124.50000000000006,116.91342951089882 125.00000000000006,116.04740410711437 124.50000000000006,115.18137870332993 125.00000000000006,114.31535329954548 126.00000000000006,114.31535329954548 126.50000000000006,113.44932789576103 126.00000000000006,112.58330249197658 125.00000000000006,112.58330249197658 124.50000000000006,111.71727708819213 125.00000000000006,110.85125168440769 124.50000000000006,109.98522628062324 125.00000000000006,109.11920087683879 126.00000000000006,109.11920087683879 126.50000000000006,108.25317547305434 126.00000000000006,107.3871500692699 125.00000000000006,107.3871500692699 124.50000000000006,106.52112466548544 123.50000000000006,106.52112466548544 123.00000000000006,107.3871500692699 122.00000000000006,107.3871500692699 121.50000000000006,106.52112466548544 122.00000000000006,105.655099261701 121.50000000000006,104.78907385791655 120.50000000000006,104.78907385791655 120.00000000000006,103.9230484541321 120.50000000000006,103.05702305034765 120.00000000000006,102.1909976465632 120.50000000000006,101.32497224277876 121.50000000000006,101.32497224277876 122.00000000000006,100.45894683899431 121.50000000000006,99.59292143520986 120.50000000000006,99.59292143520986 120.00000000000006,98.72689603142541 119.00000000000006,98.72689603142541 118.50000000000006,99.59292143520986 117.50000000000006,99.59292143520986 117.00000000000006,98.72689603142541 116.00000000000006,98.72689603142541 115.50000000000006,99.59292143520986 116.00000000000006,100.45894683899431 115.50000000000006,101.32497224277876 114.50000000000006,101.32497224277876 114.00000000000006,102.1909976465632 113.00000000000006,102.1909976465632 112.50000000000006,101.32497224277876 113.00000000000006,100.45894683899431 112.50000000000006,99.59292143520986 111.50000000000006,99.59292143520986 111.00000000000006,98.72689603142541 110.00000000000006,98.72689603142541 109.50000000000006,99.59292143520986 108.50000000000006,99.59292143520986 108.00000000000006,98.72689603142541 108.50000000000006,97.86087062764096 108.00000000000006,96.99484522385652 107.00000000000006,96.99484522385652 106.50000000000006,96.12881982007207 107.00000000000006,95.26279441628762 106.50000000000006,94.39676901250317 107.00000000000006,93.53074360871872 108.00000000000006,93.53074360871872 108.50000000000006,94.39676901250317 109.50000000000006,94.39676901250317 110.00000000000006,93.53074360871872 111.00000000000006,93.53074360871872 111.50000000000006,92.66471820493427 111.00000000000006,91.79869280114983 111.50000000000006,90.93266739736538 112.50000000000006,90.93266739736538 113.00000000000006,90.06664199358093 112.50000000000006,89.20061658979648 111.50000000000006,89.20061658979648 111.00000000000006,88.33459118601203 111.50000000000006,87.46856578222759 111.00000000000006,86.60254037844314 111.50000000000006,85.73651497465869 112.50000000000006,85.73651497465869 113.00000000000006,84.87048957087424 112.50000000000006,84.0044641670898 111.50000000000006,84.0044641670898 111.00000000000006,83.13843876330534 110.00000000000006,83.13843876330534 109.50000000000006,84.0044641670898 108.50000000000006,84.0044641670898 108.00000000000006,83.13843876330534 108.50000000000006,82.2724133595209 108.00000000000006,81.40638795573645 107.00000000000006,81.40638795573645 106.50000000000006,80.540362551952 107.00000000000006,79.67433714816755 106.50000000000006,78.8083117443831 107.00000000000006,77.94228634059866 108.00000000000006,77.94228634059866 108.50000000000006,78.8083117443831 109.50000000000006,78.8083117443831 110.00000000000006,77.94228634059866 111.00000000000006,77.94228634059866 111.50000000000006,77.07626093681421 111.00000000000006,76.21023553302976 111.50000000000006,75.34421012924531 112.50000000000006,75.34421012924531 113.00000000000006,74.47818472546086 112.50000000000006,73.61215932167642 111.50000000000006,73.61215932167642 111.00000000000006,72.74613391789197 111.50000000000006,71.88010851410752 111.00000000000006,71.01408311032307 111.50000000000006,70.14805770653862 112.50000000000006,70.14805770653862 113.00000000000006,71.01408311032307 114.00000000000006,71.01408311032307 114.50000000000006,70.14805770653862 115.50000000000006,70.14805770653862 116.00000000000006,69.28203230275417 115.50000000000006,68.41600689896973 116.00000000000006,67.54998149518528 117.00000000000006,67.54998149518528 117.50000000000006,68.41600689896973 118.50000000000006,68.41600689896973 119.00000000000006,67.54998149518528 120.00000000000006,67.54998149518528 120.50000000000006,68.41600689896973 121.50000000000006,68.41600689896973 122.00000000000006,69.28203230275417 121.50000000000006,70.14805770653862 122.00000000000006,71.01408311032307 123.00000000000006,71.01408311032307 123.50000000000006,70.14805770653862 124.50000000000006,70.14805770653862 125.00000000000006,69.28203230275417 124.50000000000006,68.41600689896973 125.00000000000006,67.54998149518528 126.00000000000006,67.54998149518528 126.50000000000006,66.68395609140083 126.00000000000006,65.81793068761638 125.00000000000006,65.81793068761638 124.50000000000006,64.95190528383193 125.00000000000006,64.08587988004749 124.50000000000006,63.21985447626304 125.00000000000006,62.3538290724786 126.00000000000006,62.3538290724786 126.50000000000006,61.487803668694156 126.00000000000006,60.62177826490971 125.00000000000006,60.6217782649097 124.50000000000006,59.75575286112525 123.50000000000006,59.755752861125245 123.00000000000006,60.621778264909686 122.00000000000006,60.62177826490968 121.50000000000006,59.75575286112523 122.00000000000006,58.88972745734079 121.50000000000006,58.02370205355634 120.50000000000006,58.023702053556335 120.00000000000006,57.157676649771886 120.50000000000006,56.291651245987445 120.00000000000006,55.425625842203 120.50000000000006,54.559600438418556 121.50000000000006,54.559600438418556 122.00000000000006,53.693575034634115 121.50000000000006,52.82754963084967 120.50000000000006,52.82754963084966 120.00000000000006,51.96152422706521 119.00000000000006,51.961524227065205 118.50000000000006,52.827549630849646 117.50000000000006,52.82754963084964 117.00000000000006,51.96152422706519 116.00000000000006,51.96152422706518 115.50000000000006,52.827549630849624 116.00000000000006,53.69357503463407 115.50000000000006,54.559600438418514 114.50000000000006,54.55960043841851 114.00000000000006,55.42562584220295 113.00000000000006,55.42562584220294 112.50000000000006,54.55960043841849 113.00000000000006,53.69357503463405 112.50000000000006,52.8275496308496 111.50000000000006,52.827549630849596 111.00000000000006,51.96152422706515 110.00000000000006,51.96152422706514 109.50000000000006,52.82754963084958 108.50000000000006,52.827549630849575 108.00000000000006,51.96152422706513 108.50000000000006,51.095498823280685 108.00000000000006,50.22947341949624 107.00000000000006,50.22947341949623 106.50000000000006,49.36344801571178 107.00000000000006,48.49742261192734 106.50000000000006,47.63139720814289 107.00000000000006,46.76537180435845 108.00000000000006,46.76537180435845 108.50000000000006,45.89934640057401 108.00000000000006,45.03332099678956 107.00000000000006,45.033320996789556 106.50000000000006,44.16729559300511 105.50000000000006,44.1672955930051 105.00000000000006,45.03332099678954 104.00000000000006,45.033320996789534 103.50000000000006,44.167295593005086 102.50000000000006,44.16729559300508 102.00000000000006,45.03332099678952 102.50000000000006,45.89934640057397 102.00000000000006,46.76537180435841 101.00000000000006,46.76537180435841 100.50000000000006,47.63139720814285 99.50000000000006,47.63139720814284 99.00000000000006,46.765371804358395 98.00000000000006,46.76537180435839 97.50000000000006,47.63139720814283 98.00000000000006,48.49742261192728 97.50000000000006,49.36344801571172 98.00000000000006,50.229473419496166 99.00000000000006,50.22947341949617 99.50000000000006,51.09549882328062 99.00000000000006,51.96152422706506 98.00000000000006,51.961524227065055 97.50000000000006,52.8275496308495 98.00000000000006,53.693575034633945 97.50000000000006,54.559600438418386 96.50000000000006,54.559600438418386 96.00000000000006,55.42562584220283 95.00000000000006,55.42562584220282 94.50000000000006,54.55960043841837 95.00000000000006,53.69357503463393 94.50000000000006,52.82754963084948 93.50000000000006,52.827549630849475 93.00000000000006,51.96152422706503 92.00000000000006,51.96152422706502 91.50000000000006,52.82754963084946 90.50000000000006,52.82754963084946 90.00000000000006,51.96152422706501 89.00000000000006,51.961524227065006 88.50000000000006,52.82754963084945 89.00000000000006,53.693575034633895 88.50000000000006,54.559600438418336 87.50000000000006,54.55960043841833 87.00000000000006,55.42562584220277 86.00000000000006,55.42562584220276 85.50000000000006,54.559600438418315 86.00000000000006,53.693575034633874 85.50000000000006,52.827549630849425 84.50000000000006,52.82754963084942 84.00000000000006,51.96152422706497 83.00000000000006,51.96152422706496 82.50000000000006,52.827549630849404 81.50000000000006,52.827549630849404 81.00000000000006,51.961524227064956 81.50000000000006,51.095498823280515 81.00000000000006,50.22947341949607 80.00000000000006,50.22947341949606 79.50000000000006,49.36344801571161 80.00000000000006,48.49742261192717 79.50000000000006,47.63139720814272 80.00000000000006,46.76537180435828 81.00000000000006,46.76537180435828 81.50000000000006,45.89934640057384 81.00000000000006,45.03332099678939 80.00000000000006,45.033320996789385 79.50000000000006,44.16729559300494 78.50000000000006,44.16729559300493 78.00000000000006,45.03332099678937 77.00000000000006,45.03332099678937 76.50000000000006,44.16729559300492 75.50000000000006,44.167295593004916 75.00000000000006,45.03332099678936 75.50000000000006,45.899346400573805 75.00000000000006,46.765371804358246 74.00000000000006,46.76537180435824 73.50000000000006,47.63139720814268 72.50000000000006,47.63139720814267 72.00000000000006,46.765371804358224 71.00000000000006,46.76537180435822 70.50000000000006,47.63139720814266 71.00000000000006,48.49742261192711 70.50000000000006,49.36344801571155 71.00000000000006,50.229473419495996 72.00000000000006,50.229473419496 72.50000000000006,51.09549882328045 72.00000000000006,51.96152422706489 71.00000000000006,51.961524227064885 70.50000000000006,52.827549630849326 71.00000000000006,53.693575034633774 70.50000000000006,54.559600438418215 69.50000000000006,54.559600438418215 69.00000000000006,55.425625842202656 68.00000000000006,55.42562584220265 67.50000000000006,54.5596004384182 66.50000000000006,54.559600438418194 66.00000000000006,55.425625842202635 66.50000000000006,56.29165124598708 66.00000000000006,57.157676649771524 66.50000000000006,58.02370205355597 67.50000000000006,58.02370205355598 68.00000000000006,58.88972745734043 67.50000000000006,59.75575286112487 68.00000000000006,60.62177826490932 69.00000000000006,60.621778264909324 69.50000000000006,59.75575286112488 70.50000000000006,59.75575286112489 71.00000000000006,60.62177826490934 72.00000000000006,60.621778264909345 72.50000000000006,61.48780366869379 72.00000000000006,62.353829072478234 71.00000000000006,62.353829072478234 70.50000000000006,63.219854476262675 71.00000000000006,64.08587988004712 70.50000000000006,64.95190528383156 71.00000000000006,65.81793068761601 72.00000000000006,65.81793068761601 72.50000000000006,66.68395609140046 72.00000000000006,67.54998149518491 71.00000000000006,67.54998149518491 70.50000000000006,68.41600689896936 71.00000000000006,69.2820323027538 70.50000000000006,70.14805770653825 69.50000000000006,70.14805770653825 69.00000000000006,71.0140831103227 68.00000000000006,71.0140831103227 67.50000000000006,70.14805770653825 68.00000000000006,69.2820323027538 67.50000000000006,68.41600689896936 66.50000000000006,68.41600689896936 66.00000000000006,67.54998149518491 65.00000000000006,67.54998149518491 64.50000000000006,68.41600689896936 63.50000000000005,68.41600689896936 63.00000000000005,67.54998149518491 62.00000000000004,67.54998149518491 61.500000000000036,68.41600689896936 62.000000000000036,69.2820323027538 61.50000000000003,70.14805770653825 60.50000000000002,70.14805770653825 60.000000000000014,71.0140831103227 59.00000000000001,71.0140831103227 58.50000000000001,70.14805770653825 57.5,70.14805770653825 56.99999999999999,71.0140831103227 57.49999999999999,71.88010851410715 56.999999999999986,72.7461339178916 57.499999999999986,73.61215932167605 58.49999999999999,73.61215932167605 58.99999999999999,74.4781847254605 58.499999999999986,75.34421012924494 57.49999999999998,75.34421012924494 56.99999999999997,76.21023553302939 57.49999999999997,77.07626093681384 56.999999999999964,77.94228634059829 55.99999999999996,77.94228634059829 55.49999999999995,78.80831174438273 54.49999999999994,78.80831174438273 53.99999999999994,77.94228634059829 54.49999999999995,77.07626093681384 53.99999999999995,76.21023553302939 52.99999999999994,76.21023553302939 52.49999999999994,75.34421012924494 51.499999999999936,75.34421012924494 50.99999999999993,76.21023553302939 49.99999999999992,76.21023553302939 49.49999999999992,75.34421012924494 48.499999999999915,75.34421012924494 47.99999999999991,76.21023553302939 48.49999999999991,77.07626093681384 47.9999999999999,77.94228634059829 46.99999999999989,77.94228634059829 46.499999999999886,78.80831174438273 45.49999999999988,78.80831174438273 44.99999999999988,77.94228634059829 45.499999999999886,77.07626093681384 44.999999999999886,76.21023553302939 43.99999999999988,76.21023553302939 43.49999999999988,75.34421012924494 42.49999999999987,75.34421012924494 41.999999999999865,76.21023553302939 40.99999999999986,76.21023553302939 40.49999999999986,75.34421012924494 40.999999999999865,74.4781847254605 40.499999999999865,73.61215932167605 39.49999999999986,73.61215932167605 38.99999999999986,72.7461339178916 39.499999999999865,71.88010851410715 38.999999999999865,71.0140831103227 39.49999999999987,70.14805770653825 40.49999999999988,70.14805770653825 40.99999999999988,71.0140831103227 41.999999999999886,71.0140831103227 42.49999999999989,70.14805770653825 43.4999999999999,70.14805770653825 43.99999999999991,69.2820323027538 43.49999999999991,68.41600689896936 43.999999999999915,67.54998149518491 44.99999999999992,67.54998149518491 45.49999999999993,66.68395609140046 44.99999999999993,65.81793068761601 43.99999999999992,65.81793068761601 43.49999999999992,64.95190528383156 43.99999999999993,64.08587988004712 43.49999999999993,63.21985447626267 43.999999999999936,62.35382907247823 44.99999999999994,62.35382907247823 45.49999999999995,61.487803668693786 44.99999999999995,60.62177826490934 43.99999999999994,60.62177826490933 43.49999999999994,59.75575286112488 42.499999999999936,59.755752861124876 41.99999999999993,60.62177826490932 40.99999999999992,60.62177826490931 40.49999999999992,59.75575286112486 40.99999999999993,58.88972745734042 40.49999999999993,58.02370205355597 39.49999999999992,58.023702053555965 38.99999999999992,57.15767664977152 39.49999999999993,56.291651245987076 38.99999999999993,55.42562584220263 39.499999999999936,54.55960043841819 40.49999999999994,54.55960043841819 40.99999999999995,53.693575034633746 40.49999999999995,52.8275496308493 39.49999999999994,52.82754963084929 38.99999999999994,51.96152422706484 37.999999999999936,51.961524227064835 37.49999999999993,52.827549630849276 36.49999999999992,52.827549630849276 35.99999999999992,51.96152422706483 34.999999999999915,51.96152422706482 34.49999999999991,52.82754963084926 34.99999999999991,53.69357503463371 34.4999999999999,54.55960043841815 33.49999999999989,54.559600438418144 32.999999999999886,55.425625842202585 31.99999999999988,55.42562584220258 31.49999999999988,54.55960043841813 31.999999999999886,53.69357503463369 31.499999999999886,52.82754963084924 30.49999999999988,52.827549630849234 29.99999999999988,51.961524227064785 28.999999999999872,51.96152422706478 28.499999999999865,52.82754963084922 27.499999999999858,52.82754963084922 26.999999999999858,51.96152422706477 27.499999999999865,51.09549882328033 26.999999999999865,50.22947341949588 25.999999999999858,50.229473419495875 25.499999999999858,49.36344801571143 25.999999999999865,48.497422611926986 25.499999999999865,47.63139720814254 25.999999999999872,46.7653718043581 26.99999999999988,46.7653718043581 27.499999999999886,45.899346400573656 26.999999999999886,45.03332099678921 25.99999999999988,45.0333209967892 25.49999999999988,44.16729559300475 24.499999999999872,44.167295593004745 23.999999999999865,45.033320996789186 22.999999999999858,45.033320996789186 22.499999999999858,44.16729559300474 21.49999999999985,44.16729559300473 20.999999999999844,45.03332099678917 21.499999999999844,45.89934640057362 20.999999999999837,46.76537180435806 19.99999999999983,46.765371804358054 19.499999999999822,47.631397208142495 18.499999999999815,47.63139720814249 17.999999999999815,46.76537180435804 16.999999999999808,46.76537180435803 16.4999999999998,47.631397208142474 16.9999999999998,48.49742261192692 16.499999999999794,49.36344801571136 16.999999999999794,50.22947341949581 17.9999999999998,50.22947341949582 18.4999999999998,51.095498823280266 17.999999999999794,51.96152422706471 16.999999999999787,51.9615242270647 16.49999999999978,52.82754963084914 16.99999999999978,53.69357503463359 16.499999999999773,54.55960043841803 15.499999999999766,54.55960043841803 14.999999999999758,55.42562584220247 13.999999999999751,55.425625842202464 13.499999999999751,54.559600438418016 13.999999999999757,53.693575034633575 13.499999999999757,52.82754963084913 12.49999999999975,52.82754963084912 11.99999999999975,51.96152422706467 10.999999999999742,51.961524227064665 10.499999999999735,52.827549630849106 9.499999999999728,52.827549630849106 8.999999999999728,51.96152422706466 7.999999999999722,51.96152422706465 7.499999999999716,52.82754963084909 7.999999999999716,53.69357503463354 7.49999999999971,54.55960043841798 6.499999999999703,54.559600438417974 5.999999999999697,55.425625842202415 4.999999999999691,55.42562584220241 4.499999999999691,54.55960043841796 4.999999999999697,53.69357503463352 4.499999999999697,52.82754963084907 3.499999999999691,52.82754963084906 2.999999999999691,51.961524227064615 1.9999999999996845,51.96152422706461 1.499999999999678,52.82754963084905 0.4999999999996716,52.82754963084905 -3.2862601528904634e-13,51.9615242270646 0.49999999999967737,51.09549882328016 -3.228528555609955e-13,50.22947341949571 -1.0000000000003293,50.229473419495704 -1.5000000000003295,49.363448015711256 -1.0000000000003235,48.497422611926815 -1.5000000000003237,47.63139720814237 -1.0000000000003177,46.765371804357926 -3.113065361048939e-13,46.765371804357926 0.49999999999968936,47.631397208142374 1.4999999999996958,47.631397208142374 1.9999999999997018,46.76537180435793 2.9999999999997082,46.76537180435793 3.499999999999714,45.89934640057349 2.999999999999714,45.033320996789044 3.4999999999997202,44.1672955930046 4.499999999999726,44.1672955930046 4.999999999999733,43.30127018922016 4.499999999999733,42.435244785435714 3.4999999999997264,42.43524478543571 2.9999999999997264,41.56921938165126 3.4999999999997327,40.70319397786682 2.9999999999997327,39.83716857408237 3.499999999999739,38.97114317029793 4.499999999999745,38.97114317029793 4.999999999999751,38.10511776651349 4.499999999999751,37.23909236272904 3.499999999999745,37.23909236272903 2.999999999999745,36.373066958944584 1.9999999999997387,36.37306695894458 1.4999999999997322,37.23909236272902 0.4999999999997258,37.23909236272901 -2.744471316873387e-13,36.37306695894456 0.49999999999973155,35.50704155516012 -2.686739719592879e-13,34.64101615137567 -1.0000000000002751,34.641016151375666 -1.5000000000002753,33.77499074759122 -1.0000000000002693,32.90896534380678 -1.5000000000002696,32.04293994002233 -1.0000000000002636,31.176914536237888 -2.5712765250318625e-13,31.17691453623789 0.49999999999974887,30.31088913245345 -2.5135449277513544e-13,29.444863728669006 -1.0000000000002578,29.444863728669002 -1.500000000000258,28.578838324884558 -2.5000000000002647,28.578838324884554 -3.000000000000271,29.444863728668995 -4.000000000000277,29.44486372866899 -4.500000000000277,28.578838324884547 -5.500000000000283,28.578838324884543 -6.0000000000002895,29.444863728668984 -5.5000000000002895,30.31088913245343 -6.000000000000296,31.17691453623787 -7.000000000000302,31.176914536237867 -7.500000000000308,32.04293994002231 -8.500000000000314,32.04293994002231 -9.000000000000314,31.176914536237863 -8.500000000000309,30.310889132453422 -9.000000000000309,29.444863728668977 -10.000000000000316,29.444863728668974 -10.500000000000316,28.57883832488453 -11.500000000000323,28.578838324884526 -12.00000000000033,29.444863728668967 -13.000000000000338,29.444863728668963 -13.500000000000338,28.57883832488452 -13.000000000000332,27.712812921100078 -13.500000000000332,26.846787517315633 -14.50000000000034,26.84678751731563 -15.00000000000034,25.980762113531185 -14.500000000000334,25.114736709746744 -15.000000000000334,24.2487113059623 -14.500000000000329,23.382685902177858 -13.500000000000322,23.38268590217786 -13.000000000000322,24.248711305962306 -12.000000000000314,24.24871130596231 -11.500000000000309,23.38268590217787 -10.500000000000302,23.382685902177872 -10.000000000000297,22.51666049839343 -10.500000000000297,21.650635094608987 -10.000000000000291,20.784609690824546 -9.000000000000284,20.78460969082455 -8.500000000000279,19.918584287040108 -9.000000000000279,19.052558883255664 -10.000000000000286,19.05255888325566 -10.500000000000286,18.186533479471215 -10.00000000000028,17.320508075686774 -10.50000000000028,16.45448267190233 -10.000000000000275,15.588457268117887 -9.000000000000268,15.58845726811789 -8.500000000000263,14.722431864333448 -9.000000000000263,13.856406460549001 -10.00000000000027,13.856406460548998 -10.50000000000027,12.990381056764551 -11.500000000000277,12.990381056764548 -12.000000000000284,13.85640646054899 -13.000000000000291,13.856406460548987 -13.500000000000291,12.99038105676454 -13.000000000000286,12.124355652980098 -13.500000000000286,11.258330249195652 -14.500000000000293,11.258330249195648 -15.000000000000293,10.392304845411202 -14.500000000000288,9.526279441626759 -15.000000000000288,8.660254037842313 -14.500000000000282,7.79422863405787 -13.500000000000275,7.794228634057873 -13.000000000000275,8.66025403784232 -12.000000000000268,8.660254037842323 -11.500000000000263,7.79422863405788 -10.500000000000256,7.794228634057884 -10.00000000000025,6.928203230273441 -10.50000000000025,6.062177826488995 -10.000000000000245,5.196152422704552 -9.000000000000238,5.1961524227045555 -8.500000000000233,4.330127018920113 -9.000000000000233,3.4641016151356667 -10.00000000000024,3.464101615135663 -10.50000000000024,2.5980762113512172 -10.000000000000234,1.7320508075667747 -10.500000000000234,0.8660254037823287 -10.00000000000023,-2.113864638886298e-12 -9.000000000000222,-2.1107560144173476e-12 -8.500000000000222,0.866025403782335 -7.500000000000216,0.866025403782338 -7.00000000000021,-2.1045387654794467e-12 -6.000000000000203,-2.1014301410104963e-12 -5.500000000000197,-0.866025403786544 -6.000000000000197,-1.73205080757099 -5.500000000000191,-2.5980762113554325 -4.500000000000185,-2.5980762113554294 -4.000000000000184,-1.7320508075709837 -3.0000000000001776,-1.7320508075709806 -2.5000000000001714,-2.598076211355423 -1.500000000000165,-2.59807621135542 -1.0000000000001643,-1.7320508075709744 -1.5787371410169726e-13,-1.7320508075709713 0.4999999999998428,-0.8660254037865256 -1.6298074001497298e-13,-2.0827783941967937e-12"/>
</svg>