<svg width="800" height="800" viewBox="-29.5 -9.66025403784439 32.0 19.320508075688792">
<polyline points="0,0 1,0 1.5,-0.8660254037844386 1.0000000000000002,-1.7320508075688774 1.5000000000000004,-2.598076211353316 1.0000000000000007,-3.464101615137755 6.661338147750939e-16,-3.4641016151377553 -0.49999999999999906,-4.3301270189221945 1.1657341758564144e-15,-5.196152422706633 -0.49999999999999856,-6.062177826491071 -1.4999999999999987,-6.062177826491071 -1.9999999999999991,-5.196152422706633 -2.999999999999999,-5.196152422706633 -3.499999999999999,-6.062177826491071 -4.499999999999999,-6.062177826491071 -4.999999999999999,-6.9282032302755105 -4.499999999999999,-7.794228634059949 -4.999999999999999,-8.660254037844387 -5.999999999999999,-8.660254037844387 -6.5,-7.794228634059949 -7.5,-7.794228634059949 -8.0,-6.9282032302755105 -7.500000000000001,-6.062177826491071 -8.000000000000002,-5.196152422706633 -9.000000000000002,-5.196152422706634 -9.500000000000002,-6.062177826491073 -10.500000000000002,-6.062177826491074 -11.000000000000002,-5.196152422706636 -12.000000000000002,-5.1961524227066365 -12.500000000000002,-6.062177826491075 -13.500000000000002,-6.062177826491076 -14.000000000000002,-6.928203230275514 -13.500000000000002,-7.7942286340599525 -14.000000000000002,-8.66025403784439 -15.000000000000002,-8.66025403784439 -15.500000000000002,-7.7942286340599525 -16.5,-7.7942286340599525 -17.0,-6.928203230275514 -16.5,-6.062177826491075 -17.0,-5.1961524227066365 -18.0,-5.196152422706637 -18.5,-4.330127018922199 -18.0,-3.4641016151377597 -17.0,-3.464101615137759 -16.5,-2.5980762113533196 -17.0,-1.7320508075688812 -16.5,-0.866025403784442 -17.0,-3.6637359812630166e-15 -18.0,-4.3298697960381105e-15 -18.5,-0.8660254037844433 -19.5,-0.8660254037844439 -20.0,-5.662137425588298e-15 -21.0,-6.2727600891321345e-15 -21.5,0.8660254037844319 -21.0,1.732050807568871 -21.5,2.5980762113533094 -22.5,2.598076211353309 -23.0,1.73205080756887 -24.0,1.7320508075688694 -24.5,2.5980762113533076 -25.5,2.598076211353307 -26.0,1.7320508075688683 -27.0,1.7320508075688676 -27.5,0.8660254037844287 -27.0,-9.769962616701378e-15 -28.0,-1.0547118733938987e-14 -28.5,0.8660254037844278 -28.0,1.7320508075688672 -28.5,2.5980762113533054 -28.0,3.4641016151377446 -27.0,3.464101615137746 -26.5,4.330127018922186 -27.0,5.196152422706624 -26.5,6.062177826491063 -25.5,6.062177826491064 -25.0,5.196152422706626 -24.0,5.196152422706627 -23.5,6.062177826491066 -22.5,6.062177826491068 -22.0,6.928203230275507 -22.5,7.794228634059945 -22.0,8.660254037844386 -21.0,8.660254037844387 -20.5,7.794228634059949 -19.5,7.794228634059951 -19.0,6.928203230275512 -19.5,6.062177826491072 -19.0,5.196152422706634 -18.0,5.196152422706636 -17.5,6.062177826491075 -16.5,6.062177826491077 -15.999999999999998,5.196152422706638 -14.999999999999998,5.19615242270664 -14.5,6.06217782649108 -13.5,6.062177826491082 -13.000000000000002,6.928203230275521 -13.500000000000004,7.79422863405996 -13.000000000000005,8.6602540378444 -12.000000000000005,8.660254037844402 -11.500000000000004,7.794228634059963 -10.500000000000004,7.794228634059965 -10.000000000000002,6.9282032302755265 -10.5,6.062177826491086 -9.999999999999998,5.196152422706648 -8.999999999999998,5.19615242270665 -8.499999999999996,4.330127018922211 -8.999999999999995,3.4641016151377713 -9.999999999999995,3.464101615137769 -10.499999999999993,2.5980762113533293 -9.999999999999991,1.7320508075688912 -10.49999999999999,0.8660254037844511 -9.999999999999988,1.2989609388114332e-14 -8.999999999999988,1.4654943925052066e-14 -8.49999999999999,0.8660254037844545 -7.499999999999989,0.8660254037844561 -6.999999999999988,1.8096635301390052e-14 -5.999999999999988,1.9817480989559044e-14 -5.499999999999986,-0.8660254037844182 -5.999999999999984,-1.732050807568858 -5.499999999999982,-2.5980762113532965 -4.499999999999982,-2.5980762113532947 -3.999999999999983,-1.732050807568855 -2.9999999999999827,-1.7320508075688532 -2.499999999999981,-2.598076211353291 -1.4999999999999805,-2.5980762113532894 -0.9999999999999816,-1.7320508075688497 1.887379141862766e-14,-1.7320508075688479 0.5000000000000178,-0.8660254037844081 1.6209256159527285e-14,3.0309088572266774e-14"/>
</svg>