<?xml version="1.0" encoding="utf-8"?>
<!-- Generator: Adobe Illustrator 19.1.0, SVG Export Plug-In . SVG Version: 6.00 Build 0)  -->
<!-- Author: IWABUCHI Yu(u)ki  -->
<svg version="1.1" id="svg" xmlns="http://www.w3.org/2000/svg" xmlns:xlink="http://www.w3.org/1999/xlink" x="0px" y="0px"
	 viewBox="0 0 800 800" style="enable-background:new 0 0 800 800;" xml:space="preserve">
<style type="text/css">
	.st0{fill-rule:evenodd;clip-rule:evenodd;}
	.st1{fill-rule:evenodd;clip-rule:evenodd;fill:#FF0000;}
</style>
<g id="g">
	<path id="bottom" class="st0" d="M192,442c0-1.3,0-2.7,0-4c1.3,0,2.7,0,4,0c0,1.3,0,2.7,0,4c1.3,0,2.7,0,4,0c0-1.3,0-2.7,0-4
		c1.3,0,2.7,0,4,0c0,1.3,0,2.7,0,4c1.3,0,2.7,0,4,0c0-1.3,0-2.7,0-4c1.3,0,2.7,0,4,0c0-2.7,0-5.3,0-8c-1.3,0-2.7,0-4,0
		c0,1.3,0,2.7,0,4c-1.3,0-2.7,0-4,0c0-2.7,0-5.3,0-8c1.3,0,2.7,0,4,0c0-1.3,0-2.7,0-4c1.3,0,2.7,0,4,0c0,1.3,0,2.7,0,4
		c1.3,0,2.7,0,4,0c0-1.3,0-2.7,0-4c1.3,0,2.7,0,4,0c0,4,0,8,0,12c1.3,0,2.7,0,4,0c0-1.3,0-2.7,0-4c1.3,0,2.7,0,4,0c0,4,0,8,0,12
		c1.3,0,2.7,0,4,0c0-1.3,0-2.7,0-4c1.3,0,2.7,0,4,0c0,1.3,0,2.7,0,4c1.3,0,2.7,0,4,0c0-1.3,0-2.7,0-4c1.3,0,2.7,0,4,0
		c0-2.7,0-5.3,0-8c-1.3,0-2.7,0-4,0c0,1.3,0,2.7,0,4c-1.3,0-2.7,0-4,0c0-2.7,0-5.3,0-8c1.3,0,2.7,0,4,0c0-1.3,0-2.7,0-4
		c1.3,0,2.7,0,4,0c0,1.3,0,2.7,0,4c1.3,0,2.7,0,4,0c0-1.3,0-2.7,0-4c1.3,0,2.7,0,4,0c0,4,0,8,0,12c1.3,0,2.7,0,4,0c0-1.3,0-2.7,0-4
		c1.3,0,2.7,0,4,0c0,4,0,8,0,12c1.3,0,2.7,0,4,0c0-1.3,0-2.7,0-4c1.3,0,2.7,0,4,0c0,1.3,0,2.7,0,4c1.3,0,2.7,0,4,0c0-1.3,0-2.7,0-4
		c1.3,0,2.7,0,4,0c0-2.7,0-5.3,0-8c-1.3,0-2.7,0-4,0c0,1.3,0,2.7,0,4c-1.3,0-2.7,0-4,0c0-2.7,0-5.3,0-8c1.3,0,2.7,0,4,0
		c0-1.3,0-2.7,0-4c1.3,0,2.7,0,4,0c0,1.3,0,2.7,0,4c1.3,0,2.7,0,4,0c0-1.3,0-2.7,0-4c1.3,0,2.7,0,4,0c0,1.3,0,2.7,0,4
		c1.3,0,2.7,0,4,0c0-1.3,0-2.7,0-4c1.3,0,2.7,0,4,0c0-2.7,0-5.3,0-8c-1.3,0-2.7,0-4,0c0,1.3,0,2.7,0,4c-1.3,0-2.7,0-4,0
		c0-2.7,0-5.3,0-8c1.3,0,2.7,0,4,0c0-1.3,0-2.7,0-4c1.3,0,2.7,0,4,0c0-2.7,0-5.3,0-8c-1.3,0-2.7,0-4,0c0,1.3,0,2.7,0,4
		c-1.3,0-2.7,0-4,0c0-4,0-8,0-12c-1.3,0-2.7,0-4,0c0,1.3,0,2.7,0,4c-1.3,0-2.7,0-4,0c0-1.3,0-2.7,0-4c-1.3,0-2.7,0-4,0
		c0,1.3,0,2.7,0,4c-1.3,0-2.7,0-4,0c0,2.7,0,5.3,0,8c1.3,0,2.7,0,4,0c0-1.3,0-2.7,0-4c1.3,0,2.7,0,4,0c0,2.7,0,5.3,0,8
		c-1.3,0-2.7,0-4,0c0,1.3,0,2.7,0,4c-1.3,0-2.7,0-4,0c0-1.3,0-2.7,0-4c-1.3,0-2.7,0-4,0c0,1.3,0,2.7,0,4c-1.3,0-2.7,0-4,0
		c0-4,0-8,0-12c-1.3,0-2.7,0-4,0c0,1.3,0,2.7,0,4c-1.3,0-2.7,0-4,0c0-2.7,0-5.3,0-8c1.3,0,2.7,0,4,0c0-1.3,0-2.7,0-4
		c1.3,0,2.7,0,4,0c0-2.7,0-5.3,0-8c-1.3,0-2.7,0-4,0c0,1.3,0,2.7,0,4c-1.3,0-2.7,0-4,0c0-2.7,0-5.3,0-8c1.3,0,2.7,0,4,0
		c0-1.3,0-2.7,0-4c1.3,0,2.7,0,4,0c0,1.3,0,2.7,0,4c1.3,0,2.7,0,4,0c0-1.3,0-2.7,0-4c1.3,0,2.7,0,4,0c0,1.3,0,2.7,0,4
		c1.3,0,2.7,0,4,0c0-1.3,0-2.7,0-4c1.3,0,2.7,0,4,0c0-2.7,0-5.3,0-8c-1.3,0-2.7,0-4,0c0,1.3,0,2.7,0,4c-1.3,0-2.7,0-4,0
		c0-2.7,0-5.3,0-8c1.3,0,2.7,0,4,0c0-1.3,0-2.7,0-4c1.3,0,2.7,0,4,0c0,1.3,0,2.7,0,4c1.3,0,2.7,0,4,0c0-1.3,0-2.7,0-4
		c1.3,0,2.7,0,4,0c0,4,0,8,0,12c1.3,0,2.7,0,4,0c0-1.3,0-2.7,0-4c1.3,0,2.7,0,4,0c0,4,0,8,0,12c1.3,0,2.7,0,4,0c0-1.3,0-2.7,0-4
		c1.3,0,2.7,0,4,0c0,1.3,0,2.7,0,4c1.3,0,2.7,0,4,0c0-1.3,0-2.7,0-4c1.3,0,2.7,0,4,0c0-2.7,0-5.3,0-8c-1.3,0-2.7,0-4,0
		c0,1.3,0,2.7,0,4c-1.3,0-2.7,0-4,0c0-2.7,0-5.3,0-8c1.3,0,2.7,0,4,0c0-1.3,0-2.7,0-4c1.3,0,2.7,0,4,0c0,1.3,0,2.7,0,4
		c1.3,0,2.7,0,4,0c0-1.3,0-2.7,0-4c1.3,0,2.7,0,4,0c0,4,0,8,0,12c1.3,0,2.7,0,4,0c0-1.3,0-2.7,0-4c1.3,0,2.7,0,4,0c0,2.7,0,5.3,0,8
		c-1.3,0-2.7,0-4,0c0,1.3,0,2.7,0,4c-1.3,0-2.7,0-4,0c0,2.7,0,5.3,0,8c1.3,0,2.7,0,4,0c0-1.3,0-2.7,0-4c1.3,0,2.7,0,4,0
		c0,2.7,0,5.3,0,8c-1.3,0-2.7,0-4,0c0,1.3,0,2.7,0,4c-1.3,0-2.7,0-4,0c0,2.7,0,5.3,0,8c1.3,0,2.7,0,4,0c0-1.3,0-2.7,0-4
		c1.3,0,2.7,0,4,0c0,4,0,8,0,12c1.3,0,2.7,0,4,0c0-1.3,0-2.7,0-4c1.3,0,2.7,0,4,0c0,1.3,0,2.7,0,4c1.3,0,2.7,0,4,0c0-1.3,0-2.7,0-4
		c1.3,0,2.7,0,4,0c0-2.7,0-5.3,0-8c-1.3,0-2.7,0-4,0c0,1.3,0,2.7,0,4c-1.3,0-2.7,0-4,0c0-2.7,0-5.3,0-8c1.3,0,2.7,0,4,0
		c0-1.3,0-2.7,0-4c1.3,0,2.7,0,4,0c0,1.3,0,2.7,0,4c1.3,0,2.7,0,4,0c0-1.3,0-2.7,0-4c1.3,0,2.7,0,4,0c0,4,0,8,0,12c1.3,0,2.7,0,4,0
		c0-1.3,0-2.7,0-4c1.3,0,2.7,0,4,0c0,2.7,0,5.3,0,8c-1.3,0-2.7,0-4,0c0,1.3,0,2.7,0,4c-1.3,0-2.7,0-4,0c0,2.7,0,5.3,0,8
		c1.3,0,2.7,0,4,0c0-1.3,0-2.7,0-4c1.3,0,2.7,0,4,0c0,2.7,0,5.3,0,8c-1.3,0-2.7,0-4,0c0,1.3,0,2.7,0,4c-1.3,0-2.7,0-4,0
		c0,2.7,0,5.3,0,8c1.3,0,2.7,0,4,0c0-1.3,0-2.7,0-4c1.3,0,2.7,0,4,0c0,4,0,8,0,12c1.3,0,2.7,0,4,0c0-1.3,0-2.7,0-4c1.3,0,2.7,0,4,0
		c0,1.3,0,2.7,0,4c1.3,0,2.7,0,4,0c0-1.3,0-2.7,0-4c1.3,0,2.7,0,4,0c0-2.7,0-5.3,0-8c-1.3,0-2.7,0-4,0c0,1.3,0,2.7,0,4
		c-1.3,0-2.7,0-4,0c0-2.7,0-5.3,0-8c1.3,0,2.7,0,4,0c0-1.3,0-2.7,0-4c1.3,0,2.7,0,4,0c0,1.3,0,2.7,0,4c1.3,0,2.7,0,4,0
		c0-1.3,0-2.7,0-4c1.3,0,2.7,0,4,0c0,4,0,8,0,12c1.3,0,2.7,0,4,0c0-1.3,0-2.7,0-4c1.3,0,2.7,0,4,0c0,4,0,8,0,12c1.3,0,2.7,0,4,0
		c0-1.3,0-2.7,0-4c1.3,0,2.7,0,4,0c0,1.3,0,2.7,0,4c1.3,0,2.7,0,4,0c0-1.3,0-2.7,0-4c1.3,0,2.7,0,4,0c0-2.7,0-5.3,0-8
		c-1.3,0-2.7,0-4,0c0,1.3,0,2.7,0,4c-1.3,0-2.7,0-4,0c0-2.7,0-5.3,0-8c1.3,0,2.7,0,4,0c0-1.3,0-2.7,0-4c1.3,0,2.7,0,4,0
		c0,1.3,0,2.7,0,4c1.3,0,2.7,0,4,0c0-1.3,0-2.7,0-4c1.3,0,2.7,0,4,0c0,1.3,0,2.7,0,4c1.3,0,2.7,0,4,0c0-1.3,0-2.7,0-4
		c1.3,0,2.7,0,4,0c0-2.7,0-5.3,0-8c-1.3,0-2.7,0-4,0c0,1.3,0,2.7,0,4c-1.3,0-2.7,0-4,0c0-2.7,0-5.3,0-8c1.3,0,2.7,0,4,0
		c0-1.3,0-2.7,0-4c1.3,0,2.7,0,4,0c0-2.7,0-5.3,0-8c-1.3,0-2.7,0-4,0c0,1.3,0,2.7,0,4c-1.3,0-2.7,0-4,0c0-4,0-8,0-12
		c-1.3,0-2.7,0-4,0c0,1.3,0,2.7,0,4c-1.3,0-2.7,0-4,0c0-1.3,0-2.7,0-4c-1.3,0-2.7,0-4,0c0,1.3,0,2.7,0,4c-1.3,0-2.7,0-4,0
		c0,2.7,0,5.3,0,8c1.3,0,2.7,0,4,0c0-1.3,0-2.7,0-4c1.3,0,2.7,0,4,0c0,2.7,0,5.3,0,8c-1.3,0-2.7,0-4,0c0,1.3,0,2.7,0,4
		c-1.3,0-2.7,0-4,0c0-1.3,0-2.7,0-4c-1.3,0-2.7,0-4,0c0,1.3,0,2.7,0,4c-1.3,0-2.7,0-4,0c0-4,0-8,0-12c-1.3,0-2.7,0-4,0
		c0,1.3,0,2.7,0,4c-1.3,0-2.7,0-4,0c0-2.7,0-5.3,0-8c1.3,0,2.7,0,4,0c0-1.3,0-2.7,0-4c1.3,0,2.7,0,4,0c0-2.7,0-5.3,0-8
		c-1.3,0-2.7,0-4,0c0,1.3,0,2.7,0,4c-1.3,0-2.7,0-4,0c0-2.7,0-5.3,0-8c1.3,0,2.7,0,4,0c0-1.3,0-2.7,0-4c1.3,0,2.7,0,4,0
		c0,1.3,0,2.7,0,4c1.3,0,2.7,0,4,0c0-1.3,0-2.7,0-4c1.3,0,2.7,0,4,0c0,1.3,0,2.7,0,4c1.3,0,2.7,0,4,0c0-1.3,0-2.7,0-4
		c1.3,0,2.7,0,4,0c0-2.7,0-5.3,0-8c-1.3,0-2.7,0-4,0c0,1.3,0,2.7,0,4c-1.3,0-2.7,0-4,0c0-2.7,0-5.3,0-8c1.3,0,2.7,0,4,0
		c0-1.3,0-2.7,0-4c1.3,0,2.7,0,4,0c0,1.3,0,2.7,0,4c1.3,0,2.7,0,4,0c0-1.3,0-2.7,0-4c1.3,0,2.7,0,4,0c0,4,0,8,0,12c1.3,0,2.7,0,4,0
		c0-1.3,0-2.7,0-4c1.3,0,2.7,0,4,0c0,4,0,8,0,12c1.3,0,2.7,0,4,0c0-1.3,0-2.7,0-4c1.3,0,2.7,0,4,0c0,1.3,0,2.7,0,4c1.3,0,2.7,0,4,0
		c0-1.3,0-2.7,0-4c1.3,0,2.7,0,4,0c0-2.7,0-5.3,0-8c-1.3,0-2.7,0-4,0c0,1.3,0,2.7,0,4c-1.3,0-2.7,0-4,0c0-2.7,0-5.3,0-8
		c1.3,0,2.7,0,4,0c0-1.3,0-2.7,0-4c1.3,0,2.7,0,4,0c0,1.3,0,2.7,0,4c1.3,0,2.7,0,4,0c0-1.3,0-2.7,0-4c1.3,0,2.7,0,4,0c0,4,0,8,0,12
		c1.3,0,2.7,0,4,0c0-1.3,0-2.7,0-4c1.3,0,2.7,0,4,0c0,2.7,0,5.3,0,8c-1.3,0-2.7,0-4,0c0,1.3,0,2.7,0,4c-1.3,0-2.7,0-4,0
		c0,2.7,0,5.3,0,8c1.3,0,2.7,0,4,0c0-1.3,0-2.7,0-4c1.3,0,2.7,0,4,0c0,2.7,0,5.3,0,8c-1.3,0-2.7,0-4,0c0,1.3,0,2.7,0,4
		c-1.3,0-2.7,0-4,0c0,2.7,0,5.3,0,8c1.3,0,2.7,0,4,0c0-1.3,0-2.7,0-4c1.3,0,2.7,0,4,0c0,4,0,8,0,12c1.3,0,2.7,0,4,0c0-1.3,0-2.7,0-4
		c1.3,0,2.7,0,4,0c0,1.3,0,2.7,0,4c1.3,0,2.7,0,4,0c0-1.3,0-2.7,0-4c1.3,0,2.7,0,4,0c0-2.7,0-5.3,0-8c-1.3,0-2.7,0-4,0
		c0,1.3,0,2.7,0,4c-1.3,0-2.7,0-4,0c0-2.7,0-5.3,0-8c1.3,0,2.7,0,4,0c0-1.3,0-2.7,0-4c1.3,0,2.7,0,4,0c0,1.3,0,2.7,0,4
		c1.3,0,2.7,0,4,0c0-1.3,0-2.7,0-4c1.3,0,2.7,0,4,0c0,4,0,8,0,12c1.3,0,2.7,0,4,0c0-1.3,0-2.7,0-4c1.3,0,2.7,0,4,0c0,2.7,0,5.3,0,8
		c-1.3,0-2.7,0-4,0c0,1.3,0,2.7,0,4c-1.3,0-2.7,0-4,0c0,2.7,0,5.3,0,8c1.3,0,2.7,0,4,0c0-1.3,0-2.7,0-4c1.3,0,2.7,0,4,0
		c0,2.7,0,5.3,0,8c-1.3,0-2.7,0-4,0c0,1.3,0,2.7,0,4c-1.3,0-2.7,0-4,0c0,2.7,0,5.3,0,8c1.3,0,2.7,0,4,0c0-1.3,0-2.7,0-4
		c1.3,0,2.7,0,4,0c0,4,0,8,0,12c1.3,0,2.7,0,4,0c0-1.3,0-2.7,0-4c1.3,0,2.7,0,4,0c0,1.3,0,2.7,0,4c1.3,0,2.7,0,4,0c0-1.3,0-2.7,0-4
		c1.3,0,2.7,0,4,0c0-2.7,0-5.3,0-8c-1.3,0-2.7,0-4,0c0,1.3,0,2.7,0,4c-1.3,0-2.7,0-4,0c0-2.7,0-5.3,0-8c1.3,0,2.7,0,4,0
		c0-1.3,0-2.7,0-4c1.3,0,2.7,0,4,0c0,1.3,0,2.7,0,4c1.3,0,2.7,0,4,0c0-1.3,0-2.7,0-4c1.3,0,2.7,0,4,0c0,4,0,8,0,12c1.3,0,2.7,0,4,0
		c0-1.3,0-2.7,0-4c1.3,0,2.7,0,4,0c0,4,0,8,0,12c1.3,0,2.7,0,4,0c0-1.3,0-2.7,0-4c1.3,0,2.7,0,4,0c0,1.3,0,2.7,0,4c1.3,0,2.7,0,4,0
		c0-1.3,0-2.7,0-4c1.3,0,2.7,0,4,0c0-2.7,0-5.3,0-8c-1.3,0-2.7,0-4,0c0,1.3,0,2.7,0,4c-1.3,0-2.7,0-4,0c0-2.7,0-5.3,0-8
		c1.3,0,2.7,0,4,0c0-1.3,0-2.7,0-4c1.3,0,2.7,0,4,0c0,1.3,0,2.7,0,4c1.3,0,2.7,0,4,0c0-1.3,0-2.7,0-4c1.3,0,2.7,0,4,0
		c0,1.3,0,2.7,0,4c1.3,0,2.7,0,4,0c0-1.3,0-2.7,0-4c1.3,0,2.7,0,4,0c0-2.7,0-5.3,0-8c-1.3,0-2.7,0-4,0c0,1.3,0,2.7,0,4
		c-1.3,0-2.7,0-4,0c0-2.7,0-5.3,0-8c1.3,0,2.7,0,4,0c0-1.3,0-2.7,0-4c1.3,0,2.7,0,4,0c0-2.7,0-5.3,0-8c-1.3,0-2.7,0-4,0
		c0,1.3,0,2.7,0,4c-1.3,0-2.7,0-4,0c0-4,0-8,0-12c-1.3,0-2.7,0-4,0c0,1.3,0,2.7,0,4c-1.3,0-2.7,0-4,0c0-1.3,0-2.7,0-4
		c-1.3,0-2.7,0-4,0c0,1.3,0,2.7,0,4c-1.3,0-2.7,0-4,0c0,2.7,0,5.3,0,8c1.3,0,2.7,0,4,0c0-1.3,0-2.7,0-4c1.3,0,2.7,0,4,0
		c0,2.7,0,5.3,0,8c-1.3,0-2.7,0-4,0c0,1.3,0,2.7,0,4c-1.3,0-2.7,0-4,0c0-1.3,0-2.7,0-4c-1.3,0-2.7,0-4,0c0,1.3,0,2.7,0,4
		c-1.3,0-2.7,0-4,0c0-4,0-8,0-12c-1.3,0-2.7,0-4,0c0,1.3,0,2.7,0,4c-1.3,0-2.7,0-4,0c0-2.7,0-5.3,0-8c1.3,0,2.7,0,4,0
		c0-1.3,0-2.7,0-4c1.3,0,2.7,0,4,0c0-2.7,0-5.3,0-8c-1.3,0-2.7,0-4,0c0,1.3,0,2.7,0,4c-1.3,0-2.7,0-4,0c0-2.7,0-5.3,0-8
		c1.3,0,2.7,0,4,0c0-1.3,0-2.7,0-4c1.3,0,2.7,0,4,0c0,1.3,0,2.7,0,4c1.3,0,2.7,0,4,0c0-1.3,0-2.7,0-4c1.3,0,2.7,0,4,0
		c0,1.3,0,2.7,0,4c1.3,0,2.7,0,4,0c0-1.3,0-2.7,0-4c1.3,0,2.7,0,4,0c0-2.7,0-5.3,0-8c-1.3,0-2.7,0-4,0c0,1.3,0,2.7,0,4
		c-1.3,0-2.7,0-4,0c0-2.7,0-5.3,0-8c1.3,0,2.7,0,4,0c0-1.3,0-2.7,0-4c1.3,0,2.7,0,4,0c0,1.3,0,2.7,0,4c1.3,0,2.7,0,4,0
		c0-1.3,0-2.7,0-4c1.3,0,2.7,0,4,0c0,4,0,8,0,12c1.3,0,2.7,0,4,0c0-1.3,0-2.7,0-4c1.3,0,2.7,0,4,0c0,4,0,8,0,12c1.3,0,2.7,0,4,0
		c0-1.3,0-2.7,0-4c1.3,0,2.7,0,4,0c0,1.3,0,2.7,0,4c1.3,0,2.7,0,4,0c0-1.3,0-2.7,0-4c1.3,0,2.7,0,4,0c0-2.7,0-5.3,0-8
		c-1.3,0-2.7,0-4,0c0,1.3,0,2.7,0,4c-1.3,0-2.7,0-4,0c0-2.7,0-5.3,0-8c1.3,0,2.7,0,4,0c0-1.3,0-2.7,0-4c1.3,0,2.7,0,4,0
		c0,1.3,0,2.7,0,4c1.3,0,2.7,0,4,0c0-1.3,0-2.7,0-4c1.3,0,2.7,0,4,0c0,4,0,8,0,12c1.3,0,2.7,0,4,0c0-1.3,0-2.7,0-4c1.3,0,2.7,0,4,0
		c0,4,0,8,0,12c1.3,0,2.7,0,4,0c0-1.3,0-2.7,0-4c1.3,0,2.7,0,4,0c0,1.3,0,2.7,0,4c1.3,0,2.7,0,4,0c0-1.3,0-2.7,0-4c1.3,0,2.7,0,4,0
		c0-2.7,0-5.3,0-8c-1.3,0-2.7,0-4,0c0,1.3,0,2.7,0,4c-1.3,0-2.7,0-4,0c0-2.7,0-5.3,0-8c1.3,0,2.7,0,4,0c0-1.3,0-2.7,0-4
		c1.3,0,2.7,0,4,0c0,1.3,0,2.7,0,4c1.3,0,2.7,0,4,0c0-1.3,0-2.7,0-4c1.3,0,2.7,0,4,0c0,1.3,0,2.7,0,4c1.3,0,2.7,0,4,0
		c0-1.3,0-2.7,0-4c1.3,0,2.7,0,4,0c0-2.7,0-5.3,0-8c-1.3,0-2.7,0-4,0c0,1.3,0,2.7,0,4c-1.3,0-2.7,0-4,0c0-2.7,0-5.3,0-8
		c1.3,0,2.7,0,4,0c0-1.3,0-2.7,0-4c1.3,0,2.7,0,4,0c0-2.7,0-5.3,0-8c-1.3,0-2.7,0-4,0c0,1.3,0,2.7,0,4c-1.3,0-2.7,0-4,0
		c0-4,0-8,0-12c-1.3,0-2.7,0-4,0c0,1.3,0,2.7,0,4c-1.3,0-2.7,0-4,0c0-1.3,0-2.7,0-4c-1.3,0-2.7,0-4,0c0,1.3,0,2.7,0,4
		c-1.3,0-2.7,0-4,0c0,2.7,0,5.3,0,8c1.3,0,2.7,0,4,0c0-1.3,0-2.7,0-4c1.3,0,2.7,0,4,0c0,2.7,0,5.3,0,8c-1.3,0-2.7,0-4,0
		c0,1.3,0,2.7,0,4c-1.3,0-2.7,0-4,0c0-1.3,0-2.7,0-4c-1.3,0-2.7,0-4,0c0,1.3,0,2.7,0,4c-1.3,0-2.7,0-4,0c0-4,0-8,0-12
		c-1.3,0-2.7,0-4,0c0,1.3,0,2.7,0,4c-1.3,0-2.7,0-4,0c0-2.7,0-5.3,0-8c1.3,0,2.7,0,4,0c0-1.3,0-2.7,0-4c1.3,0,2.7,0,4,0
		c0-2.7,0-5.3,0-8c-1.3,0-2.7,0-4,0c0,1.3,0,2.7,0,4c-1.3,0-2.7,0-4,0c0-2.7,0-5.3,0-8c1.3,0,2.7,0,4,0c0-1.3,0-2.7,0-4
		c1.3,0,2.7,0,4,0c0,1.3,0,2.7,0,4c1.3,0,2.7,0,4,0c0-1.3,0-2.7,0-4c1.3,0,2.7,0,4,0c0,1.3,0,2.7,0,4c1.3,0,2.7,0,4,0
		c0-1.3,0-2.7,0-4c1.3,0,2.7,0,4,0c0-2.7,0-5.3,0-8c-1.3,0-2.7,0-4,0c0,1.3,0,2.7,0,4c-1.3,0-2.7,0-4,0c0-2.7,0-5.3,0-8
		c1.3,0,2.7,0,4,0c0-1.3,0-2.7,0-4c1.3,0,2.7,0,4,0c0,1.3,0,2.7,0,4c1.3,0,2.7,0,4,0c0-1.3,0-2.7,0-4c1.3,0,2.7,0,4,0
		c0,1.3,0,2.7,0,4c1.3,0,2.7,0,4,0c0-1.3,0-2.7,0-4c1.3,0,2.7,0,4,0c0-2.7,0-5.3,0-8c-1.3,0-2.7,0-4,0c0,1.3,0,2.7,0,4
		c-1.3,0-2.7,0-4,0c0-2.7,0-5.3,0-8c1.3,0,2.7,0,4,0c0-1.3,0-2.7,0-4c1.3,0,2.7,0,4,0c0-2.7,0-5.3,0-8c-1.3,0-2.7,0-4,0
		c0,1.3,0,2.7,0,4c-1.3,0-2.7,0-4,0c0-4,0-8,0-12c-1.3,0-2.7,0-4,0c0,1.3,0,2.7,0,4c-1.3,0-2.7,0-4,0c0-1.3,0-2.7,0-4
		c-1.3,0-2.7,0-4,0c0,1.3,0,2.7,0,4c-1.3,0-2.7,0-4,0c0,2.7,0,5.3,0,8c1.3,0,2.7,0,4,0c0-1.3,0-2.7,0-4c1.3,0,2.7,0,4,0
		c0,2.7,0,5.3,0,8c-1.3,0-2.7,0-4,0c0,1.3,0,2.7,0,4c-1.3,0-2.7,0-4,0c0-1.3,0-2.7,0-4c-1.3,0-2.7,0-4,0c0,1.3,0,2.7,0,4
		c-1.3,0-2.7,0-4,0c0-4,0-8,0-12c-1.3,0-2.7,0-4,0c0,1.3,0,2.7,0,4c-1.3,0-2.7,0-4,0c0-2.7,0-5.3,0-8c1.3,0,2.7,0,4,0
		c0-1.3,0-2.7,0-4c1.3,0,2.7,0,4,0c0-2.7,0-5.3,0-8c-1.3,0-2.7,0-4,0c0,1.3,0,2.7,0,4c-1.3,0-2.7,0-4,0c0-2.7,0-5.3,0-8
		c1.3,0,2.7,0,4,0c0-1.3,0-2.7,0-4c1.3,0,2.7,0,4,0c0-2.7,0-5.3,0-8c-1.3,0-2.7,0-4,0c0,1.3,0,2.7,0,4c-1.3,0-2.7,0-4,0
		c0-4,0-8,0-12c-1.3,0-2.7,0-4,0c0,1.3,0,2.7,0,4c-1.3,0-2.7,0-4,0c0-1.3,0-2.7,0-4c-1.3,0-2.7,0-4,0c0,1.3,0,2.7,0,4
		c-1.3,0-2.7,0-4,0c0,2.7,0,5.3,0,8c1.3,0,2.7,0,4,0c0-1.3,0-2.7,0-4c1.3,0,2.7,0,4,0c0,2.7,0,5.3,0,8c-1.3,0-2.7,0-4,0
		c0,1.3,0,2.7,0,4c-1.3,0-2.7,0-4,0c0-1.3,0-2.7,0-4c-1.3,0-2.7,0-4,0c0,1.3,0,2.7,0,4c-1.3,0-2.7,0-4,0c0-4,0-8,0-12
		c-1.3,0-2.7,0-4,0c0,1.3,0,2.7,0,4c-1.3,0-2.7,0-4,0c0-4,0-8,0-12c-1.3,0-2.7,0-4,0c0,1.3,0,2.7,0,4c-1.3,0-2.7,0-4,0
		c0-1.3,0-2.7,0-4c-1.3,0-2.7,0-4,0c0,1.3,0,2.7,0,4c-1.3,0-2.7,0-4,0c0,2.7,0,5.3,0,8c1.3,0,2.7,0,4,0c0-1.3,0-2.7,0-4
		c1.3,0,2.7,0,4,0c0,2.7,0,5.3,0,8c-1.3,0-2.7,0-4,0c0,1.3,0,2.7,0,4c-1.3,0-2.7,0-4,0c0-1.3,0-2.7,0-4c-1.3,0-2.7,0-4,0
		c0,1.3,0,2.7,0,4c-1.3,0-2.7,0-4,0c0-1.3,0-2.7,0-4c-1.3,0-2.7,0-4,0c0,1.3,0,2.7,0,4c-1.3,0-2.7,0-4,0c0,2.7,0,5.3,0,8
		c1.3,0,2.7,0,4,0c0-1.3,0-2.7,0-4c1.3,0,2.7,0,4,0c0,2.7,0,5.3,0,8c-1.3,0-2.7,0-4,0c0,1.3,0,2.7,0,4c-1.3,0-2.7,0-4,0
		c0,2.7,0,5.3,0,8c1.3,0,2.7,0,4,0c0-1.3,0-2.7,0-4c1.3,0,2.7,0,4,0c0,4,0,8,0,12c1.3,0,2.7,0,4,0c0-1.3,0-2.7,0-4c1.3,0,2.7,0,4,0
		c0,1.3,0,2.7,0,4c1.3,0,2.7,0,4,0c0-1.3,0-2.7,0-4c1.3,0,2.7,0,4,0c0-2.7,0-5.3,0-8c-1.3,0-2.7,0-4,0c0,0.7,0,1.3,0,2
		c-0.7,0-1.3,0-2,0c0-1.3,0-2.7,0-4c2.7,0,5.3,0,8,0c0,1.3,0,2.7,0,4c1.3,0,2.7,0,4,0c0,1.3,0,2.7,0,4c-1.3,0-2.7,0-4,0
		c0,1.3,0,2.7,0,4c1.3,0,2.7,0,4,0c0,1.3,0,2.7,0,4c-4,0-8,0-12,0c0,1.3,0,2.7,0,4c1.3,0,2.7,0,4,0c0,1.3,0,2.7,0,4
		c-2.7,0-5.3,0-8,0c0-1.3,0-2.7,0-4c-1.3,0-2.7,0-4,0c0-1.3,0-2.7,0-4c-2.7,0-5.3,0-8,0c0,1.3,0,2.7,0,4c1.3,0,2.7,0,4,0
		c0,1.3,0,2.7,0,4c-2.7,0-5.3,0-8,0c0-1.3,0-2.7,0-4c-1.3,0-2.7,0-4,0c0-1.3,0-2.7,0-4c1.3,0,2.7,0,4,0c0-1.3,0-2.7,0-4
		c-1.3,0-2.7,0-4,0c0-1.3,0-2.7,0-4c1.3,0,2.7,0,4,0c0-1.3,0-2.7,0-4c-1.3,0-2.7,0-4,0c0-1.3,0-2.7,0-4c-2.7,0-5.3,0-8,0
		c0,1.3,0,2.7,0,4c1.3,0,2.7,0,4,0c0,1.3,0,2.7,0,4c-2.7,0-5.3,0-8,0c0-1.3,0-2.7,0-4c-1.3,0-2.7,0-4,0c0-1.3,0-2.7,0-4
		c1.3,0,2.7,0,4,0c0-1.3,0-2.7,0-4c-1.3,0-2.7,0-4,0c0-1.3,0-2.7,0-4c4,0,8,0,12,0c0-1.3,0-2.7,0-4c-1.3,0-2.7,0-4,0
		c0-1.3,0-2.7,0-4c4,0,8,0,12,0c0-1.3,0-2.7,0-4c-1.3,0-2.7,0-4,0c0-1.3,0-2.7,0-4c1.3,0,2.7,0,4,0c0-1.3,0-2.7,0-4
		c-1.3,0-2.7,0-4,0c0-1.3,0-2.7,0-4c-2.7,0-5.3,0-8,0c0,1.3,0,2.7,0,4c1.3,0,2.7,0,4,0c0,1.3,0,2.7,0,4c-2.7,0-5.3,0-8,0
		c0-1.3,0-2.7,0-4c-1.3,0-2.7,0-4,0c0-1.3,0-2.7,0-4c1.3,0,2.7,0,4,0c0-1.3,0-2.7,0-4c-1.3,0-2.7,0-4,0c0-1.3,0-2.7,0-4
		c4,0,8,0,12,0c0-1.3,0-2.7,0-4c-1.3,0-2.7,0-4,0c0-1.3,0-2.7,0-4c2.7,0,5.3,0,8,0c0,1.3,0,2.7,0,4c1.3,0,2.7,0,4,0c0,1.3,0,2.7,0,4
		c2.7,0,5.3,0,8,0c0-1.3,0-2.7,0-4c-1.3,0-2.7,0-4,0c0-1.3,0-2.7,0-4c2.7,0,5.3,0,8,0c0,1.3,0,2.7,0,4c1.3,0,2.7,0,4,0
		c0,1.3,0,2.7,0,4c2.7,0,5.3,0,8,0c0-1.3,0-2.7,0-4c-1.3,0-2.7,0-4,0c0-1.3,0-2.7,0-4c4,0,8,0,12,0c0-1.3,0-2.7,0-4
		c-1.3,0-2.7,0-4,0c0-1.3,0-2.7,0-4c1.3,0,2.7,0,4,0c0-1.3,0-2.7,0-4c-1.3,0-2.7,0-4,0c0-1.3,0-2.7,0-4c-2.7,0-5.3,0-8,0
		c0,1.3,0,2.7,0,4c1.3,0,2.7,0,4,0c0,1.3,0,2.7,0,4c-2.7,0-5.3,0-8,0c0-1.3,0-2.7,0-4c-1.3,0-2.7,0-4,0c0-1.3,0-2.7,0-4
		c1.3,0,2.7,0,4,0c0-1.3,0-2.7,0-4c-1.3,0-2.7,0-4,0c0-1.3,0-2.7,0-4c4,0,8,0,12,0c0-1.3,0-2.7,0-4c-1.3,0-2.7,0-4,0
		c0-1.3,0-2.7,0-4c2.7,0,5.3,0,8,0c0,1.3,0,2.7,0,4c1.3,0,2.7,0,4,0c0,1.3,0,2.7,0,4c2.7,0,5.3,0,8,0c0-1.3,0-2.7,0-4
		c-1.3,0-2.7,0-4,0c0-1.3,0-2.7,0-4c2.7,0,5.3,0,8,0c0,1.3,0,2.7,0,4c1.3,0,2.7,0,4,0c0,1.3,0,2.7,0,4c-1.3,0-2.7,0-4,0
		c0,1.3,0,2.7,0,4c1.3,0,2.7,0,4,0c0,1.3,0,2.7,0,4c-1.3,0-2.7,0-4,0c0,1.3,0,2.7,0,4c1.3,0,2.7,0,4,0c0,1.3,0,2.7,0,4
		c2.7,0,5.3,0,8,0c0-1.3,0-2.7,0-4c-1.3,0-2.7,0-4,0c0-1.3,0-2.7,0-4c2.7,0,5.3,0,8,0c0,1.3,0,2.7,0,4c1.3,0,2.7,0,4,0
		c0,1.3,0,2.7,0,4c-1.3,0-2.7,0-4,0c0,1.3,0,2.7,0,4c1.3,0,2.7,0,4,0c0,1.3,0,2.7,0,4c-1.3,0-2.7,0-4,0c0,1.3,0,2.7,0,4
		c1.3,0,2.7,0,4,0c0,1.3,0,2.7,0,4c2.7,0,5.3,0,8,0c0-1.3,0-2.7,0-4c-1.3,0-2.7,0-4,0c0-1.3,0-2.7,0-4c2.7,0,5.3,0,8,0
		c0,1.3,0,2.7,0,4c1.3,0,2.7,0,4,0c0,1.3,0,2.7,0,4c2.7,0,5.3,0,8,0c0-1.3,0-2.7,0-4c-1.3,0-2.7,0-4,0c0-1.3,0-2.7,0-4c4,0,8,0,12,0
		c0-1.3,0-2.7,0-4c-1.3,0-2.7,0-4,0c0-1.3,0-2.7,0-4c1.3,0,2.7,0,4,0c0-1.3,0-2.7,0-4c-1.3,0-2.7,0-4,0c0-1.3,0-2.7,0-4
		c-2.7,0-5.3,0-8,0c0,1.3,0,2.7,0,4c1.3,0,2.7,0,4,0c0,1.3,0,2.7,0,4c-2.7,0-5.3,0-8,0c0-1.3,0-2.7,0-4c-1.3,0-2.7,0-4,0
		c0-1.3,0-2.7,0-4c1.3,0,2.7,0,4,0c0-1.3,0-2.7,0-4c-1.3,0-2.7,0-4,0c0-1.3,0-2.7,0-4c4,0,8,0,12,0c0-1.3,0-2.7,0-4
		c-1.3,0-2.7,0-4,0c0-1.3,0-2.7,0-4c2.7,0,5.3,0,8,0c0,1.3,0,2.7,0,4c1.3,0,2.7,0,4,0c0,1.3,0,2.7,0,4c2.7,0,5.3,0,8,0
		c0-1.3,0-2.7,0-4c-1.3,0-2.7,0-4,0c0-1.3,0-2.7,0-4c2.7,0,5.3,0,8,0c0,1.3,0,2.7,0,4c1.3,0,2.7,0,4,0c0,1.3,0,2.7,0,4
		c-1.3,0-2.7,0-4,0c0,1.3,0,2.7,0,4c1.3,0,2.7,0,4,0c0,1.3,0,2.7,0,4c-1.3,0-2.7,0-4,0c0,1.3,0,2.7,0,4c1.3,0,2.7,0,4,0
		c0,1.3,0,2.7,0,4c2.7,0,5.3,0,8,0c0-1.3,0-2.7,0-4c-1.3,0-2.7,0-4,0c0-1.3,0-2.7,0-4c2.7,0,5.3,0,8,0c0,1.3,0,2.7,0,4
		c1.3,0,2.7,0,4,0c0,1.3,0,2.7,0,4c-1.3,0-2.7,0-4,0c0,1.3,0,2.7,0,4c1.3,0,2.7,0,4,0c0,1.3,0,2.7,0,4c-4,0-8,0-12,0
		c0,1.3,0,2.7,0,4c1.3,0,2.7,0,4,0c0,1.3,0,2.7,0,4c-4,0-8,0-12,0c0,1.3,0,2.7,0,4c1.3,0,2.7,0,4,0c0,1.3,0,2.7,0,4
		c-1.3,0-2.7,0-4,0c0,1.3,0,2.7,0,4c1.3,0,2.7,0,4,0c0,1.3,0,2.7,0,4c2.7,0,5.3,0,8,0c0-1.3,0-2.7,0-4c-1.3,0-2.7,0-4,0
		c0-1.3,0-2.7,0-4c2.7,0,5.3,0,8,0c0,1.3,0,2.7,0,4c1.3,0,2.7,0,4,0c0,1.3,0,2.7,0,4c-1.3,0-2.7,0-4,0c0,1.3,0,2.7,0,4
		c1.3,0,2.7,0,4,0c0,1.3,0,2.7,0,4c-4,0-8,0-12,0c0,1.3,0,2.7,0,4c1.3,0,2.7,0,4,0c0,1.3,0,2.7,0,4c-4,0-8,0-12,0c0,1.3,0,2.7,0,4
		c1.3,0,2.7,0,4,0c0,1.3,0,2.7,0,4c-1.3,0-2.7,0-4,0c0,1.3,0,2.7,0,4c1.3,0,2.7,0,4,0c0,1.3,0,2.7,0,4c2.7,0,5.3,0,8,0
		c0-1.3,0-2.7,0-4c-1.3,0-2.7,0-4,0c0-1.3,0-2.7,0-4c2.7,0,5.3,0,8,0c0,1.3,0,2.7,0,4c1.3,0,2.7,0,4,0c0,1.3,0,2.7,0,4
		c-1.3,0-2.7,0-4,0c0,1.3,0,2.7,0,4c1.3,0,2.7,0,4,0c0,1.3,0,2.7,0,4c-1.3,0-2.7,0-4,0c0,1.3,0,2.7,0,4c1.3,0,2.7,0,4,0
		c0,1.3,0,2.7,0,4c2.7,0,5.3,0,8,0c0-1.3,0-2.7,0-4c-1.3,0-2.7,0-4,0c0-1.3,0-2.7,0-4c2.7,0,5.3,0,8,0c0,1.3,0,2.7,0,4
		c1.3,0,2.7,0,4,0c0,1.3,0,2.7,0,4c2.7,0,5.3,0,8,0c0-1.3,0-2.7,0-4c-1.3,0-2.7,0-4,0c0-1.3,0-2.7,0-4c4,0,8,0,12,0c0-1.3,0-2.7,0-4
		c-1.3,0-2.7,0-4,0c0-1.3,0-2.7,0-4c1.3,0,2.7,0,4,0c0-1.3,0-2.7,0-4c-1.3,0-2.7,0-4,0c0-1.3,0-2.7,0-4c-2.7,0-5.3,0-8,0
		c0,1.3,0,2.7,0,4c1.3,0,2.7,0,4,0c0,1.3,0,2.7,0,4c-2.7,0-5.3,0-8,0c0-1.3,0-2.7,0-4c-1.3,0-2.7,0-4,0c0-1.3,0-2.7,0-4
		c1.3,0,2.7,0,4,0c0-1.3,0-2.7,0-4c-1.3,0-2.7,0-4,0c0-1.3,0-2.7,0-4c4,0,8,0,12,0c0-1.3,0-2.7,0-4c-1.3,0-2.7,0-4,0
		c0-1.3,0-2.7,0-4c2.7,0,5.3,0,8,0c0,1.3,0,2.7,0,4c1.3,0,2.7,0,4,0c0,1.3,0,2.7,0,4c2.7,0,5.3,0,8,0c0-1.3,0-2.7,0-4
		c-1.3,0-2.7,0-4,0c0-1.3,0-2.7,0-4c2.7,0,5.3,0,8,0c0,1.3,0,2.7,0,4c1.3,0,2.7,0,4,0c0,1.3,0,2.7,0,4c-1.3,0-2.7,0-4,0
		c0,1.3,0,2.7,0,4c1.3,0,2.7,0,4,0c0,1.3,0,2.7,0,4c-1.3,0-2.7,0-4,0c0,1.3,0,2.7,0,4c1.3,0,2.7,0,4,0c0,1.3,0,2.7,0,4
		c2.7,0,5.3,0,8,0c0-1.3,0-2.7,0-4c-1.3,0-2.7,0-4,0c0-1.3,0-2.7,0-4c2.7,0,5.3,0,8,0c0,1.3,0,2.7,0,4c1.3,0,2.7,0,4,0
		c0,1.3,0,2.7,0,4c-1.3,0-2.7,0-4,0c0,1.3,0,2.7,0,4c1.3,0,2.7,0,4,0c0,1.3,0,2.7,0,4c-4,0-8,0-12,0c0,1.3,0,2.7,0,4
		c1.3,0,2.7,0,4,0c0,1.3,0,2.7,0,4c-4,0-8,0-12,0c0,1.3,0,2.7,0,4c1.3,0,2.7,0,4,0c0,1.3,0,2.7,0,4c-1.3,0-2.7,0-4,0
		c0,1.3,0,2.7,0,4c1.3,0,2.7,0,4,0c0,1.3,0,2.7,0,4c2.7,0,5.3,0,8,0c0-1.3,0-2.7,0-4c-1.3,0-2.7,0-4,0c0-1.3,0-2.7,0-4
		c2.7,0,5.3,0,8,0c0,1.3,0,2.7,0,4c1.3,0,2.7,0,4,0c0,1.3,0,2.7,0,4c-1.3,0-2.7,0-4,0c0,1.3,0,2.7,0,4c1.3,0,2.7,0,4,0
		c0,1.3,0,2.7,0,4c-4,0-8,0-12,0c0,1.3,0,2.7,0,4c1.3,0,2.7,0,4,0c0,1.3,0,2.7,0,4c-2.7,0-5.3,0-8,0c0-1.3,0-2.7,0-4
		c-1.3,0-2.7,0-4,0c0-1.3,0-2.7,0-4c-2.7,0-5.3,0-8,0c0,1.3,0,2.7,0,4c1.3,0,2.7,0,4,0c0,1.3,0,2.7,0,4c-2.7,0-5.3,0-8,0
		c0-1.3,0-2.7,0-4c-1.3,0-2.7,0-4,0c0-1.3,0-2.7,0-4c-2.7,0-5.3,0-8,0c0,1.3,0,2.7,0,4c1.3,0,2.7,0,4,0c0,1.3,0,2.7,0,4
		c-4,0-8,0-12,0c0,1.3,0,2.7,0,4c1.3,0,2.7,0,4,0c0,1.3,0,2.7,0,4c-1.3,0-2.7,0-4,0c0,1.3,0,2.7,0,4c1.3,0,2.7,0,4,0
		c0,1.3,0,2.7,0,4c2.7,0,5.3,0,8,0c0-1.3,0-2.7,0-4c-1.3,0-2.7,0-4,0c0-1.3,0-2.7,0-4c2.7,0,5.3,0,8,0c0,1.3,0,2.7,0,4
		c1.3,0,2.7,0,4,0c0,1.3,0,2.7,0,4c-1.3,0-2.7,0-4,0c0,1.3,0,2.7,0,4c1.3,0,2.7,0,4,0c0,1.3,0,2.7,0,4c-4,0-8,0-12,0
		c0,1.3,0,2.7,0,4c1.3,0,2.7,0,4,0c0,1.3,0,2.7,0,4c-2.7,0-5.3,0-8,0c0-1.3,0-2.7,0-4c-1.3,0-2.7,0-4,0c0-1.3,0-2.7,0-4
		c-2.7,0-5.3,0-8,0c0,1.3,0,2.7,0,4c1.3,0,2.7,0,4,0c0,1.3,0,2.7,0,4c-2.7,0-5.3,0-8,0c0-1.3,0-2.7,0-4c-1.3,0-2.7,0-4,0
		c0-1.3,0-2.7,0-4c-2.7,0-5.3,0-8,0c0,1.3,0,2.7,0,4c1.3,0,2.7,0,4,0c0,1.3,0,2.7,0,4c-4,0-8,0-12,0c0,1.3,0,2.7,0,4
		c1.3,0,2.7,0,4,0c0,1.3,0,2.7,0,4c-1.3,0-2.7,0-4,0c0,1.3,0,2.7,0,4c1.3,0,2.7,0,4,0c0,1.3,0,2.7,0,4c2.7,0,5.3,0,8,0
		c0-1.3,0-2.7,0-4c-1.3,0-2.7,0-4,0c0-1.3,0-2.7,0-4c2.7,0,5.3,0,8,0c0,1.3,0,2.7,0,4c1.3,0,2.7,0,4,0c0,1.3,0,2.7,0,4
		c-1.3,0-2.7,0-4,0c0,1.3,0,2.7,0,4c1.3,0,2.7,0,4,0c0,1.3,0,2.7,0,4c-4,0-8,0-12,0c0,1.3,0,2.7,0,4c1.3,0,2.7,0,4,0
		c0,1.3,0,2.7,0,4c-4,0-8,0-12,0c0,1.3,0,2.7,0,4c1.3,0,2.7,0,4,0c0,1.3,0,2.7,0,4c-1.3,0-2.7,0-4,0c0,1.3,0,2.7,0,4
		c1.3,0,2.7,0,4,0c0,1.3,0,2.7,0,4c2.7,0,5.3,0,8,0c0-1.3,0-2.7,0-4c-1.3,0-2.7,0-4,0c0-1.3,0-2.7,0-4c2.7,0,5.3,0,8,0
		c0,1.3,0,2.7,0,4c1.3,0,2.7,0,4,0c0,1.3,0,2.7,0,4c-1.3,0-2.7,0-4,0c0,1.3,0,2.7,0,4c1.3,0,2.7,0,4,0c0,1.3,0,2.7,0,4
		c-1.3,0-2.7,0-4,0c0,1.3,0,2.7,0,4c1.3,0,2.7,0,4,0c0,1.3,0,2.7,0,4c2.7,0,5.3,0,8,0c0-1.3,0-2.7,0-4c-1.3,0-2.7,0-4,0
		c0-1.3,0-2.7,0-4c2.7,0,5.3,0,8,0c0,1.3,0,2.7,0,4c1.3,0,2.7,0,4,0c0,1.3,0,2.7,0,4c2.7,0,5.3,0,8,0c0-1.3,0-2.7,0-4
		c-1.3,0-2.7,0-4,0c0-1.3,0-2.7,0-4c4,0,8,0,12,0c0-1.3,0-2.7,0-4c-1.3,0-2.7,0-4,0c0-1.3,0-2.7,0-4c1.3,0,2.7,0,4,0
		c0-1.3,0-2.7,0-4c-1.3,0-2.7,0-4,0c0-1.3,0-2.7,0-4c-2.7,0-5.3,0-8,0c0,1.3,0,2.7,0,4c1.3,0,2.7,0,4,0c0,1.3,0,2.7,0,4
		c-2.7,0-5.3,0-8,0c0-1.3,0-2.7,0-4c-1.3,0-2.7,0-4,0c0-1.3,0-2.7,0-4c1.3,0,2.7,0,4,0c0-1.3,0-2.7,0-4c-1.3,0-2.7,0-4,0
		c0-1.3,0-2.7,0-4c4,0,8,0,12,0c0-1.3,0-2.7,0-4c-1.3,0-2.7,0-4,0c0-1.3,0-2.7,0-4c2.7,0,5.3,0,8,0c0,1.3,0,2.7,0,4c1.3,0,2.7,0,4,0
		c0,1.3,0,2.7,0,4c2.7,0,5.3,0,8,0c0-1.3,0-2.7,0-4c-1.3,0-2.7,0-4,0c0-1.3,0-2.7,0-4c2.7,0,5.3,0,8,0c0,1.3,0,2.7,0,4
		c1.3,0,2.7,0,4,0c0,1.3,0,2.7,0,4c-1.3,0-2.7,0-4,0c0,1.3,0,2.7,0,4c1.3,0,2.7,0,4,0c0,1.3,0,2.7,0,4c-1.3,0-2.7,0-4,0
		c0,1.3,0,2.7,0,4c1.3,0,2.7,0,4,0c0,1.3,0,2.7,0,4c2.7,0,5.3,0,8,0c0-1.3,0-2.7,0-4c-1.3,0-2.7,0-4,0c0-1.3,0-2.7,0-4
		c2.7,0,5.3,0,8,0c0,1.3,0,2.7,0,4c1.3,0,2.7,0,4,0c0,1.3,0,2.7,0,4c-1.3,0-2.7,0-4,0c0,1.3,0,2.7,0,4c1.3,0,2.7,0,4,0
		c0,1.3,0,2.7,0,4c-4,0-8,0-12,0c0,1.3,0,2.7,0,4c1.3,0,2.7,0,4,0c0,1.3,0,2.7,0,4c-4,0-8,0-12,0c0,1.3,0,2.7,0,4c1.3,0,2.7,0,4,0
		c0,1.3,0,2.7,0,4c-1.3,0-2.7,0-4,0c0,1.3,0,2.7,0,4c1.3,0,2.7,0,4,0c0,1.3,0,2.7,0,4c2.7,0,5.3,0,8,0c0-1.3,0-2.7,0-4
		c-1.3,0-2.7,0-4,0c0-1.3,0-2.7,0-4c2.7,0,5.3,0,8,0c0,1.3,0,2.7,0,4c1.3,0,2.7,0,4,0c0,1.3,0,2.7,0,4c-1.3,0-2.7,0-4,0
		c0,1.3,0,2.7,0,4c1.3,0,2.7,0,4,0c0,1.3,0,2.7,0,4c-4,0-8,0-12,0c0,1.3,0,2.7,0,4c1.3,0,2.7,0,4,0c0,1.3,0,2.7,0,4
		c-2.7,0-5.3,0-8,0c0-1.3,0-2.7,0-4c-1.3,0-2.7,0-4,0c0-1.3,0-2.7,0-4c-2.7,0-5.3,0-8,0c0,1.3,0,2.7,0,4c1.3,0,2.7,0,4,0
		c0,1.3,0,2.7,0,4c-2.7,0-5.3,0-8,0c0-1.3,0-2.7,0-4c-1.3,0-2.7,0-4,0c0-1.3,0-2.7,0-4c-2.7,0-5.3,0-8,0c0,1.3,0,2.7,0,4
		c1.3,0,2.7,0,4,0c0,1.3,0,2.7,0,4c-4,0-8,0-12,0c0,1.3,0,2.7,0,4c1.3,0,2.7,0,4,0c0,1.3,0,2.7,0,4c-1.3,0-2.7,0-4,0
		c0,1.3,0,2.7,0,4c1.3,0,2.7,0,4,0c0,1.3,0,2.7,0,4c2.7,0,5.3,0,8,0c0-1.3,0-2.7,0-4c-1.3,0-2.7,0-4,0c0-1.3,0-2.7,0-4
		c2.7,0,5.3,0,8,0c0,1.3,0,2.7,0,4c1.3,0,2.7,0,4,0c0,1.3,0,2.7,0,4c-1.3,0-2.7,0-4,0c0,1.3,0,2.7,0,4c1.3,0,2.7,0,4,0
		c0,1.3,0,2.7,0,4c-4,0-8,0-12,0c0,1.3,0,2.7,0,4c1.3,0,2.7,0,4,0c0,1.3,0,2.7,0,4c-2.7,0-5.3,0-8,0c0-1.3,0-2.7,0-4
		c-1.3,0-2.7,0-4,0c0-1.3,0-2.7,0-4c-2.7,0-5.3,0-8,0c0,1.3,0,2.7,0,4c1.3,0,2.7,0,4,0c0,1.3,0,2.7,0,4c-2.7,0-5.3,0-8,0
		c0-1.3,0-2.7,0-4c-1.3,0-2.7,0-4,0c0-1.3,0-2.7,0-4c1.3,0,2.7,0,4,0c0-1.3,0-2.7,0-4c-1.3,0-2.7,0-4,0c0-1.3,0-2.7,0-4
		c1.3,0,2.7,0,4,0c0-1.3,0-2.7,0-4c-1.3,0-2.7,0-4,0c0-1.3,0-2.7,0-4c-2.7,0-5.3,0-8,0c0,1.3,0,2.7,0,4c1.3,0,2.7,0,4,0
		c0,1.3,0,2.7,0,4c-2.7,0-5.3,0-8,0c0-1.3,0-2.7,0-4c-1.3,0-2.7,0-4,0c0-1.3,0-2.7,0-4c1.3,0,2.7,0,4,0c0-1.3,0-2.7,0-4
		c-1.3,0-2.7,0-4,0c0-1.3,0-2.7,0-4c1.3,0,2.7,0,4,0c0-1.3,0-2.7,0-4c-1.3,0-2.7,0-4,0c0-1.3,0-2.7,0-4c-2.7,0-5.3,0-8,0
		c0,1.3,0,2.7,0,4c1.3,0,2.7,0,4,0c0,1.3,0,2.7,0,4c-2.7,0-5.3,0-8,0c0-1.3,0-2.7,0-4c-1.3,0-2.7,0-4,0c0-1.3,0-2.7,0-4
		c-2.7,0-5.3,0-8,0c0,1.3,0,2.7,0,4c1.3,0,2.7,0,4,0c0,1.3,0,2.7,0,4c-4,0-8,0-12,0c0,1.3,0,2.7,0,4c1.3,0,2.7,0,4,0
		c0,1.3,0,2.7,0,4c-1.3,0-2.7,0-4,0c0,1.3,0,2.7,0,4c1.3,0,2.7,0,4,0c0,1.3,0,2.7,0,4c2.7,0,5.3,0,8,0c0-1.3,0-2.7,0-4
		c-1.3,0-2.7,0-4,0c0-1.3,0-2.7,0-4c2.7,0,5.3,0,8,0c0,1.3,0,2.7,0,4c1.3,0,2.7,0,4,0c0,1.3,0,2.7,0,4c-1.3,0-2.7,0-4,0
		c0,1.3,0,2.7,0,4c1.3,0,2.7,0,4,0c0,1.3,0,2.7,0,4c-4,0-8,0-12,0c0,1.3,0,2.7,0,4c1.3,0,2.7,0,4,0c0,1.3,0,2.7,0,4
		c-2.7,0-5.3,0-8,0c0-1.3,0-2.7,0-4c-1.3,0-2.7,0-4,0c0-1.3,0-2.7,0-4c-2.7,0-5.3,0-8,0c0,1.3,0,2.7,0,4c1.3,0,2.7,0,4,0
		c0,1.3,0,2.7,0,4c-2.7,0-5.3,0-8,0c0-1.3,0-2.7,0-4c-1.3,0-2.7,0-4,0c0-1.3,0-2.7,0-4c1.3,0,2.7,0,4,0c0-1.3,0-2.7,0-4
		c-1.3,0-2.7,0-4,0c0-1.3,0-2.7,0-4c1.3,0,2.7,0,4,0c0-1.3,0-2.7,0-4c-1.3,0-2.7,0-4,0c0-1.3,0-2.7,0-4c-2.7,0-5.3,0-8,0
		c0,1.3,0,2.7,0,4c1.3,0,2.7,0,4,0c0,1.3,0,2.7,0,4c-2.7,0-5.3,0-8,0c0-1.3,0-2.7,0-4c-1.3,0-2.7,0-4,0c0-1.3,0-2.7,0-4
		c1.3,0,2.7,0,4,0c0-1.3,0-2.7,0-4c-1.3,0-2.7,0-4,0c0-1.3,0-2.7,0-4c1.3,0,2.7,0,4,0c0-1.3,0-2.7,0-4c-1.3,0-2.7,0-4,0
		c0-1.3,0-2.7,0-4c-2.7,0-5.3,0-8,0c0,1.3,0,2.7,0,4c1.3,0,2.7,0,4,0c0,1.3,0,2.7,0,4c-2.7,0-5.3,0-8,0c0-1.3,0-2.7,0-4
		c-1.3,0-2.7,0-4,0c0-1.3,0-2.7,0-4c-2.7,0-5.3,0-8,0c0,1.3,0,2.7,0,4c1.3,0,2.7,0,4,0c0,1.3,0,2.7,0,4c-4,0-8,0-12,0
		c0,1.3,0,2.7,0,4c1.3,0,2.7,0,4,0c0,1.3,0,2.7,0,4c-1.3,0-2.7,0-4,0c0,1.3,0,2.7,0,4c1.3,0,2.7,0,4,0c0,1.3,0,2.7,0,4
		c2.7,0,5.3,0,8,0c0-1.3,0-2.7,0-4c-1.3,0-2.7,0-4,0c0-1.3,0-2.7,0-4c2.7,0,5.3,0,8,0c0,1.3,0,2.7,0,4c1.3,0,2.7,0,4,0
		c0,1.3,0,2.7,0,4c-1.3,0-2.7,0-4,0c0,1.3,0,2.7,0,4c1.3,0,2.7,0,4,0c0,1.3,0,2.7,0,4c-4,0-8,0-12,0c0,1.3,0,2.7,0,4
		c1.3,0,2.7,0,4,0c0,1.3,0,2.7,0,4c-2.7,0-5.3,0-8,0c0-1.3,0-2.7,0-4c-1.3,0-2.7,0-4,0c0-1.3,0-2.7,0-4c-2.7,0-5.3,0-8,0
		c0,1.3,0,2.7,0,4c1.3,0,2.7,0,4,0c0,1.3,0,2.7,0,4c-2.7,0-5.3,0-8,0c0-1.3,0-2.7,0-4c-1.3,0-2.7,0-4,0c0-1.3,0-2.7,0-4
		c-2.7,0-5.3,0-8,0c0,1.3,0,2.7,0,4c1.3,0,2.7,0,4,0c0,1.3,0,2.7,0,4c-4,0-8,0-12,0c0,1.3,0,2.7,0,4c1.3,0,2.7,0,4,0
		c0,1.3,0,2.7,0,4c-1.3,0-2.7,0-4,0c0,1.3,0,2.7,0,4c1.3,0,2.7,0,4,0c0,1.3,0,2.7,0,4c2.7,0,5.3,0,8,0c0-1.3,0-2.7,0-4
		c-1.3,0-2.7,0-4,0c0-1.3,0-2.7,0-4c2.7,0,5.3,0,8,0c0,1.3,0,2.7,0,4c1.3,0,2.7,0,4,0c0,1.3,0,2.7,0,4c-1.3,0-2.7,0-4,0
		c0,1.3,0,2.7,0,4c1.3,0,2.7,0,4,0c0,1.3,0,2.7,0,4c-4,0-8,0-12,0c0,1.3,0,2.7,0,4c1.3,0,2.7,0,4,0c0,1.3,0,2.7,0,4c-4,0-8,0-12,0
		c0,1.3,0,2.7,0,4c1.3,0,2.7,0,4,0c0,1.3,0,2.7,0,4c-1.3,0-2.7,0-4,0c0,1.3,0,2.7,0,4c1.3,0,2.7,0,4,0c0,1.3,0,2.7,0,4
		c2.7,0,5.3,0,8,0c0-1.3,0-2.7,0-4c-1.3,0-2.7,0-4,0c0-1.3,0-2.7,0-4c2.7,0,5.3,0,8,0c0,1.3,0,2.7,0,4c1.3,0,2.7,0,4,0
		c0,1.3,0,2.7,0,4c-1.3,0-2.7,0-4,0c0,1.3,0,2.7,0,4c1.3,0,2.7,0,4,0c0,1.3,0,2.7,0,4c-1.3,0-2.7,0-4,0c0,1.3,0,2.7,0,4
		c1.3,0,2.7,0,4,0c0,1.3,0,2.7,0,4c2.7,0,5.3,0,8,0c0-1.3,0-2.7,0-4c-1.3,0-2.7,0-4,0c0-1.3,0-2.7,0-4c2.7,0,5.3,0,8,0
		c0,1.3,0,2.7,0,4c1.3,0,2.7,0,4,0c0,1.3,0,2.7,0,4c2.7,0,5.3,0,8,0c0-1.3,0-2.7,0-4c-1.3,0-2.7,0-4,0c0-1.3,0-2.7,0-4c4,0,8,0,12,0
		c0-1.3,0-2.7,0-4c-1.3,0-2.7,0-4,0c0-1.3,0-2.7,0-4c1.3,0,2.7,0,4,0c0-1.3,0-2.7,0-4c-1.3,0-2.7,0-4,0c0-1.3,0-2.7,0-4
		c-2.7,0-5.3,0-8,0c0,1.3,0,2.7,0,4c1.3,0,2.7,0,4,0c0,1.3,0,2.7,0,4c-2.7,0-5.3,0-8,0c0-1.3,0-2.7,0-4c-1.3,0-2.7,0-4,0
		c0-1.3,0-2.7,0-4c1.3,0,2.7,0,4,0c0-1.3,0-2.7,0-4c-1.3,0-2.7,0-4,0c0-1.3,0-2.7,0-4c4,0,8,0,12,0c0-1.3,0-2.7,0-4
		c-1.3,0-2.7,0-4,0c0-1.3,0-2.7,0-4c2.7,0,5.3,0,8,0c0,1.3,0,2.7,0,4c1.3,0,2.7,0,4,0c0,1.3,0,2.7,0,4c2.7,0,5.3,0,8,0
		c0-1.3,0-2.7,0-4c-1.3,0-2.7,0-4,0c0-1.3,0-2.7,0-4c2.7,0,5.3,0,8,0c0,1.3,0,2.7,0,4c1.3,0,2.7,0,4,0c0,1.3,0,2.7,0,4
		c-1.3,0-2.7,0-4,0c0,1.3,0,2.7,0,4c1.3,0,2.7,0,4,0c0,1.3,0,2.7,0,4c-1.3,0-2.7,0-4,0c0,1.3,0,2.7,0,4c1.3,0,2.7,0,4,0
		c0,1.3,0,2.7,0,4c2.7,0,5.3,0,8,0c0-1.3,0-2.7,0-4c-1.3,0-2.7,0-4,0c0-1.3,0-2.7,0-4c2.7,0,5.3,0,8,0c0,1.3,0,2.7,0,4
		c1.3,0,2.7,0,4,0c0,1.3,0,2.7,0,4c-1.3,0-2.7,0-4,0c0,1.3,0,2.7,0,4c1.3,0,2.7,0,4,0c0,1.3,0,2.7,0,4c-4,0-8,0-12,0
		c0,1.3,0,2.7,0,4c1.3,0,2.7,0,4,0c0,1.3,0,2.7,0,4c-4,0-8,0-12,0c0,1.3,0,2.7,0,4c1.3,0,2.7,0,4,0c0,1.3,0,2.7,0,4
		c-1.3,0-2.7,0-4,0c0,1.3,0,2.7,0,4c1.3,0,2.7,0,4,0c0,1.3,0,2.7,0,4c2.7,0,5.3,0,8,0c0-1.3,0-2.7,0-4c-1.3,0-2.7,0-4,0
		c0-1.3,0-2.7,0-4c2.7,0,5.3,0,8,0c0,1.3,0,2.7,0,4c1.3,0,2.7,0,4,0c0,1.3,0,2.7,0,4c-1.3,0-2.7,0-4,0c0,1.3,0,2.7,0,4
		c1.3,0,2.7,0,4,0c0,1.3,0,2.7,0,4c-4,0-8,0-12,0c0,1.3,0,2.7,0,4c1.3,0,2.7,0,4,0c0,1.3,0,2.7,0,4c-2.7,0-5.3,0-8,0
		c0-1.3,0-2.7,0-4c-1.3,0-2.7,0-4,0c0-1.3,0-2.7,0-4c-2.7,0-5.3,0-8,0c0,1.3,0,2.7,0,4c1.3,0,2.7,0,4,0c0,1.3,0,2.7,0,4
		c-2.7,0-5.3,0-8,0c0-1.3,0-2.7,0-4c-1.3,0-2.7,0-4,0c0-1.3,0-2.7,0-4c-2.7,0-5.3,0-8,0c0,1.3,0,2.7,0,4c1.3,0,2.7,0,4,0
		c0,1.3,0,2.7,0,4c-4,0-8,0-12,0c0,1.3,0,2.7,0,4c1.3,0,2.7,0,4,0c0,1.3,0,2.7,0,4c-1.3,0-2.7,0-4,0c0,1.3,0,2.7,0,4
		c1.3,0,2.7,0,4,0c0,1.3,0,2.7,0,4c2.7,0,5.3,0,8,0c0-1.3,0-2.7,0-4c-1.3,0-2.7,0-4,0c0-1.3,0-2.7,0-4c2.7,0,5.3,0,8,0
		c0,1.3,0,2.7,0,4c1.3,0,2.7,0,4,0c0,1.3,0,2.7,0,4c-1.3,0-2.7,0-4,0c0,1.3,0,2.7,0,4c1.3,0,2.7,0,4,0c0,1.3,0,2.7,0,4
		c-4,0-8,0-12,0c0,1.3,0,2.7,0,4c1.3,0,2.7,0,4,0c0,1.3,0,2.7,0,4c-2.7,0-5.3,0-8,0c0-1.3,0-2.7,0-4c-1.3,0-2.7,0-4,0
		c0-1.3,0-2.7,0-4c-2.7,0-5.3,0-8,0c0,1.3,0,2.7,0,4c1.3,0,2.7,0,4,0c0,1.3,0,2.7,0,4c-2.7,0-5.3,0-8,0c0-1.3,0-2.7,0-4
		c-1.3,0-2.7,0-4,0c0-1.3,0-2.7,0-4c1.3,0,2.7,0,4,0c0-1.3,0-2.7,0-4c-1.3,0-2.7,0-4,0c0-1.3,0-2.7,0-4c1.3,0,2.7,0,4,0
		c0-1.3,0-2.7,0-4c-1.3,0-2.7,0-4,0c0-1.3,0-2.7,0-4c-2.7,0-5.3,0-8,0c0,1.3,0,2.7,0,4c1.3,0,2.7,0,4,0c0,1.3,0,2.7,0,4
		c-2.7,0-5.3,0-8,0c0-1.3,0-2.7,0-4c-1.3,0-2.7,0-4,0c0-1.3,0-2.7,0-4c1.3,0,2.7,0,4,0c0-1.3,0-2.7,0-4c-1.3,0-2.7,0-4,0
		c0-1.3,0-2.7,0-4c1.3,0,2.7,0,4,0c0-1.3,0-2.7,0-4c-1.3,0-2.7,0-4,0c0-1.3,0-2.7,0-4c-2.7,0-5.3,0-8,0c0,1.3,0,2.7,0,4
		c1.3,0,2.7,0,4,0c0,1.3,0,2.7,0,4c-2.7,0-5.3,0-8,0c0-1.3,0-2.7,0-4c-1.3,0-2.7,0-4,0c0-1.3,0-2.7,0-4c-2.7,0-5.3,0-8,0
		c0,1.3,0,2.7,0,4c1.3,0,2.7,0,4,0c0,1.3,0,2.7,0,4c-4,0-8,0-12,0c0,1.3,0,2.7,0,4c1.3,0,2.7,0,4,0c0,1.3,0,2.7,0,4
		c-1.3,0-2.7,0-4,0c0,1.3,0,2.7,0,4c1.3,0,2.7,0,4,0c0,1.3,0,2.7,0,4c2.7,0,5.3,0,8,0c0-1.3,0-2.7,0-4c-1.3,0-2.7,0-4,0
		c0-1.3,0-2.7,0-4c2.7,0,5.3,0,8,0c0,1.3,0,2.7,0,4c1.3,0,2.7,0,4,0c0,1.3,0,2.7,0,4c-1.3,0-2.7,0-4,0c0,1.3,0,2.7,0,4
		c1.3,0,2.7,0,4,0c0,1.3,0,2.7,0,4c-4,0-8,0-12,0c0,1.3,0,2.7,0,4c1.3,0,2.7,0,4,0c0,1.3,0,2.7,0,4c-2.7,0-5.3,0-8,0
		c0-1.3,0-2.7,0-4c-1.3,0-2.7,0-4,0c0-1.3,0-2.7,0-4c-2.7,0-5.3,0-8,0c0,1.3,0,2.7,0,4c1.3,0,2.7,0,4,0c0,1.3,0,2.7,0,4
		c-2.7,0-5.3,0-8,0c0-1.3,0-2.7,0-4c-1.3,0-2.7,0-4,0c0-1.3,0-2.7,0-4c1.3,0,2.7,0,4,0c0-1.3,0-2.7,0-4c-1.3,0-2.7,0-4,0
		c0-1.3,0-2.7,0-4c1.3,0,2.7,0,4,0c0-1.3,0-2.7,0-4c-1.3,0-2.7,0-4,0c0-1.3,0-2.7,0-4c-2.7,0-5.3,0-8,0c0,1.3,0,2.7,0,4
		c1.3,0,2.7,0,4,0c0,1.3,0,2.7,0,4c-2.7,0-5.3,0-8,0c0-1.3,0-2.7,0-4c-1.3,0-2.7,0-4,0c0-1.3,0-2.7,0-4c1.3,0,2.7,0,4,0
		c0-1.3,0-2.7,0-4c-1.3,0-2.7,0-4,0c0-1.3,0-2.7,0-4c4,0,8,0,12,0c0-1.3,0-2.7,0-4c-1.3,0-2.7,0-4,0c0-1.3,0-2.7,0-4c4,0,8,0,12,0
		c0-1.3,0-2.7,0-4c-1.3,0-2.7,0-4,0c0-1.3,0-2.7,0-4c1.3,0,2.7,0,4,0c0-1.3,0-2.7,0-4c-1.3,0-2.7,0-4,0c0-1.3,0-2.7,0-4
		c-2.7,0-5.3,0-8,0c0,1.3,0,2.7,0,4c1.3,0,2.7,0,4,0c0,1.3,0,2.7,0,4c-2.7,0-5.3,0-8,0c0-1.3,0-2.7,0-4c-1.3,0-2.7,0-4,0
		c0-1.3,0-2.7,0-4c1.3,0,2.7,0,4,0c0-1.3,0-2.7,0-4c-1.3,0-2.7,0-4,0c0-1.3,0-2.7,0-4c4,0,8,0,12,0c0-1.3,0-2.7,0-4
		c-1.3,0-2.7,0-4,0c0-1.3,0-2.7,0-4c4,0,8,0,12,0c0-1.3,0-2.7,0-4c-1.3,0-2.7,0-4,0c0-1.3,0-2.7,0-4c1.3,0,2.7,0,4,0
		c0-1.3,0-2.7,0-4c-1.3,0-2.7,0-4,0c0-1.3,0-2.7,0-4c-2.7,0-5.3,0-8,0c0,1.3,0,2.7,0,4c1.3,0,2.7,0,4,0c0,1.3,0,2.7,0,4
		c-2.7,0-5.3,0-8,0c0-1.3,0-2.7,0-4c-1.3,0-2.7,0-4,0c0-1.3,0-2.7,0-4c1.3,0,2.7,0,4,0c0-1.3,0-2.7,0-4c-1.3,0-2.7,0-4,0
		c0-1.3,0-2.7,0-4c1.3,0,2.7,0,4,0c0-1.3,0-2.7,0-4c-1.3,0-2.7,0-4,0c0-1.3,0-2.7,0-4c-2.7,0-5.3,0-8,0c0,1.3,0,2.7,0,4
		c1.3,0,2.7,0,4,0c0,1.3,0,2.7,0,4c-2.7,0-5.3,0-8,0c0-1.3,0-2.7,0-4c-1.3,0-2.7,0-4,0c0-1.3,0-2.7,0-4c-2.7,0-5.3,0-8,0
		c0,1.3,0,2.7,0,4c1.3,0,2.7,0,4,0c0,1.3,0,2.7,0,4c-4,0-8,0-12,0c0,1.3,0,2.7,0,4c1.3,0,2.7,0,4,0c0,1.3,0,2.7,0,4
		c-1.3,0-2.7,0-4,0c0,1.3,0,2.7,0,4c1.3,0,2.7,0,4,0c0,1.3,0,2.7,0,4c2.7,0,5.3,0,8,0c0-1.3,0-2.7,0-4c-1.3,0-2.7,0-4,0
		c0-1.3,0-2.7,0-4c2.7,0,5.3,0,8,0c0,1.3,0,2.7,0,4c1.3,0,2.7,0,4,0c0,1.3,0,2.7,0,4c-1.3,0-2.7,0-4,0c0,1.3,0,2.7,0,4
		c1.3,0,2.7,0,4,0c0,1.3,0,2.7,0,4c-4,0-8,0-12,0c0,1.3,0,2.7,0,4c1.3,0,2.7,0,4,0c0,1.3,0,2.7,0,4c-2.7,0-5.3,0-8,0
		c0-1.3,0-2.7,0-4c-1.3,0-2.7,0-4,0c0-1.3,0-2.7,0-4c-2.7,0-5.3,0-8,0c0,1.3,0,2.7,0,4c1.3,0,2.7,0,4,0c0,1.3,0,2.7,0,4
		c-2.7,0-5.3,0-8,0c0-1.3,0-2.7,0-4c-1.3,0-2.7,0-4,0c0-1.3,0-2.7,0-4c1.3,0,2.7,0,4,0c0-1.3,0-2.7,0-4c-1.3,0-2.7,0-4,0
		c0-1.3,0-2.7,0-4c1.3,0,2.7,0,4,0c0-1.3,0-2.7,0-4c-1.3,0-2.7,0-4,0c0-1.3,0-2.7,0-4c-2.7,0-5.3,0-8,0c0,1.3,0,2.7,0,4
		c1.3,0,2.7,0,4,0c0,1.3,0,2.7,0,4c-2.7,0-5.3,0-8,0c0-1.3,0-2.7,0-4c-1.3,0-2.7,0-4,0c0-1.3,0-2.7,0-4c1.3,0,2.7,0,4,0
		c0-1.3,0-2.7,0-4c-1.3,0-2.7,0-4,0c0-1.3,0-2.7,0-4c4,0,8,0,12,0c0-1.3,0-2.7,0-4c-1.3,0-2.7,0-4,0c0-1.3,0-2.7,0-4c4,0,8,0,12,0
		c0-1.3,0-2.7,0-4c-1.3,0-2.7,0-4,0c0-1.3,0-2.7,0-4c1.3,0,2.7,0,4,0c0-1.3,0-2.7,0-4c-1.3,0-2.7,0-4,0c0-1.3,0-2.7,0-4
		c-2.7,0-5.3,0-8,0c0,1.3,0,2.7,0,4c1.3,0,2.7,0,4,0c0,1.3,0,2.7,0,4c-2.7,0-5.3,0-8,0c0-1.3,0-2.7,0-4c-1.3,0-2.7,0-4,0
		c0-1.3,0-2.7,0-4c1.3,0,2.7,0,4,0c0-1.3,0-2.7,0-4c-1.3,0-2.7,0-4,0c0-1.3,0-2.7,0-4c4,0,8,0,12,0c0-1.3,0-2.7,0-4
		c-1.3,0-2.7,0-4,0c0-1.3,0-2.7,0-4c4,0,8,0,12,0c0-1.3,0-2.7,0-4c-1.3,0-2.7,0-4,0c0-1.3,0-2.7,0-4c1.3,0,2.7,0,4,0
		c0-1.3,0-2.7,0-4c-1.3,0-2.7,0-4,0c0-1.3,0-2.7,0-4c-2.7,0-5.3,0-8,0c0,1.3,0,2.7,0,4c1.3,0,2.7,0,4,0c0,1.3,0,2.7,0,4
		c-2.7,0-5.3,0-8,0c0-1.3,0-2.7,0-4c-1.3,0-2.7,0-4,0c0-1.3,0-2.7,0-4c1.3,0,2.7,0,4,0c0-1.3,0-2.7,0-4c-1.3,0-2.7,0-4,0
		c0-1.3,0-2.7,0-4c1.3,0,2.7,0,4,0c0-1.3,0-2.7,0-4c-1.3,0-2.7,0-4,0c0-1.3,0-2.7,0-4c-2.7,0-5.3,0-8,0c0,1.3,0,2.7,0,4
		c1.3,0,2.7,0,4,0c0,1.3,0,2.7,0,4c-2.7,0-5.3,0-8,0c0-1.3,0-2.7,0-4c-1.3,0-2.7,0-4,0c0-1.3,0-2.7,0-4c-2.7,0-5.3,0-8,0
		c0,1.3,0,2.7,0,4c1.3,0,2.7,0,4,0c0,1.3,0,2.7,0,4c-4,0-8,0-12,0c0,1.3,0,2.7,0,4c1.3,0,2.7,0,4,0c0,1.3,0,2.7,0,4
		c-1.3,0-2.7,0-4,0c0,1.3,0,2.7,0,4c1.3,0,2.7,0,4,0c0,1.3,0,2.7,0,4c2.7,0,5.3,0,8,0c0-1.3,0-2.7,0-4c-1.3,0-2.7,0-4,0
		c0-1.3,0-2.7,0-4c2.7,0,5.3,0,8,0c0,1.3,0,2.7,0,4c1.3,0,2.7,0,4,0c0,1.3,0,2.7,0,4c-1.3,0-2.7,0-4,0c0,1.3,0,2.7,0,4
		c1.3,0,2.7,0,4,0c0,1.3,0,2.7,0,4c-4,0-8,0-12,0c0,1.3,0,2.7,0,4c1.3,0,2.7,0,4,0c0,1.3,0,2.7,0,4c-2.7,0-5.3,0-8,0
		c0-1.3,0-2.7,0-4c-1.3,0-2.7,0-4,0c0-1.3,0-2.7,0-4c-2.7,0-5.3,0-8,0c0,1.3,0,2.7,0,4c1.3,0,2.7,0,4,0c0,1.3,0,2.7,0,4
		c-2.7,0-5.3,0-8,0c0-1.3,0-2.7,0-4c-1.3,0-2.7,0-4,0c0-1.3,0-2.7,0-4c1.3,0,2.7,0,4,0c0-1.3,0-2.7,0-4c-1.3,0-2.7,0-4,0
		c0-1.3,0-2.7,0-4c1.3,0,2.7,0,4,0c0-1.3,0-2.7,0-4c-1.3,0-2.7,0-4,0c0-1.3,0-2.7,0-4c-2.7,0-5.3,0-8,0c0,1.3,0,2.7,0,4
		c1.3,0,2.7,0,4,0c0,1.3,0,2.7,0,4c-2.7,0-5.3,0-8,0c0-1.3,0-2.7,0-4c-1.3,0-2.7,0-4,0c0-1.3,0-2.7,0-4c1.3,0,2.7,0,4,0
		c0-1.3,0-2.7,0-4c-1.3,0-2.7,0-4,0c0-1.3,0-2.7,0-4c1.3,0,2.7,0,4,0c0-1.3,0-2.7,0-4c-1.3,0-2.7,0-4,0c0-1.3,0-2.7,0-4
		c-2.7,0-5.3,0-8,0c0,1.3,0,2.7,0,4c1.3,0,2.7,0,4,0c0,1.3,0,2.7,0,4c-2.7,0-5.3,0-8,0c0-1.3,0-2.7,0-4c-1.3,0-2.7,0-4,0
		c0-1.3,0-2.7,0-4c-2.7,0-5.3,0-8,0c0,1.3,0,2.7,0,4c1.3,0,2.7,0,4,0c0,1.3,0,2.7,0,4c-4,0-8,0-12,0c0,1.3,0,2.7,0,4
		c1.3,0,2.7,0,4,0c0,1.3,0,2.7,0,4c-1.3,0-2.7,0-4,0c0,1.3,0,2.7,0,4c1.3,0,2.7,0,4,0c0,1.3,0,2.7,0,4c2.7,0,5.3,0,8,0
		c0-1.3,0-2.7,0-4c-1.3,0-2.7,0-4,0c0-1.3,0-2.7,0-4c2.7,0,5.3,0,8,0c0,1.3,0,2.7,0,4c1.3,0,2.7,0,4,0c0,1.3,0,2.7,0,4
		c-1.3,0-2.7,0-4,0c0,1.3,0,2.7,0,4c1.3,0,2.7,0,4,0c0,1.3,0,2.7,0,4c-4,0-8,0-12,0c0,1.3,0,2.7,0,4c1.3,0,2.7,0,4,0
		c0,1.3,0,2.7,0,4c-2.7,0-5.3,0-8,0c0-1.3,0-2.7,0-4c-1.3,0-2.7,0-4,0c0-1.3,0-2.7,0-4c-2.7,0-5.3,0-8,0c0,1.3,0,2.7,0,4
		c1.3,0,2.7,0,4,0c0,1.3,0,2.7,0,4c-2.7,0-5.3,0-8,0c0-1.3,0-2.7,0-4c-1.3,0-2.7,0-4,0c0-1.3,0-2.7,0-4c-2.7,0-5.3,0-8,0
		c0,1.3,0,2.7,0,4c1.3,0,2.7,0,4,0c0,1.3,0,2.7,0,4c-4,0-8,0-12,0c0,1.3,0,2.7,0,4c1.3,0,2.7,0,4,0c0,1.3,0,2.7,0,4
		c-1.3,0-2.7,0-4,0c0,1.3,0,2.7,0,4c1.3,0,2.7,0,4,0c0,1.3,0,2.7,0,4c2.7,0,5.3,0,8,0c0-1.3,0-2.7,0-4c-1.3,0-2.7,0-4,0
		c0-1.3,0-2.7,0-4c2.7,0,5.3,0,8,0c0,1.3,0,2.7,0,4c1.3,0,2.7,0,4,0c0,1.3,0,2.7,0,4c-1.3,0-2.7,0-4,0c0,1.3,0,2.7,0,4
		c1.3,0,2.7,0,4,0c0,1.3,0,2.7,0,4c-4,0-8,0-12,0c0,1.3,0,2.7,0,4c1.3,0,2.7,0,4,0c0,1.3,0,2.7,0,4c-4,0-8,0-12,0c0,1.3,0,2.7,0,4
		c1.3,0,2.7,0,4,0c0,1.3,0,2.7,0,4c-1.3,0-2.7,0-4,0c0,1.3,0,2.7,0,4c1.3,0,2.7,0,4,0c0,1.3,0,2.7,0,4c2.7,0,5.3,0,8,0
		c0-1.3,0-2.7,0-4c-1.3,0-2.7,0-4,0c0-1.3,0-2.7,0-4c2.7,0,5.3,0,8,0c0,1.3,0,2.7,0,4c1.3,0,2.7,0,4,0c0,1.3,0,2.7,0,4
		c-1.3,0-2.7,0-4,0c0,1.3,0,2.7,0,4c1.3,0,2.7,0,4,0c0,1.3,0,2.7,0,4c-1.3,0-2.7,0-4,0c0,1.3,0,2.7,0,4c1.3,0,2.7,0,4,0
		c0,1.3,0,2.7,0,4c2.7,0,5.3,0,8,0c0-1.3,0-2.7,0-4c-1.3,0-2.7,0-4,0c0-1.3,0-2.7,0-4c2.7,0,5.3,0,8,0c0,1.3,0,2.7,0,4
		c1.3,0,2.7,0,4,0c0,1.3,0,2.7,0,4c2.7,0,5.3,0,8,0c0-1.3,0-2.7,0-4c-1.3,0-2.7,0-4,0c0-1.3,0-2.7,0-4c4,0,8,0,12,0c0-1.3,0-2.7,0-4
		c-1.3,0-2.7,0-4,0c0-1.3,0-2.7,0-4c1.3,0,2.7,0,4,0c0-1.3,0-2.7,0-4c-1.3,0-2.7,0-4,0c0-1.3,0-2.7,0-4c-2.7,0-5.3,0-8,0
		c0,1.3,0,2.7,0,4c0.7,0,1.3,0,2,0c0,0.7,0,1.3,0,2c-1.3,0-2.7,0-4,0c0-2.7,0-5.3,0-8c1.3,0,2.7,0,4,0c0-1.3,0-2.7,0-4
		c1.3,0,2.7,0,4,0c0,1.3,0,2.7,0,4c1.3,0,2.7,0,4,0c0-1.3,0-2.7,0-4c1.3,0,2.7,0,4,0c0,4,0,8,0,12c1.3,0,2.7,0,4,0c0-1.3,0-2.7,0-4
		c1.3,0,2.7,0,4,0c0,2.7,0,5.3,0,8c-1.3,0-2.7,0-4,0c0,1.3,0,2.7,0,4c-1.3,0-2.7,0-4,0c0,2.7,0,5.3,0,8c1.3,0,2.7,0,4,0
		c0-1.3,0-2.7,0-4c1.3,0,2.7,0,4,0c0,2.7,0,5.3,0,8c-1.3,0-2.7,0-4,0c0,1.3,0,2.7,0,4c-1.3,0-2.7,0-4,0c0-1.3,0-2.7,0-4
		c-1.3,0-2.7,0-4,0c0,1.3,0,2.7,0,4c-1.3,0-2.7,0-4,0c0-1.3,0-2.7,0-4c-1.3,0-2.7,0-4,0c0,1.3,0,2.7,0,4c-1.3,0-2.7,0-4,0
		c0,2.7,0,5.3,0,8c1.3,0,2.7,0,4,0c0-1.3,0-2.7,0-4c1.3,0,2.7,0,4,0c0,2.7,0,5.3,0,8c-1.3,0-2.7,0-4,0c0,1.3,0,2.7,0,4
		c-1.3,0-2.7,0-4,0c0-1.3,0-2.7,0-4c-1.3,0-2.7,0-4,0c0,1.3,0,2.7,0,4c-1.3,0-2.7,0-4,0c0-4,0-8,0-12c-1.3,0-2.7,0-4,0
		c0,1.3,0,2.7,0,4c-1.3,0-2.7,0-4,0c0-4,0-8,0-12c-1.3,0-2.7,0-4,0c0,1.3,0,2.7,0,4c-1.3,0-2.7,0-4,0c0-1.3,0-2.7,0-4
		c-1.3,0-2.7,0-4,0c0,1.3,0,2.7,0,4c-1.3,0-2.7,0-4,0c0,2.7,0,5.3,0,8c1.3,0,2.7,0,4,0c0-1.3,0-2.7,0-4c1.3,0,2.7,0,4,0
		c0,2.7,0,5.3,0,8c-1.3,0-2.7,0-4,0c0,1.3,0,2.7,0,4c-1.3,0-2.7,0-4,0c0-1.3,0-2.7,0-4c-1.3,0-2.7,0-4,0c0,1.3,0,2.7,0,4
		c-1.3,0-2.7,0-4,0c0-4,0-8,0-12c-1.3,0-2.7,0-4,0c0,1.3,0,2.7,0,4c-1.3,0-2.7,0-4,0c0-2.7,0-5.3,0-8c1.3,0,2.7,0,4,0
		c0-1.3,0-2.7,0-4c1.3,0,2.7,0,4,0c0-2.7,0-5.3,0-8c-1.3,0-2.7,0-4,0c0,1.3,0,2.7,0,4c-1.3,0-2.7,0-4,0c0-2.7,0-5.3,0-8
		c1.3,0,2.7,0,4,0c0-1.3,0-2.7,0-4c1.3,0,2.7,0,4,0c0-2.7,0-5.3,0-8c-1.3,0-2.7,0-4,0c0,1.3,0,2.7,0,4c-1.3,0-2.7,0-4,0
		c0-4,0-8,0-12c-1.3,0-2.7,0-4,0c0,1.3,0,2.7,0,4c-1.3,0-2.7,0-4,0c0-1.3,0-2.7,0-4c-1.3,0-2.7,0-4,0c0,1.3,0,2.7,0,4
		c-1.3,0-2.7,0-4,0c0,2.7,0,5.3,0,8c1.3,0,2.7,0,4,0c0-1.3,0-2.7,0-4c1.3,0,2.7,0,4,0c0,2.7,0,5.3,0,8c-1.3,0-2.7,0-4,0
		c0,1.3,0,2.7,0,4c-1.3,0-2.7,0-4,0c0-1.3,0-2.7,0-4c-1.3,0-2.7,0-4,0c0,1.3,0,2.7,0,4c-1.3,0-2.7,0-4,0c0-4,0-8,0-12
		c-1.3,0-2.7,0-4,0c0,1.3,0,2.7,0,4c-1.3,0-2.7,0-4,0c0-2.7,0-5.3,0-8c1.3,0,2.7,0,4,0c0-1.3,0-2.7,0-4c1.3,0,2.7,0,4,0
		c0-2.7,0-5.3,0-8c-1.3,0-2.7,0-4,0c0,1.3,0,2.7,0,4c-1.3,0-2.7,0-4,0c0-2.7,0-5.3,0-8c1.3,0,2.7,0,4,0c0-1.3,0-2.7,0-4
		c1.3,0,2.7,0,4,0c0,1.3,0,2.7,0,4c1.3,0,2.7,0,4,0c0-1.3,0-2.7,0-4c1.3,0,2.7,0,4,0c0,1.3,0,2.7,0,4c1.3,0,2.7,0,4,0
		c0-1.3,0-2.7,0-4c1.3,0,2.7,0,4,0c0-2.7,0-5.3,0-8c-1.3,0-2.7,0-4,0c0,1.3,0,2.7,0,4c-1.3,0-2.7,0-4,0c0-2.7,0-5.3,0-8
		c1.3,0,2.7,0,4,0c0-1.3,0-2.7,0-4c1.3,0,2.7,0,4,0c0,1.3,0,2.7,0,4c1.3,0,2.7,0,4,0c0-1.3,0-2.7,0-4c1.3,0,2.7,0,4,0
		c0,1.3,0,2.7,0,4c1.3,0,2.7,0,4,0c0-1.3,0-2.7,0-4c1.3,0,2.7,0,4,0c0-2.7,0-5.3,0-8c-1.3,0-2.7,0-4,0c0,1.3,0,2.7,0,4
		c-1.3,0-2.7,0-4,0c0-2.7,0-5.3,0-8c1.3,0,2.7,0,4,0c0-1.3,0-2.7,0-4c1.3,0,2.7,0,4,0c0-2.7,0-5.3,0-8c-1.3,0-2.7,0-4,0
		c0,1.3,0,2.7,0,4c-1.3,0-2.7,0-4,0c0-4,0-8,0-12c-1.3,0-2.7,0-4,0c0,1.3,0,2.7,0,4c-1.3,0-2.7,0-4,0c0-1.3,0-2.7,0-4
		c-1.3,0-2.7,0-4,0c0,1.3,0,2.7,0,4c-1.3,0-2.7,0-4,0c0,2.7,0,5.3,0,8c1.3,0,2.7,0,4,0c0-1.3,0-2.7,0-4c1.3,0,2.7,0,4,0
		c0,2.7,0,5.3,0,8c-1.3,0-2.7,0-4,0c0,1.3,0,2.7,0,4c-1.3,0-2.7,0-4,0c0-1.3,0-2.7,0-4c-1.3,0-2.7,0-4,0c0,1.3,0,2.7,0,4
		c-1.3,0-2.7,0-4,0c0-4,0-8,0-12c-1.3,0-2.7,0-4,0c0,1.3,0,2.7,0,4c-1.3,0-2.7,0-4,0c0-2.7,0-5.3,0-8c1.3,0,2.7,0,4,0
		c0-1.3,0-2.7,0-4c1.3,0,2.7,0,4,0c0-2.7,0-5.3,0-8c-1.3,0-2.7,0-4,0c0,1.3,0,2.7,0,4c-1.3,0-2.7,0-4,0c0-2.7,0-5.3,0-8
		C189.3,442,190.7,442,192,442z"/>
	<path id="top_1_" class="st1" d="M608,358c0,1.3,0,2.7,0,4c-1.3,0-2.7,0-4,0c0-1.3,0-2.7,0-4c-1.3,0-2.7,0-4,0c0,1.3,0,2.7,0,4
		c-1.3,0-2.7,0-4,0c0-1.3,0-2.7,0-4c-1.3,0-2.7,0-4,0c0,1.3,0,2.7,0,4c-1.3,0-2.7,0-4,0c0,2.7,0,5.3,0,8c1.3,0,2.7,0,4,0
		c0-1.3,0-2.7,0-4c1.3,0,2.7,0,4,0c0,2.7,0,5.3,0,8c-1.3,0-2.7,0-4,0c0,1.3,0,2.7,0,4c-1.3,0-2.7,0-4,0c0-1.3,0-2.7,0-4
		c-1.3,0-2.7,0-4,0c0,1.3,0,2.7,0,4c-1.3,0-2.7,0-4,0c0-4,0-8,0-12c-1.3,0-2.7,0-4,0c0,1.3,0,2.7,0,4c-1.3,0-2.7,0-4,0c0-4,0-8,0-12
		c-1.3,0-2.7,0-4,0c0,1.3,0,2.7,0,4c-1.3,0-2.7,0-4,0c0-1.3,0-2.7,0-4c-1.3,0-2.7,0-4,0c0,1.3,0,2.7,0,4c-1.3,0-2.7,0-4,0
		c0,2.7,0,5.3,0,8c1.3,0,2.7,0,4,0c0-1.3,0-2.7,0-4c1.3,0,2.7,0,4,0c0,2.7,0,5.3,0,8c-1.3,0-2.7,0-4,0c0,1.3,0,2.7,0,4
		c-1.3,0-2.7,0-4,0c0-1.3,0-2.7,0-4c-1.3,0-2.7,0-4,0c0,1.3,0,2.7,0,4c-1.3,0-2.7,0-4,0c0-4,0-8,0-12c-1.3,0-2.7,0-4,0
		c0,1.3,0,2.7,0,4c-1.3,0-2.7,0-4,0c0-4,0-8,0-12c-1.3,0-2.7,0-4,0c0,1.3,0,2.7,0,4c-1.3,0-2.7,0-4,0c0-1.3,0-2.7,0-4
		c-1.3,0-2.7,0-4,0c0,1.3,0,2.7,0,4c-1.3,0-2.7,0-4,0c0,2.7,0,5.3,0,8c1.3,0,2.7,0,4,0c0-1.3,0-2.7,0-4c1.3,0,2.7,0,4,0
		c0,2.7,0,5.3,0,8c-1.3,0-2.7,0-4,0c0,1.3,0,2.7,0,4c-1.3,0-2.7,0-4,0c0-1.3,0-2.7,0-4c-1.3,0-2.7,0-4,0c0,1.3,0,2.7,0,4
		c-1.3,0-2.7,0-4,0c0-1.3,0-2.7,0-4c-1.3,0-2.7,0-4,0c0,1.3,0,2.7,0,4c-1.3,0-2.7,0-4,0c0,2.7,0,5.3,0,8c1.3,0,2.7,0,4,0
		c0-1.3,0-2.7,0-4c1.3,0,2.7,0,4,0c0,2.7,0,5.3,0,8c-1.3,0-2.7,0-4,0c0,1.3,0,2.7,0,4c-1.3,0-2.7,0-4,0c0,2.7,0,5.3,0,8
		c1.3,0,2.7,0,4,0c0-1.3,0-2.7,0-4c1.3,0,2.7,0,4,0c0,4,0,8,0,12c1.3,0,2.7,0,4,0c0-1.3,0-2.7,0-4c1.3,0,2.7,0,4,0c0,1.3,0,2.7,0,4
		c1.3,0,2.7,0,4,0c0-1.3,0-2.7,0-4c1.3,0,2.7,0,4,0c0-2.7,0-5.3,0-8c-1.3,0-2.7,0-4,0c0,1.3,0,2.7,0,4c-1.3,0-2.7,0-4,0
		c0-2.7,0-5.3,0-8c1.3,0,2.7,0,4,0c0-1.3,0-2.7,0-4c1.3,0,2.7,0,4,0c0,1.3,0,2.7,0,4c1.3,0,2.7,0,4,0c0-1.3,0-2.7,0-4
		c1.3,0,2.7,0,4,0c0,4,0,8,0,12c1.3,0,2.7,0,4,0c0-1.3,0-2.7,0-4c1.3,0,2.7,0,4,0c0,2.7,0,5.3,0,8c-1.3,0-2.7,0-4,0c0,1.3,0,2.7,0,4
		c-1.3,0-2.7,0-4,0c0,2.7,0,5.3,0,8c1.3,0,2.7,0,4,0c0-1.3,0-2.7,0-4c1.3,0,2.7,0,4,0c0,2.7,0,5.3,0,8c-1.3,0-2.7,0-4,0
		c0,1.3,0,2.7,0,4c-1.3,0-2.7,0-4,0c0-1.3,0-2.7,0-4c-1.3,0-2.7,0-4,0c0,1.3,0,2.7,0,4c-1.3,0-2.7,0-4,0c0-1.3,0-2.7,0-4
		c-1.3,0-2.7,0-4,0c0,1.3,0,2.7,0,4c-1.3,0-2.7,0-4,0c0,2.7,0,5.3,0,8c1.3,0,2.7,0,4,0c0-1.3,0-2.7,0-4c1.3,0,2.7,0,4,0
		c0,2.7,0,5.3,0,8c-1.3,0-2.7,0-4,0c0,1.3,0,2.7,0,4c-1.3,0-2.7,0-4,0c0-1.3,0-2.7,0-4c-1.3,0-2.7,0-4,0c0,1.3,0,2.7,0,4
		c-1.3,0-2.7,0-4,0c0-4,0-8,0-12c-1.3,0-2.7,0-4,0c0,1.3,0,2.7,0,4c-1.3,0-2.7,0-4,0c0-4,0-8,0-12c-1.3,0-2.7,0-4,0c0,1.3,0,2.7,0,4
		c-1.3,0-2.7,0-4,0c0-1.3,0-2.7,0-4c-1.3,0-2.7,0-4,0c0,1.3,0,2.7,0,4c-1.3,0-2.7,0-4,0c0,2.7,0,5.3,0,8c1.3,0,2.7,0,4,0
		c0-1.3,0-2.7,0-4c1.3,0,2.7,0,4,0c0,2.7,0,5.3,0,8c-1.3,0-2.7,0-4,0c0,1.3,0,2.7,0,4c-1.3,0-2.7,0-4,0c0-1.3,0-2.7,0-4
		c-1.3,0-2.7,0-4,0c0,1.3,0,2.7,0,4c-1.3,0-2.7,0-4,0c0-4,0-8,0-12c-1.3,0-2.7,0-4,0c0,1.3,0,2.7,0,4c-1.3,0-2.7,0-4,0
		c0-2.7,0-5.3,0-8c1.3,0,2.7,0,4,0c0-1.3,0-2.7,0-4c1.3,0,2.7,0,4,0c0-2.7,0-5.3,0-8c-1.3,0-2.7,0-4,0c0,1.3,0,2.7,0,4
		c-1.3,0-2.7,0-4,0c0-2.7,0-5.3,0-8c1.3,0,2.7,0,4,0c0-1.3,0-2.7,0-4c1.3,0,2.7,0,4,0c0-2.7,0-5.3,0-8c-1.3,0-2.7,0-4,0
		c0,1.3,0,2.7,0,4c-1.3,0-2.7,0-4,0c0-4,0-8,0-12c-1.3,0-2.7,0-4,0c0,1.3,0,2.7,0,4c-1.3,0-2.7,0-4,0c0-1.3,0-2.7,0-4
		c-1.3,0-2.7,0-4,0c0,1.3,0,2.7,0,4c-1.3,0-2.7,0-4,0c0,2.7,0,5.3,0,8c1.3,0,2.7,0,4,0c0-1.3,0-2.7,0-4c1.3,0,2.7,0,4,0
		c0,2.7,0,5.3,0,8c-1.3,0-2.7,0-4,0c0,1.3,0,2.7,0,4c-1.3,0-2.7,0-4,0c0-1.3,0-2.7,0-4c-1.3,0-2.7,0-4,0c0,1.3,0,2.7,0,4
		c-1.3,0-2.7,0-4,0c0-4,0-8,0-12c-1.3,0-2.7,0-4,0c0,1.3,0,2.7,0,4c-1.3,0-2.7,0-4,0c0-2.7,0-5.3,0-8c1.3,0,2.7,0,4,0
		c0-1.3,0-2.7,0-4c1.3,0,2.7,0,4,0c0-2.7,0-5.3,0-8c-1.3,0-2.7,0-4,0c0,1.3,0,2.7,0,4c-1.3,0-2.7,0-4,0c0-2.7,0-5.3,0-8
		c1.3,0,2.7,0,4,0c0-1.3,0-2.7,0-4c1.3,0,2.7,0,4,0c0-2.7,0-5.3,0-8c-1.3,0-2.7,0-4,0c0,1.3,0,2.7,0,4c-1.3,0-2.7,0-4,0
		c0-4,0-8,0-12c-1.3,0-2.7,0-4,0c0,1.3,0,2.7,0,4c-1.3,0-2.7,0-4,0c0-1.3,0-2.7,0-4c-1.3,0-2.7,0-4,0c0,1.3,0,2.7,0,4
		c-1.3,0-2.7,0-4,0c0,2.7,0,5.3,0,8c1.3,0,2.7,0,4,0c0-1.3,0-2.7,0-4c1.3,0,2.7,0,4,0c0,2.7,0,5.3,0,8c-1.3,0-2.7,0-4,0
		c0,1.3,0,2.7,0,4c-1.3,0-2.7,0-4,0c0-1.3,0-2.7,0-4c-1.3,0-2.7,0-4,0c0,1.3,0,2.7,0,4c-1.3,0-2.7,0-4,0c0-4,0-8,0-12
		c-1.3,0-2.7,0-4,0c0,1.3,0,2.7,0,4c-1.3,0-2.7,0-4,0c0-4,0-8,0-12c-1.3,0-2.7,0-4,0c0,1.3,0,2.7,0,4c-1.3,0-2.7,0-4,0
		c0-1.3,0-2.7,0-4c-1.3,0-2.7,0-4,0c0,1.3,0,2.7,0,4c-1.3,0-2.7,0-4,0c0,2.7,0,5.3,0,8c1.3,0,2.7,0,4,0c0-1.3,0-2.7,0-4
		c1.3,0,2.7,0,4,0c0,2.7,0,5.3,0,8c-1.3,0-2.7,0-4,0c0,1.3,0,2.7,0,4c-1.3,0-2.7,0-4,0c0-1.3,0-2.7,0-4c-1.3,0-2.7,0-4,0
		c0,1.3,0,2.7,0,4c-1.3,0-2.7,0-4,0c0-1.3,0-2.7,0-4c-1.3,0-2.7,0-4,0c0,1.3,0,2.7,0,4c-1.3,0-2.7,0-4,0c0,2.7,0,5.3,0,8
		c1.3,0,2.7,0,4,0c0-1.3,0-2.7,0-4c1.3,0,2.7,0,4,0c0,2.7,0,5.3,0,8c-1.3,0-2.7,0-4,0c0,1.3,0,2.7,0,4c-1.3,0-2.7,0-4,0
		c0,2.7,0,5.3,0,8c1.3,0,2.7,0,4,0c0-1.3,0-2.7,0-4c1.3,0,2.7,0,4,0c0,4,0,8,0,12c1.3,0,2.7,0,4,0c0-1.3,0-2.7,0-4c1.3,0,2.7,0,4,0
		c0,1.3,0,2.7,0,4c1.3,0,2.7,0,4,0c0-1.3,0-2.7,0-4c1.3,0,2.7,0,4,0c0-2.7,0-5.3,0-8c-1.3,0-2.7,0-4,0c0,1.3,0,2.7,0,4
		c-1.3,0-2.7,0-4,0c0-2.7,0-5.3,0-8c1.3,0,2.7,0,4,0c0-1.3,0-2.7,0-4c1.3,0,2.7,0,4,0c0,1.3,0,2.7,0,4c1.3,0,2.7,0,4,0
		c0-1.3,0-2.7,0-4c1.3,0,2.7,0,4,0c0,4,0,8,0,12c1.3,0,2.7,0,4,0c0-1.3,0-2.7,0-4c1.3,0,2.7,0,4,0c0,2.7,0,5.3,0,8c-1.3,0-2.7,0-4,0
		c0,1.3,0,2.7,0,4c-1.3,0-2.7,0-4,0c0,2.7,0,5.3,0,8c1.3,0,2.7,0,4,0c0-1.3,0-2.7,0-4c1.3,0,2.7,0,4,0c0,2.7,0,5.3,0,8
		c-1.3,0-2.7,0-4,0c0,1.3,0,2.7,0,4c-1.3,0-2.7,0-4,0c0-1.3,0-2.7,0-4c-1.3,0-2.7,0-4,0c0,1.3,0,2.7,0,4c-1.3,0-2.7,0-4,0
		c0-1.3,0-2.7,0-4c-1.3,0-2.7,0-4,0c0,1.3,0,2.7,0,4c-1.3,0-2.7,0-4,0c0,2.7,0,5.3,0,8c1.3,0,2.7,0,4,0c0-1.3,0-2.7,0-4
		c1.3,0,2.7,0,4,0c0,2.7,0,5.3,0,8c-1.3,0-2.7,0-4,0c0,1.3,0,2.7,0,4c-1.3,0-2.7,0-4,0c0-1.3,0-2.7,0-4c-1.3,0-2.7,0-4,0
		c0,1.3,0,2.7,0,4c-1.3,0-2.7,0-4,0c0-4,0-8,0-12c-1.3,0-2.7,0-4,0c0,1.3,0,2.7,0,4c-1.3,0-2.7,0-4,0c0-4,0-8,0-12c-1.3,0-2.7,0-4,0
		c0,1.3,0,2.7,0,4c-1.3,0-2.7,0-4,0c0-1.3,0-2.7,0-4c-1.3,0-2.7,0-4,0c0,1.3,0,2.7,0,4c-1.3,0-2.7,0-4,0c0,2.7,0,5.3,0,8
		c1.3,0,2.7,0,4,0c0-1.3,0-2.7,0-4c1.3,0,2.7,0,4,0c0,2.7,0,5.3,0,8c-1.3,0-2.7,0-4,0c0,1.3,0,2.7,0,4c-1.3,0-2.7,0-4,0
		c0-1.3,0-2.7,0-4c-1.3,0-2.7,0-4,0c0,1.3,0,2.7,0,4c-1.3,0-2.7,0-4,0c0-4,0-8,0-12c-1.3,0-2.7,0-4,0c0,1.3,0,2.7,0,4
		c-1.3,0-2.7,0-4,0c0-2.7,0-5.3,0-8c1.3,0,2.7,0,4,0c0-1.3,0-2.7,0-4c1.3,0,2.7,0,4,0c0-2.7,0-5.3,0-8c-1.3,0-2.7,0-4,0
		c0,1.3,0,2.7,0,4c-1.3,0-2.7,0-4,0c0-2.7,0-5.3,0-8c1.3,0,2.7,0,4,0c0-1.3,0-2.7,0-4c1.3,0,2.7,0,4,0c0-2.7,0-5.3,0-8
		c-1.3,0-2.7,0-4,0c0,1.3,0,2.7,0,4c-1.3,0-2.7,0-4,0c0-4,0-8,0-12c-1.3,0-2.7,0-4,0c0,1.3,0,2.7,0,4c-1.3,0-2.7,0-4,0
		c0-1.3,0-2.7,0-4c-1.3,0-2.7,0-4,0c0,1.3,0,2.7,0,4c-1.3,0-2.7,0-4,0c0,2.7,0,5.3,0,8c1.3,0,2.7,0,4,0c0-1.3,0-2.7,0-4
		c1.3,0,2.7,0,4,0c0,2.7,0,5.3,0,8c-1.3,0-2.7,0-4,0c0,1.3,0,2.7,0,4c-1.3,0-2.7,0-4,0c0-1.3,0-2.7,0-4c-1.3,0-2.7,0-4,0
		c0,1.3,0,2.7,0,4c-1.3,0-2.7,0-4,0c0-4,0-8,0-12c-1.3,0-2.7,0-4,0c0,1.3,0,2.7,0,4c-1.3,0-2.7,0-4,0c0-2.7,0-5.3,0-8
		c1.3,0,2.7,0,4,0c0-1.3,0-2.7,0-4c1.3,0,2.7,0,4,0c0-2.7,0-5.3,0-8c-1.3,0-2.7,0-4,0c0,1.3,0,2.7,0,4c-1.3,0-2.7,0-4,0
		c0-2.7,0-5.3,0-8c1.3,0,2.7,0,4,0c0-1.3,0-2.7,0-4c1.3,0,2.7,0,4,0c0-2.7,0-5.3,0-8c-1.3,0-2.7,0-4,0c0,1.3,0,2.7,0,4
		c-1.3,0-2.7,0-4,0c0-4,0-8,0-12c-1.3,0-2.7,0-4,0c0,1.3,0,2.7,0,4c-1.3,0-2.7,0-4,0c0-1.3,0-2.7,0-4c-1.3,0-2.7,0-4,0
		c0,1.3,0,2.7,0,4c-1.3,0-2.7,0-4,0c0,2.7,0,5.3,0,8c1.3,0,2.7,0,4,0c0-1.3,0-2.7,0-4c1.3,0,2.7,0,4,0c0,2.7,0,5.3,0,8
		c-1.3,0-2.7,0-4,0c0,1.3,0,2.7,0,4c-1.3,0-2.7,0-4,0c0-1.3,0-2.7,0-4c-1.3,0-2.7,0-4,0c0,1.3,0,2.7,0,4c-1.3,0-2.7,0-4,0
		c0-4,0-8,0-12c-1.3,0-2.7,0-4,0c0,1.3,0,2.7,0,4c-1.3,0-2.7,0-4,0c0-4,0-8,0-12c-1.3,0-2.7,0-4,0c0,1.3,0,2.7,0,4c-1.3,0-2.7,0-4,0
		c0-1.3,0-2.7,0-4c-1.3,0-2.7,0-4,0c0,1.3,0,2.7,0,4c-1.3,0-2.7,0-4,0c0,2.7,0,5.3,0,8c1.3,0,2.7,0,4,0c0-1.3,0-2.7,0-4
		c1.3,0,2.7,0,4,0c0,2.7,0,5.3,0,8c-1.3,0-2.7,0-4,0c0,1.3,0,2.7,0,4c-1.3,0-2.7,0-4,0c0-1.3,0-2.7,0-4c-1.3,0-2.7,0-4,0
		c0,1.3,0,2.7,0,4c-1.3,0-2.7,0-4,0c0-1.3,0-2.7,0-4c-1.3,0-2.7,0-4,0c0,1.3,0,2.7,0,4c-1.3,0-2.7,0-4,0c0,2.7,0,5.3,0,8
		c1.3,0,2.7,0,4,0c0-1.3,0-2.7,0-4c1.3,0,2.7,0,4,0c0,2.7,0,5.3,0,8c-1.3,0-2.7,0-4,0c0,1.3,0,2.7,0,4c-1.3,0-2.7,0-4,0
		c0,2.7,0,5.3,0,8c1.3,0,2.7,0,4,0c0-1.3,0-2.7,0-4c1.3,0,2.7,0,4,0c0,4,0,8,0,12c1.3,0,2.7,0,4,0c0-1.3,0-2.7,0-4c1.3,0,2.7,0,4,0
		c0,1.3,0,2.7,0,4c1.3,0,2.7,0,4,0c0-1.3,0-2.7,0-4c1.3,0,2.7,0,4,0c0-2.7,0-5.3,0-8c-1.3,0-2.7,0-4,0c0,1.3,0,2.7,0,4
		c-1.3,0-2.7,0-4,0c0-2.7,0-5.3,0-8c1.3,0,2.7,0,4,0c0-1.3,0-2.7,0-4c1.3,0,2.7,0,4,0c0,1.3,0,2.7,0,4c1.3,0,2.7,0,4,0
		c0-1.3,0-2.7,0-4c1.3,0,2.7,0,4,0c0,4,0,8,0,12c1.3,0,2.7,0,4,0c0-1.3,0-2.7,0-4c1.3,0,2.7,0,4,0c0,2.7,0,5.3,0,8c-1.3,0-2.7,0-4,0
		c0,1.3,0,2.7,0,4c-1.3,0-2.7,0-4,0c0,2.7,0,5.3,0,8c1.3,0,2.7,0,4,0c0-1.3,0-2.7,0-4c1.3,0,2.7,0,4,0c0,2.7,0,5.3,0,8
		c-1.3,0-2.7,0-4,0c0,1.3,0,2.7,0,4c-1.3,0-2.7,0-4,0c0-1.3,0-2.7,0-4c-1.3,0-2.7,0-4,0c0,1.3,0,2.7,0,4c-1.3,0-2.7,0-4,0
		c0-1.3,0-2.7,0-4c-1.3,0-2.7,0-4,0c0,1.3,0,2.7,0,4c-1.3,0-2.7,0-4,0c0,2.7,0,5.3,0,8c1.3,0,2.7,0,4,0c0-1.3,0-2.7,0-4
		c1.3,0,2.7,0,4,0c0,2.7,0,5.3,0,8c-1.3,0-2.7,0-4,0c0,1.3,0,2.7,0,4c-1.3,0-2.7,0-4,0c0-1.3,0-2.7,0-4c-1.3,0-2.7,0-4,0
		c0,1.3,0,2.7,0,4c-1.3,0-2.7,0-4,0c0-4,0-8,0-12c-1.3,0-2.7,0-4,0c0,1.3,0,2.7,0,4c-1.3,0-2.7,0-4,0c0-4,0-8,0-12c-1.3,0-2.7,0-4,0
		c0,1.3,0,2.7,0,4c-1.3,0-2.7,0-4,0c0-1.3,0-2.7,0-4c-1.3,0-2.7,0-4,0c0,1.3,0,2.7,0,4c-1.3,0-2.7,0-4,0c0,2.7,0,5.3,0,8
		c1.3,0,2.7,0,4,0c0-1.3,0-2.7,0-4c1.3,0,2.7,0,4,0c0,2.7,0,5.3,0,8c-1.3,0-2.7,0-4,0c0,1.3,0,2.7,0,4c-1.3,0-2.7,0-4,0
		c0-1.3,0-2.7,0-4c-1.3,0-2.7,0-4,0c0,1.3,0,2.7,0,4c-1.3,0-2.7,0-4,0c0-4,0-8,0-12c-1.3,0-2.7,0-4,0c0,1.3,0,2.7,0,4
		c-1.3,0-2.7,0-4,0c0-4,0-8,0-12c-1.3,0-2.7,0-4,0c0,1.3,0,2.7,0,4c-1.3,0-2.7,0-4,0c0-1.3,0-2.7,0-4c-1.3,0-2.7,0-4,0
		c0,1.3,0,2.7,0,4c-1.3,0-2.7,0-4,0c0,2.7,0,5.3,0,8c1.3,0,2.7,0,4,0c0-1.3,0-2.7,0-4c1.3,0,2.7,0,4,0c0,2.7,0,5.3,0,8
		c-1.3,0-2.7,0-4,0c0,1.3,0,2.7,0,4c-1.3,0-2.7,0-4,0c0-1.3,0-2.7,0-4c-1.3,0-2.7,0-4,0c0,1.3,0,2.7,0,4c-1.3,0-2.7,0-4,0
		c0-1.3,0-2.7,0-4c-1.3,0-2.7,0-4,0c0,1.3,0,2.7,0,4c-1.3,0-2.7,0-4,0c0,2.7,0,5.3,0,8c1.3,0,2.7,0,4,0c0-1.3,0-2.7,0-4
		c1.3,0,2.7,0,4,0c0,2.7,0,5.3,0,8c-1.3,0-2.7,0-4,0c0,1.3,0,2.7,0,4c-1.3,0-2.7,0-4,0c0,2.7,0,5.3,0,8c1.3,0,2.7,0,4,0
		c0-1.3,0-2.7,0-4c1.3,0,2.7,0,4,0c0,4,0,8,0,12c1.3,0,2.7,0,4,0c0-1.3,0-2.7,0-4c1.3,0,2.7,0,4,0c0,1.3,0,2.7,0,4c1.3,0,2.7,0,4,0
		c0-1.3,0-2.7,0-4c1.3,0,2.7,0,4,0c0-2.7,0-5.3,0-8c-1.3,0-2.7,0-4,0c0,1.3,0,2.7,0,4c-1.3,0-2.7,0-4,0c0-2.7,0-5.3,0-8
		c1.3,0,2.7,0,4,0c0-1.3,0-2.7,0-4c1.3,0,2.7,0,4,0c0,1.3,0,2.7,0,4c1.3,0,2.7,0,4,0c0-1.3,0-2.7,0-4c1.3,0,2.7,0,4,0c0,4,0,8,0,12
		c1.3,0,2.7,0,4,0c0-1.3,0-2.7,0-4c1.3,0,2.7,0,4,0c0,2.7,0,5.3,0,8c-1.3,0-2.7,0-4,0c0,1.3,0,2.7,0,4c-1.3,0-2.7,0-4,0
		c0,2.7,0,5.3,0,8c1.3,0,2.7,0,4,0c0-1.3,0-2.7,0-4c1.3,0,2.7,0,4,0c0,2.7,0,5.3,0,8c-1.3,0-2.7,0-4,0c0,1.3,0,2.7,0,4
		c-1.3,0-2.7,0-4,0c0-1.3,0-2.7,0-4c-1.3,0-2.7,0-4,0c0,1.3,0,2.7,0,4c-1.3,0-2.7,0-4,0c0-1.3,0-2.7,0-4c-1.3,0-2.7,0-4,0
		c0,1.3,0,2.7,0,4c-1.3,0-2.7,0-4,0c0,2.7,0,5.3,0,8c1.3,0,2.7,0,4,0c0-1.3,0-2.7,0-4c1.3,0,2.7,0,4,0c0,2.7,0,5.3,0,8
		c-1.3,0-2.7,0-4,0c0,1.3,0,2.7,0,4c-1.3,0-2.7,0-4,0c0-1.3,0-2.7,0-4c-1.3,0-2.7,0-4,0c0,1.3,0,2.7,0,4c-1.3,0-2.7,0-4,0
		c0-1.3,0-2.7,0-4c-1.3,0-2.7,0-4,0c0,1.3,0,2.7,0,4c-1.3,0-2.7,0-4,0c0,2.7,0,5.3,0,8c1.3,0,2.7,0,4,0c0-1.3,0-2.7,0-4
		c1.3,0,2.7,0,4,0c0,2.7,0,5.3,0,8c-1.3,0-2.7,0-4,0c0,1.3,0,2.7,0,4c-1.3,0-2.7,0-4,0c0,2.7,0,5.3,0,8c1.3,0,2.7,0,4,0
		c0-1.3,0-2.7,0-4c1.3,0,2.7,0,4,0c0,4,0,8,0,12c1.3,0,2.7,0,4,0c0-1.3,0-2.7,0-4c1.3,0,2.7,0,4,0c0,1.3,0,2.7,0,4c1.3,0,2.7,0,4,0
		c0-1.3,0-2.7,0-4c1.3,0,2.7,0,4,0c0-2.7,0-5.3,0-8c-1.3,0-2.7,0-4,0c0,1.3,0,2.7,0,4c-1.3,0-2.7,0-4,0c0-2.7,0-5.3,0-8
		c1.3,0,2.7,0,4,0c0-1.3,0-2.7,0-4c1.3,0,2.7,0,4,0c0,1.3,0,2.7,0,4c1.3,0,2.7,0,4,0c0-1.3,0-2.7,0-4c1.3,0,2.7,0,4,0c0,4,0,8,0,12
		c1.3,0,2.7,0,4,0c0-1.3,0-2.7,0-4c1.3,0,2.7,0,4,0c0,2.7,0,5.3,0,8c-1.3,0-2.7,0-4,0c0,1.3,0,2.7,0,4c-1.3,0-2.7,0-4,0
		c0,2.7,0,5.3,0,8c1.3,0,2.7,0,4,0c0-1.3,0-2.7,0-4c1.3,0,2.7,0,4,0c0,2.7,0,5.3,0,8c-1.3,0-2.7,0-4,0c0,1.3,0,2.7,0,4
		c-1.3,0-2.7,0-4,0c0,2.7,0,5.3,0,8c1.3,0,2.7,0,4,0c0-1.3,0-2.7,0-4c1.3,0,2.7,0,4,0c0,4,0,8,0,12c1.3,0,2.7,0,4,0c0-1.3,0-2.7,0-4
		c1.3,0,2.7,0,4,0c0,1.3,0,2.7,0,4c1.3,0,2.7,0,4,0c0-1.3,0-2.7,0-4c1.3,0,2.7,0,4,0c0-2.7,0-5.3,0-8c-1.3,0-2.7,0-4,0
		c0,1.3,0,2.7,0,4c-1.3,0-2.7,0-4,0c0-2.7,0-5.3,0-8c1.3,0,2.7,0,4,0c0-1.3,0-2.7,0-4c1.3,0,2.7,0,4,0c0,1.3,0,2.7,0,4
		c1.3,0,2.7,0,4,0c0-1.3,0-2.7,0-4c1.3,0,2.7,0,4,0c0,4,0,8,0,12c1.3,0,2.7,0,4,0c0-1.3,0-2.7,0-4c1.3,0,2.7,0,4,0c0,4,0,8,0,12
		c1.3,0,2.7,0,4,0c0-1.3,0-2.7,0-4c1.3,0,2.7,0,4,0c0,1.3,0,2.7,0,4c1.3,0,2.7,0,4,0c0-1.3,0-2.7,0-4c1.3,0,2.7,0,4,0
		c0-2.7,0-5.3,0-8c-1.3,0-2.7,0-4,0c0,1.3,0,2.7,0,4c-1.3,0-2.7,0-4,0c0-2.7,0-5.3,0-8c1.3,0,2.7,0,4,0c0-1.3,0-2.7,0-4
		c1.3,0,2.7,0,4,0c0,1.3,0,2.7,0,4c1.3,0,2.7,0,4,0c0-1.3,0-2.7,0-4c1.3,0,2.7,0,4,0c0,1.3,0,2.7,0,4c1.3,0,2.7,0,4,0
		c0-1.3,0-2.7,0-4c1.3,0,2.7,0,4,0c0-2.7,0-5.3,0-8c-1.3,0-2.7,0-4,0c0,1.3,0,2.7,0,4c-1.3,0-2.7,0-4,0c0-2.7,0-5.3,0-8
		c1.3,0,2.7,0,4,0c0-1.3,0-2.7,0-4c1.3,0,2.7,0,4,0c0-2.7,0-5.3,0-8c-1.3,0-2.7,0-4,0c0,1.3,0,2.7,0,4c-1.3,0-2.7,0-4,0
		c0-4,0-8,0-12c-1.3,0-2.7,0-4,0c0,1.3,0,2.7,0,4c-1.3,0-2.7,0-4,0c0-1.3,0-2.7,0-4c-1.3,0-2.7,0-4,0c0,1.3,0,2.7,0,4
		c-1.3,0-2.7,0-4,0c0,2.7,0,5.3,0,8c1.3,0,2.7,0,4,0c0-0.7,0-1.3,0-2c0.7,0,1.3,0,2,0c0,1.3,0,2.7,0,4c-2.7,0-5.3,0-8,0
		c0-1.3,0-2.7,0-4c-1.3,0-2.7,0-4,0c0-1.3,0-2.7,0-4c1.3,0,2.7,0,4,0c0-1.3,0-2.7,0-4c-1.3,0-2.7,0-4,0c0-1.3,0-2.7,0-4
		c4,0,8,0,12,0c0-1.3,0-2.7,0-4c-1.3,0-2.7,0-4,0c0-1.3,0-2.7,0-4c2.7,0,5.3,0,8,0c0,1.3,0,2.7,0,4c1.3,0,2.7,0,4,0c0,1.3,0,2.7,0,4
		c2.7,0,5.3,0,8,0c0-1.3,0-2.7,0-4c-1.3,0-2.7,0-4,0c0-1.3,0-2.7,0-4c2.7,0,5.3,0,8,0c0,1.3,0,2.7,0,4c1.3,0,2.7,0,4,0
		c0,1.3,0,2.7,0,4c-1.3,0-2.7,0-4,0c0,1.3,0,2.7,0,4c1.3,0,2.7,0,4,0c0,1.3,0,2.7,0,4c-1.3,0-2.7,0-4,0c0,1.3,0,2.7,0,4
		c1.3,0,2.7,0,4,0c0,1.3,0,2.7,0,4c2.7,0,5.3,0,8,0c0-1.3,0-2.7,0-4c-1.3,0-2.7,0-4,0c0-1.3,0-2.7,0-4c2.7,0,5.3,0,8,0
		c0,1.3,0,2.7,0,4c1.3,0,2.7,0,4,0c0,1.3,0,2.7,0,4c-1.3,0-2.7,0-4,0c0,1.3,0,2.7,0,4c1.3,0,2.7,0,4,0c0,1.3,0,2.7,0,4
		c-4,0-8,0-12,0c0,1.3,0,2.7,0,4c1.3,0,2.7,0,4,0c0,1.3,0,2.7,0,4c-4,0-8,0-12,0c0,1.3,0,2.7,0,4c1.3,0,2.7,0,4,0c0,1.3,0,2.7,0,4
		c-1.3,0-2.7,0-4,0c0,1.3,0,2.7,0,4c1.3,0,2.7,0,4,0c0,1.3,0,2.7,0,4c2.7,0,5.3,0,8,0c0-1.3,0-2.7,0-4c-1.3,0-2.7,0-4,0
		c0-1.3,0-2.7,0-4c2.7,0,5.3,0,8,0c0,1.3,0,2.7,0,4c1.3,0,2.7,0,4,0c0,1.3,0,2.7,0,4c-1.3,0-2.7,0-4,0c0,1.3,0,2.7,0,4
		c1.3,0,2.7,0,4,0c0,1.3,0,2.7,0,4c-4,0-8,0-12,0c0,1.3,0,2.7,0,4c1.3,0,2.7,0,4,0c0,1.3,0,2.7,0,4c-2.7,0-5.3,0-8,0
		c0-1.3,0-2.7,0-4c-1.3,0-2.7,0-4,0c0-1.3,0-2.7,0-4c-2.7,0-5.3,0-8,0c0,1.3,0,2.7,0,4c1.3,0,2.7,0,4,0c0,1.3,0,2.7,0,4
		c-2.7,0-5.3,0-8,0c0-1.3,0-2.7,0-4c-1.3,0-2.7,0-4,0c0-1.3,0-2.7,0-4c-2.7,0-5.3,0-8,0c0,1.3,0,2.7,0,4c1.3,0,2.7,0,4,0
		c0,1.3,0,2.7,0,4c-4,0-8,0-12,0c0,1.3,0,2.7,0,4c1.3,0,2.7,0,4,0c0,1.3,0,2.7,0,4c-1.3,0-2.7,0-4,0c0,1.3,0,2.7,0,4
		c1.3,0,2.7,0,4,0c0,1.3,0,2.7,0,4c2.7,0,5.3,0,8,0c0-1.3,0-2.7,0-4c-1.3,0-2.7,0-4,0c0-1.3,0-2.7,0-4c2.7,0,5.3,0,8,0
		c0,1.3,0,2.7,0,4c1.3,0,2.7,0,4,0c0,1.3,0,2.7,0,4c-1.3,0-2.7,0-4,0c0,1.3,0,2.7,0,4c1.3,0,2.7,0,4,0c0,1.3,0,2.7,0,4
		c-4,0-8,0-12,0c0,1.3,0,2.7,0,4c1.3,0,2.7,0,4,0c0,1.3,0,2.7,0,4c-2.7,0-5.3,0-8,0c0-1.3,0-2.7,0-4c-1.3,0-2.7,0-4,0
		c0-1.3,0-2.7,0-4c-2.7,0-5.3,0-8,0c0,1.3,0,2.7,0,4c1.3,0,2.7,0,4,0c0,1.3,0,2.7,0,4c-2.7,0-5.3,0-8,0c0-1.3,0-2.7,0-4
		c-1.3,0-2.7,0-4,0c0-1.3,0-2.7,0-4c1.3,0,2.7,0,4,0c0-1.3,0-2.7,0-4c-1.3,0-2.7,0-4,0c0-1.3,0-2.7,0-4c1.3,0,2.7,0,4,0
		c0-1.3,0-2.7,0-4c-1.3,0-2.7,0-4,0c0-1.3,0-2.7,0-4c-2.7,0-5.3,0-8,0c0,1.3,0,2.7,0,4c1.3,0,2.7,0,4,0c0,1.3,0,2.7,0,4
		c-2.7,0-5.3,0-8,0c0-1.3,0-2.7,0-4c-1.3,0-2.7,0-4,0c0-1.3,0-2.7,0-4c1.3,0,2.7,0,4,0c0-1.3,0-2.7,0-4c-1.3,0-2.7,0-4,0
		c0-1.3,0-2.7,0-4c1.3,0,2.7,0,4,0c0-1.3,0-2.7,0-4c-1.3,0-2.7,0-4,0c0-1.3,0-2.7,0-4c-2.7,0-5.3,0-8,0c0,1.3,0,2.7,0,4
		c1.3,0,2.7,0,4,0c0,1.3,0,2.7,0,4c-2.7,0-5.3,0-8,0c0-1.3,0-2.7,0-4c-1.3,0-2.7,0-4,0c0-1.3,0-2.7,0-4c-2.7,0-5.3,0-8,0
		c0,1.3,0,2.7,0,4c1.3,0,2.7,0,4,0c0,1.3,0,2.7,0,4c-4,0-8,0-12,0c0,1.3,0,2.7,0,4c1.3,0,2.7,0,4,0c0,1.3,0,2.7,0,4
		c-1.3,0-2.7,0-4,0c0,1.3,0,2.7,0,4c1.3,0,2.7,0,4,0c0,1.3,0,2.7,0,4c2.7,0,5.3,0,8,0c0-1.3,0-2.7,0-4c-1.3,0-2.7,0-4,0
		c0-1.3,0-2.7,0-4c2.7,0,5.3,0,8,0c0,1.3,0,2.7,0,4c1.3,0,2.7,0,4,0c0,1.3,0,2.7,0,4c-1.3,0-2.7,0-4,0c0,1.3,0,2.7,0,4
		c1.3,0,2.7,0,4,0c0,1.3,0,2.7,0,4c-4,0-8,0-12,0c0,1.3,0,2.7,0,4c1.3,0,2.7,0,4,0c0,1.3,0,2.7,0,4c-2.7,0-5.3,0-8,0
		c0-1.3,0-2.7,0-4c-1.3,0-2.7,0-4,0c0-1.3,0-2.7,0-4c-2.7,0-5.3,0-8,0c0,1.3,0,2.7,0,4c1.3,0,2.7,0,4,0c0,1.3,0,2.7,0,4
		c-2.7,0-5.3,0-8,0c0-1.3,0-2.7,0-4c-1.3,0-2.7,0-4,0c0-1.3,0-2.7,0-4c1.3,0,2.7,0,4,0c0-1.3,0-2.7,0-4c-1.3,0-2.7,0-4,0
		c0-1.3,0-2.7,0-4c1.3,0,2.7,0,4,0c0-1.3,0-2.7,0-4c-1.3,0-2.7,0-4,0c0-1.3,0-2.7,0-4c-2.7,0-5.3,0-8,0c0,1.3,0,2.7,0,4
		c1.3,0,2.7,0,4,0c0,1.3,0,2.7,0,4c-2.7,0-5.3,0-8,0c0-1.3,0-2.7,0-4c-1.3,0-2.7,0-4,0c0-1.3,0-2.7,0-4c1.3,0,2.7,0,4,0
		c0-1.3,0-2.7,0-4c-1.3,0-2.7,0-4,0c0-1.3,0-2.7,0-4c4,0,8,0,12,0c0-1.3,0-2.7,0-4c-1.3,0-2.7,0-4,0c0-1.3,0-2.7,0-4c4,0,8,0,12,0
		c0-1.3,0-2.7,0-4c-1.3,0-2.7,0-4,0c0-1.3,0-2.7,0-4c1.3,0,2.7,0,4,0c0-1.3,0-2.7,0-4c-1.3,0-2.7,0-4,0c0-1.3,0-2.7,0-4
		c-2.7,0-5.3,0-8,0c0,1.3,0,2.7,0,4c1.3,0,2.7,0,4,0c0,1.3,0,2.7,0,4c-2.7,0-5.3,0-8,0c0-1.3,0-2.7,0-4c-1.3,0-2.7,0-4,0
		c0-1.3,0-2.7,0-4c1.3,0,2.7,0,4,0c0-1.3,0-2.7,0-4c-1.3,0-2.7,0-4,0c0-1.3,0-2.7,0-4c4,0,8,0,12,0c0-1.3,0-2.7,0-4
		c-1.3,0-2.7,0-4,0c0-1.3,0-2.7,0-4c4,0,8,0,12,0c0-1.3,0-2.7,0-4c-1.3,0-2.7,0-4,0c0-1.3,0-2.7,0-4c1.3,0,2.7,0,4,0
		c0-1.3,0-2.7,0-4c-1.3,0-2.7,0-4,0c0-1.3,0-2.7,0-4c-2.7,0-5.3,0-8,0c0,1.3,0,2.7,0,4c1.3,0,2.7,0,4,0c0,1.3,0,2.7,0,4
		c-2.7,0-5.3,0-8,0c0-1.3,0-2.7,0-4c-1.3,0-2.7,0-4,0c0-1.3,0-2.7,0-4c1.3,0,2.7,0,4,0c0-1.3,0-2.7,0-4c-1.3,0-2.7,0-4,0
		c0-1.3,0-2.7,0-4c1.3,0,2.7,0,4,0c0-1.3,0-2.7,0-4c-1.3,0-2.7,0-4,0c0-1.3,0-2.7,0-4c-2.7,0-5.3,0-8,0c0,1.3,0,2.7,0,4
		c1.3,0,2.7,0,4,0c0,1.3,0,2.7,0,4c-2.7,0-5.3,0-8,0c0-1.3,0-2.7,0-4c-1.3,0-2.7,0-4,0c0-1.3,0-2.7,0-4c-2.7,0-5.3,0-8,0
		c0,1.3,0,2.7,0,4c1.3,0,2.7,0,4,0c0,1.3,0,2.7,0,4c-4,0-8,0-12,0c0,1.3,0,2.7,0,4c1.3,0,2.7,0,4,0c0,1.3,0,2.7,0,4
		c-1.3,0-2.7,0-4,0c0,1.3,0,2.7,0,4c1.3,0,2.7,0,4,0c0,1.3,0,2.7,0,4c2.7,0,5.3,0,8,0c0-1.3,0-2.7,0-4c-1.3,0-2.7,0-4,0
		c0-1.3,0-2.7,0-4c2.7,0,5.3,0,8,0c0,1.3,0,2.7,0,4c1.3,0,2.7,0,4,0c0,1.3,0,2.7,0,4c-1.3,0-2.7,0-4,0c0,1.3,0,2.7,0,4
		c1.3,0,2.7,0,4,0c0,1.3,0,2.7,0,4c-4,0-8,0-12,0c0,1.3,0,2.7,0,4c1.3,0,2.7,0,4,0c0,1.3,0,2.7,0,4c-2.7,0-5.3,0-8,0
		c0-1.3,0-2.7,0-4c-1.3,0-2.7,0-4,0c0-1.3,0-2.7,0-4c-2.7,0-5.3,0-8,0c0,1.3,0,2.7,0,4c1.3,0,2.7,0,4,0c0,1.3,0,2.7,0,4
		c-2.7,0-5.3,0-8,0c0-1.3,0-2.7,0-4c-1.3,0-2.7,0-4,0c0-1.3,0-2.7,0-4c1.3,0,2.7,0,4,0c0-1.3,0-2.7,0-4c-1.3,0-2.7,0-4,0
		c0-1.3,0-2.7,0-4c1.3,0,2.7,0,4,0c0-1.3,0-2.7,0-4c-1.3,0-2.7,0-4,0c0-1.3,0-2.7,0-4c-2.7,0-5.3,0-8,0c0,1.3,0,2.7,0,4
		c1.3,0,2.7,0,4,0c0,1.3,0,2.7,0,4c-2.7,0-5.3,0-8,0c0-1.3,0-2.7,0-4c-1.3,0-2.7,0-4,0c0-1.3,0-2.7,0-4c1.3,0,2.7,0,4,0
		c0-1.3,0-2.7,0-4c-1.3,0-2.7,0-4,0c0-1.3,0-2.7,0-4c4,0,8,0,12,0c0-1.3,0-2.7,0-4c-1.3,0-2.7,0-4,0c0-1.3,0-2.7,0-4c4,0,8,0,12,0
		c0-1.3,0-2.7,0-4c-1.3,0-2.7,0-4,0c0-1.3,0-2.7,0-4c1.3,0,2.7,0,4,0c0-1.3,0-2.7,0-4c-1.3,0-2.7,0-4,0c0-1.3,0-2.7,0-4
		c-2.7,0-5.3,0-8,0c0,1.3,0,2.7,0,4c1.3,0,2.7,0,4,0c0,1.3,0,2.7,0,4c-2.7,0-5.3,0-8,0c0-1.3,0-2.7,0-4c-1.3,0-2.7,0-4,0
		c0-1.3,0-2.7,0-4c1.3,0,2.7,0,4,0c0-1.3,0-2.7,0-4c-1.3,0-2.7,0-4,0c0-1.3,0-2.7,0-4c4,0,8,0,12,0c0-1.3,0-2.7,0-4
		c-1.3,0-2.7,0-4,0c0-1.3,0-2.7,0-4c2.7,0,5.3,0,8,0c0,1.3,0,2.7,0,4c1.3,0,2.7,0,4,0c0,1.3,0,2.7,0,4c2.7,0,5.3,0,8,0
		c0-1.3,0-2.7,0-4c-1.3,0-2.7,0-4,0c0-1.3,0-2.7,0-4c2.7,0,5.3,0,8,0c0,1.3,0,2.7,0,4c1.3,0,2.7,0,4,0c0,1.3,0,2.7,0,4
		c2.7,0,5.3,0,8,0c0-1.3,0-2.7,0-4c-1.3,0-2.7,0-4,0c0-1.3,0-2.7,0-4c4,0,8,0,12,0c0-1.3,0-2.7,0-4c-1.3,0-2.7,0-4,0
		c0-1.3,0-2.7,0-4c1.3,0,2.7,0,4,0c0-1.3,0-2.7,0-4c-1.3,0-2.7,0-4,0c0-1.3,0-2.7,0-4c-2.7,0-5.3,0-8,0c0,1.3,0,2.7,0,4
		c1.3,0,2.7,0,4,0c0,1.3,0,2.7,0,4c-2.7,0-5.3,0-8,0c0-1.3,0-2.7,0-4c-1.3,0-2.7,0-4,0c0-1.3,0-2.7,0-4c1.3,0,2.7,0,4,0
		c0-1.3,0-2.7,0-4c-1.3,0-2.7,0-4,0c0-1.3,0-2.7,0-4c4,0,8,0,12,0c0-1.3,0-2.7,0-4c-1.3,0-2.7,0-4,0c0-1.3,0-2.7,0-4
		c2.7,0,5.3,0,8,0c0,1.3,0,2.7,0,4c1.3,0,2.7,0,4,0c0,1.3,0,2.7,0,4c2.7,0,5.3,0,8,0c0-1.3,0-2.7,0-4c-1.3,0-2.7,0-4,0
		c0-1.3,0-2.7,0-4c2.7,0,5.3,0,8,0c0,1.3,0,2.7,0,4c1.3,0,2.7,0,4,0c0,1.3,0,2.7,0,4c2.7,0,5.3,0,8,0c0-1.3,0-2.7,0-4
		c-1.3,0-2.7,0-4,0c0-1.3,0-2.7,0-4c4,0,8,0,12,0c0-1.3,0-2.7,0-4c-1.3,0-2.7,0-4,0c0-1.3,0-2.7,0-4c1.3,0,2.7,0,4,0
		c0-1.3,0-2.7,0-4c-1.3,0-2.7,0-4,0c0-1.3,0-2.7,0-4c-2.7,0-5.3,0-8,0c0,1.3,0,2.7,0,4c1.3,0,2.7,0,4,0c0,1.3,0,2.7,0,4
		c-2.7,0-5.3,0-8,0c0-1.3,0-2.7,0-4c-1.3,0-2.7,0-4,0c0-1.3,0-2.7,0-4c1.3,0,2.7,0,4,0c0-1.3,0-2.7,0-4c-1.3,0-2.7,0-4,0
		c0-1.3,0-2.7,0-4c4,0,8,0,12,0c0-1.3,0-2.7,0-4c-1.3,0-2.7,0-4,0c0-1.3,0-2.7,0-4c4,0,8,0,12,0c0-1.3,0-2.7,0-4c-1.3,0-2.7,0-4,0
		c0-1.3,0-2.7,0-4c1.3,0,2.7,0,4,0c0-1.3,0-2.7,0-4c-1.3,0-2.7,0-4,0c0-1.3,0-2.7,0-4c-2.7,0-5.3,0-8,0c0,1.3,0,2.7,0,4
		c1.3,0,2.7,0,4,0c0,1.3,0,2.7,0,4c-2.7,0-5.3,0-8,0c0-1.3,0-2.7,0-4c-1.3,0-2.7,0-4,0c0-1.3,0-2.7,0-4c1.3,0,2.7,0,4,0
		c0-1.3,0-2.7,0-4c-1.3,0-2.7,0-4,0c0-1.3,0-2.7,0-4c1.3,0,2.7,0,4,0c0-1.3,0-2.7,0-4c-1.3,0-2.7,0-4,0c0-1.3,0-2.7,0-4
		c-2.7,0-5.3,0-8,0c0,1.3,0,2.7,0,4c1.3,0,2.7,0,4,0c0,1.3,0,2.7,0,4c-2.7,0-5.3,0-8,0c0-1.3,0-2.7,0-4c-1.3,0-2.7,0-4,0
		c0-1.3,0-2.7,0-4c-2.7,0-5.3,0-8,0c0,1.3,0,2.7,0,4c1.3,0,2.7,0,4,0c0,1.3,0,2.7,0,4c-4,0-8,0-12,0c0,1.3,0,2.7,0,4
		c1.3,0,2.7,0,4,0c0,1.3,0,2.7,0,4c-1.3,0-2.7,0-4,0c0,1.3,0,2.7,0,4c1.3,0,2.7,0,4,0c0,1.3,0,2.7,0,4c2.7,0,5.3,0,8,0
		c0-1.3,0-2.7,0-4c-1.3,0-2.7,0-4,0c0-1.3,0-2.7,0-4c2.7,0,5.3,0,8,0c0,1.3,0,2.7,0,4c1.3,0,2.7,0,4,0c0,1.3,0,2.7,0,4
		c-1.3,0-2.7,0-4,0c0,1.3,0,2.7,0,4c1.3,0,2.7,0,4,0c0,1.3,0,2.7,0,4c-4,0-8,0-12,0c0,1.3,0,2.7,0,4c1.3,0,2.7,0,4,0
		c0,1.3,0,2.7,0,4c-2.7,0-5.3,0-8,0c0-1.3,0-2.7,0-4c-1.3,0-2.7,0-4,0c0-1.3,0-2.7,0-4c-2.7,0-5.3,0-8,0c0,1.3,0,2.7,0,4
		c1.3,0,2.7,0,4,0c0,1.3,0,2.7,0,4c-2.7,0-5.3,0-8,0c0-1.3,0-2.7,0-4c-1.3,0-2.7,0-4,0c0-1.3,0-2.7,0-4c1.3,0,2.7,0,4,0
		c0-1.3,0-2.7,0-4c-1.3,0-2.7,0-4,0c0-1.3,0-2.7,0-4c1.3,0,2.7,0,4,0c0-1.3,0-2.7,0-4c-1.3,0-2.7,0-4,0c0-1.3,0-2.7,0-4
		c-2.7,0-5.3,0-8,0c0,1.3,0,2.7,0,4c1.3,0,2.7,0,4,0c0,1.3,0,2.7,0,4c-2.7,0-5.3,0-8,0c0-1.3,0-2.7,0-4c-1.3,0-2.7,0-4,0
		c0-1.3,0-2.7,0-4c1.3,0,2.7,0,4,0c0-1.3,0-2.7,0-4c-1.3,0-2.7,0-4,0c0-1.3,0-2.7,0-4c4,0,8,0,12,0c0-1.3,0-2.7,0-4
		c-1.3,0-2.7,0-4,0c0-1.3,0-2.7,0-4c4,0,8,0,12,0c0-1.3,0-2.7,0-4c-1.3,0-2.7,0-4,0c0-1.3,0-2.7,0-4c1.3,0,2.7,0,4,0
		c0-1.3,0-2.7,0-4c-1.3,0-2.7,0-4,0c0-1.3,0-2.7,0-4c-2.7,0-5.3,0-8,0c0,1.3,0,2.7,0,4c1.3,0,2.7,0,4,0c0,1.3,0,2.7,0,4
		c-2.7,0-5.3,0-8,0c0-1.3,0-2.7,0-4c-1.3,0-2.7,0-4,0c0-1.3,0-2.7,0-4c1.3,0,2.7,0,4,0c0-1.3,0-2.7,0-4c-1.3,0-2.7,0-4,0
		c0-1.3,0-2.7,0-4c4,0,8,0,12,0c0-1.3,0-2.7,0-4c-1.3,0-2.7,0-4,0c0-1.3,0-2.7,0-4c2.7,0,5.3,0,8,0c0,1.3,0,2.7,0,4c1.3,0,2.7,0,4,0
		c0,1.3,0,2.7,0,4c2.7,0,5.3,0,8,0c0-1.3,0-2.7,0-4c-1.3,0-2.7,0-4,0c0-1.3,0-2.7,0-4c2.7,0,5.3,0,8,0c0,1.3,0,2.7,0,4
		c1.3,0,2.7,0,4,0c0,1.3,0,2.7,0,4c2.7,0,5.3,0,8,0c0-1.3,0-2.7,0-4c-1.3,0-2.7,0-4,0c0-1.3,0-2.7,0-4c4,0,8,0,12,0c0-1.3,0-2.7,0-4
		c-1.3,0-2.7,0-4,0c0-1.3,0-2.7,0-4c1.3,0,2.7,0,4,0c0-1.3,0-2.7,0-4c-1.3,0-2.7,0-4,0c0-1.3,0-2.7,0-4c-2.7,0-5.3,0-8,0
		c0,1.3,0,2.7,0,4c1.3,0,2.7,0,4,0c0,1.3,0,2.7,0,4c-2.7,0-5.3,0-8,0c0-1.3,0-2.7,0-4c-1.3,0-2.7,0-4,0c0-1.3,0-2.7,0-4
		c1.3,0,2.7,0,4,0c0-1.3,0-2.7,0-4c-1.3,0-2.7,0-4,0c0-1.3,0-2.7,0-4c4,0,8,0,12,0c0-1.3,0-2.7,0-4c-1.3,0-2.7,0-4,0
		c0-1.3,0-2.7,0-4c2.7,0,5.3,0,8,0c0,1.3,0,2.7,0,4c1.3,0,2.7,0,4,0c0,1.3,0,2.7,0,4c2.7,0,5.3,0,8,0c0-1.3,0-2.7,0-4
		c-1.3,0-2.7,0-4,0c0-1.3,0-2.7,0-4c2.7,0,5.3,0,8,0c0,1.3,0,2.7,0,4c1.3,0,2.7,0,4,0c0,1.3,0,2.7,0,4c-1.3,0-2.7,0-4,0
		c0,1.3,0,2.7,0,4c1.3,0,2.7,0,4,0c0,1.3,0,2.7,0,4c-1.3,0-2.7,0-4,0c0,1.3,0,2.7,0,4c1.3,0,2.7,0,4,0c0,1.3,0,2.7,0,4
		c2.7,0,5.3,0,8,0c0-1.3,0-2.7,0-4c-1.3,0-2.7,0-4,0c0-1.3,0-2.7,0-4c2.7,0,5.3,0,8,0c0,1.3,0,2.7,0,4c1.3,0,2.7,0,4,0
		c0,1.3,0,2.7,0,4c-1.3,0-2.7,0-4,0c0,1.3,0,2.7,0,4c1.3,0,2.7,0,4,0c0,1.3,0,2.7,0,4c-1.3,0-2.7,0-4,0c0,1.3,0,2.7,0,4
		c1.3,0,2.7,0,4,0c0,1.3,0,2.7,0,4c2.7,0,5.3,0,8,0c0-1.3,0-2.7,0-4c-1.3,0-2.7,0-4,0c0-1.3,0-2.7,0-4c2.7,0,5.3,0,8,0
		c0,1.3,0,2.7,0,4c1.3,0,2.7,0,4,0c0,1.3,0,2.7,0,4c2.7,0,5.3,0,8,0c0-1.3,0-2.7,0-4c-1.3,0-2.7,0-4,0c0-1.3,0-2.7,0-4c4,0,8,0,12,0
		c0-1.3,0-2.7,0-4c-1.3,0-2.7,0-4,0c0-1.3,0-2.7,0-4c1.3,0,2.7,0,4,0c0-1.3,0-2.7,0-4c-1.3,0-2.7,0-4,0c0-1.3,0-2.7,0-4
		c-2.7,0-5.3,0-8,0c0,1.3,0,2.7,0,4c1.3,0,2.7,0,4,0c0,1.3,0,2.7,0,4c-2.7,0-5.3,0-8,0c0-1.3,0-2.7,0-4c-1.3,0-2.7,0-4,0
		c0-1.3,0-2.7,0-4c1.3,0,2.7,0,4,0c0-1.3,0-2.7,0-4c-1.3,0-2.7,0-4,0c0-1.3,0-2.7,0-4c4,0,8,0,12,0c0-1.3,0-2.7,0-4
		c-1.3,0-2.7,0-4,0c0-1.3,0-2.7,0-4c2.7,0,5.3,0,8,0c0,1.3,0,2.7,0,4c1.3,0,2.7,0,4,0c0,1.3,0,2.7,0,4c2.7,0,5.3,0,8,0
		c0-1.3,0-2.7,0-4c-1.3,0-2.7,0-4,0c0-1.3,0-2.7,0-4c2.7,0,5.3,0,8,0c0,1.3,0,2.7,0,4c1.3,0,2.7,0,4,0c0,1.3,0,2.7,0,4
		c-1.3,0-2.7,0-4,0c0,1.3,0,2.7,0,4c1.3,0,2.7,0,4,0c0,1.3,0,2.7,0,4c-1.3,0-2.7,0-4,0c0,1.3,0,2.7,0,4c1.3,0,2.7,0,4,0
		c0,1.3,0,2.7,0,4c2.7,0,5.3,0,8,0c0-1.3,0-2.7,0-4c-1.3,0-2.7,0-4,0c0-1.3,0-2.7,0-4c2.7,0,5.3,0,8,0c0,1.3,0,2.7,0,4
		c1.3,0,2.7,0,4,0c0,1.3,0,2.7,0,4c-1.3,0-2.7,0-4,0c0,1.3,0,2.7,0,4c1.3,0,2.7,0,4,0c0,1.3,0,2.7,0,4c-1.3,0-2.7,0-4,0
		c0,1.3,0,2.7,0,4c1.3,0,2.7,0,4,0c0,1.3,0,2.7,0,4c2.7,0,5.3,0,8,0c0-1.3,0-2.7,0-4c-1.3,0-2.7,0-4,0c0-1.3,0-2.7,0-4
		c2.7,0,5.3,0,8,0c0,1.3,0,2.7,0,4c1.3,0,2.7,0,4,0c0,1.3,0,2.7,0,4c2.7,0,5.3,0,8,0c0-1.3,0-2.7,0-4c-1.3,0-2.7,0-4,0
		c0-1.3,0-2.7,0-4c4,0,8,0,12,0c0-1.3,0-2.7,0-4c-1.3,0-2.7,0-4,0c0-1.3,0-2.7,0-4c1.3,0,2.7,0,4,0c0-1.3,0-2.7,0-4
		c-1.3,0-2.7,0-4,0c0-1.3,0-2.7,0-4c-2.7,0-5.3,0-8,0c0,1.3,0,2.7,0,4c1.3,0,2.7,0,4,0c0,1.3,0,2.7,0,4c-2.7,0-5.3,0-8,0
		c0-1.3,0-2.7,0-4c-1.3,0-2.7,0-4,0c0-1.3,0-2.7,0-4c1.3,0,2.7,0,4,0c0-1.3,0-2.7,0-4c-1.3,0-2.7,0-4,0c0-1.3,0-2.7,0-4
		c4,0,8,0,12,0c0-1.3,0-2.7,0-4c-1.3,0-2.7,0-4,0c0-1.3,0-2.7,0-4c2.7,0,5.3,0,8,0c0,1.3,0,2.7,0,4c1.3,0,2.7,0,4,0c0,1.3,0,2.7,0,4
		c2.7,0,5.3,0,8,0c0-1.3,0-2.7,0-4c-1.3,0-2.7,0-4,0c0-1.3,0-2.7,0-4c2.7,0,5.3,0,8,0c0,1.3,0,2.7,0,4c1.3,0,2.7,0,4,0
		c0,1.3,0,2.7,0,4c2.7,0,5.3,0,8,0c0-1.3,0-2.7,0-4c-1.3,0-2.7,0-4,0c0-1.3,0-2.7,0-4c4,0,8,0,12,0c0-1.3,0-2.7,0-4
		c-1.3,0-2.7,0-4,0c0-1.3,0-2.7,0-4c1.3,0,2.7,0,4,0c0-1.3,0-2.7,0-4c-1.3,0-2.7,0-4,0c0-1.3,0-2.7,0-4c-2.7,0-5.3,0-8,0
		c0,1.3,0,2.7,0,4c1.3,0,2.7,0,4,0c0,1.3,0,2.7,0,4c-2.7,0-5.3,0-8,0c0-1.3,0-2.7,0-4c-1.3,0-2.7,0-4,0c0-1.3,0-2.7,0-4
		c1.3,0,2.7,0,4,0c0-1.3,0-2.7,0-4c-1.3,0-2.7,0-4,0c0-1.3,0-2.7,0-4c4,0,8,0,12,0c0-1.3,0-2.7,0-4c-1.3,0-2.7,0-4,0
		c0-1.3,0-2.7,0-4c4,0,8,0,12,0c0-1.3,0-2.7,0-4c-1.3,0-2.7,0-4,0c0-1.3,0-2.7,0-4c1.3,0,2.7,0,4,0c0-1.3,0-2.7,0-4
		c-1.3,0-2.7,0-4,0c0-1.3,0-2.7,0-4c-2.7,0-5.3,0-8,0c0,1.3,0,2.7,0,4c1.3,0,2.7,0,4,0c0,1.3,0,2.7,0,4c-2.7,0-5.3,0-8,0
		c0-1.3,0-2.7,0-4c-1.3,0-2.7,0-4,0c0-1.3,0-2.7,0-4c1.3,0,2.7,0,4,0c0-1.3,0-2.7,0-4c-1.3,0-2.7,0-4,0c0-1.3,0-2.7,0-4
		c1.3,0,2.7,0,4,0c0-1.3,0-2.7,0-4c-1.3,0-2.7,0-4,0c0-1.3,0-2.7,0-4c-2.7,0-5.3,0-8,0c0,1.3,0,2.7,0,4c1.3,0,2.7,0,4,0
		c0,1.3,0,2.7,0,4c-2.7,0-5.3,0-8,0c0-1.3,0-2.7,0-4c-1.3,0-2.7,0-4,0c0-1.3,0-2.7,0-4c-2.7,0-5.3,0-8,0c0,1.3,0,2.7,0,4
		c1.3,0,2.7,0,4,0c0,1.3,0,2.7,0,4c-4,0-8,0-12,0c0,1.3,0,2.7,0,4c1.3,0,2.7,0,4,0c0,1.3,0,2.7,0,4c-1.3,0-2.7,0-4,0
		c0,1.3,0,2.7,0,4c1.3,0,2.7,0,4,0c0,1.3,0,2.7,0,4c2.7,0,5.3,0,8,0c0-1.3,0-2.7,0-4c-1.3,0-2.7,0-4,0c0-1.3,0-2.7,0-4
		c2.7,0,5.3,0,8,0c0,1.3,0,2.7,0,4c1.3,0,2.7,0,4,0c0,1.3,0,2.7,0,4c-1.3,0-2.7,0-4,0c0,1.3,0,2.7,0,4c1.3,0,2.7,0,4,0
		c0,1.3,0,2.7,0,4c-4,0-8,0-12,0c0,1.3,0,2.7,0,4c1.3,0,2.7,0,4,0c0,1.3,0,2.7,0,4c-2.7,0-5.3,0-8,0c0-1.3,0-2.7,0-4
		c-1.3,0-2.7,0-4,0c0-1.3,0-2.7,0-4c-2.7,0-5.3,0-8,0c0,1.3,0,2.7,0,4c1.3,0,2.7,0,4,0c0,1.3,0,2.7,0,4c-2.7,0-5.3,0-8,0
		c0-1.3,0-2.7,0-4c-1.3,0-2.7,0-4,0c0-1.3,0-2.7,0-4c1.3,0,2.7,0,4,0c0-1.3,0-2.7,0-4c-1.3,0-2.7,0-4,0c0-1.3,0-2.7,0-4
		c1.3,0,2.7,0,4,0c0-1.3,0-2.7,0-4c-1.3,0-2.7,0-4,0c0-1.3,0-2.7,0-4c-2.7,0-5.3,0-8,0c0,1.3,0,2.7,0,4c1.3,0,2.7,0,4,0
		c0,1.3,0,2.7,0,4c-2.7,0-5.3,0-8,0c0-1.3,0-2.7,0-4c-1.3,0-2.7,0-4,0c0-1.3,0-2.7,0-4c1.3,0,2.7,0,4,0c0-1.3,0-2.7,0-4
		c-1.3,0-2.7,0-4,0c0-1.3,0-2.7,0-4c4,0,8,0,12,0c0-1.3,0-2.7,0-4c-1.3,0-2.7,0-4,0c0-1.3,0-2.7,0-4c4,0,8,0,12,0c0-1.3,0-2.7,0-4
		c-1.3,0-2.7,0-4,0c0-1.3,0-2.7,0-4c1.3,0,2.7,0,4,0c0-1.3,0-2.7,0-4c-1.3,0-2.7,0-4,0c0-1.3,0-2.7,0-4c-2.7,0-5.3,0-8,0
		c0,1.3,0,2.7,0,4c1.3,0,2.7,0,4,0c0,1.3,0,2.7,0,4c-2.7,0-5.3,0-8,0c0-1.3,0-2.7,0-4c-1.3,0-2.7,0-4,0c0-1.3,0-2.7,0-4
		c1.3,0,2.7,0,4,0c0-1.3,0-2.7,0-4c-1.3,0-2.7,0-4,0c0-1.3,0-2.7,0-4c4,0,8,0,12,0c0-1.3,0-2.7,0-4c-1.3,0-2.7,0-4,0
		c0-1.3,0-2.7,0-4c2.7,0,5.3,0,8,0c0,1.3,0,2.7,0,4c1.3,0,2.7,0,4,0c0,1.3,0,2.7,0,4c2.7,0,5.3,0,8,0c0-1.3,0-2.7,0-4
		c-1.3,0-2.7,0-4,0c0-1.3,0-2.7,0-4c2.7,0,5.3,0,8,0c0,1.3,0,2.7,0,4c1.3,0,2.7,0,4,0c0,1.3,0,2.7,0,4c2.7,0,5.3,0,8,0
		c0-1.3,0-2.7,0-4c-1.3,0-2.7,0-4,0c0-1.3,0-2.7,0-4c4,0,8,0,12,0c0-1.3,0-2.7,0-4c-1.3,0-2.7,0-4,0c0-1.3,0-2.7,0-4
		c1.3,0,2.7,0,4,0c0-1.3,0-2.7,0-4c-1.3,0-2.7,0-4,0c0-1.3,0-2.7,0-4c-2.7,0-5.3,0-8,0c0,1.3,0,2.7,0,4c1.3,0,2.7,0,4,0
		c0,1.3,0,2.7,0,4c-2.7,0-5.3,0-8,0c0-1.3,0-2.7,0-4c-1.3,0-2.7,0-4,0c0-1.3,0-2.7,0-4c1.3,0,2.7,0,4,0c0-1.3,0-2.7,0-4
		c-1.3,0-2.7,0-4,0c0-1.3,0-2.7,0-4c4,0,8,0,12,0c0-1.3,0-2.7,0-4c-1.3,0-2.7,0-4,0c0-1.3,0-2.7,0-4c2.7,0,5.3,0,8,0
		c0,1.3,0,2.7,0,4c1.3,0,2.7,0,4,0c0,1.3,0,2.7,0,4c2.7,0,5.3,0,8,0c0-1.3,0-2.7,0-4c-1.3,0-2.7,0-4,0c0-1.3,0-2.7,0-4
		c2.7,0,5.3,0,8,0c0,1.3,0,2.7,0,4c1.3,0,2.7,0,4,0c0,1.3,0,2.7,0,4c-1.3,0-2.7,0-4,0c0,1.3,0,2.7,0,4c1.3,0,2.7,0,4,0
		c0,1.3,0,2.7,0,4c-1.3,0-2.7,0-4,0c0,1.3,0,2.7,0,4c1.3,0,2.7,0,4,0c0,1.3,0,2.7,0,4c2.7,0,5.3,0,8,0c0-1.3,0-2.7,0-4
		c-1.3,0-2.7,0-4,0c0-1.3,0-2.7,0-4c2.7,0,5.3,0,8,0c0,1.3,0,2.7,0,4c1.3,0,2.7,0,4,0c0,1.3,0,2.7,0,4c-1.3,0-2.7,0-4,0
		c0,1.3,0,2.7,0,4c1.3,0,2.7,0,4,0c0,1.3,0,2.7,0,4c-1.3,0-2.7,0-4,0c0,1.3,0,2.7,0,4c1.3,0,2.7,0,4,0c0,1.3,0,2.7,0,4
		c2.7,0,5.3,0,8,0c0-1.3,0-2.7,0-4c-1.3,0-2.7,0-4,0c0-1.3,0-2.7,0-4c2.7,0,5.3,0,8,0c0,1.3,0,2.7,0,4c1.3,0,2.7,0,4,0
		c0,1.3,0,2.7,0,4c2.7,0,5.3,0,8,0c0-1.3,0-2.7,0-4c-1.3,0-2.7,0-4,0c0-1.3,0-2.7,0-4c4,0,8,0,12,0c0-1.3,0-2.7,0-4
		c-1.3,0-2.7,0-4,0c0-1.3,0-2.7,0-4c1.3,0,2.7,0,4,0c0-1.3,0-2.7,0-4c-1.3,0-2.7,0-4,0c0-1.3,0-2.7,0-4c-2.7,0-5.3,0-8,0
		c0,1.3,0,2.7,0,4c1.3,0,2.7,0,4,0c0,1.3,0,2.7,0,4c-2.7,0-5.3,0-8,0c0-1.3,0-2.7,0-4c-1.3,0-2.7,0-4,0c0-1.3,0-2.7,0-4
		c1.3,0,2.7,0,4,0c0-1.3,0-2.7,0-4c-1.3,0-2.7,0-4,0c0-1.3,0-2.7,0-4c4,0,8,0,12,0c0-1.3,0-2.7,0-4c-1.3,0-2.7,0-4,0
		c0-1.3,0-2.7,0-4c2.7,0,5.3,0,8,0c0,1.3,0,2.7,0,4c1.3,0,2.7,0,4,0c0,1.3,0,2.7,0,4c2.7,0,5.3,0,8,0c0-1.3,0-2.7,0-4
		c-1.3,0-2.7,0-4,0c0-1.3,0-2.7,0-4c2.7,0,5.3,0,8,0c0,1.3,0,2.7,0,4c1.3,0,2.7,0,4,0c0,1.3,0,2.7,0,4c-1.3,0-2.7,0-4,0
		c0,1.3,0,2.7,0,4c1.3,0,2.7,0,4,0c0,1.3,0,2.7,0,4c-1.3,0-2.7,0-4,0c0,1.3,0,2.7,0,4c1.3,0,2.7,0,4,0c0,1.3,0,2.7,0,4
		c2.7,0,5.3,0,8,0c0-1.3,0-2.7,0-4c-1.3,0-2.7,0-4,0c0-1.3,0-2.7,0-4c2.7,0,5.3,0,8,0c0,1.3,0,2.7,0,4c1.3,0,2.7,0,4,0
		c0,1.3,0,2.7,0,4c-1.3,0-2.7,0-4,0c0,1.3,0,2.7,0,4c1.3,0,2.7,0,4,0c0,1.3,0,2.7,0,4c-4,0-8,0-12,0c0,1.3,0,2.7,0,4
		c1.3,0,2.7,0,4,0c0,1.3,0,2.7,0,4c-4,0-8,0-12,0c0,1.3,0,2.7,0,4c1.3,0,2.7,0,4,0c0,1.3,0,2.7,0,4c-1.3,0-2.7,0-4,0
		c0,1.3,0,2.7,0,4c1.3,0,2.7,0,4,0c0,1.3,0,2.7,0,4c2.7,0,5.3,0,8,0c0-1.3,0-2.7,0-4c-1.3,0-2.7,0-4,0c0-1.3,0-2.7,0-4
		c2.7,0,5.3,0,8,0c0,1.3,0,2.7,0,4c1.3,0,2.7,0,4,0c0,1.3,0,2.7,0,4c-1.3,0-2.7,0-4,0c0,1.3,0,2.7,0,4c1.3,0,2.7,0,4,0
		c0,1.3,0,2.7,0,4c-4,0-8,0-12,0c0,1.3,0,2.7,0,4c1.3,0,2.7,0,4,0c0,1.3,0,2.7,0,4c-4,0-8,0-12,0c0,1.3,0,2.7,0,4c1.3,0,2.7,0,4,0
		c0,1.3,0,2.7,0,4c-1.3,0-2.7,0-4,0c0,1.3,0,2.7,0,4c1.3,0,2.7,0,4,0c0,1.3,0,2.7,0,4c2.7,0,5.3,0,8,0c0-1.3,0-2.7,0-4
		c-1.3,0-2.7,0-4,0c0-1.3,0-2.7,0-4c2.7,0,5.3,0,8,0c0,1.3,0,2.7,0,4c1.3,0,2.7,0,4,0c0,1.3,0,2.7,0,4c-1.3,0-2.7,0-4,0
		c0,1.3,0,2.7,0,4c1.3,0,2.7,0,4,0c0,1.3,0,2.7,0,4c-1.3,0-2.7,0-4,0c0,1.3,0,2.7,0,4c1.3,0,2.7,0,4,0c0,1.3,0,2.7,0,4
		c2.7,0,5.3,0,8,0c0-1.3,0-2.7,0-4c-1.3,0-2.7,0-4,0c0-1.3,0-2.7,0-4c2.7,0,5.3,0,8,0c0,1.3,0,2.7,0,4c1.3,0,2.7,0,4,0
		c0,1.3,0,2.7,0,4c2.7,0,5.3,0,8,0c0-1.3,0-2.7,0-4c-1.3,0-2.7,0-4,0c0-1.3,0-2.7,0-4c4,0,8,0,12,0c0-1.3,0-2.7,0-4
		c-1.3,0-2.7,0-4,0c0-1.3,0-2.7,0-4c1.3,0,2.7,0,4,0c0-1.3,0-2.7,0-4c-1.3,0-2.7,0-4,0c0-1.3,0-2.7,0-4c-2.7,0-5.3,0-8,0
		c0,1.3,0,2.7,0,4c1.3,0,2.7,0,4,0c0,1.3,0,2.7,0,4c-2.7,0-5.3,0-8,0c0-1.3,0-2.7,0-4c-1.3,0-2.7,0-4,0c0-1.3,0-2.7,0-4
		c1.3,0,2.7,0,4,0c0-1.3,0-2.7,0-4c-1.3,0-2.7,0-4,0c0-1.3,0-2.7,0-4c4,0,8,0,12,0c0-1.3,0-2.7,0-4c-1.3,0-2.7,0-4,0
		c0-1.3,0-2.7,0-4c2.7,0,5.3,0,8,0c0,1.3,0,2.7,0,4c1.3,0,2.7,0,4,0c0,1.3,0,2.7,0,4c2.7,0,5.3,0,8,0c0-1.3,0-2.7,0-4
		c-1.3,0-2.7,0-4,0c0-1.3,0-2.7,0-4c2.7,0,5.3,0,8,0c0,1.3,0,2.7,0,4c1.3,0,2.7,0,4,0c0,1.3,0,2.7,0,4c-1.3,0-2.7,0-4,0
		c0,1.3,0,2.7,0,4c1.3,0,2.7,0,4,0c0,1.3,0,2.7,0,4c-1.3,0-2.7,0-4,0c0,1.3,0,2.7,0,4c1.3,0,2.7,0,4,0c0,1.3,0,2.7,0,4
		c2.7,0,5.3,0,8,0c0-1.3,0-2.7,0-4c-1.3,0-2.7,0-4,0c0-1.3,0-2.7,0-4c2.7,0,5.3,0,8,0c0,1.3,0,2.7,0,4c1.3,0,2.7,0,4,0
		c0,1.3,0,2.7,0,4c-1.3,0-2.7,0-4,0c0,1.3,0,2.7,0,4c1.3,0,2.7,0,4,0c0,1.3,0,2.7,0,4c-4,0-8,0-12,0c0,1.3,0,2.7,0,4
		c1.3,0,2.7,0,4,0c0,1.3,0,2.7,0,4c-4,0-8,0-12,0c0,1.3,0,2.7,0,4c1.3,0,2.7,0,4,0c0,1.3,0,2.7,0,4c-1.3,0-2.7,0-4,0
		c0,1.3,0,2.7,0,4c1.3,0,2.7,0,4,0c0,1.3,0,2.7,0,4c2.7,0,5.3,0,8,0c0-1.3,0-2.7,0-4c-1.3,0-2.7,0-4,0c0-1.3,0-2.7,0-4
		c2.7,0,5.3,0,8,0c0,1.3,0,2.7,0,4c1.3,0,2.7,0,4,0c0,1.3,0,2.7,0,4c-1.3,0-2.7,0-4,0c0,1.3,0,2.7,0,4c1.3,0,2.7,0,4,0
		c0,1.3,0,2.7,0,4c-4,0-8,0-12,0c0,1.3,0,2.7,0,4c1.3,0,2.7,0,4,0c0,1.3,0,2.7,0,4c-4,0-8,0-12,0c0,1.3,0,2.7,0,4c1.3,0,2.7,0,4,0
		c0,1.3,0,2.7,0,4c-1.3,0-2.7,0-4,0c0,1.3,0,2.7,0,4c1.3,0,2.7,0,4,0c0,1.3,0,2.7,0,4c2.7,0,5.3,0,8,0c0-1.3,0-2.7,0-4
		c-1.3,0-2.7,0-4,0c0-1.3,0-2.7,0-4c2.7,0,5.3,0,8,0c0,1.3,0,2.7,0,4c1.3,0,2.7,0,4,0c0,1.3,0,2.7,0,4c-1.3,0-2.7,0-4,0
		c0,1.3,0,2.7,0,4c1.3,0,2.7,0,4,0c0,1.3,0,2.7,0,4c-1.3,0-2.7,0-4,0c0,1.3,0,2.7,0,4c1.3,0,2.7,0,4,0c0,1.3,0,2.7,0,4
		c2.7,0,5.3,0,8,0c0-1.3,0-2.7,0-4c-1.3,0-2.7,0-4,0c0-1.3,0-2.7,0-4c2.7,0,5.3,0,8,0c0,1.3,0,2.7,0,4c1.3,0,2.7,0,4,0
		c0,1.3,0,2.7,0,4c2.7,0,5.3,0,8,0c0-1.3,0-2.7,0-4c-1.3,0-2.7,0-4,0c0-1.3,0-2.7,0-4c4,0,8,0,12,0c0-1.3,0-2.7,0-4
		c-1.3,0-2.7,0-4,0c0-1.3,0-2.7,0-4c1.3,0,2.7,0,4,0c0-1.3,0-2.7,0-4c-1.3,0-2.7,0-4,0c0-1.3,0-2.7,0-4c-2.7,0-5.3,0-8,0
		c0,1.3,0,2.7,0,4c1.3,0,2.7,0,4,0c0,1.3,0,2.7,0,4c-2.7,0-5.3,0-8,0c0-1.3,0-2.7,0-4c-1.3,0-2.7,0-4,0c0-1.3,0-2.7,0-4
		c1.3,0,2.7,0,4,0c0-1.3,0-2.7,0-4c-1.3,0-2.7,0-4,0c0-1.3,0-2.7,0-4c4,0,8,0,12,0c0-1.3,0-2.7,0-4c-1.3,0-2.7,0-4,0
		c0-1.3,0-2.7,0-4c2.7,0,5.3,0,8,0c0,1.3,0,2.7,0,4c1.3,0,2.7,0,4,0c0,1.3,0,2.7,0,4c2.7,0,5.3,0,8,0c0-1.3,0-2.7,0-4
		c-1.3,0-2.7,0-4,0c0-1.3,0-2.7,0-4c2.7,0,5.3,0,8,0c0,1.3,0,2.7,0,4c1.3,0,2.7,0,4,0c0,1.3,0,2.7,0,4c-1.3,0-2.7,0-4,0
		c0,1.3,0,2.7,0,4c1.3,0,2.7,0,4,0c0,1.3,0,2.7,0,4c-1.3,0-2.7,0-4,0c0,1.3,0,2.7,0,4c1.3,0,2.7,0,4,0c0,1.3,0,2.7,0,4
		c2.7,0,5.3,0,8,0c0-1.3,0-2.7,0-4c-1.3,0-2.7,0-4,0c0-1.3,0-2.7,0-4c2.7,0,5.3,0,8,0c0,1.3,0,2.7,0,4c1.3,0,2.7,0,4,0
		c0,1.3,0,2.7,0,4c-1.3,0-2.7,0-4,0c0,1.3,0,2.7,0,4c1.3,0,2.7,0,4,0c0,1.3,0,2.7,0,4c-1.3,0-2.7,0-4,0c0,1.3,0,2.7,0,4
		c1.3,0,2.7,0,4,0c0,1.3,0,2.7,0,4c2.7,0,5.3,0,8,0c0-1.3,0-2.7,0-4c-1.3,0-2.7,0-4,0c0-1.3,0-2.7,0-4c2.7,0,5.3,0,8,0
		c0,1.3,0,2.7,0,4c1.3,0,2.7,0,4,0c0,1.3,0,2.7,0,4c2.7,0,5.3,0,8,0c0-1.3,0-2.7,0-4c-1.3,0-2.7,0-4,0c0-1.3,0-2.7,0-4c4,0,8,0,12,0
		c0-1.3,0-2.7,0-4c-1.3,0-2.7,0-4,0c0-1.3,0-2.7,0-4c1.3,0,2.7,0,4,0c0-1.3,0-2.7,0-4c-1.3,0-2.7,0-4,0c0-1.3,0-2.7,0-4
		c-2.7,0-5.3,0-8,0c0,1.3,0,2.7,0,4c1.3,0,2.7,0,4,0c0,1.3,0,2.7,0,4c-2.7,0-5.3,0-8,0c0-1.3,0-2.7,0-4c-1.3,0-2.7,0-4,0
		c0-1.3,0-2.7,0-4c1.3,0,2.7,0,4,0c0-1.3,0-2.7,0-4c-1.3,0-2.7,0-4,0c0-1.3,0-2.7,0-4c4,0,8,0,12,0c0-1.3,0-2.7,0-4
		c-1.3,0-2.7,0-4,0c0-1.3,0-2.7,0-4c2.7,0,5.3,0,8,0c0,1.3,0,2.7,0,4c1.3,0,2.7,0,4,0c0,1.3,0,2.7,0,4c2.7,0,5.3,0,8,0
		c0-1.3,0-2.7,0-4c-1.3,0-2.7,0-4,0c0-1.3,0-2.7,0-4c2.7,0,5.3,0,8,0c0,1.3,0,2.7,0,4c1.3,0,2.7,0,4,0c0,1.3,0,2.7,0,4
		c2.7,0,5.3,0,8,0c0-1.3,0-2.7,0-4c-1.3,0-2.7,0-4,0c0-1.3,0-2.7,0-4c4,0,8,0,12,0c0-1.3,0-2.7,0-4c-1.3,0-2.7,0-4,0
		c0-1.3,0-2.7,0-4c1.3,0,2.7,0,4,0c0-1.3,0-2.7,0-4c-1.3,0-2.7,0-4,0c0-1.3,0-2.7,0-4c-2.7,0-5.3,0-8,0c0,1.3,0,2.7,0,4
		c1.3,0,2.7,0,4,0c0,1.3,0,2.7,0,4c-2.7,0-5.3,0-8,0c0-1.3,0-2.7,0-4c-1.3,0-2.7,0-4,0c0-1.3,0-2.7,0-4c1.3,0,2.7,0,4,0
		c0-1.3,0-2.7,0-4c-1.3,0-2.7,0-4,0c0-1.3,0-2.7,0-4c4,0,8,0,12,0c0-1.3,0-2.7,0-4c-1.3,0-2.7,0-4,0c0-1.3,0-2.7,0-4c4,0,8,0,12,0
		c0-1.3,0-2.7,0-4c-1.3,0-2.7,0-4,0c0-1.3,0-2.7,0-4c1.3,0,2.7,0,4,0c0-1.3,0-2.7,0-4c-1.3,0-2.7,0-4,0c0-1.3,0-2.7,0-4
		c-2.7,0-5.3,0-8,0c0,1.3,0,2.7,0,4c1.3,0,2.7,0,4,0c0,1.3,0,2.7,0,4c-2.7,0-5.3,0-8,0c0-1.3,0-2.7,0-4c-1.3,0-2.7,0-4,0
		c0-1.3,0-2.7,0-4c1.3,0,2.7,0,4,0c0-1.3,0-2.7,0-4c-1.3,0-2.7,0-4,0c0-1.3,0-2.7,0-4c1.3,0,2.7,0,4,0c0-1.3,0-2.7,0-4
		c-1.3,0-2.7,0-4,0c0-1.3,0-2.7,0-4c-2.7,0-5.3,0-8,0c0,1.3,0,2.7,0,4c1.3,0,2.7,0,4,0c0,1.3,0,2.7,0,4c-2.7,0-5.3,0-8,0
		c0-1.3,0-2.7,0-4c-1.3,0-2.7,0-4,0c0-1.3,0-2.7,0-4c-2.7,0-5.3,0-8,0c0,1.3,0,2.7,0,4c1.3,0,2.7,0,4,0c0,1.3,0,2.7,0,4
		c-4,0-8,0-12,0c0,1.3,0,2.7,0,4c1.3,0,2.7,0,4,0c0,1.3,0,2.7,0,4c-1.3,0-2.7,0-4,0c0,1.3,0,2.7,0,4c1.3,0,2.7,0,4,0
		c0,1.3,0,2.7,0,4c2.7,0,5.3,0,8,0c0-1.3,0-2.7,0-4c-0.7,0-1.3,0-2,0c0-0.7,0-1.3,0-2c1.3,0,2.7,0,4,0c0,2.7,0,5.3,0,8
		c-1.3,0-2.7,0-4,0c0,1.3,0,2.7,0,4c-1.3,0-2.7,0-4,0c0-1.3,0-2.7,0-4c-1.3,0-2.7,0-4,0c0,1.3,0,2.7,0,4c-1.3,0-2.7,0-4,0
		c0-4,0-8,0-12c-1.3,0-2.7,0-4,0c0,1.3,0,2.7,0,4c-1.3,0-2.7,0-4,0c0-2.7,0-5.3,0-8c1.3,0,2.7,0,4,0c0-1.3,0-2.7,0-4
		c1.3,0,2.7,0,4,0c0-2.7,0-5.3,0-8c-1.3,0-2.7,0-4,0c0,1.3,0,2.7,0,4c-1.3,0-2.7,0-4,0c0-2.7,0-5.3,0-8c1.3,0,2.7,0,4,0
		c0-1.3,0-2.7,0-4c1.3,0,2.7,0,4,0c0,1.3,0,2.7,0,4c1.3,0,2.7,0,4,0c0-1.3,0-2.7,0-4c1.3,0,2.7,0,4,0c0,1.3,0,2.7,0,4
		c1.3,0,2.7,0,4,0c0-1.3,0-2.7,0-4c1.3,0,2.7,0,4,0c0-2.7,0-5.3,0-8c-1.3,0-2.7,0-4,0c0,1.3,0,2.7,0,4c-1.3,0-2.7,0-4,0
		c0-2.7,0-5.3,0-8c1.3,0,2.7,0,4,0c0-1.3,0-2.7,0-4c1.3,0,2.7,0,4,0c0,1.3,0,2.7,0,4c1.3,0,2.7,0,4,0c0-1.3,0-2.7,0-4
		c1.3,0,2.7,0,4,0c0,4,0,8,0,12c1.3,0,2.7,0,4,0c0-1.3,0-2.7,0-4c1.3,0,2.7,0,4,0c0,4,0,8,0,12c1.3,0,2.7,0,4,0c0-1.3,0-2.7,0-4
		c1.3,0,2.7,0,4,0c0,1.3,0,2.7,0,4c1.3,0,2.7,0,4,0c0-1.3,0-2.7,0-4c1.3,0,2.7,0,4,0c0-2.7,0-5.3,0-8c-1.3,0-2.7,0-4,0
		c0,1.3,0,2.7,0,4c-1.3,0-2.7,0-4,0c0-2.7,0-5.3,0-8c1.3,0,2.7,0,4,0c0-1.3,0-2.7,0-4c1.3,0,2.7,0,4,0c0,1.3,0,2.7,0,4
		c1.3,0,2.7,0,4,0c0-1.3,0-2.7,0-4c1.3,0,2.7,0,4,0c0,4,0,8,0,12c1.3,0,2.7,0,4,0c0-1.3,0-2.7,0-4c1.3,0,2.7,0,4,0c0,2.7,0,5.3,0,8
		c-1.3,0-2.7,0-4,0c0,1.3,0,2.7,0,4c-1.3,0-2.7,0-4,0c0,2.7,0,5.3,0,8c1.3,0,2.7,0,4,0c0-1.3,0-2.7,0-4c1.3,0,2.7,0,4,0
		c0,2.7,0,5.3,0,8c-1.3,0-2.7,0-4,0c0,1.3,0,2.7,0,4c-1.3,0-2.7,0-4,0c0,2.7,0,5.3,0,8c1.3,0,2.7,0,4,0c0-1.3,0-2.7,0-4
		c1.3,0,2.7,0,4,0c0,4,0,8,0,12c1.3,0,2.7,0,4,0c0-1.3,0-2.7,0-4c1.3,0,2.7,0,4,0c0,1.3,0,2.7,0,4c1.3,0,2.7,0,4,0c0-1.3,0-2.7,0-4
		c1.3,0,2.7,0,4,0c0-2.7,0-5.3,0-8c-1.3,0-2.7,0-4,0c0,1.3,0,2.7,0,4c-1.3,0-2.7,0-4,0c0-2.7,0-5.3,0-8c1.3,0,2.7,0,4,0
		c0-1.3,0-2.7,0-4c1.3,0,2.7,0,4,0c0,1.3,0,2.7,0,4c1.3,0,2.7,0,4,0c0-1.3,0-2.7,0-4c1.3,0,2.7,0,4,0c0,4,0,8,0,12c1.3,0,2.7,0,4,0
		c0-1.3,0-2.7,0-4c1.3,0,2.7,0,4,0c0,2.7,0,5.3,0,8c-1.3,0-2.7,0-4,0c0,1.3,0,2.7,0,4c-1.3,0-2.7,0-4,0c0,2.7,0,5.3,0,8
		c1.3,0,2.7,0,4,0c0-1.3,0-2.7,0-4c1.3,0,2.7,0,4,0c0,2.7,0,5.3,0,8c-1.3,0-2.7,0-4,0c0,1.3,0,2.7,0,4c-1.3,0-2.7,0-4,0
		c0-1.3,0-2.7,0-4c-1.3,0-2.7,0-4,0c0,1.3,0,2.7,0,4c-1.3,0-2.7,0-4,0c0-1.3,0-2.7,0-4c-1.3,0-2.7,0-4,0c0,1.3,0,2.7,0,4
		c-1.3,0-2.7,0-4,0c0,2.7,0,5.3,0,8c1.3,0,2.7,0,4,0c0-1.3,0-2.7,0-4c1.3,0,2.7,0,4,0c0,2.7,0,5.3,0,8c-1.3,0-2.7,0-4,0
		c0,1.3,0,2.7,0,4c-1.3,0-2.7,0-4,0c0-1.3,0-2.7,0-4c-1.3,0-2.7,0-4,0c0,1.3,0,2.7,0,4c-1.3,0-2.7,0-4,0c0-1.3,0-2.7,0-4
		c-1.3,0-2.7,0-4,0c0,1.3,0,2.7,0,4c-1.3,0-2.7,0-4,0c0,2.7,0,5.3,0,8c1.3,0,2.7,0,4,0c0-1.3,0-2.7,0-4c1.3,0,2.7,0,4,0
		c0,2.7,0,5.3,0,8c-1.3,0-2.7,0-4,0c0,1.3,0,2.7,0,4c-1.3,0-2.7,0-4,0c0,2.7,0,5.3,0,8c1.3,0,2.7,0,4,0c0-1.3,0-2.7,0-4
		c1.3,0,2.7,0,4,0c0,4,0,8,0,12c1.3,0,2.7,0,4,0c0-1.3,0-2.7,0-4c1.3,0,2.7,0,4,0c0,1.3,0,2.7,0,4c1.3,0,2.7,0,4,0c0-1.3,0-2.7,0-4
		c1.3,0,2.7,0,4,0c0-2.7,0-5.3,0-8c-1.3,0-2.7,0-4,0c0,1.3,0,2.7,0,4c-1.3,0-2.7,0-4,0c0-2.7,0-5.3,0-8c1.3,0,2.7,0,4,0
		c0-1.3,0-2.7,0-4c1.3,0,2.7,0,4,0c0,1.3,0,2.7,0,4c1.3,0,2.7,0,4,0c0-1.3,0-2.7,0-4c1.3,0,2.7,0,4,0c0,4,0,8,0,12c1.3,0,2.7,0,4,0
		c0-1.3,0-2.7,0-4c1.3,0,2.7,0,4,0c0,2.7,0,5.3,0,8c-1.3,0-2.7,0-4,0c0,1.3,0,2.7,0,4c-1.3,0-2.7,0-4,0c0,2.7,0,5.3,0,8
		c1.3,0,2.7,0,4,0c0-1.3,0-2.7,0-4c1.3,0,2.7,0,4,0c0,2.7,0,5.3,0,8C610.7,358,609.3,358,608,358z"/>
</g>
</svg>
